<?xml version="1.0" encoding="utf-8"?>
<!-- Generator: Adobe Illustrator 23.0.1, SVG Export Plug-In . SVG Version: 6.00 Build 0)  -->
<svg version="1.1" id="Layer_1" xmlns="http://www.w3.org/2000/svg" xmlns:xlink="http://www.w3.org/1999/xlink" x="0px" y="0px"
	 viewBox="272.64 395.95 50 50" style="enable-background:new 272.64 395.95 50 50;" xml:space="preserve">
<style type="text/css">
	.st0{fill:#FFFFFF;}
</style>
<path class="st0" d="M312.09,434.98l-4.13-4.69v-15.38l4.13-4.69c0.09-0.1,0.14-0.23,0.14-0.37v-9.84c0-0.3-0.24-0.55-0.54-0.56
	h-5.31c-0.31,0-0.56,0.25-0.56,0.56v5.29h-4.59v-5.29c0-0.31-0.25-0.56-0.56-0.56h-5.33c-0.31,0-0.56,0.25-0.56,0.56v5.3l-4.87,0.04
	v-5.34c0-0.31-0.25-0.56-0.56-0.56h-5.76c-0.31,0-0.56,0.25-0.56,0.56l0,0v9.77c0,0.14,0.05,0.27,0.14,0.37l4.21,4.74v15.38
	l-4.2,4.56c-0.1,0.1-0.15,0.24-0.15,0.38v6.68c0,0.31,0.25,0.56,0.56,0.56h28.12c0.31,0,0.56-0.25,0.56-0.56v-6.54
	C312.25,435.21,312.19,435.07,312.09,434.98z M302.27,427.56c0,0.31-0.25,0.56-0.56,0.56h-8.43c-0.31,0-0.56-0.25-0.56-0.56v-6.9
	c0-2.64,2.14-4.78,4.78-4.78c2.64,0,4.78,2.14,4.78,4.78V427.56z"/>
</svg>
