<?xml version="1.0" encoding="utf-8"?>
<!-- Generator: Adobe Illustrator 23.0.1, SVG Export Plug-In . SVG Version: 6.00 Build 0)  -->
<svg version="1.1" id="Layer_1" xmlns="http://www.w3.org/2000/svg" xmlns:xlink="http://www.w3.org/1999/xlink" x="0px" y="0px"
	 viewBox="272.64 395.95 50 50" style="enable-background:new 272.64 395.95 50 50;" xml:space="preserve">
<style type="text/css">
	.st0{fill:#FFFFFF;}
</style>
<path class="st0" d="M308.7,403.3c0.53,0.42,1.04,0.89,1.53,1.4c3.53,3.51,5.3,7.74,5.3,12.69c0,4.93-1.77,9.14-5.3,12.63
	c-0.06,0.08-0.11,0.19-0.17,0.32c-0.14,0.08-0.26,0.19-0.38,0.34l-10.12,10.65c-1.31,1.49-2.6,1.49-3.87,0l-10.48-11.08
	c-0.06-0.08-0.11-0.16-0.17-0.24c-3.53-3.49-5.3-7.7-5.3-12.63c0-4.95,1.77-9.18,5.3-12.69c0.49-0.51,1.01-0.98,1.57-1.4
	c3.12-2.57,6.81-3.85,11.06-3.85C301.88,399.45,305.55,400.73,308.7,403.3z M313.16,417.34c0-4.26-1.52-7.91-4.57-10.96
	c-3.04-3.04-6.71-4.57-10.99-4.57c-4.26,0-7.91,1.52-10.96,4.57c-3.04,3.04-4.57,6.7-4.57,10.96c0,4.26,1.52,7.91,4.57,10.96
	c3.04,3.04,6.7,4.57,10.96,4.57c4.28,0,7.95-1.52,10.99-4.57C311.64,425.25,313.16,421.6,313.16,417.34z M306.19,412.04
	c0.19,0.05,0.37,0.09,0.55,0.12c1.48,0.47,2.18,1.62,2.1,3.46l-0.09,9.05h-2.01v-3.02h-18.28v3.02h-2.01v-14.69h2.01v9.29h8.04
	v-7.22H306.19z M289.78,415.24c0-0.66,0.23-1.24,0.7-1.74c0.49-0.45,1.06-0.68,1.72-0.68c0.64,0,1.19,0.23,1.65,0.68
	c0.51,0.5,0.77,1.08,0.77,1.74c0,0.66-0.26,1.22-0.77,1.69c-0.47,0.49-1.02,0.73-1.65,0.73c-0.66,0-1.23-0.24-1.72-0.73
	C290.02,416.46,289.78,415.9,289.78,415.24z"/>
</svg>
