<?xml version="1.0" encoding="utf-8"?>
<!-- Generator: Adobe Illustrator 23.0.3, SVG Export Plug-In . SVG Version: 6.00 Build 0)  -->
<svg version="1.1" id="Layer_1" xmlns="http://www.w3.org/2000/svg" xmlns:xlink="http://www.w3.org/1999/xlink" x="0px" y="0px"
	 viewBox="395.9 272.6 50 50" style="enable-background:new 395.9 272.6 50 50;" xml:space="preserve">
<style type="text/css">
	.st0{fill:#FFFFFF;}
</style>
<path class="st0" d="M421.6,280.1c0,0.3-0.3,0.6-0.6,0.6h-18.4c-0.3,0-0.6-0.3-0.6-0.6c0-0.3,0.3-0.6,0.6-0.6h18.4
	C421.3,279.5,421.6,279.7,421.6,280.1z M420.9,285.5h-18.4c-0.3,0-0.6,0.3-0.6,0.6c0,0.3,0.3,0.6,0.6,0.6h18.4
	c0.3,0,0.6-0.3,0.6-0.6C421.6,285.8,421.3,285.5,420.9,285.5z M420.9,291.5h-18.4c-0.3,0-0.6,0.3-0.6,0.6c0,0.3,0.3,0.6,0.6,0.6
	h18.4c0.3,0,0.6-0.3,0.6-0.6C421.6,291.8,421.3,291.5,420.9,291.5z M445.9,279.6V322c0,0.3-0.3,0.6-0.6,0.6h-30
	c-0.3,0-0.6-0.3-0.6-0.6v-5.7h-18.1c-0.3,0-0.6-0.3-0.6-0.6v-42.5c0-0.3,0.3-0.6,0.6-0.6h30c0.3,0,0.6,0.3,0.6,0.6v5.7h18.1
	C445.7,278.9,445.9,279.2,445.9,279.6z M397.2,315.1h28.7v-41.2h-28.7V315.1z M415.9,316.3v4.6l8.2-4.6H415.9z M444.7,280.2h-17.5
	v35.5c0,0,0,0.1,0,0.1c0,0,0,0.1,0,0.1c0,0,0,0.1-0.1,0.1c0,0,0,0.1-0.1,0.1c0,0-0.1,0.1-0.1,0.1c0,0,0,0-0.1,0.1l-9.2,5.1h27V280.2
	z"/>
</svg>
