<?xml version="1.0" encoding="utf-8"?>
<!-- Generator: Adobe Illustrator 23.0.3, SVG Export Plug-In . SVG Version: 6.00 Build 0)  -->
<svg version="1.1" id="Layer_1" xmlns="http://www.w3.org/2000/svg" xmlns:xlink="http://www.w3.org/1999/xlink" x="0px" y="0px"
	 viewBox="395.9 272.6 50 50" style="enable-background:new 395.9 272.6 50 50;" xml:space="preserve">
<style type="text/css">
	.st0{fill:#FFFFFF;}
</style>
<g>
	<path class="st0" d="M440.9,282.6h-22.7l-3.8-5.3c-0.6-0.9-1.6-1.4-2.7-1.4h-10.8c-2.8,0-5,2.2-5,5v33.3c0,2.8,2.2,5,5,5h40
		c2.8,0,5-2.2,5-5v-26.7C445.9,284.9,443.7,282.6,440.9,282.6z M400.9,279.3h10.8l2.4,3.3h-13.2c-0.6,0-1.1,0.1-1.7,0.3v-2
		C399.3,280.1,400,279.3,400.9,279.3z M442.6,314.3c0,0.9-0.7,1.7-1.7,1.7h-40c-0.9,0-1.7-0.7-1.7-1.7v-26.7c0-0.9,0.7-1.7,1.7-1.7
		h40c0.9,0,1.7,0.7,1.7,1.7V314.3z"/>
</g>
</svg>
