<?xml version="1.0" encoding="utf-8"?>
<!-- Generator: Adobe Illustrator 23.0.3, SVG Export Plug-In . SVG Version: 6.00 Build 0)  -->
<svg version="1.1" id="Layer_1" xmlns="http://www.w3.org/2000/svg" xmlns:xlink="http://www.w3.org/1999/xlink" x="0px" y="0px"
	 viewBox="395.9 272.6 50 50" style="enable-background:new 395.9 272.6 50 50;" xml:space="preserve">
<style type="text/css">
	.st0{fill:#FFFFFF;}
</style>
<g>
	<path class="st0" d="M401.7,279.7c-3.2,0-5.7,2.5-5.7,5.7v17.1c0,0.1,0,0.2,0,0.4v7.1c0,3.1,2.6,5.7,5.7,5.7h38.5
		c3.2,0,5.7-2.6,5.7-5.7v-7.5c0-0.1,0-0.1,0-0.2v-16.8c0-3.1-2.6-5.7-5.7-5.7L401.7,279.7L401.7,279.7z M401.7,280.9h38.5
		c2.5,0,4.5,2,4.5,4.4V301l-6.4-5.4c-0.2-0.2-0.6-0.2-0.8,0l-7.8,6.6l-14.7-12.5c-0.1-0.1-0.3-0.2-0.5-0.1c-0.1,0-0.2,0-0.2,0.1
		l-17,11.8v-16.1C397.2,282.9,399.2,280.9,401.7,280.9L401.7,280.9z M429.8,285c-2.4,0-4.3,2-4.3,4.3c0,2.4,1.9,4.3,4.3,4.3
		c2.4,0,4.3-1.9,4.3-4.3C434.1,287,432.1,285,429.8,285L429.8,285z M429.4,286.3c0.1,0,0.2,0,0.3,0c1.7,0,3.1,1.4,3.1,3.1
		c0,1.7-1.4,3.1-3.1,3.1c-1.7,0-3.1-1.4-3.1-3.1C426.7,287.7,427.9,286.4,429.4,286.3L429.4,286.3z M414.5,290.9l14.7,12.5
		c0.2,0.2,0.6,0.2,0.8,0l7.8-6.6l6.8,5.8v7.3c0,2.5-2,4.5-4.5,4.5h-38.5c-2.5,0-4.5-2-4.5-4.5v-7L414.5,290.9L414.5,290.9z"/>
</g>
</svg>
