<?xml version="1.0" encoding="utf-8"?>
<!-- Generator: Adobe Illustrator 23.0.3, SVG Export Plug-In . SVG Version: 6.00 Build 0)  -->
<svg version="1.1" id="Layer_1" xmlns="http://www.w3.org/2000/svg" xmlns:xlink="http://www.w3.org/1999/xlink" x="0px" y="0px"
	 viewBox="395.9 272.6 50 50" style="enable-background:new 395.9 272.6 50 50;" xml:space="preserve">
<style type="text/css">
	.st0{fill:#FFFFFF;}
</style>
<g transform="translate(0,-952.36218)">
	<path class="st0" d="M404.9,1232.1c-4.9,0-8.9,4-8.9,8.9v17.9c0,4.9,4,8.9,8.9,8.9H437c4.9,0,8.9-4,8.9-8.9v-17.9
		c0-4.9-4-8.9-8.9-8.9H404.9z M404.9,1233.3H437c4.3,0,7.7,3.4,7.7,7.7v17.9c0,4.3-3.4,7.7-7.7,7.7h-32.1c-4.3,0-7.7-3.4-7.7-7.7
		v-17.9C397.1,1236.8,400.6,1233.3,404.9,1233.3z M416.8,1242.3v15.5l13.1-7.7L416.8,1242.3z"/>
</g>
</svg>
