<?xml version="1.0" encoding="utf-8"?>
<!-- Generator: Adobe Illustrator 23.0.1, SVG Export Plug-In . SVG Version: 6.00 Build 0)  -->
<svg version="1.1" id="Layer_1" xmlns="http://www.w3.org/2000/svg" xmlns:xlink="http://www.w3.org/1999/xlink" x="0px" y="0px"
	 viewBox="0 0 50 50" style="enable-background:new 0 0 50 50;" xml:space="preserve">
<style type="text/css">
	.st0{fill:#FFFFFF;}
</style>
<g>
	<g>
		<path class="st0" d="M27.9,25.1L48.5,4.5c0.7-0.8,0.7-2.1,0-2.9c-0.8-0.8-2-0.8-2.8,0l0,0L25.1,22.2L4.5,1.6
			C3.7,0.9,2.4,0.9,1.6,1.7c-0.7,0.8-0.7,2,0,2.7l20.6,20.7L1.6,45.5c-0.8,0.8-0.8,2,0,2.8c0.8,0.8,2,0.8,2.8,0l20.7-20.4l20.4,20.6
			c0.4,0.4,0.9,0.5,1.5,0.5c1.1,0,2-0.9,2-2c0-0.5-0.3-1.1-0.5-1.3L27.9,25.1z"/>
	</g>
</g>
</svg>
