<?xml version="1.0" encoding="utf-8"?>
<!-- Generator: Adobe Illustrator 23.0.1, SVG Export Plug-In . SVG Version: 6.00 Build 0)  -->
<svg version="1.1" id="Layer_1" xmlns="http://www.w3.org/2000/svg" xmlns:xlink="http://www.w3.org/1999/xlink" x="0px" y="0px"
	 viewBox="291 381 30 30" style="enable-background:new 291 381 30 30;" xml:space="preserve">
<style type="text/css">
	.st0{fill:#8DD2CC;}
</style>
<path class="st0" d="M295.3,393.6c-0.7-0.7-0.7-1.9,0-2.6c0,0,0,0,0,0c0.7-0.7,1.9-0.7,2.6,0l6.2,6.2v-14.3c0-1,0.8-1.9,1.9-1.9h0
	c1,0,1.9,0.8,1.9,1.9v14.3l6.2-6.2c0,0,0,0,0,0c0.7-0.7,1.9-0.7,2.6,0c0,0,0,0,0,0c0.7,0.7,0.7,1.9,0,2.6l-9.4,9.4
	c-0.3,0.4-0.8,0.6-1.3,0.6c-0.5,0-1-0.2-1.3-0.6L295.3,393.6C295.3,393.6,295.3,393.6,295.3,393.6z M319.1,401.6L319.1,401.6
	c-1.1,0-1.9,0.8-1.9,1.9v3.8h-22.5v-3.8c0-1-0.8-1.9-1.9-1.9h-0.1c-1,0-1.9,0.8-1.9,1.9v5.6c0,1,0.8,1.9,1.9,1.9h26.3
	c1,0,1.9-0.8,1.9-1.9v-5.6C321,402.5,320.2,401.6,319.1,401.6z"/>
</svg>
