<?xml version="1.0" encoding="utf-8"?>
<!-- Generator: Adobe Illustrator 23.0.1, SVG Export Plug-In . SVG Version: 6.00 Build 0)  -->
<svg version="1.1" id="Layer_1" xmlns="http://www.w3.org/2000/svg" xmlns:xlink="http://www.w3.org/1999/xlink" x="0px" y="0px"
	 viewBox="0 0 10 10" style="enable-background:new 0 0 10 10;" xml:space="preserve">
<style type="text/css">
	.st0{fill:#FFFFFF;}
</style>
<g>
	<path class="st0" d="M4,1.7c0.1,0.1,0.2,0.1,0.4,0.2C4.6,1.9,4.8,2,5,2l0,0l0,0c0.2,0,0.4-0.1,0.6-0.1C5.7,1.8,5.9,1.8,6,1.7
		c0,0,0,0,0-0.1c0,0,0,0,0-0.1c0,0,0,0,0,0c0,0,0,0,0,0c0,0,0,0,0,0c0,0,0,0,0,0c0,0,0-0.1,0-0.1c0,0.1,0,0.1,0,0.1
		c-0.1,0-0.2,0.1-0.4,0.1C5.4,1.7,5.2,1.8,5,1.8c-0.2,0-0.4-0.1-0.6-0.1C4.3,1.6,4.1,1.6,4,1.5c0,0-0.1,0,0-0.1c0,0,0,0.1,0,0.1
		c0,0,0,0,0,0c0,0,0,0,0,0c0,0,0,0,0,0l0,0C4,1.5,4,1.6,4,1.7C4,1.6,4,1.7,4,1.7z"/>
	<path class="st0" d="M4.7,0.8c0.1,0,0.2,0,0.3,0.1l0,0l0,0c0.1,0,0.2,0,0.3-0.1c0.1,0,0.2-0.1,0.2-0.1c0,0,0,0,0-0.1c0,0,0,0,0,0
		c0,0,0,0,0,0c0,0,0,0,0,0c0,0,0,0,0,0c0,0,0,0,0,0c0,0,0,0.1,0,0.1c0,0-0.1,0-0.1,0.1c-0.1,0-0.2,0-0.3,0.1c-0.1,0-0.2,0-0.3-0.1
		c-0.1,0-0.1,0-0.1-0.1c0,0,0,0,0-0.1c0,0,0,0,0,0c0,0,0,0,0,0c0,0,0,0,0,0v0c0,0,0,0,0,0c0,0,0,0,0,0.1C4.6,0.7,4.6,0.7,4.7,0.8z"
		/>
	<path class="st0" d="M5.3,0.3C5.3,0.3,5.3,0.3,5.3,0.3c0,0-0.1-0.1-0.1-0.2c0,0,0,0,0,0c0,0,0,0,0,0c-0.1-0.1-0.2,0-0.2,0
		c0,0,0,0,0,0c0,0,0,0,0,0C4.8,0.2,4.7,0.3,4.6,0.3c0,0,0,0,0,0C4.8,0.3,5,0.2,5.3,0.3z"/>
	<path class="st0" d="M4,1.8c0,0,0,0.1,0,0.1l0,0c0,0,0,0,0,0.1c0,0,0,0,0,0c0,0,0,0,0,0C4,2.1,4,2.1,4,2.1c0.1,0.1,0.2,0.1,0.4,0.2
		C4.6,2.3,4.8,2.4,5,2.4l0,0l0,0c0.2,0,0.4-0.1,0.6-0.1c0.2,0,0.3-0.1,0.4-0.2C6,2.1,6,2.1,6,2c0,0,0,0,0,0h0c0,0,0,0,0,0
		c0,0,0,0,0-0.1c0,0,0,0,0,0c0,0,0-0.1,0-0.1c0,0,0,0,0,0C6,1.9,6,1.9,6,1.9C5.9,2,5.7,2,5.6,2.1C5.4,2.1,5.2,2.2,5,2.2
		c-0.2,0-0.4-0.1-0.6-0.1C4.2,2,4.1,2,4,1.9C4,1.9,4,1.9,4,1.8C4,1.8,4,1.8,4,1.8z"/>
	<path class="st0" d="M4.3,0.9C4.3,1,4.5,1,4.6,1.1c0.1,0,0.2,0.1,0.4,0.1l0,0l0,0c0.1,0,0.3-0.1,0.4-0.1C5.5,1,5.7,1,5.7,0.9
		c0,0,0,0,0-0.1c0,0,0,0,0,0c0,0,0,0,0,0c0,0,0,0,0,0c0,0,0,0,0,0h0c0,0,0-0.1-0.1-0.1c0,0,0,0.1,0,0.1c-0.1,0-0.1,0.1-0.2,0.1
		C5.3,0.9,5.1,1,5,1c-0.1,0-0.3,0-0.4-0.1c-0.1,0-0.2-0.1-0.2-0.1c0,0,0-0.1,0-0.1c0,0,0,0.1-0.1,0.1c0,0,0,0,0,0c0,0,0,0,0,0
		C4.3,0.8,4.3,0.8,4.3,0.9L4.3,0.9C4.3,0.8,4.3,0.8,4.3,0.9C4.2,0.9,4.3,0.9,4.3,0.9z"/>
	<path class="st0" d="M4.1,1.1C4.1,1.1,4.1,1.1,4.1,1.1C4.1,1.1,4.1,1.1,4.1,1.1C4.1,1.2,4.1,1.2,4.1,1.1L4.1,1.1
		C4.1,1.2,4.1,1.2,4.1,1.1c0,0.1,0,0.2,0,0.2c0.1,0.1,0.2,0.1,0.4,0.2c0.1,0,0.3,0.1,0.5,0.1l0,0l0,0c0.2,0,0.3-0.1,0.5-0.1
		c0.2-0.1,0.3-0.1,0.4-0.2c0,0,0,0,0-0.1c0,0,0,0,0,0c0,0,0,0,0,0c0,0,0,0,0,0c0,0,0,0,0,0c0,0,0,0,0,0c0,0,0,0,0-0.1
		c0,0,0,0.1,0,0.1c-0.1,0-0.2,0.1-0.3,0.1C5.4,1.3,5.2,1.3,5,1.4c-0.2,0-0.4-0.1-0.5-0.1C4.3,1.2,4.2,1.2,4.1,1.1
		C4.1,1.1,4.1,1.1,4.1,1.1C4.1,1.1,4.1,1.1,4.1,1.1z"/>
	<path class="st0" d="M5,4.6C5,4.6,5,4.6,5,4.6C5,4.6,5,4.6,5,4.6C5,4.6,5,4.6,5,4.6C5,4.6,5,4.6,5,4.6C5,4.6,5,4.6,5,4.6
		C5,4.6,5,4.6,5,4.6C5,4.6,5,4.6,5,4.6C5,4.6,5,4.6,5,4.6C5,4.6,5,4.6,5,4.6C5.1,4.6,5.1,4.6,5,4.6c0.2,0,0.2-0.1,0.3-0.3l0.1-0.2
		c0,0,0,0,0,0c0,0.1-0.1,0.1-0.1,0.1c0,0,0,0,0,0c0,0-0.1,0-0.2,0c-0.1,0-0.1,0-0.2,0c0,0,0,0,0,0c0,0-0.1,0-0.1-0.1c0,0,0,0,0,0
		l0,0.1l0,0l0,0C4.8,4.5,4.9,4.6,5,4.6z"/>
	<polygon class="st0" points="4,2.2 4,2.2 4,2.2 	"/>
	<path class="st0" d="M5.9,2.4c-0.1,0-0.2,0.1-0.3,0.1C5.4,2.6,5.2,2.6,5,2.6c-0.2,0-0.4-0.1-0.6-0.1c-0.1,0-0.2-0.1-0.3-0.1
		c0,0-0.1,0-0.1-0.2c0,0,0,0.1,0,0.1h0c0,0,0,0,0,0c0,0,0,0,0,0.1c0,0,0,0,0,0c0,0,0,0,0,0c0,0.1,0.1,0.1,0.1,0.1
		c0.1,0,0.2,0.1,0.3,0.1c0.2,0,0.3,0.1,0.5,0.1l0,0l0,0c0.2,0,0.4-0.1,0.5-0.1c0.1,0,0.2-0.1,0.3-0.1C5.9,2.6,5.9,2.6,5.9,2.4
		C5.9,2.5,5.9,2.5,5.9,2.4L5.9,2.4C5.9,2.4,5.9,2.4,5.9,2.4C6,2.4,6,2.4,5.9,2.4L5.9,2.4C6,2.3,6,2.3,6,2.2C6,2.4,5.9,2.4,5.9,2.4z"
		/>
	<path class="st0" d="M5.7,3l0.1-0.1l0-0.1c0,0,0,0,0,0c0,0,0,0,0,0C5.8,2.8,5.7,2.9,5.7,3c-0.1-0.1-0.2,0-0.3,0C5.3,3,5.2,3,5,3
		C4.8,3,4.7,3,4.5,3c-0.1,0-0.2-0.1-0.2-0.1c0,0-0.1-0.1-0.1-0.1c0,0,0,0,0,0c0,0,0,0,0,0l0,0.1l0,0.1c0,0.1,0.1,0.1,0.1,0.1
		c0.1,0,0.1,0,0.2,0.1c0.1,0,0.3,0.1,0.4,0.1l0,0l0,0c0.2,0,0.3-0.1,0.4-0.1c0.1,0,0.1,0,0.2-0.1C5.7,3.1,5.7,3,5.7,3z"/>
	<polygon class="st0" points="5.8,2.7 5.8,2.7 5.8,2.7 	"/>
	<path class="st0" d="M5.4,3.8c0,0-0.1,0-0.1,0c-0.1,0-0.2,0-0.3,0c-0.1,0-0.2,0-0.3,0c0,0-0.1,0-0.1,0c0,0-0.1,0-0.1-0.1
		c0,0,0,0,0,0l0,0.1l0,0.1C4.6,4,4.7,4,4.7,4c0,0,0,0,0,0c0.1,0,0.2,0,0.3,0.1l0,0l0,0c0.1,0,0.2,0,0.3-0.1c0,0,0,0,0,0
		C5.3,4,5.4,4,5.4,3.8C5.4,3.9,5.4,3.9,5.4,3.8L5.4,3.8l0.1-0.2c0,0,0,0,0,0C5.4,3.8,5.4,3.8,5.4,3.8z"/>
	<path class="st0" d="M5.5,3.4c0,0-0.1,0-0.2,0.1c-0.1,0-0.2,0-0.4,0.1c-0.1,0-0.3,0-0.4-0.1c-0.1,0-0.1,0-0.2-0.1
		c0,0-0.1-0.1-0.1-0.1c0,0,0,0,0,0l0.1,0.2l0,0c0,0,0,0,0,0c0,0.1,0.1,0.1,0.1,0.1c0,0,0.1,0,0.1,0c0.1,0,0.2,0.1,0.4,0.1l0,0l0,0
		c0.1,0,0.2,0,0.4-0.1c0,0,0.1,0,0.1,0C5.5,3.5,5.5,3.5,5.5,3.4C5.6,3.4,5.6,3.4,5.5,3.4L5.5,3.4l0.1-0.2c0,0,0,0,0,0
		C5.6,3.3,5.6,3.3,5.5,3.4z"/>
	<polygon class="st0" points="6,2.2 6,2.2 6,2.2 	"/>
	<path class="st0" d="M4,7.8C4,7.8,4,7.8,4,7.8C4,7.8,4,7.8,4,7.8C4,7.8,4,7.8,4,7.8z"/>
	<polygon class="st0" points="6,7.8 6,7.8 6,7.8 	"/>
	<path class="st0" d="M4.7,5.8C4.7,5.8,4.7,5.8,4.7,5.8c0-0.1,0.1-0.1,0.1-0.1c0,0,0,0,0,0c0,0,0.1,0,0.2,0c0.1,0,0.1,0,0.2,0
		c0,0,0,0,0,0c0,0,0.1,0,0.1,0.1c0,0,0,0,0,0L5.2,5.7C5.2,5.5,5.1,5.4,5.1,5.4c0,0,0,0,0,0c0,0,0,0,0,0c0,0,0,0,0,0c0,0,0,0,0,0
		c0,0,0,0,0,0c0,0,0,0,0,0c0,0,0,0,0,0c0,0,0,0,0,0c0,0,0,0,0,0c0,0,0,0,0,0c-0.1,0-0.2,0.1-0.2,0.3l0,0l0,0L4.7,5.8z"/>
	<path class="st0" d="M4.5,6.6c0,0,0.1,0,0.2-0.1c0.1,0,0.2,0,0.4-0.1c0.1,0,0.3,0,0.4,0.1c0.1,0,0.1,0,0.2,0.1c0,0,0.1,0.1,0.1,0.1
		c0,0,0,0,0,0l0-0.1l0-0.1c0,0,0,0,0,0c0-0.1-0.1-0.1-0.1-0.1c0,0-0.1,0-0.1,0C5.3,6.4,5.1,6.4,5,6.3l0,0l0,0c-0.1,0-0.2,0-0.4,0.1
		c0,0-0.1,0-0.1,0C4.5,6.5,4.5,6.5,4.5,6.6C4.4,6.6,4.4,6.6,4.5,6.6L4.5,6.6L4.3,6.8c0,0,0,0,0,0C4.4,6.7,4.4,6.7,4.5,6.6z"/>
	<path class="st0" d="M4.1,7.6c0.1,0,0.2-0.1,0.3-0.1c0.2,0,0.4-0.1,0.6-0.1c0.2,0,0.4,0.1,0.6,0.1c0.1,0,0.2,0.1,0.3,0.1
		c0,0,0.1,0,0.1,0.2c0,0,0-0.1,0-0.1c0,0,0,0,0,0c0,0,0,0,0,0c0,0,0,0,0-0.1l0,0c0,0,0,0,0,0c0-0.1-0.1-0.1-0.1-0.1
		c-0.1,0-0.2-0.1-0.3-0.1C5.4,7.2,5.2,7.2,5,7.2l0,0l0,0c-0.2,0-0.4,0.1-0.5,0.1c-0.1,0-0.2,0.1-0.3,0.1C4.1,7.4,4.1,7.4,4.1,7.6
		C4.1,7.5,4.1,7.5,4.1,7.6L4.1,7.6C4.1,7.6,4.1,7.6,4.1,7.6C4,7.6,4,7.6,4.1,7.6L4.1,7.6C4,7.7,4,7.7,4,7.8C4,7.6,4.1,7.6,4.1,7.6z"
		/>
	<path class="st0" d="M4.3,7L4.3,7L4.2,7.2c0,0,0,0,0,0c0,0,0,0,0,0C4.2,7.2,4.3,7.1,4.3,7c0.1,0.1,0.2,0,0.3,0C4.7,7,4.8,7,5,7
		C5.2,7,5.3,7,5.5,7c0.1,0,0.2,0,0.2,0.1c0,0,0.1,0.1,0.1,0.1c0,0,0,0,0,0c0,0,0,0,0,0l0-0.1L5.7,7c0-0.1-0.1-0.1-0.1-0.1
		c-0.1,0-0.1,0-0.2-0.1C5.3,6.8,5.2,6.8,5,6.8l0,0l0,0c-0.2,0-0.3,0.1-0.4,0.1c-0.1,0-0.1,0-0.2,0.1C4.3,6.9,4.3,7,4.3,7z"/>
	<polygon class="st0" points="5.8,7.3 5.8,7.3 5.8,7.3 	"/>
	<path class="st0" d="M5.9,8.7C5.8,8.6,5.7,8.6,5.5,8.5C5.4,8.5,5.2,8.4,5,8.4l0,0l0,0c-0.2,0-0.3,0.1-0.5,0.1
		C4.3,8.6,4.2,8.6,4.1,8.7c0,0,0,0,0,0.1c0,0,0,0,0,0v0c0,0,0,0,0,0c0,0,0,0,0,0c0,0,0,0,0,0c0,0,0,0,0,0.1c0,0,0-0.1,0-0.1
		c0.1,0,0.2-0.1,0.3-0.1c0.2,0,0.3-0.1,0.5-0.1c0.2,0,0.4,0.1,0.5,0.1c0.1,0,0.2,0.1,0.3,0.1c0,0,0,0.1,0,0.1c0,0,0,0,0-0.1
		c0,0,0,0,0,0c0,0,0,0,0,0c0,0,0,0,0,0c0,0,0,0,0,0C5.9,8.8,5.9,8.8,5.9,8.7C5.9,8.8,5.9,8.7,5.9,8.7z"/>
	<path class="st0" d="M4.5,6.3c0-0.1,0.1-0.1,0.1-0.1c0,0,0.1,0,0.1,0c0.1,0,0.2,0,0.3,0c0.1,0,0.2,0,0.3,0c0,0,0.1,0,0.1,0
		c0,0,0.1,0,0.1,0.1c0,0,0,0,0,0L5.4,6.1l0,0c0,0,0,0,0,0C5.4,6,5.3,6,5.3,6c0,0,0,0,0,0C5.2,6,5.1,5.9,5,5.9l0,0l0,0
		C4.9,5.9,4.8,6,4.7,6c0,0,0,0,0,0c0,0-0.1,0-0.1,0.1l0,0.1L4.5,6.3C4.5,6.3,4.5,6.3,4.5,6.3z"/>
	<path class="st0" d="M4.7,9.7C4.7,9.7,4.7,9.7,4.7,9.7c0,0.1,0.1,0.1,0.2,0.2c0,0,0,0,0,0c0,0,0,0,0,0c0,0,0.1,0.1,0.2,0
		c0,0,0,0,0,0c0,0,0,0,0,0c0.1-0.1,0.1-0.1,0.2-0.2c0,0-0.1,0-0.1,0C5,9.8,4.8,9.7,4.7,9.7z"/>
	<path class="st0" d="M5.3,9.3c-0.1,0-0.2,0-0.3-0.1l0,0l0,0c-0.1,0-0.2,0-0.3,0.1c-0.1,0-0.2,0.1-0.2,0.1c0,0,0,0,0,0.1
		c0,0,0,0,0,0c0,0,0,0,0,0c0,0,0,0,0,0c0,0,0,0,0,0c0,0,0-0.1,0-0.1c0,0,0.1,0,0.1-0.1c0.1,0,0.2,0,0.3-0.1c0.1,0,0.2,0,0.3,0.1
		c0.1,0,0.1,0,0.1,0.1c0,0,0,0,0,0.1c0,0,0,0,0,0c0,0,0,0,0,0c0,0,0,0,0,0c0,0,0,0,0,0c0,0,0,0,0,0c0,0,0,0,0-0.1
		C5.4,9.4,5.4,9.3,5.3,9.3z"/>
	<path class="st0" d="M6,8.2c0,0,0-0.1,0-0.1h0c0,0,0,0,0-0.1c0,0,0,0,0,0h0c0,0,0,0,0,0C6,7.9,6,7.9,6,7.9C5.9,7.8,5.7,7.8,5.6,7.7
		C5.4,7.7,5.2,7.6,5,7.6l0,0l0,0c-0.2,0-0.4,0.1-0.6,0.1C4.3,7.8,4.1,7.8,4,7.9C4,7.9,4,7.9,4,8c0,0,0,0,0,0h0c0,0,0,0,0,0
		c0,0,0,0,0,0.1c0,0,0,0.1,0,0.1c0,0,0,0,0,0C4,8.1,4,8.1,4,8.1C4.1,8,4.2,8,4.4,7.9C4.6,7.9,4.8,7.8,5,7.8c0.2,0,0.4,0.1,0.6,0.1
		C5.7,8,5.9,8,6,8.1C6,8.1,6,8.1,6,8.2C6,8.2,6,8.2,6,8.2z"/>
	<path class="st0" d="M5.7,9.1C5.7,9,5.5,9,5.4,8.9C5.3,8.9,5.1,8.9,5,8.8l0,0l0,0c-0.1,0-0.3,0.1-0.4,0.1C4.5,9,4.3,9,4.3,9.1
		c0,0,0,0,0,0.1c0,0,0,0,0,0c0,0,0,0,0,0c0,0,0,0,0,0c0,0,0,0,0,0c0,0,0,0,0,0c0,0,0,0.1,0.1,0.1c0,0,0-0.1,0-0.1
		c0.1,0,0.1-0.1,0.2-0.1C4.7,9.1,4.9,9,5,9c0.1,0,0.3,0,0.4,0.1h0c0.1,0,0.2,0.1,0.2,0.1c0,0,0,0.1,0,0.1c0,0,0-0.1,0.1-0.1l0,0
		c0,0,0,0,0,0C5.7,9.2,5.7,9.2,5.7,9.1L5.7,9.1C5.7,9.2,5.7,9.2,5.7,9.1C5.8,9.1,5.7,9.1,5.7,9.1z"/>
	<path class="st0" d="M6,8.3C5.9,8.2,5.7,8.2,5.6,8.1C5.4,8.1,5.2,8,5,8l0,0l0,0C4.8,8,4.6,8.1,4.4,8.1C4.3,8.2,4.1,8.2,4,8.3
		c0,0,0,0,0,0.1c0,0,0,0,0,0.1c0,0,0,0,0,0c0,0,0,0,0,0c0,0,0,0,0,0c0,0,0,0,0,0c0,0,0,0.1,0,0.1c0-0.1,0-0.1,0-0.1
		c0.1-0.1,0.2-0.1,0.4-0.1c0.2,0,0.4-0.1,0.6-0.1c0.2,0,0.4,0.1,0.6,0.1c0.2,0,0.3,0.1,0.4,0.1c0,0,0.1,0,0,0.1c0,0,0-0.1,0-0.1
		c0,0,0,0,0,0c0,0,0,0,0,0c0,0,0,0,0,0c0,0,0,0,0,0C6,8.5,6,8.4,6,8.3C6,8.4,6,8.3,6,8.3z"/>
	<path class="st0" d="M3.6,2.8C3.5,3,3.4,3.2,3.3,3.3C3.2,3.4,3,3.5,2.8,3.6C2.7,3.7,2.6,3.7,2.5,3.8v0c0,0-0.1,0-0.2,0
		c0,0,0.1,0,0.1,0.1c0,0,0,0,0,0c0,0,0,0,0,0c0,0,0,0,0.1,0c0,0,0,0,0,0c0,0,0,0,0,0c0.1,0,0.1,0,0.2,0c0.1,0,0.2-0.1,0.3-0.1
		c0.1-0.1,0.3-0.2,0.4-0.3l0,0l0,0C3.6,3.3,3.7,3.2,3.8,3c0.1-0.1,0.1-0.2,0.1-0.3c0,0,0-0.1,0-0.2c0,0,0,0,0,0h0c0,0,0,0,0-0.1
		c0,0,0,0,0,0v0c0,0,0-0.1-0.1-0.1c0.1,0.1,0,0.2,0,0.2C3.7,2.6,3.7,2.7,3.6,2.8z"/>
	<path class="st0" d="M3.9,3.2C3.8,3.4,3.7,3.5,3.6,3.6C3.5,3.7,3.4,3.8,3.2,3.9C3.1,3.9,3.1,4,3,4c0,0-0.1,0-0.2,0c0,0,0,0,0,0
		c0,0,0,0,0,0L3,4.1l0.1,0c0.1,0,0.1,0,0.2,0C3.3,4.1,3.3,4,3.4,4c0.1-0.1,0.2-0.2,0.4-0.3l0,0l0,0C3.9,3.6,3.9,3.5,4,3.4
		c0-0.1,0.1-0.1,0.1-0.2c0,0,0-0.1,0-0.2L4,2.9l0-0.1c0,0,0,0,0,0c0,0,0,0,0,0c0,0,0,0,0,0C4,2.9,4,3,4,3C4,3.1,3.9,3.2,3.9,3.2z"/>
	<path class="st0" d="M2.2,1.5C2.2,1.5,2.2,1.5,2.2,1.5C2.2,1.5,2.2,1.5,2.2,1.5L2.2,1.5z"/>
	<polygon class="st0" points="3.7,4.4 3.7,4.4 3.7,4.4 	"/>
	<path class="st0" d="M4.1,4.5C4.1,4.5,4.1,4.5,4.1,4.5c0.1-0.1,0.2-0.1,0.2-0.2l0,0l0,0c0.1-0.1,0.1-0.1,0.1-0.2c0,0,0,0,0,0
		c0,0,0-0.1,0-0.1c0,0,0,0,0,0l0,0L4.4,3.7c0,0,0,0,0,0c0,0.1,0,0.2,0,0.2c0,0,0,0.1-0.1,0.1c0,0.1-0.1,0.1-0.1,0.2
		C4.2,4.3,4.1,4.3,4,4.4c0,0-0.1,0-0.1,0.1c0,0-0.1,0-0.2,0l0.1,0.1l0.1,0C4,4.5,4.1,4.5,4.1,4.5z"/>
	<path class="st0" d="M3.4,2.5C3.3,2.7,3.2,2.8,3,3C2.8,3.2,2.7,3.3,2.5,3.4C2.4,3.4,2.3,3.5,2.2,3.5c0,0-0.1,0-0.1,0c0,0,0,0,0,0
		c0,0,0,0,0.1,0.1l0,0c0,0,0,0,0.1,0c0,0,0,0,0,0v0c0,0,0,0,0,0c0,0,0.1,0,0.1,0c0.1,0,0.2-0.1,0.4-0.2C2.8,3.4,3,3.3,3.2,3.2l0,0
		l0,0C3.3,3,3.4,2.8,3.5,2.7c0.1-0.1,0.1-0.3,0.2-0.4c0,0,0-0.1,0-0.1c0,0,0,0,0,0h0c0,0,0,0,0,0c0,0,0,0,0-0.1l0,0c0,0,0,0-0.1-0.1
		c0,0,0,0,0,0c0.1,0,0,0.1,0,0.1C3.5,2.3,3.4,2.4,3.4,2.5z"/>
	<path class="st0" d="M4.7,4.7C4.7,4.7,4.7,4.7,4.7,4.7C4.7,4.7,4.7,4.7,4.7,4.7C4.7,4.7,4.7,4.7,4.7,4.7C4.7,4.7,4.7,4.7,4.7,4.7
		C4.7,4.7,4.7,4.7,4.7,4.7C4.7,4.7,4.7,4.7,4.7,4.7C4.7,4.7,4.7,4.7,4.7,4.7C4.7,4.7,4.7,4.7,4.7,4.7C4.8,4.7,4.8,4.7,4.7,4.7
		C4.8,4.7,4.8,4.7,4.7,4.7c0.1-0.1,0.1-0.2,0-0.4l0,0L4.6,4.2c0,0,0,0,0,0c0,0.1,0,0.1,0,0.2c0,0,0,0,0,0c0,0-0.1,0.1-0.1,0.1
		c0,0-0.1,0.1-0.1,0.1c0,0,0,0,0,0c0,0-0.1,0-0.2,0c0,0,0,0,0,0l0.1,0.1l0,0l0,0C4.5,4.8,4.6,4.8,4.7,4.7z"/>
	<polygon class="st0" points="2.3,3.7 2.3,3.8 2.3,3.7 	"/>
	<path class="st0" d="M1.9,1.9C1.8,1.9,1.7,2,1.7,2c-0.1,0-0.1,0-0.1,0.1c0,0,0,0-0.1,0c0,0,0,0,0,0.1v0c0,0,0,0,0,0h0
		c0,0,0,0,0,0.1c0,0,0,0,0.1,0c0.1,0,0.1,0,0.2-0.1C1.8,2.1,1.9,2.1,2,2l0,0l0,0c0.1-0.1,0.1-0.2,0.1-0.2c0-0.1,0.1-0.2,0.1-0.2
		c0,0,0-0.1,0-0.1c0,0,0,0-0.1,0v0c0,0,0,0,0,0h0c0,0,0,0-0.1,0c0,0,0,0,0,0.1c0,0,0,0.1-0.1,0.1C2,1.7,1.9,1.8,1.9,1.9z"/>
	<path class="st0" d="M3.9,3.9C3.8,4,3.7,4.1,3.6,4.1c-0.1,0-0.1,0.1-0.2,0.1c0,0-0.1,0-0.2,0c0,0,0,0,0,0l0.2,0.1l0,0c0,0,0,0,0,0
		c0.1,0,0.1,0,0.2,0c0,0,0,0,0.1,0C3.8,4.2,3.9,4.1,4,4.1l0,0l0,0c0.1-0.1,0.1-0.2,0.2-0.3c0,0,0-0.1,0-0.1c0,0,0-0.1,0-0.2
		c0,0,0,0,0,0l0-0.1L4.2,3.3c0,0,0,0,0,0c0,0.1,0,0.2,0,0.2c0,0,0,0.1-0.1,0.2C4.1,3.7,4,3.8,3.9,3.9z"/>
	<path class="st0" d="M1.9,1.5C1.9,1.5,1.9,1.5,1.9,1.5c0,0-0.1,0-0.2,0c0,0,0,0,0,0c0,0,0,0,0,0c-0.1,0-0.1,0.1-0.2,0.2
		c0,0,0,0,0,0c0,0,0,0,0,0c0,0.1,0,0.2,0,0.3c0,0,0,0,0,0C1.5,1.8,1.6,1.6,1.9,1.5z"/>
	<polygon class="st0" points="3.7,2.3 3.7,2.3 3.7,2.3 	"/>
	<path class="st0" d="M3.1,2.2C3,2.4,2.9,2.6,2.7,2.7C2.6,2.9,2.4,3,2.2,3.1C2.1,3.1,2,3.2,1.9,3.2c0,0-0.1,0-0.1,0c0,0,0,0,0,0.1h0
		c0,0,0,0,0,0c0,0,0,0,0,0c0,0,0,0,0,0c0,0,0,0,0,0c0,0,0.1,0,0.1,0c0.1,0,0.3-0.1,0.4-0.2C2.5,3.1,2.7,3,2.9,2.9l0,0l0,0
		C3,2.7,3.1,2.5,3.2,2.4C3.3,2.2,3.3,2.1,3.4,2c0,0,0-0.1,0-0.1c0,0,0,0,0,0c0,0,0,0,0,0c0,0,0,0,0,0c0,0,0,0,0,0v0c0,0,0,0-0.1,0
		c0.1,0,0.1,0.1,0,0.1C3.2,2,3.1,2.1,3.1,2.2z"/>
	<path class="st0" d="M2.4,1.8C2.3,1.9,2.2,2,2.2,2.2C2,2.2,1.9,2.3,1.8,2.4c-0.1,0-0.2,0.1-0.2,0.1c-0.1,0-0.1,0-0.1-0.1
		c0,0,0,0.1,0,0.1c0,0,0,0,0,0c0,0,0,0,0,0c0,0,0,0,0,0h0c0,0,0,0,0,0c0,0,0.1,0.1,0.1,0.1c0.1,0,0.2,0,0.4-0.1
		c0.1-0.1,0.2-0.1,0.3-0.2l0,0l0,0C2.4,2.2,2.5,2.1,2.5,2c0.1-0.1,0.1-0.3,0.1-0.4c0,0,0-0.1-0.1-0.1c0,0,0,0,0,0v0c0,0,0,0,0,0
		c0,0,0,0,0,0v0c0,0-0.1,0-0.1,0c0,0,0.1,0,0.1,0.1C2.5,1.6,2.4,1.7,2.4,1.8L2.4,1.8z"/>
	<path class="st0" d="M2.7,2C2.7,2.1,2.6,2.3,2.4,2.4C2.3,2.6,2.1,2.7,2,2.7C1.9,2.8,1.8,2.8,1.7,2.9c0,0-0.1,0-0.1,0c0,0,0,0,0,0.1
		c0,0,0,0,0,0c0,0,0,0,0,0c0,0,0,0,0,0v0c0,0,0,0,0,0c0,0,0.1,0.1,0.1,0C1.8,3,2,2.9,2.2,2.9c0.1-0.1,0.3-0.2,0.4-0.3l0,0l0,0
		c0.1-0.1,0.2-0.3,0.3-0.4C2.9,2,3,1.8,3,1.7c0,0,0-0.1,0-0.1c0,0,0,0,0,0v0c0,0,0,0,0,0c0,0,0,0,0,0c0,0,0,0,0,0c0,0,0,0-0.1,0
		c0,0,0.1,0,0,0.1C2.8,1.8,2.8,1.9,2.7,2z"/>
	<path class="st0" d="M5.6,6c0-0.1,0.1-0.1,0.1-0.2C5.8,5.7,5.9,5.7,6,5.6c0,0,0.1,0,0.1-0.1c0,0,0.1,0,0.2,0c0,0,0,0,0,0L6.1,5.5
		l0,0c0,0,0,0,0,0c-0.1,0-0.1,0-0.1,0c0,0,0,0,0,0c-0.1,0-0.1,0.1-0.2,0.1l0,0l0,0C5.6,5.7,5.5,5.8,5.5,5.9c0,0,0,0,0,0
		c0,0,0,0.1,0,0.1l0,0l0,0c0,0,0,0,0,0l0,0.1l0.1,0.1c0,0,0,0,0,0C5.6,6.2,5.6,6.1,5.6,6C5.6,6.1,5.6,6,5.6,6z"/>
	<path class="st0" d="M7.8,7.8C8,7.8,8.1,7.7,8.2,7.6h0c0.1,0,0.2-0.1,0.2-0.1c0.1,0,0.1,0,0.1,0.1c0,0,0-0.1,0-0.1v0c0,0,0,0,0,0
		c0,0,0,0,0,0h0c0,0,0,0,0,0c0,0-0.1-0.1-0.1-0.1c-0.1,0-0.2,0-0.4,0.1C7.9,7.5,7.8,7.6,7.7,7.7l0,0l0,0C7.6,7.8,7.5,7.9,7.5,8.1
		C7.4,8.2,7.4,8.3,7.4,8.4c0,0,0,0.1,0.1,0.1c0,0,0,0,0,0v0c0,0,0,0,0,0c0,0,0,0,0,0c0,0,0,0,0,0c0,0,0.1,0,0.1,0c0,0-0.1,0-0.1-0.1
		c0-0.1,0.1-0.1,0.1-0.2C7.7,8.1,7.8,8,7.8,7.8z"/>
	<path class="st0" d="M7.3,8c0.1-0.1,0.2-0.3,0.3-0.4C7.7,7.4,7.9,7.3,8,7.3c0.1-0.1,0.2-0.1,0.3-0.1c0,0,0.1,0,0.1,0c0,0,0,0,0-0.1
		c0,0,0,0,0,0c0,0,0,0,0,0c0,0,0,0,0,0h0c0,0,0,0,0,0c0,0-0.1-0.1-0.1,0C8.2,7,8,7.1,7.8,7.1C7.7,7.2,7.6,7.3,7.4,7.4l0,0l0,0
		C7.3,7.6,7.2,7.7,7.1,7.8C7.1,8,7,8.2,7,8.3c0,0,0,0.1,0,0.1c0,0,0,0,0,0v0c0,0,0,0,0,0c0,0,0,0,0,0c0,0,0,0,0,0c0,0,0,0,0.1,0
		c0,0-0.1,0,0-0.1C7.2,8.2,7.2,8.1,7.3,8z"/>
	<path class="st0" d="M5.4,5.6c0,0,0.1-0.1,0.1-0.1c0,0,0.1-0.1,0.1-0.1c0,0,0,0,0,0c0,0,0.1,0,0.2,0c0,0,0,0,0,0L5.6,5.3
		C5.5,5.2,5.4,5.2,5.3,5.2c0,0,0,0,0,0c0,0,0,0,0,0c0,0,0,0,0,0c0,0,0,0,0,0c0,0,0,0,0,0c0,0,0,0,0,0c0,0,0,0,0,0c0,0,0,0,0,0
		c0,0,0,0,0,0c0,0,0,0,0,0C5.2,5.4,5.2,5.5,5.4,5.6L5.4,5.6L5.4,5.6l0,0.2c0,0,0,0,0,0C5.3,5.7,5.4,5.6,5.4,5.6
		C5.4,5.6,5.4,5.6,5.4,5.6z"/>
	<path class="st0" d="M6.6,7.5C6.7,7.3,6.8,7.2,7,7c0.2-0.1,0.3-0.2,0.5-0.3c0.1-0.1,0.3-0.1,0.4-0.2c0,0,0.1,0,0.1,0c0,0,0,0,0,0
		c0,0,0,0-0.1-0.1c0,0,0,0,0,0c0,0,0,0-0.1,0c0,0,0,0,0,0c0,0,0,0,0,0c0,0-0.1,0-0.1,0c-0.1,0-0.2,0.1-0.4,0.2
		C7.2,6.6,7,6.7,6.8,6.8l0,0l0,0C6.7,7,6.6,7.2,6.5,7.3C6.4,7.5,6.4,7.6,6.3,7.7c0,0,0,0.1,0,0.1c0,0,0,0,0,0l0,0c0,0,0,0,0,0
		c0,0,0,0,0,0.1v0c0,0,0,0,0.1,0.1c0,0,0,0,0,0c0,0,0-0.1,0-0.1C6.5,7.7,6.6,7.6,6.6,7.5z"/>
	<polygon class="st0" points="7.7,6.3 7.7,6.2 7.7,6.2 	"/>
	<polygon class="st0" points="6.2,7.7 6.3,7.7 6.2,7.7 	"/>
	<path class="st0" d="M6.9,7.8C7,7.6,7.1,7.4,7.3,7.3C7.4,7.1,7.6,7,7.8,6.9C7.9,6.9,8,6.8,8.1,6.8c0,0,0.1,0,0.1,0c0,0,0,0,0-0.1
		c0,0,0,0,0,0c0,0,0,0,0,0c0,0,0,0,0,0c0,0,0,0,0,0c0,0,0,0,0,0c0,0-0.1,0-0.1,0c-0.1,0-0.3,0.1-0.4,0.2C7.5,6.9,7.3,7,7.1,7.1l0,0
		l0,0C7,7.3,6.9,7.5,6.8,7.6C6.7,7.8,6.7,7.9,6.6,8c0,0,0,0.1,0,0.1c0,0,0,0,0,0c0,0,0,0,0,0c0,0,0,0,0,0c0,0,0,0,0,0c0,0,0,0,0,0
		c0,0,0,0,0.1,0c-0.1,0-0.1-0.1,0-0.1C6.8,8,6.9,7.9,6.9,7.8z"/>
	<path class="st0" d="M6.7,6.7C6.8,6.6,7,6.5,7.2,6.4c0.1-0.1,0.2-0.1,0.3-0.1c0,0,0.1,0,0.2,0c0,0-0.1,0-0.1-0.1h0c0,0,0,0,0,0
		c0,0,0,0-0.1,0v0c0,0,0,0,0,0c-0.1,0-0.1,0-0.2,0C7.2,6.1,7.1,6.2,7,6.2C6.8,6.3,6.7,6.4,6.5,6.5l0,0l0,0C6.4,6.7,6.3,6.8,6.2,7
		C6.2,7.1,6.1,7.2,6.1,7.3c0,0,0,0.1,0,0.2c0,0,0,0,0,0c0,0,0,0,0,0c0,0,0,0,0,0.1c0,0,0,0,0,0v0c0,0,0,0.1,0.1,0.1
		c-0.1-0.1,0-0.2,0-0.2h0c0-0.1,0.1-0.2,0.1-0.3C6.5,7,6.6,6.8,6.7,6.7z"/>
	<polygon class="st0" points="7.2,6 7.2,6 7.2,6 	"/>
	<path class="st0" d="M6.1,6.8c0.1-0.1,0.2-0.3,0.3-0.4c0.1-0.1,0.3-0.2,0.4-0.3C6.8,6.1,6.9,6,7,6c0,0,0.1,0,0.2,0c0,0,0,0,0,0
		c0,0,0,0,0,0L7.1,6L7,5.9c-0.1,0-0.1,0-0.2,0C6.7,5.9,6.7,6,6.6,6C6.5,6.1,6.4,6.1,6.3,6.2l0,0l0,0C6.1,6.4,6.1,6.5,6,6.6
		c0,0.1-0.1,0.1-0.1,0.2c0,0,0,0.1,0,0.2l0,0.1L6,7.2c0,0,0,0,0,0c0,0,0,0,0,0C6,7.1,6,7,6,7C6,6.9,6.1,6.9,6.1,6.8z"/>
	<path class="st0" d="M6.1,6.1C6.2,6,6.3,5.9,6.4,5.9c0.1,0,0.1-0.1,0.2-0.1c0,0,0.1,0,0.2,0c0,0,0,0,0,0L6.6,5.8l-0.1,0
		c0,0,0,0,0,0c-0.1,0-0.1,0-0.2,0c0,0,0,0-0.1,0C6.2,5.8,6.1,5.9,6,5.9l0,0l0,0C5.9,6.1,5.8,6.2,5.7,6.3c0,0,0,0.1,0,0.1
		c0,0,0,0.1,0,0.2c0,0,0,0,0,0l0,0l0.1,0.2c0,0,0,0,0,0c0-0.1,0-0.2,0-0.2c0,0,0-0.1,0.1-0.2C5.9,6.3,6,6.2,6.1,6.1z"/>
	<path class="st0" d="M8.1,8.1C8.2,8.1,8.3,8,8.3,8c0.1,0,0.1,0,0.1-0.1c0,0,0,0,0.1,0c0,0,0,0,0-0.1v0c0,0,0,0,0,0h0c0,0,0,0,0-0.1
		c0,0,0,0-0.1,0c-0.1,0-0.1,0-0.2,0.1C8.2,7.9,8.1,7.9,8,8l0,0l0,0C7.9,8.1,7.9,8.2,7.9,8.2c0,0.1-0.1,0.2-0.1,0.2c0,0,0,0,0,0.1
		c0,0,0,0,0.1,0v0c0,0,0,0,0,0h0c0,0,0,0,0.1,0c0,0,0,0,0-0.1c0,0,0-0.1,0.1-0.1C8,8.3,8.1,8.2,8.1,8.1z"/>
	<path class="st0" d="M8.1,8.5C8.1,8.5,8.1,8.5,8.1,8.5c0.1,0,0.2,0,0.3,0h0c0,0,0,0,0,0c0,0,0.1-0.1,0.2-0.2c0,0,0,0,0,0
		c0,0,0,0,0,0c0-0.1,0-0.2,0-0.3c0,0,0,0.1,0,0.1C8.4,8.4,8.2,8.5,8.1,8.5z"/>
	<path class="st0" d="M3,5.7c0.1,0,0.1-0.1,0.1-0.1c0-0.1,0-0.1,0.1-0.2c0-0.1,0.1-0.3,0.1-0.4l0,0l0,0c0-0.2-0.1-0.3-0.1-0.4
		c0-0.1,0-0.1-0.1-0.2c0,0,0-0.1-0.1-0.1l-0.1,0l-0.1,0c0,0,0,0,0,0c0,0,0,0,0,0c0,0,0,0,0,0c0.1,0,0.1,0.1,0.1,0.1
		c0,0.1,0.1,0.1,0.1,0.2C3,4.7,3,4.8,3,5C3,5.2,3,5.3,3,5.5C2.9,5.6,2.9,5.6,3,5.7c-0.1,0-0.1,0.1-0.2,0.1c0,0,0,0,0,0c0,0,0,0,0,0
		L3,5.7L3,5.7z"/>
	<path class="st0" d="M1.9,6C1.9,6,1.9,6,1.8,6c0,0,0,0,0,0C1.8,6,1.9,6,1.9,6C1.9,6,1.9,6,1.9,6C1.9,6,1.9,6,1.9,6C2,6,2,6,1.9,6
		L1.9,6C2,6,2,6,1.9,6C2.1,6,2.1,6,2.1,6c0.1-0.1,0.1-0.2,0.2-0.4C2.3,5.4,2.4,5.2,2.4,5l0,0l0,0c0-0.2-0.1-0.4-0.1-0.6
		c0-0.2-0.1-0.3-0.2-0.4C2.1,4,2.1,4,2,4c0,0,0,0,0,0v0c0,0,0,0,0,0c0,0,0,0-0.1,0c0,0,0,0,0,0c0,0-0.1,0-0.1,0c0,0,0,0,0,0
		C1.9,4,1.9,4,1.9,4C2,4.1,2,4.3,2.1,4.4c0,0.2,0.1,0.4,0.1,0.6c0,0.2-0.1,0.4-0.1,0.6C2,5.8,2,5.9,1.9,6z"/>
	<path class="st0" d="M3.4,5.6C3.4,5.6,3.4,5.6,3.4,5.6c0.1,0,0.1-0.1,0.1-0.1c0,0,0-0.1,0-0.1c0-0.1,0.1-0.2,0.1-0.4l0,0l0,0
		c0-0.1,0-0.2-0.1-0.4c0,0,0-0.1,0-0.1c0,0-0.1-0.1-0.1-0.1c0,0,0,0,0,0l-0.1,0l-0.1,0c0,0,0,0,0,0c0.1,0,0.1,0.1,0.1,0.1
		c0,0,0,0.1,0.1,0.2c0,0.1,0,0.2,0.1,0.4c0,0.1,0,0.3-0.1,0.4C3.4,5.4,3.4,5.5,3.4,5.6c-0.1,0-0.1,0-0.2,0.1c0,0,0,0,0,0L3.4,5.6
		L3.4,5.6z"/>
	<path class="st0" d="M0.5,5.4C0.5,5.4,0.4,5.4,0.5,5.4C0.4,5.4,0.4,5.4,0.5,5.4C0.4,5.4,0.4,5.4,0.5,5.4C0.5,5.4,0.5,5.5,0.5,5.4
		C0.5,5.5,0.5,5.5,0.5,5.4c0.1,0.1,0.1,0.1,0.1,0.1c0-0.1,0.1-0.1,0.1-0.2c0-0.1,0-0.2,0.1-0.3l0,0l0,0c0-0.1,0-0.2-0.1-0.3
		c0-0.1-0.1-0.2-0.1-0.2c0,0,0,0-0.1,0c0,0,0,0,0,0c0,0,0,0,0,0c0,0,0,0,0,0c0,0,0,0,0,0c0,0,0,0,0,0c0,0,0.1,0,0.1,0
		c0,0,0,0.1,0.1,0.1c0,0.1,0,0.2,0.1,0.3c0,0.1,0,0.2-0.1,0.3C0.5,5.3,0.5,5.4,0.5,5.4z"/>
	<path class="st0" d="M1.5,6C1.5,6,1.5,6,1.5,6C1.5,6,1.5,6,1.5,6C1.5,6,1.6,6,1.5,6c0.1,0,0.2,0,0.2,0c0.1-0.1,0.1-0.2,0.2-0.4
		C1.9,5.4,2,5.2,2,5l0,0l0,0c0-0.2-0.1-0.4-0.1-0.6C1.8,4.3,1.8,4.1,1.7,4c0,0,0,0-0.1,0c0,0,0,0-0.1,0c0,0,0,0,0,0c0,0,0,0,0,0
		c0,0,0,0,0,0c0,0,0,0,0,0c0,0-0.1,0-0.1,0c0.1,0,0.1,0,0.1,0c0,0.1,0.1,0.2,0.1,0.4c0,0.2,0.1,0.4,0.1,0.6c0,0.2-0.1,0.4-0.1,0.6
		C1.6,5.7,1.6,5.9,1.5,6C1.5,6,1.5,6,1.5,6C1.4,6,1.5,6,1.5,6C1.5,6,1.5,6,1.5,6C1.5,6,1.5,6,1.5,6z"/>
	<path class="st0" d="M0.8,5.7C0.8,5.7,0.8,5.7,0.8,5.7C0.8,5.7,0.8,5.7,0.8,5.7C0.8,5.7,0.8,5.7,0.8,5.7c0.1,0,0.1,0,0.1,0
		C1,5.7,1,5.5,1.1,5.4c0-0.1,0.1-0.2,0.1-0.4l0,0l0,0c0-0.1-0.1-0.3-0.1-0.4C1,4.5,1,4.4,0.9,4.3c0,0,0,0-0.1,0c0,0,0,0,0,0
		c0,0,0,0,0,0c0,0,0,0,0,0c0,0,0,0,0,0c0,0,0,0,0,0c0,0-0.1,0-0.1,0.1c0,0,0.1,0,0.1,0c0,0.1,0.1,0.1,0.1,0.2C0.9,4.7,1,4.9,1,5
		c0,0.1,0,0.3-0.1,0.4C0.9,5.5,0.8,5.6,0.8,5.7c0,0-0.1-0.1-0.1-0.1C0.7,5.7,0.7,5.7,0.8,5.7C0.8,5.7,0.8,5.7,0.8,5.7
		C0.8,5.7,0.8,5.7,0.8,5.7z"/>
	<path class="st0" d="M0.3,4.6C0.3,4.7,0.2,4.8,0.1,4.9c0,0,0,0,0,0c0,0,0,0,0,0c-0.1,0.1,0,0.2,0,0.2c0,0,0,0,0,0c0,0,0,0,0,0
		c0.1,0.1,0.1,0.1,0.2,0.2c0,0,0,0,0,0C0.3,5.2,0.2,5,0.3,4.6C0.3,4.7,0.3,4.7,0.3,4.6z"/>
	<path class="st0" d="M1.6,5L1.6,5L1.6,5c0-0.2-0.1-0.4-0.1-0.5C1.4,4.3,1.4,4.2,1.3,4.1c0,0,0,0-0.1,0c0,0,0,0,0,0c0,0,0,0,0,0
		c0,0,0,0,0,0c0,0,0,0,0,0c0,0,0,0,0,0c0,0,0,0-0.1,0c0,0,0.1,0,0.1,0c0,0.1,0.1,0.2,0.1,0.3c0,0.2,0.1,0.3,0.1,0.5
		c0,0.2-0.1,0.4-0.1,0.5c0,0.1-0.1,0.2-0.1,0.3c0,0-0.1,0-0.1,0c0,0,0,0,0.1,0l0,0c0,0,0,0,0,0c0,0,0,0,0,0h0c0,0,0,0,0,0
		c0,0,0.1,0,0.1,0c0.1-0.1,0.1-0.2,0.2-0.4C1.5,5.4,1.6,5.2,1.6,5z"/>
	<path class="st0" d="M4.3,5.2c0,0,0,0.1-0.1,0.1c0,0,0,0,0,0L4.3,5.2L4.3,5.2L4.3,5.2c0.2,0,0.3-0.1,0.3-0.2c0,0,0,0,0,0
		c0,0,0,0,0,0c0,0,0,0,0,0c0,0,0,0,0,0c0,0,0,0,0,0c0,0,0,0,0,0c0,0,0,0,0,0c0,0,0,0,0,0c0,0,0,0,0,0c0,0,0,0,0,0
		c0-0.1-0.1-0.1-0.3-0.2h0L4.2,4.7c0,0,0,0,0,0c0.1,0,0.1,0.1,0.1,0.1c0,0,0,0,0,0c0,0,0,0.1,0,0.2C4.3,5.1,4.3,5.1,4.3,5.2
		C4.3,5.2,4.3,5.2,4.3,5.2z"/>
	<polygon class="st0" points="3.9,4.6 3.9,4.6 3.9,4.6 	"/>
	<path class="st0" d="M2.2,6C2.2,6,2.2,6,2.2,6C2.2,6,2.2,6,2.2,6C2.2,6,2.2,6,2.2,6z"/>
	<polygon class="st0" points="2.2,4 2.2,4 2.2,4 	"/>
	<path class="st0" d="M3.8,5.4c0,0,0,0.1-0.1,0.1c0,0,0,0,0,0L3.8,5.4L3.8,5.4C4,5.4,4,5.3,4,5.3c0,0,0,0,0,0c0-0.1,0-0.2,0.1-0.3
		l0,0l0,0c0-0.1,0-0.2-0.1-0.3c0,0,0,0,0,0c0,0,0-0.1-0.1-0.1c0,0,0,0,0,0l0,0L3.7,4.5c0,0,0,0,0,0c0.1,0,0.1,0.1,0.1,0.1
		c0,0,0,0.1,0,0.1c0,0.1,0,0.2,0,0.3c0,0.1,0,0.2,0,0.3C3.8,5.3,3.8,5.3,3.8,5.4z"/>
	<path class="st0" d="M2.6,5.8c0-0.1,0.1-0.2,0.1-0.3c0-0.2,0.1-0.3,0.1-0.5l0,0l0,0c0-0.2-0.1-0.4-0.1-0.5c0-0.1-0.1-0.2-0.1-0.3
		c0,0-0.1-0.1-0.1-0.1c0,0,0,0,0,0c0,0,0,0,0,0c0,0,0,0-0.1,0c0,0,0,0,0,0c0,0,0,0,0,0c0,0-0.1,0-0.1,0c0.1,0,0.2,0.1,0.2,0.1h0
		c0,0.1,0.1,0.2,0.1,0.3c0,0.2,0.1,0.4,0.1,0.6c0,0.2-0.1,0.4-0.1,0.6c0,0.1-0.1,0.2-0.1,0.3h0c0,0,0,0.1-0.2,0.1c0,0,0.1,0,0.1,0
		c0,0,0,0,0,0c0,0,0,0,0,0c0,0,0,0,0.1,0c0,0,0,0,0,0c0,0,0,0,0,0C2.6,5.9,2.6,5.9,2.6,5.8z"/>
	<polygon class="st0" points="7.8,4 7.8,4 7.8,4 	"/>
	<path class="st0" d="M7.8,6C7.8,6,7.8,6,7.8,6C7.8,6,7.8,6,7.8,6C7.8,6,7.8,6,7.8,6z"/>
	<path class="st0" d="M5.7,4.8c0,0,0-0.1,0.1-0.1c0,0,0,0,0,0L5.7,4.8c-0.2,0-0.3,0.1-0.3,0.1c0,0,0,0,0,0c0,0,0,0,0,0c0,0,0,0,0,0
		c0,0,0,0,0,0v0v0c0,0,0,0,0,0c0,0,0,0,0,0c0,0,0,0,0,0c0,0,0,0,0,0c0,0.1,0.1,0.2,0.3,0.2l0,0l0,0l0.1,0c0,0,0,0,0,0
		c-0.1,0-0.1-0.1-0.1-0.1c0,0,0,0,0,0c0,0,0-0.1,0-0.2C5.7,4.9,5.7,4.9,5.7,4.8C5.7,4.8,5.7,4.8,5.7,4.8z"/>
	<path class="st0" d="M9.5,4.5C9.5,4.5,9.5,4.5,9.5,4.5C9.5,4.5,9.5,4.5,9.5,4.5c-0.1-0.1-0.1-0.1-0.1,0c0,0.1-0.1,0.1-0.1,0.2
		c0,0.1,0,0.2-0.1,0.3l0,0l0,0c0,0.1,0,0.2,0.1,0.3c0,0.1,0.1,0.2,0.1,0.2c0,0,0,0,0.1,0c0,0,0,0,0,0h0c0,0,0,0,0,0c0,0,0,0,0,0
		c0,0,0,0,0,0c0,0-0.1,0-0.1,0c0,0,0-0.1-0.1-0.1c0-0.1,0-0.2-0.1-0.3c0-0.1,0-0.2,0.1-0.3C9.5,4.7,9.5,4.6,9.5,4.5
		C9.5,4.6,9.6,4.6,9.5,4.5C9.6,4.6,9.6,4.6,9.5,4.5C9.6,4.6,9.6,4.6,9.5,4.5C9.5,4.6,9.5,4.5,9.5,4.5z"/>
	<path class="st0" d="M7.6,4.1c0,0,0-0.1,0.2-0.1C7.7,4,7.7,4,7.6,4.1L7.6,4.1C7.6,4,7.6,4,7.6,4.1C7.6,4.1,7.6,4.1,7.6,4.1L7.6,4.1
		C7.5,4.1,7.5,4.1,7.6,4.1c-0.2,0-0.2,0-0.2,0c0,0.1-0.1,0.2-0.1,0.3c0,0.2-0.1,0.3-0.1,0.5l0,0l0,0c0,0.2,0.1,0.4,0.1,0.5
		c0,0.1,0.1,0.2,0.1,0.3c0,0,0.1,0.1,0.1,0.1c0,0,0,0,0,0v0c0,0,0,0,0.1,0c0,0,0,0,0,0v0c0,0,0.1,0,0.1,0C7.6,6,7.6,5.9,7.6,5.9l0,0
		c0-0.1-0.1-0.2-0.1-0.3c0-0.2-0.1-0.4-0.1-0.6c0-0.2,0.1-0.4,0.1-0.6C7.5,4.3,7.6,4.2,7.6,4.1z"/>
	<path class="st0" d="M8.1,4C8.1,4,8.1,4,8.2,4c0,0,0,0,0,0C8.2,4,8.1,4,8.1,4C8.1,4,8.1,4,8.1,4C8.1,4,8.1,4,8.1,4C8,4,8,4,8.1,4
		L8.1,4C8,4,8,4,8.1,4C7.9,4,7.9,4,7.9,4C7.8,4.1,7.8,4.3,7.7,4.4C7.7,4.6,7.6,4.8,7.6,5l0,0l0,0c0,0.2,0.1,0.4,0.1,0.6
		c0,0.2,0.1,0.3,0.2,0.4C7.9,6,7.9,6,8,6c0,0,0,0,0,0v0c0,0,0,0,0,0c0,0,0,0,0.1,0l0,0c0,0,0.1,0,0.1,0c0,0,0,0,0,0
		C8.1,6,8.1,6,8.1,6C8,5.9,8,5.8,7.9,5.6c0-0.2-0.1-0.4-0.1-0.6c0-0.2,0.1-0.4,0.1-0.6C8,4.3,8,4.1,8.1,4z"/>
	<path class="st0" d="M9.2,4.3C9.2,4.3,9.2,4.3,9.2,4.3C9.2,4.3,9.2,4.3,9.2,4.3C9.2,4.3,9.2,4.3,9.2,4.3c-0.1,0-0.1,0-0.1,0
		C9,4.3,9,4.5,8.9,4.6c0,0.1-0.1,0.2-0.1,0.4l0,0l0,0c0,0.1,0.1,0.3,0.1,0.4C9,5.5,9,5.7,9.1,5.7c0,0,0,0,0.1,0c0,0,0,0,0,0v0
		c0,0,0,0,0,0c0,0,0,0,0,0c0,0,0,0,0,0c0,0,0.1,0,0.1-0.1c0,0-0.1,0-0.1,0c0-0.1-0.1-0.1-0.1-0.2C9.1,5.3,9,5.1,9,5
		c0-0.1,0-0.3,0.1-0.4v0C9.1,4.5,9.2,4.4,9.2,4.3c0,0,0.1,0,0.1,0.1C9.3,4.3,9.3,4.3,9.2,4.3L9.2,4.3C9.2,4.3,9.2,4.3,9.2,4.3z"/>
	<path class="st0" d="M6.2,4.6c0,0,0-0.1,0.1-0.1c0,0,0,0,0,0L6.2,4.6L6.2,4.6C6.1,4.6,6.1,4.6,6.2,4.6L6.2,4.6L6.2,4.6
		C6,4.6,6,4.7,6,4.7c0,0,0,0,0,0c0,0.1,0,0.2-0.1,0.3l0,0l0,0c0,0.1,0,0.2,0.1,0.3c0,0,0,0,0,0c0,0,0,0.1,0.1,0.1l0.1,0l0.1,0
		c0,0,0,0,0,0c-0.1,0-0.1-0.1-0.1-0.1c0,0,0-0.1,0-0.1c0-0.1,0-0.2,0-0.3c0-0.1,0-0.2,0-0.3C6.2,4.7,6.2,4.7,6.2,4.6z"/>
	<path class="st0" d="M6.6,4.4C6.6,4.4,6.6,4.4,6.6,4.4c-0.1,0-0.1,0.1-0.1,0.1c0,0,0,0.1,0,0.1c0,0.1-0.1,0.2-0.1,0.4l0,0l0,0
		c0,0.1,0,0.2,0.1,0.4c0,0,0,0.1,0,0.1c0,0,0.1,0.1,0.1,0.1c0,0,0,0,0,0l0,0l0.2,0.1c0,0,0,0,0,0c-0.1,0-0.1-0.1-0.1-0.1
		c0,0,0-0.1-0.1-0.2c0-0.1,0-0.2-0.1-0.4c0-0.1,0-0.3,0.1-0.4C6.6,4.6,6.6,4.5,6.6,4.4c0.1,0,0.1,0,0.2-0.1c0,0,0,0,0,0l-0.1,0
		L6.6,4.4z"/>
	<polygon class="st0" points="7.3,4.2 7.3,4.2 7.3,4.2 	"/>
	<path class="st0" d="M7,4.3C7,4.3,6.9,4.3,6.9,4.4c0,0.1,0,0.1-0.1,0.2c0,0.1-0.1,0.3-0.1,0.4l0,0l0,0c0,0.2,0.1,0.3,0.1,0.4
		c0,0.1,0,0.1,0.1,0.2c0,0,0,0.1,0.1,0.1l0.1,0l0.1,0c0,0,0,0,0,0c0,0,0,0,0,0c-0.1,0-0.1-0.1-0.1-0.1c0-0.1-0.1-0.1-0.1-0.2
		C7,5.3,7,5.2,7,5C7,4.8,7,4.7,7,4.5C7.1,4.4,7.1,4.4,7,4.3c0.1,0,0.1,0,0.2-0.1c0,0,0,0,0,0c0,0,0,0,0,0l-0.1,0L7,4.3z"/>
	<path class="st0" d="M9.9,4.9C9.9,4.9,9.9,4.9,9.9,4.9C9.9,4.9,9.9,4.9,9.9,4.9C9.8,4.8,9.7,4.7,9.7,4.6c0,0,0,0.1,0,0.1
		c0.1,0.2,0,0.5,0,0.6c0,0,0,0,0,0c0.1-0.1,0.2-0.2,0.2-0.2c0,0,0,0,0,0c0,0,0,0,0,0C9.9,5.1,9.9,5,9.9,4.9z"/>
	<path class="st0" d="M8.4,5L8.4,5L8.4,5c0,0.2,0.1,0.4,0.1,0.5c0.1,0.2,0.1,0.3,0.2,0.4c0,0,0,0,0.1,0c0,0,0,0,0,0c0,0,0,0,0,0
		c0,0,0,0,0,0c0,0,0,0,0,0c0,0,0,0,0,0c0,0,0,0,0.1,0c0,0-0.1,0-0.1,0c0-0.1-0.1-0.2-0.1-0.3c0-0.2-0.1-0.3-0.1-0.5
		c0-0.2,0.1-0.4,0.1-0.5c0-0.1,0.1-0.2,0.1-0.3c0,0,0.1,0,0.1,0c0,0,0,0-0.1,0c0,0,0,0,0,0c0,0,0,0,0,0c0,0,0,0,0,0v0c0,0,0,0,0,0
		c0,0-0.1,0-0.1,0C8.6,4.2,8.6,4.3,8.5,4.5C8.5,4.6,8.4,4.8,8.4,5z"/>
	<path class="st0" d="M8.5,4C8.5,4,8.5,4,8.5,4C8.5,4,8.5,4,8.5,4C8.5,4,8.5,4,8.5,4C8.5,4,8.4,4,8.5,4C8.4,4,8.3,4,8.3,4
		C8.2,4.1,8.2,4.3,8.1,4.4C8.1,4.6,8,4.8,8,5l0,0l0,0c0,0.2,0.1,0.4,0.1,0.6C8.2,5.7,8.2,5.9,8.3,6c0,0,0,0,0.1,0c0,0,0,0,0.1,0
		c0,0,0,0,0,0c0,0,0,0,0,0c0,0,0,0,0,0c0,0,0,0,0,0c0,0,0.1,0,0.1,0C8.5,6,8.5,6,8.5,6C8.4,5.9,8.4,5.7,8.3,5.6
		c0-0.2-0.1-0.4-0.1-0.6c0-0.2,0.1-0.4,0.1-0.6C8.4,4.3,8.4,4.1,8.5,4C8.5,4,8.5,4,8.5,4C8.6,4,8.5,4,8.5,4C8.5,4,8.5,4,8.5,4z"/>
	<path class="st0" d="M4,7.2C4,7.2,4,7.2,4,7.2C4,7.2,4,7.2,4,7.2L4.1,7l0-0.1c0-0.1,0-0.1,0-0.2C4.1,6.7,4,6.7,4,6.6
		C3.9,6.5,3.9,6.4,3.8,6.3l0,0l0,0C3.6,6.1,3.5,6.1,3.4,6C3.3,6,3.3,5.9,3.2,5.9c0,0-0.1,0-0.2,0L2.9,6L2.8,6c0,0,0,0,0,0
		c0,0,0,0,0,0c0,0,0,0,0,0C2.9,6,3,6,3,6c0.1,0,0.1,0.1,0.2,0.1c0.1,0.1,0.3,0.2,0.4,0.3c0.1,0.1,0.2,0.3,0.3,0.4C3.9,6.9,4,6.9,4,7
		C4,7,4,7.1,4,7.2z"/>
	<path class="st0" d="M4.4,5.4C4.4,5.4,4.4,5.4,4.4,5.4c0.1,0,0.1,0.1,0.2,0.1c0,0,0.1,0.1,0.1,0.1c0,0,0,0,0,0c0,0,0,0.1,0,0.2
		c0,0,0,0,0,0l0.1-0.1l0,0l0,0c0.1-0.2,0.1-0.3,0.1-0.4c0,0,0,0,0,0c0,0,0,0,0,0c0,0,0,0,0,0c0,0,0,0,0,0c0,0,0,0,0,0c0,0,0,0,0,0
		c0,0,0,0,0,0c0,0,0,0,0,0c0,0,0,0,0,0c0,0,0,0,0,0C4.6,5.2,4.5,5.2,4.4,5.4l-0.2,0c0,0,0,0,0,0C4.3,5.3,4.4,5.4,4.4,5.4z"/>
	<path class="st0" d="M3.9,5.6C3.9,5.6,4,5.6,3.9,5.6L3.9,5.6c0.2,0.1,0.2,0.1,0.3,0.2C4.3,5.8,4.3,5.9,4.4,6c0,0,0,0.1,0.1,0.1
		c0,0,0,0.1,0,0.2c0,0,0,0,0,0l0.1-0.1l0-0.1c0-0.1,0-0.1,0-0.1c0,0,0,0,0,0c0-0.1-0.1-0.1-0.1-0.2l0,0l0,0C4.3,5.6,4.2,5.5,4.1,5.5
		c0,0,0,0,0,0C4.1,5.5,4,5.5,3.9,5.6L3.9,5.6L3.9,5.6C3.9,5.5,3.9,5.5,3.9,5.6L3.9,5.6l-0.2,0c0,0,0,0,0,0C3.8,5.6,3.9,5.6,3.9,5.6z
		"/>
	<path class="st0" d="M2.6,8.4c0-0.1,0-0.2-0.1-0.4C2.5,7.9,2.4,7.8,2.3,7.7l0,0l0,0C2.2,7.6,2.1,7.5,1.9,7.5
		C1.8,7.4,1.7,7.4,1.6,7.4c0,0-0.1,0-0.1,0.1c0,0,0,0,0,0h0c0,0,0,0,0,0c0,0,0,0,0,0c0,0,0,0,0,0c0,0,0,0.1,0,0.1c0,0,0-0.1,0.1-0.1
		c0.1,0,0.1,0.1,0.2,0.1C1.9,7.7,2,7.8,2.2,7.8C2.2,8,2.3,8.1,2.4,8.2c0,0.1,0.1,0.2,0.1,0.2c0,0.1,0,0.1-0.1,0.1c0,0,0.1,0,0.1,0
		c0,0,0,0,0,0C2.5,8.5,2.5,8.5,2.6,8.4C2.5,8.5,2.6,8.5,2.6,8.4C2.6,8.5,2.6,8.5,2.6,8.4C2.6,8.5,2.6,8.5,2.6,8.4
		C2.6,8.5,2.6,8.4,2.6,8.4z"/>
	<path class="st0" d="M1.5,8.1C1.5,8.1,1.5,8.1,1.5,8.1c0,0,0,0.1,0,0.2c0,0,0,0,0,0c0,0,0,0,0,0c0,0.1,0.1,0.1,0.2,0.2c0,0,0,0,0,0
		h0c0.1,0,0.2,0,0.3,0c0,0,0,0,0,0C1.8,8.5,1.6,8.4,1.5,8.1z"/>
	<path class="st0" d="M2.8,8.4C2.8,8.4,2.9,8.4,2.8,8.4C2.9,8.4,2.9,8.4,2.8,8.4c0.1,0,0.1,0,0.1,0c0,0,0,0,0,0v0c0,0,0,0,0,0
		c0,0,0.1-0.1,0-0.1C3,8.2,2.9,8,2.9,7.8C2.8,7.7,2.7,7.6,2.6,7.4l0,0l0,0C2.4,7.3,2.3,7.2,2.2,7.1C2,7.1,1.8,7,1.7,7
		c0,0-0.1,0-0.1,0c0,0,0,0,0,0c0,0,0,0,0,0c0,0,0,0,0,0c0,0,0,0,0,0c0,0,0,0,0,0.1c0,0,0-0.1,0.1,0c0.1,0,0.2,0.1,0.3,0.1
		c0.1,0.1,0.3,0.2,0.4,0.3C2.6,7.7,2.7,7.9,2.7,8C2.8,8.1,2.8,8.2,2.8,8.4C2.9,8.4,2.9,8.4,2.8,8.4z"/>
	<path class="st0" d="M2,8L2,8L2,8C1.9,7.9,1.8,7.9,1.8,7.9c-0.1,0-0.2-0.1-0.2-0.1c0,0-0.1,0-0.1,0c0,0,0,0,0,0.1c0,0,0,0,0,0v0
		c0,0,0,0,0,0.1c0,0,0,0,0.1,0c0,0,0.1,0,0.1,0.1c0.1,0,0.1,0.1,0.2,0.1C1.9,8.2,2,8.3,2,8.3c0,0.1,0,0.1,0.1,0.1c0,0,0,0,0,0.1
		c0,0,0,0,0.1,0h0c0,0,0,0,0,0v0c0,0,0,0,0.1,0c0,0,0,0,0-0.1c0-0.1,0-0.1-0.1-0.2C2.1,8.2,2.1,8.1,2,8z"/>
	<polygon class="st0" points="1.6,7.2 1.6,7.2 1.6,7.2 	"/>
	<path class="st0" d="M3.2,8.2C3.3,8.2,3.3,8.2,3.2,8.2L3.2,8.2C3.3,8.2,3.3,8.1,3.2,8.2C3.3,8.1,3.4,8.1,3.4,8
		c0-0.1-0.1-0.3-0.2-0.4C3.1,7.5,3,7.3,2.9,7.1l0,0l0,0C2.7,7,2.5,6.9,2.4,6.8C2.2,6.7,2.1,6.7,2,6.6c0,0-0.1,0-0.1,0c0,0,0,0,0,0
		c0,0,0,0,0,0c0,0,0,0,0,0c0,0,0,0,0,0c0,0,0,0,0,0c0,0,0,0,0,0.1c0-0.1,0.1-0.1,0.1,0c0.1,0,0.2,0.1,0.4,0.2C2.4,7,2.6,7.1,2.7,7.3
		C2.9,7.4,3,7.6,3.1,7.8C3.1,7.9,3.2,8,3.2,8.2C3.2,8.2,3.2,8.2,3.2,8.2C3.2,8.2,3.2,8.2,3.2,8.2L3.2,8.2C3.2,8.2,3.2,8.2,3.2,8.2z"
		/>
	<path class="st0" d="M3.6,7.9C3.6,7.9,3.6,7.9,3.6,7.9L3.6,7.9C3.6,7.9,3.6,7.8,3.6,7.9c0.1-0.1,0.1-0.1,0.1-0.2
		c0-0.1-0.1-0.2-0.2-0.4C3.4,7.2,3.3,7,3.2,6.8l0,0l0,0C3,6.7,2.8,6.6,2.7,6.5C2.5,6.4,2.4,6.4,2.3,6.3c0,0-0.1,0-0.1,0c0,0,0,0,0,0
		l0,0c0,0,0,0,0,0c0,0,0,0-0.1,0h0c0,0,0,0-0.1,0.1c0,0,0,0,0,0c0-0.1,0.1,0,0.1,0c0.1,0,0.2,0.1,0.4,0.2C2.7,6.7,2.8,6.8,3,7
		c0.1,0.2,0.2,0.3,0.3,0.5C3.4,7.6,3.5,7.7,3.6,7.9C3.5,7.9,3.5,7.9,3.5,8c0,0,0,0,0,0C3.5,8,3.5,7.9,3.6,7.9
		C3.5,7.9,3.5,7.9,3.6,7.9C3.6,7.9,3.6,7.9,3.6,7.9z"/>
	<path class="st0" d="M3.9,7.3c0-0.1-0.1-0.2-0.1-0.3C3.7,6.8,3.6,6.7,3.5,6.5l0,0l0,0C3.3,6.4,3.2,6.3,3,6.2
		C2.9,6.2,2.8,6.1,2.7,6.1c0,0-0.1,0-0.2,0c0,0,0,0,0,0v0c0,0,0,0-0.1,0c0,0,0,0,0,0h0c0,0-0.1,0-0.1,0.1c0.1-0.1,0.2,0,0.2,0v0
		c0.1,0,0.2,0.1,0.3,0.1C3,6.5,3.2,6.6,3.3,6.7C3.4,6.8,3.5,7,3.6,7.2c0.1,0.1,0.1,0.2,0.1,0.3h0c0,0,0,0.1,0,0.2c0,0,0-0.1,0.1-0.1
		c0,0,0,0,0,0c0,0,0,0,0,0c0,0,0,0,0-0.1c0,0,0,0,0,0c0,0,0,0,0,0C3.9,7.4,3.9,7.3,3.9,7.3z"/>
	<polygon class="st0" points="3.8,7.7 3.7,7.7 3.7,7.7 	"/>
	<polygon class="st0" points="2.3,6.2 2.3,6.3 2.3,6.3 	"/>
	<path class="st0" d="M3.5,5.8c0,0,0.1,0,0.2,0.1C3.7,5.9,3.8,6,3.9,6.1C4,6.2,4.1,6.3,4.1,6.4c0,0.1,0.1,0.1,0.1,0.2
		c0,0,0,0.1,0,0.2c0,0,0,0,0,0l0.1-0.2l0,0c0,0,0,0,0,0c0-0.1,0-0.1,0-0.2c0,0,0,0,0-0.1C4.2,6.2,4.1,6.1,4.1,6l0,0l0,0
		C3.9,5.9,3.8,5.8,3.7,5.7c0,0-0.1,0-0.1,0C3.6,5.7,3.6,5.7,3.5,5.8C3.5,5.7,3.5,5.7,3.5,5.8L3.5,5.8l-0.2,0c0,0,0,0,0,0
		C3.4,5.8,3.4,5.8,3.5,5.8z"/>
	<path class="st0" d="M6.2,2.5C6.2,2.5,6.1,2.5,6.2,2.5C6.1,2.6,6.1,2.6,6.2,2.5C6.1,2.6,6.1,2.7,6.1,2.7c0,0.1,0.1,0.2,0.1,0.3
		c0.1,0.1,0.2,0.3,0.3,0.4l0,0l0,0C6.7,3.6,6.8,3.7,7,3.8c0.1,0.1,0.2,0.1,0.3,0.1c0,0,0.1,0,0.2,0c0,0,0,0,0,0v0c0,0,0,0,0.1,0
		c0,0,0,0,0,0l0,0c0,0,0.1,0,0.1-0.1c-0.1,0.1-0.2,0-0.2,0c-0.1,0-0.2-0.1-0.3-0.1C7,3.5,6.8,3.4,6.7,3.3C6.6,3.2,6.5,3,6.4,2.8
		C6.3,2.7,6.3,2.6,6.2,2.5c0.1,0.1,0,0,0.1-0.1C6.2,2.4,6.2,2.4,6.2,2.5L6.2,2.5C6.2,2.5,6.2,2.5,6.2,2.5z"/>
	<path class="st0" d="M8.1,3.2C8,3.2,7.9,3.1,7.8,3.1C7.6,3,7.4,2.9,7.3,2.7C7.1,2.6,7,2.4,6.9,2.2C6.9,2.1,6.8,2,6.8,1.9
		c0,0,0-0.1,0-0.1c0,0,0,0-0.1,0c0,0,0,0,0,0c0,0,0,0,0,0c0,0,0,0,0,0c0,0,0,0,0,0c0,0,0,0,0,0c0,0,0,0.1,0,0.1
		c0,0.1,0.1,0.3,0.2,0.4C6.9,2.5,7,2.7,7.1,2.9l0,0l0,0C7.3,3,7.4,3.1,7.6,3.2C7.8,3.3,7.9,3.3,8,3.4C8.1,3.4,8.1,3.3,8.1,3.2
		C8.1,3.3,8.2,3.3,8.1,3.2C8.2,3.3,8.2,3.3,8.1,3.2C8.2,3.3,8.2,3.3,8.1,3.2C8.2,3.2,8.2,3.2,8.1,3.2C8.2,3.2,8.2,3.2,8.1,3.2
		c0.1,0,0.1,0,0.1,0C8.2,3.2,8.2,3.2,8.1,3.2z"/>
	<path class="st0" d="M7.4,1.6c0,0.1,0,0.2,0.1,0.4c0.1,0.1,0.1,0.2,0.2,0.3l0,0l0,0c0.1,0.1,0.2,0.2,0.3,0.2
		c0.1,0.1,0.3,0.1,0.4,0.1c0,0,0.1,0,0.1-0.1c0,0,0,0,0,0h0c0,0,0,0,0,0c0,0,0,0,0,0c0,0,0,0,0,0c0,0,0-0.1,0-0.1c0,0,0,0.1-0.1,0.1
		c-0.1,0-0.1-0.1-0.2-0.1C8.1,2.3,8,2.2,7.8,2.2C7.8,2,7.7,1.9,7.6,1.8v0c0-0.1-0.1-0.2-0.1-0.2c0-0.1,0-0.1,0.1-0.1
		c0,0-0.1,0-0.1,0c0,0,0,0,0,0C7.5,1.5,7.5,1.5,7.4,1.6C7.5,1.5,7.5,1.5,7.4,1.6C7.4,1.5,7.4,1.5,7.4,1.6C7.4,1.5,7.4,1.5,7.4,1.6
		C7.4,1.5,7.4,1.6,7.4,1.6z"/>
	<path class="st0" d="M6.1,4.4C6.1,4.4,6,4.4,6.1,4.4C5.9,4.3,5.8,4.3,5.8,4.2C5.7,4.2,5.7,4.1,5.6,4v0c0,0,0-0.1-0.1-0.1
		c0,0,0-0.1,0-0.2c0,0,0,0,0,0L5.5,3.9l0,0c0,0,0,0,0,0c0,0.1,0,0.1,0,0.1c0,0,0,0,0,0c0,0.1,0.1,0.1,0.1,0.2l0,0l0,0
		c0.1,0.1,0.1,0.1,0.2,0.1c0,0,0,0,0,0C5.9,4.5,6,4.5,6.1,4.4L6.1,4.4l0.2,0C6.2,4.4,6.1,4.4,6.1,4.4z"/>
	<polygon class="st0" points="6.3,4.4 6.3,4.4 6.3,4.4 	"/>
	<path class="st0" d="M8,2L8,2L8,2c0.1,0.1,0.2,0.1,0.2,0.2c0.1,0,0.2,0.1,0.2,0.1c0,0,0.1,0,0.1,0c0,0,0,0,0-0.1h0c0,0,0,0,0,0v0
		c0,0,0,0,0-0.1c0,0,0,0-0.1,0c0,0-0.1,0-0.1-0.1C8.3,2,8.2,1.9,8.1,1.9C8.1,1.8,8,1.7,8,1.7c0-0.1,0-0.1-0.1-0.1c0,0,0,0,0-0.1
		c0,0,0,0-0.1,0h0c0,0,0,0,0,0v0c0,0,0,0-0.1,0c0,0,0,0,0,0.1c0,0.1,0,0.1,0.1,0.2C7.9,1.8,7.9,1.9,8,2z"/>
	<path class="st0" d="M5.6,4.6C5.6,4.6,5.6,4.6,5.6,4.6c-0.1,0-0.1-0.1-0.2-0.1c0,0-0.1-0.1-0.1-0.1c0,0,0,0,0,0c0,0,0-0.1,0-0.2
		c0,0,0,0,0,0L5.3,4.4l0,0C5.2,4.5,5.2,4.6,5.2,4.7c0,0,0,0,0,0c0,0,0,0,0,0c0,0,0,0,0,0c0,0,0,0,0,0c0,0,0,0,0,0c0,0,0,0,0,0
		c0,0,0,0,0,0c0,0,0,0,0,0c0,0,0,0,0,0c0,0,0,0,0,0C5.4,4.8,5.5,4.8,5.6,4.6L5.6,4.6L5.6,4.6l0.2,0c0,0,0,0,0,0
		C5.7,4.7,5.6,4.6,5.6,4.6z"/>
	<polygon class="st0" points="5.5,3.9 5.5,4 5.5,3.9 	"/>
	<path class="st0" d="M8.5,1.9C8.5,1.9,8.5,1.9,8.5,1.9c0-0.1,0-0.2,0-0.3v0c0,0,0,0,0,0c0,0-0.1-0.1-0.2-0.2c0,0,0,0,0,0
		c0,0,0,0,0,0c-0.1,0-0.2,0-0.3,0c0,0,0.1,0,0.1,0C8.4,1.6,8.5,1.8,8.5,1.9z"/>
	<polygon class="st0" points="7.7,3.8 7.7,3.7 7.7,3.7 	"/>
	<polygon class="st0" points="6.2,2.3 6.3,2.3 6.3,2.3 	"/>
	<path class="st0" d="M6.4,2.1C6.4,2.1,6.4,2.1,6.4,2.1C6.4,2.1,6.4,2.2,6.4,2.1C6.3,2.2,6.3,2.3,6.3,2.3c0,0.1,0.1,0.2,0.2,0.4
		C6.6,2.8,6.7,3,6.8,3.2l0,0l0,0C7,3.3,7.2,3.4,7.3,3.5c0.1,0.1,0.3,0.1,0.4,0.2c0,0,0.1,0,0.1,0c0,0,0,0,0,0l0,0c0,0,0,0,0,0
		c0,0,0,0,0.1,0h0c0,0,0,0,0.1-0.1c0,0,0,0,0,0c0,0-0.1,0-0.1,0c-0.1,0-0.2-0.1-0.4-0.2C7.3,3.3,7.2,3.2,7,3
		C6.8,2.8,6.7,2.7,6.6,2.5C6.6,2.4,6.5,2.3,6.4,2.1c0.1,0,0.1-0.1,0.1-0.1c0,0,0,0,0,0C6.5,2,6.5,2.1,6.4,2.1L6.4,2.1
		C6.4,2.1,6.4,2.1,6.4,2.1z"/>
	<path class="st0" d="M7.2,1.6C7.2,1.6,7.1,1.6,7.2,1.6C7.1,1.6,7.1,1.6,7.2,1.6c-0.1,0-0.1,0-0.1,0c0,0,0,0,0,0v0c0,0,0,0,0,0
		C7,1.7,7,1.7,7,1.7C7,1.8,7.1,2,7.1,2.2c0.1,0.1,0.2,0.3,0.3,0.4l0,0l0,0c0.1,0.1,0.3,0.2,0.4,0.3C8,2.9,8.2,3,8.3,3
		c0,0,0.1,0,0.1,0c0,0,0,0,0,0h0c0,0,0,0,0,0c0,0,0,0,0,0c0,0,0,0,0,0c0,0,0,0,0-0.1c0,0,0,0.1-0.1,0C8.2,2.8,8.1,2.8,8,2.7
		C7.9,2.7,7.7,2.6,7.6,2.4C7.4,2.3,7.3,2.1,7.3,2C7.2,1.9,7.2,1.8,7.2,1.6C7.1,1.6,7.1,1.6,7.2,1.6z"/>
	<polygon class="st0" points="6,2.8 6,2.8 6,2.8 	"/>
	<path class="st0" d="M6,2.8C6,2.8,6,2.8,6,2.8C6,2.8,6,2.8,6,2.8L6,2.8L5.9,3c0,0.1,0,0.1,0,0.2C5.9,3.3,6,3.3,6,3.4
		c0.1,0.1,0.2,0.2,0.3,0.4l0,0l0,0C6.4,3.9,6.5,3.9,6.6,4c0.1,0,0.1,0.1,0.2,0.1c0,0,0.1,0,0.2,0l0.1,0L7.2,4c0,0,0,0,0,0
		c0,0,0,0,0,0C7.1,4,7,4,7,4C6.9,4,6.9,3.9,6.8,3.9C6.6,3.8,6.5,3.7,6.4,3.6C6.3,3.5,6.2,3.4,6.1,3.2C6.1,3.2,6,3.1,6,3
		C6,3,6,2.9,6,2.8z"/>
	<path class="st0" d="M6.5,4.2c0,0-0.1,0-0.2-0.1C6.3,4.1,6.2,4,6.1,3.9C6,3.8,5.9,3.7,5.9,3.6c0-0.1-0.1-0.1-0.1-0.2
		c0,0,0-0.1,0-0.2c0,0,0,0,0,0L5.8,3.4l0,0.1c0,0,0,0,0,0c0,0.1,0,0.1,0,0.2c0,0,0,0,0,0.1C5.8,3.8,5.9,3.9,5.9,4l0,0l0,0
		c0.1,0.1,0.2,0.1,0.3,0.2c0,0,0.1,0,0.1,0C6.4,4.3,6.4,4.3,6.5,4.2C6.5,4.3,6.5,4.3,6.5,4.2L6.5,4.2l0.2,0c0,0,0,0,0,0
		C6.6,4.2,6.6,4.2,6.5,4.2z"/>
	<path class="st0" d="M6.1,0.5c0.2,0,0.4,0,0.7,0.1C7,0.7,7.2,0.9,7.4,1c0.2,0.2,0.3,0.3,0.4,0.4c0-0.2-0.1-0.4-0.3-0.6
		C7.2,0.7,7.1,0.6,6.9,0.4c-0.2,0-0.4-0.1-0.6-0.1C6,0.4,5.7,0.5,5.6,0.6C5.7,0.5,5.9,0.5,6.1,0.5z"/>
	<path class="st0" d="M7,1.1C6.9,1,6.8,0.9,6.7,0.9l0,0l0,0c-0.1,0-0.2-0.1-0.3-0.1c0,0-0.1,0-0.1,0C6.2,0.8,6,0.9,6.1,1l0,0
		c0,0,0.1,0,0.1,0c0,0,0.1,0,0.2,0l0,0C6.4,1,6.5,1,6.7,1c0.1,0.1,0.2,0.1,0.3,0.2C7,1.3,7.1,1.4,7.1,1.4C7.2,1.4,7.1,1.2,7,1.1
		C7.1,1.1,7,1.1,7,1.1z"/>
	<path class="st0" d="M3.9,9.5c-0.2,0-0.4,0-0.7-0.1C3,9.2,2.8,9.1,2.6,9C2.5,8.8,2.4,8.6,2.3,8.5c0,0.2,0.1,0.4,0.3,0.6
		c0.1,0.1,0.3,0.3,0.5,0.4c0.2,0,0.4,0.1,0.6,0.1c0.3,0,0.5-0.1,0.7-0.2C4.3,9.5,4.1,9.5,3.9,9.5z"/>
	<path class="st0" d="M3,8.9C3.1,9,3.2,9,3.3,9.1l0,0l0,0c0.1,0,0.2,0.1,0.3,0.1c0,0,0.1,0,0.1,0C3.8,9.2,4,9.1,3.9,9l0,0
		c0,0-0.1,0-0.1,0c0,0-0.1,0-0.2,0l0,0C3.6,9,3.5,9,3.3,8.9C3.2,8.9,3.1,8.8,3.1,8.8C3,8.7,2.9,8.6,2.9,8.6C2.8,8.6,2.8,8.7,3,8.9
		C2.9,8.9,3,8.9,3,8.9z"/>
	<path class="st0" d="M2.7,1C2.8,0.9,3,0.7,3.2,0.6c0.2-0.1,0.5-0.1,0.7-0.1c0.2,0,0.4,0,0.6,0.1C4.3,0.5,4.1,0.4,3.7,0.4
		c-0.2,0-0.4,0-0.6,0C2.9,0.5,2.8,0.7,2.6,0.8C2.4,1,2.3,1.3,2.3,1.5C2.4,1.3,2.5,1.2,2.7,1z"/>
	<path class="st0" d="M3.8,0.8c0,0-0.1,0-0.1,0c-0.1,0-0.2,0-0.3,0.1l0,0l0,0C3.2,0.9,3.1,1,3,1.1c0,0-0.1,0-0.1,0.1
		c-0.1,0.1-0.1,0.2,0,0.3l0,0c0,0,0-0.1,0.1-0.1c0,0,0.1-0.1,0.1-0.1C3.2,1.2,3.3,1.1,3.4,1C3.5,1,3.6,1,3.7,1C3.8,1,3.9,1,4,1
		C4,0.9,3.9,0.8,3.8,0.8z"/>
	<path class="st0" d="M7.3,9C7.2,9.1,7,9.2,6.8,9.4C6.6,9.4,6.3,9.5,6.1,9.5c-0.2,0-0.4,0-0.6-0.1c0.1,0.1,0.4,0.2,0.7,0.2
		c0.2,0,0.4,0,0.6,0c0.2-0.1,0.3-0.3,0.5-0.4c0.2-0.2,0.3-0.4,0.3-0.6C7.6,8.7,7.5,8.8,7.3,9z"/>
	<path class="st0" d="M6.2,9.2c0,0,0.1,0,0.1,0c0.1,0,0.2,0,0.3-0.1l0,0l0,0C6.8,9.1,6.9,9,7,8.9c0,0,0.1,0,0.1-0.1
		c0.1-0.1,0.1-0.2,0-0.3l0,0c0,0,0,0.1-0.1,0.1c0,0-0.1,0.1-0.1,0.1h0C6.8,8.8,6.7,8.9,6.6,9C6.5,9,6.4,9,6.3,9C6.2,9,6.1,9,6,9
		C6,9.1,6.1,9.2,6.2,9.2z"/>
	<path class="st0" d="M0.5,3.8c0-0.2,0-0.4,0.1-0.7C0.8,3,0.9,2.8,1,2.6c0.2-0.2,0.3-0.3,0.4-0.4c-0.2,0-0.4,0.1-0.6,0.3
		C0.7,2.7,0.6,2.9,0.4,3.1c0,0.2-0.1,0.4-0.1,0.6c0,0.3,0.1,0.5,0.2,0.7C0.5,4.3,0.5,4.1,0.5,3.8z"/>
	<path class="st0" d="M1,3.7C1,3.6,1,3.5,1,3.3c0.1-0.1,0.1-0.2,0.2-0.3C1.3,3,1.4,2.9,1.4,2.9c-0.1-0.1-0.2,0-0.3,0
		c0,0,0,0.1-0.1,0.1C1,3.1,0.9,3.2,0.9,3.3l0,0l0,0c0,0.1-0.1,0.2-0.1,0.3c0,0,0,0.1,0,0.1c0,0.1,0.1,0.2,0.2,0.2l0,0
		c0,0,0-0.1,0-0.1C1,3.8,1,3.7,1,3.7L1,3.7z"/>
	<path class="st0" d="M9.5,6.1c0,0.2,0,0.4-0.1,0.7C9.2,7,9.1,7.2,9,7.4C8.8,7.5,8.7,7.6,8.5,7.7c0.2,0,0.4-0.1,0.6-0.3
		c0.1-0.1,0.3-0.3,0.4-0.5c0-0.2,0.1-0.4,0.1-0.6c0-0.3-0.1-0.5-0.2-0.7C9.5,5.7,9.5,5.9,9.5,6.1z"/>
	<path class="st0" d="M9,6.6C8.9,6.7,8.8,6.8,8.8,6.9C8.7,7,8.6,7.1,8.6,7.1c0.1,0.1,0.2,0,0.3,0c0,0,0-0.1,0.1-0.1
		C9,6.9,9.1,6.8,9.1,6.7l0,0l0,0c0-0.1,0.1-0.2,0.1-0.3c0,0,0-0.1,0-0.1C9.2,6.2,9.1,6,9,6l0,0c0,0,0,0.1,0,0.1c0,0,0,0.1,0,0.2
		C9,6.4,9,6.5,9,6.6z"/>
	<path class="st0" d="M1,7.3C0.9,7.2,0.7,7,0.6,6.8C0.6,6.6,0.5,6.3,0.5,6.1c0-0.2,0-0.4,0.1-0.6C0.5,5.7,0.4,5.9,0.4,6.2
		c0,0.2,0,0.4,0,0.6c0.1,0.2,0.3,0.3,0.4,0.5c0.2,0.2,0.4,0.3,0.6,0.3C1.3,7.6,1.2,7.5,1,7.3z"/>
	<path class="st0" d="M0.9,6.7L0.9,6.7L0.9,6.7C0.9,6.8,1,6.9,1.1,7c0,0,0,0.1,0.1,0.1c0.1,0.1,0.2,0.1,0.3,0v0c0,0-0.1,0-0.1-0.1
		c0,0-0.1-0.1-0.1-0.1C1.2,6.8,1.1,6.7,1,6.6C1,6.5,1,6.4,1,6.3C1,6.2,1,6.1,1,6C0.9,6,0.8,6.1,0.8,6.2c0,0,0,0.1,0,0.1
		C0.8,6.5,0.8,6.6,0.9,6.7z"/>
	<path class="st0" d="M9.2,2.6C8.9,2.4,8.7,2.3,8.5,2.3C8.7,2.4,8.8,2.5,9,2.6C9.1,2.8,9.3,3,9.4,3.2c0.1,0.2,0.1,0.5,0.1,0.7
		c0,0.2,0,0.4-0.1,0.6C9.5,4.3,9.6,4,9.6,3.7c0-0.2,0-0.4,0-0.6C9.5,2.9,9.3,2.8,9.2,2.6z"/>
	<path class="st0" d="M9.1,3.3L9.1,3.3L9.1,3.3C9.1,3.2,9,3.1,8.9,3c0,0,0-0.1-0.1-0.1c-0.1-0.1-0.2-0.1-0.3,0l0,0
		c0,0,0.1,0,0.1,0.1c0,0,0.1,0.1,0.1,0.1v0C8.8,3.2,8.9,3.3,9,3.4C9,3.5,9,3.6,9,3.7C9,3.8,9,3.9,9,4c0.1,0,0.2-0.1,0.2-0.2
		c0,0,0-0.1,0-0.1C9.2,3.5,9.2,3.4,9.1,3.3z"/>
</g>
</svg>
