<?xml version="1.0" encoding="utf-8"?>
<!-- Generator: Adobe Illustrator 23.0.1, SVG Export Plug-In . SVG Version: 6.00 Build 0)  -->
<svg version="1.1" xmlns="http://www.w3.org/2000/svg" xmlns:xlink="http://www.w3.org/1999/xlink" x="0px" y="0px"
	 viewBox="0 0 50 50" style="enable-background:new 0 0 50 50;" xml:space="preserve">
<style type="text/css">
	.st0{fill:#FFFFFF;}
</style>
<g>
	<g>
		<path class="st0" d="M26.2,7.9L26.2,7.9c0.3-0.2,0.4-0.6,0.2-1c-0.2-0.3-0.6-0.4-1-0.2v0l-12.5,8.9v0c-0.3,0.2-0.4,0.6-0.2,1
			c0.2,0.3,0.6,0.4,0.9,0.2l0,0L26.2,7.9z"/>
		<path class="st0" d="M27.9,10.2L27.9,10.2c0.3-0.2,0.4-0.6,0.2-1c-0.2-0.3-0.6-0.4-1-0.2h0l-9.3,6.6h0c-0.3,0.2-0.4,0.6-0.2,1
			c0.2,0.3,0.6,0.4,1,0.2v0L27.9,10.2z"/>
		<path class="st0" d="M29.5,12.6L29.5,12.6c0.3-0.2,0.4-0.6,0.2-1c-0.2-0.3-0.6-0.4-0.9-0.2h0l-6,4.3l0,0c-0.3,0.2-0.4,0.6-0.2,1
			c0.2,0.3,0.6,0.4,0.9,0.2v0L29.5,12.6z"/>
		<path class="st0" d="M32.3,2.8c-0.2-0.3-0.6-0.4-1-0.2c-0.3,0.2-0.4,0.6-0.2,1h0l1.3,1.8l-0.6,0.4h0c-0.3,0.2-0.4,0.6-0.2,1
			c0.2,0.3,0.6,0.4,1,0.2v0l0.6-0.4l0.3,0.5l0,0c0,0,0,0,0,0l0,0c1.2,1.7,0.8,4-0.9,5.2c0,0-5,3.6-5,3.6l0,0c-0.3,0.2-0.4,0.6-0.2,1
			c0.2,0.3,0.6,0.4,1,0.2l0,0c0,0,5-3.6,5-3.6c2.3-1.6,2.8-4.8,1.2-7.1L32.3,2.8L32.3,2.8z"/>
	</g>
	<g>
		<path class="st0" d="M26.7,24.6c0-1.4,0.2-2.3,0.6-2.9c0.8-1.2,2.2-1.4,3.2-1.4c0.8,0,1.6,0.2,1.9,0.3c0.2,0.1,0.6,0.3,0.6,0.8
			c0,0.5-0.3,0.9-0.8,0.9c-0.2,0-1.1-0.1-1.3-0.1c-1.8,0-2,1-2,2.6v1.1h1.4c0.6,0,1.4,0,1.4,0.8c0,0.9-0.9,0.9-1.4,0.9H29v10.5
			c0,0.8,0,1.3-0.3,1.6c-0.2,0.2-0.5,0.3-0.8,0.3c-0.3,0-0.6-0.1-0.8-0.3c-0.3-0.3-0.3-0.8-0.3-1.6V27.6h-1.3c-0.3,0-1.3,0-1.3-0.9
			c0-0.8,1-0.8,1.3-0.8h1.2V24.6z"/>
		<path class="st0" d="M35.8,23.3c-0.7,0-1.3-0.6-1.3-1.3c0-0.7,0.6-1.3,1.3-1.3c0.7,0,1.3,0.6,1.3,1.3
			C37.1,22.7,36.5,23.3,35.8,23.3z M37,38.1c0,0.7,0,1-0.1,1.1c-0.2,0.5-0.6,0.7-1.1,0.7c-1.1,0-1.2-1.1-1.2-1.9V27.5
			c0-0.8,0-1.2,0.3-1.5c0.2-0.2,0.5-0.3,0.9-0.3c0.6,0,0.8,0.2,1,0.5C37,26.4,37,27,37,27.5V38.1z"/>
		<path class="st0" d="M20,25.9L20,25.9c-0.3,0.3-0.3,0.7-0.3,1.3v8.3c0,1.3-1,2.3-2.3,2.3c-1.3,0-2.3-1-2.3-2.3v-8.3
			c0-0.4,0-0.9-0.1-1.1c-0.1-0.3-0.4-0.5-0.9-0.5c-0.3,0-0.6,0.1-0.8,0.3l0,0c-0.3,0.3-0.3,0.7-0.3,1.3l0,8.3c0,2.5,2.1,4.5,4.5,4.5
			c2.5,0,4.5-2,4.5-4.5l0-8.4c0-0.4,0-0.9-0.1-1.1c-0.1-0.3-0.4-0.5-0.9-0.5C20.4,25.6,20.2,25.7,20,25.9z"/>
	</g>
	<g>
		<path class="st0" d="M12.8,42.7h1.6l1,3.4l1-3.4H18v4.8h-0.9v-4l-1.2,4H15l-1.2-4v4h-0.9V42.7z"/>
		<path class="st0" d="M20.2,47.5c-1,0-1.5-0.6-1.5-1.7c0-1.1,0.6-1.8,1.6-1.8c0.9,0,1.5,0.6,1.5,1.7c0,0.1,0,0.1,0,0.2h-2.1
			c0,0.6,0.2,0.9,0.6,0.9c0.3,0,0.5-0.2,0.6-0.5h0.9C21.5,47.1,21,47.5,20.2,47.5z M20.7,45.4c0-0.5-0.2-0.7-0.6-0.7
			c-0.3,0-0.5,0.3-0.6,0.7H20.7z"/>
		<path class="st0" d="M22.2,44.7c0-0.2,0-0.4,0-0.6h0.9l0,0.5c0.3-0.4,0.6-0.6,1.1-0.6c0.5,0,0.9,0.2,1,0.6
			c0.2-0.4,0.6-0.6,1.1-0.6c0.7,0,1.1,0.4,1.1,1.3v2.1h-1v-2c0-0.5-0.1-0.7-0.5-0.7c-0.4,0-0.6,0.3-0.6,0.7v2h-1v-2
			c0-0.5-0.1-0.7-0.5-0.7c-0.4,0-0.6,0.3-0.6,0.7v2h-1V44.7z"/>
		<path class="st0" d="M28.1,46.9v-4.2h1v1.9c0.2-0.4,0.6-0.5,1-0.5c0.8,0,1.3,0.6,1.3,1.7c0,1.1-0.6,1.7-1.4,1.7
			c-0.4,0-0.8-0.2-1-0.5l0,0.5h-0.9C28.1,47.3,28.1,47.1,28.1,46.9z M29.7,46.9c0.4,0,0.7-0.4,0.7-1.1c0-0.7-0.3-1.1-0.7-1.1
			S29,45.1,29,45.8C29,46.5,29.3,46.9,29.7,46.9z"/>
		<path class="st0" d="M33.3,47.5c-1,0-1.5-0.6-1.5-1.7c0-1.1,0.6-1.8,1.6-1.8c0.9,0,1.5,0.6,1.5,1.7c0,0.1,0,0.1,0,0.2h-2.1
			c0,0.6,0.2,0.9,0.6,0.9c0.3,0,0.5-0.2,0.6-0.5h0.9C34.7,47.1,34.2,47.5,33.3,47.5z M33.9,45.4c0-0.5-0.2-0.7-0.6-0.7
			c-0.3,0-0.5,0.3-0.6,0.7H33.9z"/>
		<path class="st0" d="M35.4,45.1c0-0.4,0-0.7,0-1h0.9l0,0.6c0.2-0.4,0.5-0.6,1.1-0.6c0,0,0,0,0,0V45c-0.1,0-0.1,0-0.2,0
			c-0.5,0-0.8,0.3-0.8,0.7v1.8h-1V45.1z"/>
	</g>
</g>
</svg>
