<?xml version="1.0" encoding="utf-8"?>
<!-- Generator: Adobe Illustrator 23.0.1, SVG Export Plug-In . SVG Version: 6.00 Build 0)  -->
<svg version="1.1" id="Layer_1" xmlns="http://www.w3.org/2000/svg" xmlns:xlink="http://www.w3.org/1999/xlink" x="0px" y="0px"
	 viewBox="272.6 395.9 50 50" style="enable-background:new 272.6 395.9 50 50;" xml:space="preserve">
<style type="text/css">
	.st0{fill:#FFFFFF;}
</style>
<path class="st0" d="M276.6,429.9c-1.7,0-3,1.3-3,3c0,1.7,1.3,3,3,3h3v4.5c0,2.5,2,4.5,4.5,4.5h33c2.5,0,4.5-2,4.5-4.5v-39
	c0-2.5-2-4.5-4.5-4.5h-33c-2.5,0-4.5,2-4.5,4.5v4.5h-3c-1.7,0-3,1.3-3,3c0,1.7,1.3,3,3,3h3v6h-3c-1.7,0-3,1.3-3,3c0,1.7,1.3,3,3,3h3
	v6H276.6z M291.6,429.9c0-3.7,2.3-7.1,5.8-8.4c-2.8-1.7-3.7-5.4-1.9-8.3c1.7-2.8,5.4-3.7,8.3-1.9c2.8,1.7,3.7,5.4,1.9,8.3
	c-0.5,0.8-1.2,1.5-1.9,1.9c3.5,1.3,5.8,4.7,5.8,8.4v1.5c0,0.8-0.7,1.5-1.5,1.5h-15c-0.8,0-1.5-0.7-1.5-1.5V429.9z"/>
</svg>
