<?xml version="1.0" encoding="utf-8"?>
<!-- Generator: Adobe Illustrator 23.0.1, SVG Export Plug-In . SVG Version: 6.00 Build 0)  -->
<svg version="1.1" id="Layer_1" xmlns="http://www.w3.org/2000/svg" xmlns:xlink="http://www.w3.org/1999/xlink" x="0px" y="0px"
	 viewBox="0 0 50 50" style="enable-background:new 0 0 50 50;" xml:space="preserve">
<style type="text/css">
	.st0{fill:#FFFFFF;}
</style>
<g>
	<path class="st0" d="M15.6,19.8h3.2v-5.1c0-3.4,2.8-6.1,6.1-6.1c3.4,0,6.1,2.8,6.1,6.1v5.1h3.2c0.7,0,1.3,0.1,2,0.2l0.8,0.2v-5.6
		c0-6.7-5.4-12.1-12.1-12.1S12.9,7.9,12.9,14.6v5.6l0.8-0.2C14.3,19.9,15,19.8,15.6,19.8z"/>
	<path class="st0" d="M34.4,21H15.6C11.4,21,8,24.4,8,28.6v10.5c0,4.6,3.7,8.4,8.4,8.4h17.2c4.6,0,8.4-3.7,8.4-8.4V28.6
		C42,24.4,38.6,21,34.4,21z M27.9,35.1v4.4c0,1.6-1.3,2.9-2.9,2.9s-2.9-1.3-2.9-2.9v-4.4c-1.3-0.9-2.1-2.4-2.1-4.1c0-2.8,2.2-5,5-5
		s5,2.2,5,5C30,32.7,29.2,34.2,27.9,35.1z"/>
</g>
</svg>
