<?xml version="1.0" encoding="utf-8"?>
<!-- Generator: Adobe Illustrator 23.0.1, SVG Export Plug-In . SVG Version: 6.00 Build 0)  -->
<svg version="1.1" id="Layer_1" xmlns="http://www.w3.org/2000/svg" xmlns:xlink="http://www.w3.org/1999/xlink" x="0px" y="0px"
	 viewBox="0 0 50 50" style="enable-background:new 0 0 50 50;" xml:space="preserve">
<style type="text/css">
	.st0{fill:#FFFFFF;}
</style>
<path class="st0" d="M45,47.5H5c-0.6,0-1-0.4-1-0.9V3.4c0-0.5,0.4-0.9,1-0.9h40c0.6,0,1,0.4,1,0.9v43.1C46,47.1,45.6,47.5,45,47.5z
	 M6,45.6h38V4.4H6V45.6z M21,20.3H9c-0.6,0-1-0.4-1-0.9V8.1c0-0.5,0.4-0.9,1-0.9h12c0.6,0,1,0.4,1,0.9v11.2
	C22,19.9,21.6,20.3,21,20.3z M10,18.4h10V9.1H10V18.4z M42,8.1c0-0.5-0.4-0.9-1-0.9H27c-0.6,0-1,0.4-1,0.9S26.4,9,27,9h14
	C41.6,9.1,42,8.6,42,8.1z M42,13.8c0-0.5-0.4-0.9-1-0.9H25c-0.6,0-1,0.4-1,0.9s0.4,0.9,1,0.9h16C41.6,14.7,42,14.3,42,13.8z
	 M42,19.4c0-0.5-0.4-0.9-1-0.9H25c-0.6,0-1,0.4-1,0.9s0.4,0.9,1,0.9h16C41.6,20.3,42,19.9,42,19.4z M42,25c0-0.5-0.4-0.9-1-0.9H9
	c-0.6,0-1,0.4-1,0.9s0.4,0.9,1,0.9h32C41.6,25.9,42,25.5,42,25z M42,30.6c0-0.5-0.4-0.9-1-0.9H9c-0.6,0-1,0.4-1,0.9s0.4,0.9,1,0.9
	h32C41.6,31.6,42,31.1,42,30.6z M42,36.2c0-0.5-0.4-0.9-1-0.9H9c-0.6,0-1,0.4-1,0.9s0.4,0.9,1,0.9h32C41.6,37.2,42,36.8,42,36.2z
	 M36,41.9c0-0.5-0.4-0.9-1-0.9H9c-0.6,0-1,0.4-1,0.9s0.4,0.9,1,0.9h26C35.6,42.8,36,42.4,36,41.9z"/>
</svg>
