<?xml version="1.0" encoding="utf-8"?>
<!-- Generator: Adobe Illustrator 23.0.1, SVG Export Plug-In . SVG Version: 6.00 Build 0)  -->
<svg version="1.1" id="Layer_1" xmlns="http://www.w3.org/2000/svg" xmlns:xlink="http://www.w3.org/1999/xlink" x="0px" y="0px"
	 viewBox="0 0 50 50" style="enable-background:new 0 0 50 50;" xml:space="preserve">
<style type="text/css">
	.st0{fill:#FFFFFF;}
</style>
<path class="st0" d="M43,1.8H7c-2.5,0-4.5,2-4.5,4.5v28.4c0,2.5,2,4.5,4.5,4.5h9l0,9l9-9h18c2.5,0,4.5-2,4.5-4.5V6.3
	C47.5,3.8,45.5,1.8,43,1.8z M38.5,30.2h-27v-1.5h27L38.5,30.2L38.5,30.2z M38.5,24.2h-27v-1.5h27L38.5,24.2L38.5,24.2z M38.5,16.7
	v1.5v0h-27v0v-1.5v0L38.5,16.7L38.5,16.7L38.5,16.7z M38.5,12.2h-27v-1.5h27L38.5,12.2L38.5,12.2z"/>
</svg>
