<?xml version="1.0" encoding="utf-8"?>
<!-- Generator: Adobe Illustrator 23.0.1, SVG Export Plug-In . SVG Version: 6.00 Build 0)  -->
<svg version="1.1" id="Layer_1" xmlns="http://www.w3.org/2000/svg" xmlns:xlink="http://www.w3.org/1999/xlink" x="0px" y="0px"
	 viewBox="0 0 50 50" style="enable-background:new 0 0 50 50;" xml:space="preserve">
<style type="text/css">
	.st0{fill:#FFFFFF;}
</style>
<g>
	<path class="st0" d="M13.9,20c0.9-1.4,2-2.8,3.1-4.1c7.8-8.9,18-12,23.6-6.6c2.7,2.6,3.7,6.5,3.1,10.8h1.2
		c0.5-4.7-0.7-8.9-3.6-11.6C35.2,2.5,22.6,5.1,14,14.8c-1.5,1.7-2.8,3.5-3.9,5.2H13.9z"/>
	<path class="st0" d="M39.2,31c-0.8,1.1-1.7,2.2-2.7,3.3c-8.2,8.6-17.9,11.8-23.5,6.3c-2.5-2.4-3.5-5.8-3.2-9.6H5.8
		C5.2,35.6,6.1,39.7,9,42.4c6.1,5.9,19,3,28-6.4c1.5-1.6,2.8-3.3,3.9-5H39.2z"/>
	<path class="st0" d="M2.4,21.6v10.3h1.9v-3.6c0.4,0.3,0.7,0.6,1.1,0.8c0.4,0.2,0.8,0.2,1.2,0.2c1,0,1.8-0.4,2.5-1.1
		c0.7-0.8,1.1-1.7,1.1-2.8c0-1.2-0.3-2.1-1-2.9c-0.7-0.7-1.5-1.1-2.5-1.1c-0.5,0-0.9,0.1-1.3,0.3c-0.4,0.2-0.8,0.4-1.1,0.8v-0.8H2.4
		z M7.8,23.8c0.4,0.4,0.6,0.9,0.6,1.6c0,0.7-0.2,1.2-0.6,1.6c-0.4,0.4-0.9,0.6-1.5,0.6c-0.6,0-1.1-0.2-1.5-0.6
		c-0.4-0.4-0.6-1-0.6-1.6c0-0.7,0.2-1.2,0.6-1.6c0.4-0.4,0.9-0.6,1.5-0.6C6.9,23.1,7.4,23.4,7.8,23.8"/>
	<path class="st0" d="M21.4,23.1L19.8,24c-0.3-0.3-0.6-0.5-0.9-0.6c-0.3-0.1-0.6-0.2-1-0.2c-0.7,0-1.3,0.2-1.7,0.6
		c-0.4,0.4-0.7,1-0.7,1.6c0,0.6,0.2,1.2,0.6,1.6c0.4,0.4,1,0.6,1.7,0.6c0.8,0,1.5-0.3,2-0.9l1.5,1c-0.8,1.1-1.9,1.6-3.4,1.6
		c-1.3,0-2.4-0.4-3.1-1.2c-0.7-0.8-1.1-1.7-1.1-2.8c0-0.7,0.2-1.4,0.5-2c0.4-0.6,0.9-1.1,1.5-1.4c0.7-0.3,1.4-0.5,2.2-0.5
		c0.7,0,1.4,0.1,2,0.4C20.5,22.2,21,22.6,21.4,23.1"/>
	<path class="st0" d="M24.6,21.6h1.9v0.9c0.3-0.4,0.7-0.6,1.1-0.8c0.4-0.2,0.8-0.3,1.3-0.3c0.5,0,0.9,0.1,1.3,0.3
		c0.4,0.2,0.7,0.6,0.9,1c0.3-0.4,0.7-0.8,1.1-1c0.4-0.2,0.9-0.3,1.4-0.3c0.5,0,1,0.1,1.4,0.4c0.4,0.2,0.7,0.6,0.9,1
		c0.2,0.4,0.3,1.1,0.3,2v4.4h-1.9v-3.8c0-0.9-0.1-1.4-0.3-1.7c-0.2-0.3-0.5-0.5-1-0.5c-0.3,0-0.6,0.1-0.9,0.3
		c-0.3,0.2-0.5,0.4-0.6,0.8c-0.1,0.3-0.2,0.8-0.2,1.6v3.4h-1.9v-3.6c0-0.7-0.1-1.2-0.2-1.5c-0.1-0.3-0.3-0.5-0.4-0.7
		c-0.2-0.1-0.4-0.2-0.7-0.2c-0.3,0-0.6,0.1-0.9,0.3c-0.3,0.2-0.5,0.4-0.6,0.8c-0.1,0.3-0.2,0.9-0.2,1.6v3.3h-1.9V21.6z"/>
	<path class="st0" d="M45.6,22.4c-0.3-0.3-0.7-0.6-1.1-0.8c-0.4-0.2-0.8-0.3-1.3-0.3c-1,0-1.8,0.4-2.5,1.1c-0.7,0.7-1,1.7-1,2.9
		c0,1.1,0.4,2.1,1.1,2.8c0.7,0.8,1.6,1.1,2.5,1.1c0.4,0,0.8-0.1,1.2-0.2c0.4-0.2,0.7-0.4,1.1-0.8v0.8h1.9v-7.5h-1.9V22.4z
		 M45.1,23.8c0.4,0.4,0.6,0.9,0.6,1.6c0,0.7-0.2,1.2-0.6,1.6c-0.4,0.4-0.9,0.6-1.5,0.6c-0.6,0-1.1-0.2-1.5-0.6
		c-0.4-0.4-0.6-1-0.6-1.6c0-0.6,0.2-1.2,0.6-1.6c0.4-0.4,0.9-0.6,1.5-0.6C44.2,23.1,44.7,23.3,45.1,23.8"/>
</g>
</svg>
