<?xml version="1.0" encoding="utf-8"?>
<!-- Generator: Adobe Illustrator 23.0.1, SVG Export Plug-In . SVG Version: 6.00 Build 0)  -->
<svg version="1.1" id="Layer_1" xmlns="http://www.w3.org/2000/svg" xmlns:xlink="http://www.w3.org/1999/xlink" x="0px" y="0px"
	 viewBox="0 0 50 50" style="enable-background:new 0 0 50 50;" xml:space="preserve">
<style type="text/css">
	.st0{fill:#FFFFFF;}
</style>
<g>
	<path class="st0" d="M24.5,2.5c-9.4,0-16.9,7.6-16.9,16.9c0,9.4,7.6,16.9,16.9,16.9c9.4,0,16.9-7.6,16.9-16.9
		C41.4,10.1,33.8,2.5,24.5,2.5z M35.2,12c1,0,1.9,0.8,1.9,1.9c0,1-0.9,1.9-1.9,1.9c-1,0-1.9-0.9-1.9-1.9C33.3,12.9,34.1,12,35.2,12z
		 M28,12c1,0,1.9,0.8,1.9,1.9c0,1-0.9,1.9-1.9,1.9c-1,0-1.9-0.9-1.9-1.9C26.1,12.9,27,12,28,12z M20.9,12c1,0,1.9,0.8,1.9,1.9
		c0,1-0.9,1.9-1.9,1.9c-1,0-1.9-0.9-1.9-1.9C19,12.9,19.9,12,20.9,12z M13.8,12c1,0,1.9,0.8,1.9,1.9c0,1-0.9,1.9-1.9,1.9
		c-1,0-1.9-0.9-1.9-1.9C11.9,12.9,12.7,12,13.8,12z M11.1,21.4c0,0.5-1.9,0.5-1.9,0v-3.9c0-0.5,1.9-0.5,1.9,0V21.4z M15.7,26.3
		c0,1.1-3.8,1.1-3.8,0v-8.7c0-1.1,3.8-1.1,3.8,0V26.3z M18.3,21.4c0,0.5-1.9,0.5-1.9,0v-3.9c0-0.5,1.9-0.5,1.9,0V21.4z M22.8,26.3
		c0,1.1-3.8,1.1-3.8,0v-8.7c0-1.1,3.8-1.1,3.8,0V26.3z M25.4,21.4c0,0.5-1.9,0.5-1.9,0v-3.9c0-0.5,1.9-0.5,1.9,0V21.4z M30,26.3
		c0,1.1-3.8,1.1-3.8,0v-8.7c0-1.1,3.8-1.1,3.8,0V26.3z M32.6,21.4c0,0.5-1.9,0.5-1.9,0v-3.9c0-0.5,1.9-0.5,1.9,0V21.4z M37.1,26.3
		c0,1.1-3.8,1.1-3.8,0v-8.7c0-1.1,3.8-1.1,3.8,0V26.3z M37.8,21.4v-3.9c0-0.5,1.9-0.5,1.9,0v3.9C39.7,21.9,37.8,21.9,37.8,21.4z"/>
	<g>
		<path class="st0" d="M8.4,46.8c0,0.2-0.2,0.4-0.4,0.4H6.4c-0.2,0-0.4-0.2-0.4-0.4v-7.7c0-0.2,0.2-0.4,0.4-0.4H8
			c0.2,0,0.4,0.2,0.4,0.4V46.8z"/>
		<path class="st0" d="M39.8,43.9c0.1,0,0.2-0.1,0.2-0.2c0,0,0-0.1,0-0.1l-1.2-2.5c0-0.1-0.1-0.1-0.2-0.1c-0.1,0-0.2,0.1-0.2,0.1
			l-1.2,2.5c0,0,0,0.1,0,0.1c0,0.1,0.1,0.2,0.2,0.2H39.8z M39.6,38.7c0.2,0,0.4,0.1,0.5,0.3l3.9,7.8c0,0.1,0,0.1,0,0.2
			c0,0.2-0.2,0.4-0.4,0.4h-1.6c-0.2,0-0.4,0-0.6-0.3L41,46c-0.1-0.1-0.2-0.2-0.3-0.2h-4.1c-0.1,0-0.3,0.1-0.3,0.2l-0.5,1
			c-0.1,0.3-0.4,0.3-0.6,0.3h-1.6c-0.2,0-0.4-0.2-0.4-0.4c0-0.1,0-0.1,0-0.2l3.9-7.8c0.1-0.2,0.3-0.3,0.5-0.3H39.6z"/>
		<path class="st0" d="M12.7,43c0,1.5,1.2,2.8,3.1,2.8c1,0,1.8-0.5,2.3-1.2c0.2-0.3,0.3-0.4,0.7-0.4h1.7c0.3,0,0.5,0.3,0.4,0.5
			c-0.4,1.5-2.2,2.9-5,2.9c-3.4,0-5.6-2-5.6-4.5c0-2.5,2.2-4.6,5.6-4.5c2.9,0,4.7,1.4,5,2.9c0.1,0.2-0.1,0.5-0.4,0.5h-1.7
			c-0.4,0-0.5-0.1-0.7-0.4c-0.5-0.7-1.3-1.2-2.3-1.2C13.9,40.2,12.7,41.5,12.7,43z"/>
		<path class="st0" d="M24.7,43c0,1.5,1.2,2.8,3.1,2.8c1,0,1.8-0.5,2.3-1.2c0.2-0.3,0.3-0.4,0.7-0.4h1.7c0.3,0,0.5,0.3,0.4,0.5
			c-0.4,1.5-2.2,2.9-5,2.9c-3.4,0-5.6-2-5.6-4.5c0-2.5,2.2-4.6,5.6-4.5c2.9,0,4.7,1.4,5,2.9c0.1,0.2-0.1,0.5-0.4,0.5h-1.7
			c-0.4,0-0.5-0.1-0.7-0.4c-0.5-0.7-1.3-1.2-2.3-1.2C25.9,40.2,24.7,41.5,24.7,43z"/>
	</g>
</g>
</svg>
