<?xml version="1.0" encoding="utf-8"?>
<!-- Generator: Adobe Illustrator 23.0.1, SVG Export Plug-In . SVG Version: 6.00 Build 0)  -->
<svg version="1.1" id="Layer_1" xmlns="http://www.w3.org/2000/svg" xmlns:xlink="http://www.w3.org/1999/xlink" x="0px" y="0px"
	 viewBox="0 0 50 50" style="enable-background:new 0 0 50 50;" xml:space="preserve">
<style type="text/css">
	.st0{fill:#FFFFFF;}
</style>
<g>
	<path class="st0" d="M35.2,13.2c-0.3-0.2-0.6-0.3-1-0.3h-2.7l1.1,10.6L31,25.4l-1.7-1.8l1.1-10.6h-2.7c-0.4,0-0.8,0.1-1.1,0.3
		c-4.3,3.4-7.4,8-9.1,13.2l-0.9-0.3l-0.6,2l-4.2-1.3l-2.9,9.5l13.6,4.2l2.9-9.4l-4.2-1.3l0.7-2l-1-0.3c1-3.3,2.7-6.3,5-8.9v11.5
		v15.3c0,1.1,1,2.1,2.1,2.1c1.2,0,2.1-0.9,2.1-2.1V30.1c0-0.5,0.4-0.9,1-0.9c0.5,0,0.9,0.4,0.9,0.9v15.3c0,1.1,1,2.1,2.1,2.1
		c1.2,0,2.1-0.9,2.1-2.1V30.9c-0.6,0-1.2-0.2-1.6-0.6c-1-0.8-1.1-2.4-0.2-3.3c0.7-0.8,1.3-1.8,1.8-2.8v-5.5c0.5,0.7,0.9,1.4,1.3,2.1
		c0.1,0.4,0.2,0.8,0.1,1.2c-0.5,2-1.4,3.8-2.8,5.4c-0.7,0.7-0.5,1.8,0.1,2.4c0.8,0.6,1.9,0.6,2.5-0.2c2.1-2.3,3.3-5.2,3.8-8.2
		c0-0.3,0-0.6-0.2-0.9C39.8,17.6,37.8,15.1,35.2,13.2z M21,28.2l-0.4,1.4l-3.9-1.2l0.4-1.4l0.4,0.1c0,1,0.9,1.7,1.9,1.6
		c0.5,0,0.9-0.3,1.2-0.6L21,28.2z"/>
	<path class="st0" d="M31,10.8c2.2,0,4.1-1.9,4.1-4.1c0-2.3-1.9-4.2-4.1-4.2c-2.3,0-4.2,1.9-4.2,4.2C26.8,8.9,28.7,10.8,31,10.8z"/>
</g>
</svg>
