<?xml version="1.0" encoding="utf-8"?>
<!-- Generator: Adobe Illustrator 23.0.1, SVG Export Plug-In . SVG Version: 6.00 Build 0)  -->
<svg version="1.1" id="Layer_1" xmlns="http://www.w3.org/2000/svg" xmlns:xlink="http://www.w3.org/1999/xlink" x="0px" y="0px"
	 viewBox="0 0 50 50" style="enable-background:new 0 0 50 50;" xml:space="preserve">
<style type="text/css">
	.st0{fill:#FFFFFF;}
</style>
<path class="st0" d="M25,1C11.7,1,1,11.8,1,25c0,13.3,10.8,24,24,24c13.3,0,24-10.8,24-24S38.3,1,25,1z M39.9,36.6
	c-0.6,2.1-3.5,5.3-6.2,5.3l-0.2-0.1c-4-0.2-9.4-4-14.5-10.1l-1.8-2.2c-5-6.1-7.7-12.1-7.1-16c0.4-2.8,4.5-5,6.9-5
	c1.2,0,1.6,0.5,1.7,1c1.3,2.4,3,6.4,3,7.9v0.2c-0.3,0.7-1,1.2-1.5,1.5c-0.7,0.4-1.2,0.8-1.3,1.5c0,0.2,0.2,1.4,3.5,5.5l1.4,1.7
	c3.3,4,4.4,4.4,4.6,4.4c0.9,0.1,1.2-0.2,1.8-0.9c0.4-0.5,1-1.1,1.7-1.2h0.2c1.5,0.3,5.1,2.7,7.3,4.5C39.8,34.6,40.3,35.2,39.9,36.6
	L39.9,36.6z"/>
</svg>
