<?xml version="1.0" encoding="utf-8"?>
<!-- Generator: Adobe Illustrator 23.0.1, SVG Export Plug-In . SVG Version: 6.00 Build 0)  -->
<svg version="1.1" id="Layer_1" xmlns="http://www.w3.org/2000/svg" xmlns:xlink="http://www.w3.org/1999/xlink" x="0px" y="0px"
	 viewBox="0 0 50 50" style="enable-background:new 0 0 50 50;" xml:space="preserve">
<style type="text/css">
	.st0{fill:#8DD2CC;}
</style>
<g>
	<path class="st0" d="M34.3,1H7.1c-3,0-5.5,2.5-5.5,5.5v37c0,3,2.5,5.5,5.5,5.5h27.2c3,0,5.5-2.5,5.5-5.5V26.6l4.7-4.7l0,0l1.6-1.6
		l0,0l0.6-0.6c1-1,1.6-2.4,1.6-3.9S47.8,13,46.7,12l-0.5-0.5c-1.7-1.7-4.3-2.1-6.4-1v-4C39.9,3.5,37.4,1,34.3,1z M37.7,43.5
		c0,1.8-1.5,3.3-3.3,3.3H7.1c-1.8,0-3.3-1.5-3.3-3.3v-37c0-1.8,1.5-3.3,3.3-3.3h27.2c1.8,0,3.3,1.5,3.3,3.3v5.7l-1.4,1.4l0,0
		L20.7,29.2c-0.1,0.1-0.2,0.3-0.3,0.5l-2.4,9.2c-0.1,0.4,0,0.8,0.3,1.1c0.2,0.2,0.5,0.3,0.8,0.3c0.1,0,0.2,0,0.3,0l9.1-2.4
		c0.2,0,0.4-0.1,0.5-0.3l8.7-8.7V43.5z M22,32.2l4,4l-5.5,1.4L22,32.2z M28.1,35.2L23,30l14.9-14.8l5.2,5.2L28.1,35.2z M44.7,13
		l0.5,0.5c1.3,1.3,1.3,3.4,0,4.7l-0.6,0.6l-5.2-5.2L40,13C41.3,11.7,43.4,11.8,44.7,13z"/>
</g>
</svg>
