<?xml version="1.0" encoding="utf-8"?>
<!-- Generator: Adobe Illustrator 23.0.1, SVG Export Plug-In . SVG Version: 6.00 Build 0)  -->
<svg version="1.1" id="Layer_1" xmlns="http://www.w3.org/2000/svg" xmlns:xlink="http://www.w3.org/1999/xlink" x="0px" y="0px"
	 viewBox="0 0 50 50" style="enable-background:new 0 0 50 50;" xml:space="preserve">
<style type="text/css">
	.st0{fill:#8DD2CC;}
</style>
<g>
	<path class="st0" d="M34.8,0H6.5C3.3,0,0.7,2.6,0.7,5.7v38.6c0,3.1,2.6,5.7,5.7,5.7h28.4c3.1,0,5.7-2.6,5.7-5.7V26.8l4.9-4.9l0,0
		l1.7-1.7l0,0l0.6-0.6c1-1,1.7-2.5,1.7-4.1s-0.5-2.9-1.7-4l-0.5-0.5c-1.8-1.8-4.5-2.2-6.7-1V5.7C40.6,2.6,38,0,34.8,0z M38.3,44.4
		c0,1.9-1.6,3.4-3.4,3.4H6.5c-1.9,0-3.4-1.6-3.4-3.4V5.7c0-1.9,1.6-3.4,3.4-3.4h28.4c1.9,0,3.4,1.6,3.4,3.4v5.9l-1.5,1.5l0,0
		L20.6,29.5c-0.1,0.1-0.2,0.3-0.3,0.5l-2.5,9.6c-0.1,0.4,0,0.8,0.3,1.1c0.2,0.2,0.5,0.3,0.8,0.3c0.1,0,0.2,0,0.3,0l9.5-2.5
		c0.2,0,0.4-0.1,0.5-0.3l9.1-9.1C38.3,29.1,38.3,44.4,38.3,44.4z M22,32.6l4.2,4.2l-5.7,1.5L22,32.6z M28.3,35.7L23,30.3l15.5-15.4
		l5.4,5.4L28.3,35.7z M45.6,12.5l0.5,0.5c1.4,1.4,1.4,3.5,0,4.9l-0.6,0.6l-5.4-5.4l0.6-0.6C42.1,11.1,44.3,11.2,45.6,12.5z"/>
</g>
</svg>
