<?xml version="1.0" encoding="utf-8"?>
<!-- Generator: Adobe Illustrator 23.0.1, SVG Export Plug-In . SVG Version: 6.00 Build 0)  -->
<svg version="1.1"
	 id="Layer_1" xmlns:cc="http://creativecommons.org/ns#" xmlns:dc="http://purl.org/dc/elements/1.1/" xmlns:inkscape="http://www.inkscape.org/namespaces/inkscape" xmlns:rdf="http://www.w3.org/1999/02/22-rdf-syntax-ns#" xmlns:sodipodi="http://sodipodi.sourceforge.net/DTD/sodipodi-0.dtd" xmlns:svg="http://www.w3.org/2000/svg"
	 xmlns="http://www.w3.org/2000/svg" xmlns:xlink="http://www.w3.org/1999/xlink" x="0px" y="0px" viewBox="0 0 50 50"
	 style="enable-background:new 0 0 50 50;" xml:space="preserve">
<style type="text/css">
	.st0{fill:#8DD2CC;}
</style>
<g transform="translate(0,-952.36218)">
	<path class="st0" d="M36.9,1002.4c-0.2,0-0.4,0-0.5-0.1c-0.4-0.1-0.7-0.4-0.9-0.8l-8.6-17.2L16.6,993c0.4,1.3,0.5,2.5,0.5,3.6
		c0,0.9-0.3,1.9-0.7,2.6l-0.1,0.1c-0.7,0.8-1.7,1.2-2.9,1.2c-0.9,0-2.2-0.3-3-1.1l-7.6-7.6c-0.7-0.7-1.1-1.8-1.1-3
		c0-1.3,0.5-2.4,1.3-2.9c0.7-0.5,1.6-0.7,2.6-0.7c1.2,0,2.3,0.3,3.5,0.5c0.1,0,0.2,0,0.2,0.1l8.8-10.5L1,966.7
		c-0.3-0.1-0.6-0.4-0.7-0.7c-0.2-0.4-0.2-0.9-0.1-1.3l0.1-0.1l1.9-3.9c0.3-0.6,1-1,1.8-0.8l24.5,4.9c3.1-3.2,8.9-8.9,9-9
		c2.4-2.3,5.1-3.5,7.4-3.5c1.8,0,3,0.5,3.6,1.5c0.9,0.9,1.4,2.2,1.4,3.8c0,2.4-1.3,5-3.5,7.4c-0.1,0.1-5.7,5.9-9,9l4.9,24.5
		c0.2,0.8-0.2,1.5-0.8,1.8l-4,2C37.3,1002.3,37.1,1002.4,36.9,1002.4z M27.5,981.3l9.5,19.1l3.2-1.6l-5.1-25.3l0.4-0.4
		c3.1-2.9,9.2-9.2,9.3-9.3c1.9-2,3-4.2,3-6.1c0-0.7-0.2-1.8-0.9-2.5l-0.2-0.1l-0.1-0.2c-0.1-0.3-0.8-0.6-1.9-0.6
		c-1.8,0-4.1,1.1-6.1,3c-0.1,0.1-6.4,6.2-9.3,9.3l-0.4,0.4l-25.3-5.1l-1.6,3.2l19.1,9.5l-11.2,13.2l-0.6-0.1
		c-0.3-0.1-0.5-0.1-0.8-0.2c-1.1-0.2-2.1-0.5-3-0.5c-0.5,0-1.1,0.2-1.5,0.4c-0.2,0.1-0.4,0.6-0.4,1.3c0,0.8,0.3,1.4,0.5,1.6l7.6,7.6
		c0.3,0.3,1.1,0.5,1.6,0.5c0.6,0,1.1-0.2,1.3-0.5c0.2-0.4,0.4-0.9,0.4-1.4c0-1.1-0.2-2.3-0.6-3.7l-0.2-0.6L27.5,981.3z"/>
</g>
</svg>
