<?xml version="1.0" encoding="utf-8"?>
<!-- Generator: Adobe Illustrator 23.0.1, SVG Export Plug-In . SVG Version: 6.00 Build 0)  -->
<svg version="1.1"
	 id="Layer_1" xmlns:cc="http://creativecommons.org/ns#" xmlns:dc="http://purl.org/dc/elements/1.1/" xmlns:inkscape="http://www.inkscape.org/namespaces/inkscape" xmlns:rdf="http://www.w3.org/1999/02/22-rdf-syntax-ns#" xmlns:sodipodi="http://sodipodi.sourceforge.net/DTD/sodipodi-0.dtd" xmlns:svg="http://www.w3.org/2000/svg"
	 xmlns="http://www.w3.org/2000/svg" xmlns:xlink="http://www.w3.org/1999/xlink" x="0px" y="0px" viewBox="0 0 50 50"
	 style="enable-background:new 0 0 50 50;" xml:space="preserve">
<style type="text/css">
	.st0{fill:#8DD2CC;}
</style>
<g transform="translate(0,-952.36218)">
	<path class="st0" d="M44.6,953.4c-2.2,0-4.7,1.3-6.7,3.3c0,0-6.3,6.1-9.3,9.3l-24.9-5c-0.3-0.1-0.6,0.1-0.7,0.3l-1.9,3.8
		c-0.1,0.3,0,0.7,0.3,0.8l18.2,9.1l-9.9,11.7C8.4,986.4,7,986,5.7,986c-0.7,0-1.4,0.2-2,0.6s-0.9,1.2-0.9,2.1c0,1,0.3,1.8,0.8,2.3
		l7.6,7.6c0.6,0.6,1.6,0.8,2.3,0.8c0.9,0,1.6-0.3,2.1-0.9c0.4-0.6,0.6-1.3,0.6-2c0-1.3-0.3-2.7-0.7-3.9l11.7-9.9l9.1,18.2
		c0.1,0.3,0.5,0.4,0.8,0.3l3.8-1.9c0.2-0.1,0.4-0.4,0.3-0.7l-5-24.9c3.2-3,9.3-9.3,9.3-9.3c2-2.1,3.3-4.5,3.3-6.7
		c0-1.2-0.4-2.4-1.2-3.2C47,953.7,45.8,953.4,44.6,953.4z M44.6,954.6c0.9,0,1.8,0.3,2.3,0.8c0.5,0.5,0.8,1.4,0.8,2.3
		c0,1.7-1.1,4-3,5.9c0,0-6.2,6.4-9.5,9.5c-0.1,0.1-0.2,0.4-0.2,0.6l5,24.8l-2.8,1.4l-9.2-18.4c-0.2-0.3-0.7-0.5-1-0.2L14.5,992
		c-0.2,0.2-0.3,0.4-0.2,0.7c0.4,1.2,0.8,2.8,0.8,3.9c0,0.6-0.1,1-0.3,1.2c-0.2,0.2-0.5,0.4-1.1,0.4c-0.5,0-0.9-0.1-1.5-0.5l-7.5-7.5
		c-0.4-0.6-0.5-1-0.5-1.5c0-0.6,0.2-0.9,0.4-1.1c0.2-0.2,0.6-0.3,1.2-0.3c1.1,0,2.7,0.4,3.9,0.8c0.2,0.1,0.5,0,0.7-0.2l10.7-12.6
		c0.3-0.3,0.2-0.8-0.2-1l-18.4-9.2l1.4-2.8l24.8,5c0.2,0,0.4,0,0.6-0.2c3.1-3.3,9.5-9.4,9.5-9.5C40.3,956,42.8,954.6,44.6,954.6
		L44.6,954.6z"/>
</g>
</svg>
