<?xml version="1.0" encoding="utf-8"?>
<!-- Generator: Adobe Illustrator 23.0.1, SVG Export Plug-In . SVG Version: 6.00 Build 0)  -->
<svg version="1.1"
	 id="Layer_1" xmlns:cc="http://creativecommons.org/ns#" xmlns:dc="http://purl.org/dc/elements/1.1/" xmlns:inkscape="http://www.inkscape.org/namespaces/inkscape" xmlns:rdf="http://www.w3.org/1999/02/22-rdf-syntax-ns#" xmlns:sodipodi="http://sodipodi.sourceforge.net/DTD/sodipodi-0.dtd" xmlns:svg="http://www.w3.org/2000/svg"
	 xmlns="http://www.w3.org/2000/svg" xmlns:xlink="http://www.w3.org/1999/xlink" x="0px" y="0px" viewBox="0 0 50 26"
	 style="enable-background:new 0 0 50 26;" xml:space="preserve">
<style type="text/css">
	.st0{fill:#8DD2CC;}
</style>
<g transform="translate(0,-952.36218)">
	<path class="st0" d="M11.1,953.1c-3.2,0-5.9,2.6-5.9,5.9c0,2.3,1.3,4.2,3.3,5.2C4.2,965.3,1,969.3,1,974c0,0.3,0.3,0.5,0.5,0.5
		S2,974.3,2,974c0-5,4-9.1,9-9.2c3.2,0,6.1,1.6,7.7,4.3c-2.4,1.9-4,4.8-3.9,8.1c0,0.3,0.3,0.5,0.5,0.5c0.3,0,0.5-0.2,0.5-0.5
		c0-5,4-9.1,9-9.2c5,0,9.1,4,9.1,9c0,0.3,0.3,0.5,0.5,0.5c0.3,0,0.5-0.2,0.5-0.5c0-3.2-1.6-6.1-3.9-7.9c2.6-4.2,8.2-5.5,12.4-2.9
		c2.7,1.6,4.3,4.6,4.3,7.7c0,0.3,0.3,0.5,0.5,0.5c0.3,0,0.5-0.2,0.5-0.5c0-3.5-1.8-6.8-4.8-8.6c-0.9-0.5-1.8-0.9-2.7-1.2
		c1.9-0.9,3.3-2.8,3.3-5.1c0-3.2-2.6-5.9-5.9-5.9S33,955.7,33,959c0,2.3,1.3,4.2,3.3,5.2c-2.4,0.6-4.5,2.1-5.9,4.4
		c-0.8-0.5-1.7-0.9-2.7-1.2c1.9-0.9,3.3-2.8,3.3-5.2c0-3.2-2.6-5.9-5.9-5.9s-5.9,2.6-5.9,5.9c0,2.3,1.4,4.2,3.3,5.2
		c-1,0.3-1.9,0.6-2.7,1.2c-1.4-2.2-3.5-3.7-6-4.4c1.9-0.9,3.3-2.8,3.3-5.2C17,955.7,14.4,953.1,11.1,953.1L11.1,953.1z M11.1,954.2
		c2.7,0,4.8,2.1,4.8,4.8s-2.1,4.8-4.8,4.8s-4.8-2.1-4.8-4.8S8.5,954.2,11.1,954.2z M38.9,954.2c2.7,0,4.8,2.1,4.8,4.8
		s-2.1,4.8-4.8,4.8s-4.8-2.1-4.8-4.8S36.2,954.2,38.9,954.2z M25,957.4c2.7,0,4.8,2.1,4.8,4.8S27.7,967,25,967s-4.7-2.1-4.8-4.8
		C20.2,959.5,22.3,957.4,25,957.4L25,957.4z"/>
</g>
</svg>
