<?xml version="1.0" encoding="utf-8"?>
<!-- Generator: Adobe Illustrator 23.0.1, SVG Export Plug-In . SVG Version: 6.00 Build 0)  -->
<svg version="1.1"
	 id="Layer_1" xmlns:cc="http://creativecommons.org/ns#" xmlns:dc="http://purl.org/dc/elements/1.1/" xmlns:inkscape="http://www.inkscape.org/namespaces/inkscape" xmlns:rdf="http://www.w3.org/1999/02/22-rdf-syntax-ns#" xmlns:sodipodi="http://sodipodi.sourceforge.net/DTD/sodipodi-0.dtd" xmlns:svg="http://www.w3.org/2000/svg"
	 xmlns="http://www.w3.org/2000/svg" xmlns:xlink="http://www.w3.org/1999/xlink" x="0px" y="0px" viewBox="0 0 97.3 50"
	 style="enable-background:new 0 0 97.3 50;" xml:space="preserve">
<style type="text/css">
	.st0{fill:#8DD2CC;}
</style>
<g transform="translate(0,-952.36218)">
	<path class="st0" d="M20.7,952.4c-6.5,0-12,5.3-12,12c0,4.7,2.6,8.5,6.7,10.6c-8.7,2.2-15.2,10.4-15.2,19.9c0,0.6,0.6,1,1,1
		s1-0.4,1-1c0-10.2,8.1-18.5,18.3-18.7c6.5,0,12.4,3.3,15.7,8.7c-4.9,3.9-8.1,9.8-7.9,16.5c0,0.6,0.6,1,1,1c0.6,0,1-0.4,1-1
		c0-10.2,8.1-18.5,18.3-18.7c10.2,0,18.5,8.1,18.5,18.3c0,0.6,0.6,1,1,1c0.6,0,1-0.4,1-1c0-6.5-3.3-12.4-7.9-16.1
		c5.3-8.5,16.7-11.2,25.2-5.9c5.5,3.3,8.7,9.3,8.7,15.7c0,0.6,0.6,1,1,1c0.6,0,1-0.4,1-1c0-7.1-3.7-13.8-9.8-17.5
		c-1.8-1-3.7-1.8-5.5-2.4c3.9-1.8,6.7-5.7,6.7-10.4c0-6.5-5.3-12-12-12s-11.4,5.3-11.4,12c0,4.7,2.6,8.5,6.7,10.6
		c-4.9,1.2-9.1,4.3-12,8.9c-1.6-1-3.5-1.8-5.5-2.4c3.9-1.8,6.7-5.7,6.7-10.6c0-6.5-5.3-12-12-12s-12,5.3-12,12
		c0,4.7,2.8,8.5,6.7,10.6c-2,0.6-3.9,1.2-5.5,2.4c-2.8-4.5-7.1-7.5-12.2-8.9c3.9-1.8,6.7-5.7,6.7-10.6
		C32.7,957.7,27.4,952.4,20.7,952.4L20.7,952.4z M20.7,954.6c5.5,0,9.8,4.3,9.8,9.8c0,5.5-4.3,9.8-9.8,9.8s-9.8-4.3-9.8-9.8
		C10.9,958.9,15.4,954.6,20.7,954.6z M77.2,954.6c5.5,0,9.8,4.3,9.8,9.8c0,5.5-4.3,9.8-9.8,9.8c-5.5,0-9.8-4.3-9.8-9.8
		C67.4,958.9,71.7,954.6,77.2,954.6z M48.9,961.1c5.5,0,9.8,4.3,9.8,9.8c0,5.5-4.3,9.8-9.8,9.8s-9.6-4.3-9.8-9.8
		C39.2,965.4,43.4,961.1,48.9,961.1L48.9,961.1z"/>
</g>
</svg>
