<?xml version="1.0" encoding="utf-8"?>
<!-- Generator: Adobe Illustrator 23.0.1, SVG Export Plug-In . SVG Version: 6.00 Build 0)  -->
<svg version="1.1" id="Layer_1" xmlns="http://www.w3.org/2000/svg" xmlns:xlink="http://www.w3.org/1999/xlink" x="0px" y="0px"
	 viewBox="0 0 108.6 31.2" style="enable-background:new 0 0 108.6 31.2;" xml:space="preserve">
<style type="text/css">
	.st0{fill:#FFFFFF;}
</style>
<path class="st0" d="M28.7,6.6c0-1.6,1.2-2.8,2.8-2.8c1.5,0,2.8,1.2,2.8,2.8s-1.2,2.8-2.8,2.8C30,9.4,28.7,8.2,28.7,6.6 M33.8,6.6
	c0-1.2-1-2.2-2.3-2.2c-1.2,0-2.3,1-2.3,2.2s1,2.3,2.3,2.3l0,0C32.8,8.9,33.8,7.9,33.8,6.6"/>
<polygon class="st0" points="35.7,8.8 36.4,8.8 36.4,9.3 34.5,9.3 34.5,8.8 35.2,8.8 35.2,4.5 34.5,4.5 34.5,4 36,4 37.9,8.5 40,4 
	41.5,4 41.5,4.5 40.8,4.5 40.8,8.8 41.5,8.8 41.5,9.3 39.6,9.3 39.6,8.8 40.3,8.8 40.3,4.7 38.1,9.3 37.7,9.3 35.7,4.7 "/>
<path class="st0" d="M46.1,9.3V8.8h0.7l-0.5-1.2h-2.5l-0.5,1.2H44v0.5h-1.9V8.8h0.7l1.9-4.3H44V4h1.4l2.1,4.8h0.7v0.5H46.1z
	 M45.1,4.6L44,7.2h2.1L45.1,4.6z"/>
<polygon class="st0" points="53.6,9.3 53,9.3 49.8,4.9 49.8,8.8 50.5,8.8 50.5,9.3 48.6,9.3 48.6,8.8 49.3,8.8 49.3,4.5 48.6,4.5 
	48.6,4 49.8,4 53,8.5 53,4.5 52.3,4.5 52.3,4 54.2,4 54.2,4.5 53.6,4.5 "/>
<path class="st0" d="M61.5,5.3c-0.4-0.6-1.1-0.9-1.8-0.9c-1.2,0-2.2,1-2.2,2.2s1,2.3,2.2,2.3c0.8,0,1.4-0.4,1.9-1h0.6
	c-0.4,0.9-1.4,1.5-2.5,1.5c-0.7,0-1.5-0.3-2-0.8s-0.8-1.2-0.8-2s0.3-1.4,0.8-2c0.5-0.5,1.2-0.8,2-0.8c0.7,0,1.4,0.3,1.8,0.8V4H62
	v1.3H61.5z"/>
<path class="st0" d="M62.4,6.6c0-1.6,1.2-2.8,2.8-2.8C66.7,3.8,68,5,68,6.6s-1.2,2.8-2.8,2.8S62.4,8.2,62.4,6.6 M67.4,6.6
	c0-1.2-1-2.2-2.3-2.2c-1.2,0-2.3,1-2.3,2.2s1,2.3,2.3,2.3l0,0C66.4,8.9,67.4,7.9,67.4,6.6"/>
<polygon class="st0" points="73,9.3 72.4,9.3 69.3,4.9 69.3,8.8 69.9,8.8 69.9,9.3 68,9.3 68,8.8 68.7,8.8 68.7,4.5 68,4.5 68,4 
	69.3,4 72.4,8.5 72.4,4.5 71.8,4.5 71.8,4 73.7,4 73.7,4.5 73,4.5 "/>
<polygon class="st0" points="77.3,9.3 76.7,9.3 74.8,4.5 74.2,4.5 74.2,4 76.1,4 76.1,4.5 75.4,4.5 77.1,8.6 78.7,4.5 78,4.5 78,4 
	79.9,4 79.9,4.5 79.3,4.5 "/>
<polygon class="st0" points="84.1,8 84.1,9.3 80.4,9.3 80.4,8.8 81.1,8.8 81.1,4.5 80.4,4.5 80.4,4 84.1,4 84.1,5.4 83.6,5.4 
	83.6,4.5 81.7,4.5 81.7,6.4 83.7,6.4 83.7,6.8 81.7,6.8 81.7,8.8 83.6,8.8 83.6,8 "/>
<polygon class="st0" points="89.6,9.3 89.1,9.3 85.9,4.9 85.9,8.8 86.6,8.8 86.6,9.3 84.7,9.3 84.7,8.8 85.4,8.8 85.4,4.5 84.7,4.5 
	84.7,4 85.9,4 89.1,8.5 89.1,4.5 88.4,4.5 88.4,4 90.3,4 90.3,4.5 89.6,4.5 "/>
<polygon class="st0" points="92.8,8.8 93.5,8.8 93.5,9.3 91.6,9.3 91.6,8.8 92.3,8.8 92.3,4.5 91.1,4.5 91.1,5.4 90.7,5.4 90.7,4 
	94.4,4 94.4,5.4 94,5.4 94,4.5 92.8,4.5 "/>
<polygon class="st0" points="96.1,8.8 96.8,8.8 96.8,9.3 94.9,9.3 94.9,8.8 95.6,8.8 95.6,4.5 94.9,4.5 94.9,4 96.8,4 96.8,4.5 
	96.1,4.5 "/>
<path class="st0" d="M33.3,18l-1.2-1.2c-0.4,0.8-0.8,1.2-1.7,1.2c-0.8,0-1.6-0.7-1.6-1.6c0-0.8,0.6-1.2,1.2-1.6l-0.1-0.1
	c-0.4-0.3-0.6-0.6-0.6-1.1c0-0.7,0.6-1.2,1.2-1.2c0.7,0,1.2,0.5,1.2,1.2s-0.5,1-1,1.3l1.2,1.2l0.7-1.5h1V15H33l-0.7,1.4l1.3,1.2
	L33.3,18z M30.4,15.2c-0.5,0.2-1.1,0.6-1.1,1.2c0,0.6,0.5,1.1,1.1,1.1c0.7,0,1-0.5,1.2-1.1L30.4,15.2z M30.5,14.6
	c0.4-0.2,0.9-0.4,0.9-0.9c0-0.4-0.3-0.8-0.8-0.8c-0.4,0-0.8,0.3-0.8,0.8c0,0.4,0.3,0.6,0.5,0.8L30.5,14.6z"/>
<polygon class="st0" points="39.5,16.5 39.5,17.9 35.7,17.9 35.7,17.4 36.4,17.4 36.4,13.1 35.7,13.1 35.7,12.6 39.5,12.6 
	39.5,13.9 39,13.9 39,13.1 36.9,13.1 36.9,15 39,15 39,15.5 36.9,15.5 36.9,17.4 39,17.4 39,16.5 "/>
<polygon class="st0" points="44.4,17.4 45.1,17.4 45.1,17.9 43.1,17.9 43.1,17.4 43.8,17.4 42.5,15.6 41.1,17.4 41.8,17.4 
	41.8,17.9 39.8,17.9 39.8,17.4 40.5,17.4 42.1,15.2 40.6,13.1 40,13.1 40,12.6 41.9,12.6 41.9,13.1 41.2,13.1 42.5,14.8 43.7,13.1 
	43,13.1 43,12.6 44.9,12.6 44.9,13.1 44.3,13.1 42.8,15.2 "/>
<polygon class="st0" points="49.2,13.1 48.6,13.1 48.6,12.6 50.5,12.6 50.5,13.1 49.8,13.1 49.8,17.4 50.5,17.4 50.5,17.9 
	48.6,17.9 48.6,17.4 49.2,17.4 49.2,15.4 46.6,15.4 46.6,17.4 47.3,17.4 47.3,17.9 45.4,17.9 45.4,17.4 46.1,17.4 46.1,13.1 
	45.4,13.1 45.4,12.6 47.3,12.6 47.3,13.1 46.6,13.1 46.6,15 49.2,15 "/>
<polygon class="st0" points="52.1,17.4 52.8,17.4 52.8,17.9 50.9,17.9 50.9,17.4 51.6,17.4 51.6,13.1 50.9,13.1 50.9,12.6 
	52.8,12.6 52.8,13.1 52.1,13.1 "/>
<path class="st0" d="M55.5,12.6c0.4,0,0.7,0,1,0.3c0.4,0.3,0.5,0.6,0.5,1.1s-0.3,0.9-0.8,1.2c0.6,0.2,1,0.8,1,1.4
	c0,0.4-0.2,0.8-0.4,1.1c-0.4,0.3-0.8,0.4-1.2,0.4h-2.3v-0.5H54V13h-0.7v-0.5L55.5,12.6L55.5,12.6z M55.3,14.9c0.3,0,0.6,0,0.8-0.2
	s0.3-0.4,0.3-0.7s-0.1-0.6-0.4-0.7c-0.2-0.2-0.5-0.1-0.8-0.1h-0.8V15L55.3,14.9L55.3,14.9z M55.4,17.4c0.4,0,0.7,0,1-0.2
	s0.4-0.5,0.4-0.8c0-0.4-0.1-0.7-0.4-0.8c-0.3-0.2-0.6-0.2-1-0.2h-0.8v2.1C54.5,17.4,55.4,17.4,55.4,17.4z"/>
<polygon class="st0" points="58.7,17.4 59.3,17.4 59.3,17.9 57.4,17.9 57.4,17.4 58.1,17.4 58.1,13.1 57.4,13.1 57.4,12.6 
	59.3,12.6 59.3,13.1 58.7,13.1 "/>
<polygon class="st0" points="61.9,17.4 62.6,17.4 62.6,17.9 60.7,17.9 60.7,17.4 61.4,17.4 61.4,13.1 60.2,13.1 60.2,14 59.7,14 
	59.7,12.6 63.5,12.6 63.5,14 63.1,14 63.1,13.1 61.9,13.1 "/>
<polygon class="st0" points="65.2,17.4 65.9,17.4 65.9,17.9 64,17.9 64,17.4 64.6,17.4 64.6,13.1 64,13.1 64,12.6 65.9,12.6 
	65.9,13.1 65.2,13.1 "/>
<path class="st0" d="M65.9,15.2c0-1.6,1.2-2.8,2.8-2.8c1.5,0,2.8,1.2,2.8,2.8S70.3,18,68.7,18C67.2,18,65.9,16.8,65.9,15.2 M71,15.2
	c0-1.2-1-2.2-2.3-2.2c-1.2,0-2.3,1-2.3,2.2s1,2.3,2.3,2.3l0,0C70,17.5,71,16.5,71,15.2"/>
<polygon class="st0" points="76.6,17.9 76,17.9 72.8,13.4 72.8,17.4 73.5,17.4 73.5,17.9 71.6,17.9 71.6,17.4 72.3,17.4 72.3,13.1 
	71.6,13.1 71.6,12.6 72.8,12.6 76,17.1 76,13.1 75.4,13.1 75.4,12.6 77.2,12.6 77.2,13.1 76.6,13.1 "/>
<path class="st0" d="M83.5,13.9c-0.4-0.6-1.1-0.9-1.8-0.9c-1.2,0-2.2,1-2.2,2.2s1,2.3,2.2,2.3c0.8,0,1.4-0.4,1.9-1h0.6
	c-0.4,0.9-1.4,1.5-2.5,1.5c-0.7,0-1.5-0.3-2-0.8s-0.8-1.2-0.8-2c0-0.8,0.3-1.5,0.8-2s1.2-0.8,2-0.8c0.7,0,1.4,0.3,1.8,0.8v-0.6H84
	v1.3C84,13.9,83.5,13.9,83.5,13.9z"/>
<polygon class="st0" points="88.3,16.5 88.3,17.9 84.5,17.9 84.5,17.4 85.2,17.4 85.2,13.1 84.5,13.1 84.5,12.6 88.3,12.6 
	88.3,13.9 87.7,13.9 87.7,13.1 85.7,13.1 85.7,15 87.8,15 87.8,15.5 85.7,15.5 85.7,17.4 87.7,17.4 87.7,16.5 "/>
<polygon class="st0" points="93.7,17.9 93.1,17.9 89.9,13.4 89.9,17.4 90.6,17.4 90.6,17.9 88.7,17.9 88.7,17.4 89.4,17.4 
	89.4,13.1 88.7,13.1 88.7,12.6 89.9,12.6 93.2,17.1 93.2,13.1 92.4,13.1 92.4,12.6 94.4,12.6 94.4,13.1 93.7,13.1 "/>
<polygon class="st0" points="97,17.4 97.7,17.4 97.7,17.9 95.7,17.9 95.7,17.4 96.5,17.4 96.5,13.1 95.3,13.1 95.3,14 94.8,14 
	94.8,12.6 98.6,12.6 98.6,14 98.1,14 98.1,13.1 97,13.1 "/>
<path class="st0" d="M103.5,17.9h-1l-1.6-2.3h0.2c0.4,0,0.8,0,1.2-0.2c0.4-0.2,0.6-0.6,0.6-1.1c0-0.4-0.1-0.7-0.4-1
	s-0.7-0.3-1.1-0.3h-1v4.4h0.6v0.5h-2v-0.5h0.7V13H99v-0.5h2.3c0.5,0,0.9,0,1.4,0.4c0.4,0.4,0.6,0.8,0.6,1.3c0,0.9-0.7,1.6-1.6,1.6
	l1.1,1.5h0.7V17.9L103.5,17.9z"/>
<polygon class="st0" points="107.6,16.5 107.6,17.9 103.9,17.9 103.9,17.4 104.5,17.4 104.5,13.1 103.9,13.1 103.9,12.6 107.6,12.6 
	107.6,13.9 107.1,13.9 107.1,13.1 105.1,13.1 105.1,15 107.1,15 107.1,15.5 105.1,15.5 105.1,17.4 107.1,17.4 107.1,16.5 "/>
<path class="st0" d="M67.7,22L67.7,22c0.1,0,0.2,0,0.2-0.1c0,0,0.1-0.1,0.1-0.2s0-0.2-0.1-0.2c0,0-0.1-0.1-0.2-0.1s-0.2,0-0.2,0.1
	c0,0-0.1,0.1-0.1,0.2s0,0.2,0.1,0.2C67.6,22,67.7,22,67.7,22 M55.7,22L55.7,22c0.1,0,0.2,0,0.2-0.1c0,0,0.1-0.1,0.1-0.2
	s0-0.2-0.1-0.2c0,0-0.1-0.1-0.2-0.1s-0.2,0-0.2,0.1c0,0-0.1,0.1-0.1,0.2s0,0.2,0.1,0.2C55.5,22,55.6,22,55.7,22 M56.5,22L56.5,22
	c0.1,0,0.2,0,0.2-0.1c0,0,0.1-0.1,0.1-0.2s0-0.2-0.1-0.2c0,0-0.1-0.1-0.2-0.1s-0.2,0-0.2,0.1c0,0-0.1,0.1-0.1,0.2s0,0.2,0.1,0.2
	C56.3,22,56.4,22,56.5,22 M33.1,22L33.1,22c0.1,0,0.2,0,0.2-0.1c0,0,0.1-0.1,0.1-0.2s0-0.2-0.1-0.2c0,0-0.1-0.1-0.2-0.1
	s-0.2,0-0.2,0.1c0,0-0.1,0.1-0.1,0.2s0,0.2,0.1,0.2C32.9,22,33,22,33.1,22 M107.5,23L107.5,23c0-0.1-0.1-0.2-0.3-0.3
	c-0.1-0.1-0.2-0.1-0.3-0.1c-0.1,0-0.2,0-0.4,0c-0.1,0-0.2,0-0.4,0c-0.1,0-0.2,0.1-0.3,0.1c-0.1,0.1-0.2,0.2-0.3,0.3
	c-0.1,0.1-0.1,0.3-0.1,0.4V25H104v-2.4h-0.5v3.2c0,0.1,0,0.2,0,0.2s0,0.1-0.1,0.1l-0.1,0.1c0,0-0.1,0.1-0.2,0.1l-0.1,0.1l0.3,0.4
	l0.1,0.1h0.1c0.1,0,0.2-0.1,0.3-0.2c0.1-0.1,0.2-0.2,0.2-0.3s0.1-0.2,0.1-0.3c0-0.1,0-0.3,0-0.4v-0.2h1.5c0,0.1,0,0.2,0.1,0.2
	c0.1,0.1,0.1,0.2,0.3,0.2c0.1,0,0.2,0.1,0.3,0.1c0.1,0,0.2,0,0.3,0c0.1,0,0.2,0,0.4,0c0.1,0,0.2-0.1,0.4-0.1
	c0.1-0.1,0.2-0.2,0.3-0.3c0.1-0.1,0.1-0.3,0.1-0.4v-1.7C107.6,23.3,107.6,23.2,107.5,23 M107.1,25.2c0,0.1,0,0.2,0,0.3
	c0,0,0,0.1-0.1,0.1h-0.1c0,0-0.1,0-0.2,0s-0.1,0-0.2,0h-0.1l-0.1-0.1c0,0,0-0.1,0-0.2v-1.6c0-0.1,0-0.2,0-0.2s0-0.1,0.1-0.1
	s0.1,0,0.1,0s0.1,0,0.2,0s0.1,0,0.2,0h0.1c0,0,0.1,0,0.1,0.1c0,0,0,0.1,0,0.2V25.2L107.1,25.2z M68.3,24.6c0,0.1,0,0.2-0.1,0.3
	c0,0-0.1,0.1-0.3,0.1h-1.4v-1.5c0-0.2,0-0.3-0.1-0.4c0-0.1-0.1-0.2-0.3-0.3c-0.1-0.1-0.2-0.1-0.3-0.1c-0.1,0-0.2,0-0.4,0
	c-0.1,0-0.2,0-0.4,0c-0.1,0-0.2,0.1-0.3,0.1c-0.1,0.1-0.2,0.2-0.3,0.3c0,0.1-0.1,0.3-0.1,0.4V25h-3.9v-2.4H60v3.2c0,0.1,0,0.2,0,0.2
	s0,0.1-0.1,0.1l-0.1,0.1c0,0-0.1,0.1-0.2,0.1l-0.1,0.1l0.3,0.4l0.1,0.1H60c0.1,0,0.2-0.1,0.3-0.2s0.2-0.2,0.2-0.3s0.1-0.2,0.1-0.3
	c0-0.1,0-0.3,0-0.4v-0.2h3.9c0,0.1,0,0.2,0.1,0.2c0.1,0.1,0.2,0.2,0.3,0.2c0.1,0,0.2,0.1,0.3,0.1c0.1,0,0.2,0,0.3,0s0.2,0,0.3,0
	c0.1,0,0.2,0,0.3-0.1c0.1,0,0.2-0.1,0.3-0.2c0-0.1,0.1-0.1,0.1-0.2h1.4c0.3,0,0.5-0.1,0.7-0.3c0.2-0.2,0.2-0.4,0.2-0.7v-2h-0.5
	L68.3,24.6L68.3,24.6z M66,25.2c0,0.1,0,0.2,0,0.3c0,0,0,0.1-0.1,0.1h-0.1c0,0-0.1,0-0.2,0s-0.1,0-0.2,0h-0.1l-0.1-0.1
	c0,0,0-0.1,0-0.2v-1.6c0-0.1,0-0.2,0-0.2s0-0.1,0.1-0.1h0.1c0,0,0.1,0,0.2,0c0,0,0.1,0,0.2,0h0.1c0,0,0,0,0.1,0.1c0,0,0,0.1,0,0.2
	V25.2z M83,25.6c0,0.1,0,0.3-0.1,0.4c0,0.1-0.1,0.2-0.3,0.2c-0.1,0-0.2,0.1-0.4,0.1c-0.1,0-0.3,0-0.4,0s-0.3,0-0.4,0
	s-0.3-0.1-0.4-0.1s-0.2-0.1-0.3-0.2c0-0.1-0.1-0.2-0.1-0.4v-2L80.1,24v1.6c0,0.3,0,0.5,0.2,0.7c0.1,0.2,0.3,0.3,0.4,0.4
	c0.2,0.1,0.4,0.2,0.5,0.2s0.4,0,0.6,0c0.1,0,0.2,0,0.4,0c0.1,0,0.3,0,0.4-0.1s0.3-0.1,0.4-0.2s0.2-0.1,0.3-0.3
	c0.1-0.1,0.2-0.2,0.2-0.4c0-0.1,0.1-0.3,0.1-0.4v-3h-0.5L83,25.6L83,25.6z M70.8,21.6h-0.4h-0.1c0,0,0,0,0-0.1c0,0,0,0,0-0.1h0.1
	h0.3V21h-0.3c-0.1,0-0.2,0-0.2,0s-0.1,0.1-0.2,0.1c0,0-0.1,0.1-0.1,0.2c0,0,0,0.1,0,0.2v0.1h-0.2V22h1.2L70.8,21.6L70.8,21.6z
	 M97.2,22L97.2,22c0.1,0,0.2,0,0.2-0.1c0,0,0.1-0.1,0.1-0.2s0-0.2-0.1-0.2c0,0-0.1-0.1-0.2-0.1s-0.2,0-0.2,0.1c0,0-0.1,0.1-0.1,0.2
	s0,0.2,0.1,0.2C97,22,97.1,22,97.2,22 M78.1,24.7v0.1c0,0,0,0,0,0.1c0,0,0,0-0.1,0s-0.1,0-0.1,0h-0.4v-3.4H77V25h-2.2v-1.5
	c0-0.2,0-0.3-0.1-0.4c0-0.1-0.1-0.2-0.3-0.3c-0.1-0.1-0.2-0.1-0.3-0.1c-0.1,0-0.2,0-0.4,0c-0.1,0-0.2,0-0.4,0
	c-0.1,0-0.2,0.1-0.3,0.1c-0.1,0.1-0.2,0.2-0.3,0.3c0,0.1-0.1,0.3-0.1,0.4V25h-1.4v-2.4h-1.1c-0.1,0-0.3,0-0.4,0s-0.2,0.1-0.3,0.2
	c-0.1,0.1-0.1,0.2-0.2,0.3c0,0.1-0.1,0.3-0.1,0.4v1.1c0,0.1,0,0.2,0,0.4c0,0.1,0.1,0.2,0.2,0.3c0.1,0.1,0.2,0.1,0.3,0.2
	s0.3,0.1,0.4,0.1h0.6v0.2c0,0.1,0,0.3-0.1,0.4c0,0.1-0.1,0.2-0.2,0.2s-0.2,0.1-0.3,0.1c-0.1,0-0.2,0-0.3,0h-0.1c0,0,0,0-0.1,0h-0.4
	l0.4,0.6l0,0c0,0,0,0,0.1,0l0,0c0.1,0,0.3,0,0.4,0s0.3-0.1,0.4-0.2s0.3-0.2,0.4-0.4c0.1-0.2,0.1-0.4,0.1-0.6v-0.1h1.5
	c0,0.1,0,0.2,0.1,0.2c0.1,0.1,0.1,0.2,0.3,0.2c0.1,0,0.2,0.1,0.3,0.1c0.1,0,0.2,0,0.3,0s0.2,0,0.3,0c0.1,0,0.2,0,0.3-0.1
	c0.1,0,0.2-0.1,0.3-0.2c0-0.1,0.1-0.1,0.1-0.2h3.2c0.2,0,0.4-0.1,0.6-0.2c0.1-0.1,0.2-0.4,0.2-0.6v-3.2h-0.5v2.9H78.1z M70.7,25
	h-0.6c-0.1,0-0.2,0-0.2-0.1s-0.1-0.1-0.1-0.3v-1.2c0-0.1,0-0.2,0.1-0.3c0,0,0.1-0.1,0.3-0.1h0.6L70.7,25L70.7,25z M74.2,25.2
	c0,0.1,0,0.2,0,0.3c0,0,0,0.1-0.1,0.1H74c0,0-0.1,0-0.2,0s-0.1,0-0.2,0h-0.1l-0.1-0.1c0,0,0-0.1,0-0.2v-1.6c0-0.1,0-0.2,0-0.2
	s0-0.1,0.1-0.1c0,0,0.1,0,0.1-0.1c0,0,0.1,0,0.2,0s0.1,0,0.2,0h0.1c0,0,0.1,0,0.1,0.1c0,0,0,0.1,0,0.2V25.2L74.2,25.2z M92.5,22
	L92.5,22c0.2,0,0.4-0.1,0.5-0.2c0.1,0,0.2-0.1,0.3-0.2l0,0l0.1,0.1l0.2-0.2l0.1-0.1l-0.1-0.1c0,0,0.1,0,0.1-0.1l0.1-0.1
	c0-0.1,0-0.1,0-0.2s0-0.1,0-0.2c0,0,0-0.1-0.1-0.2c0,0-0.1-0.1-0.2-0.1s-0.1,0-0.2,0s-0.1,0-0.2,0c0,0-0.1,0-0.2,0.1
	c0,0-0.1,0.1-0.1,0.2c0,0,0,0.1,0,0.2s0,0.2,0.1,0.3c0,0,0,0,0,0.1c0,0-0.1,0.1-0.2,0.1s-0.3,0.1-0.4,0.2v0.1L92.5,22L92.5,22z
	 M93.3,20.8C93.4,20.8,93.4,20.8,93.3,20.8C93.4,20.8,93.4,20.8,93.3,20.8L93.3,20.8L93.3,20.8L93.3,20.8L93.3,20.8L93.3,20.8
	C93.3,20.9,93.3,20.9,93.3,20.8L93.3,20.8 M81.9,22L81.9,22c0.1,0,0.2,0,0.2-0.1c0,0,0.1-0.1,0.1-0.2s0-0.2-0.1-0.2
	c0,0-0.1-0.1-0.2-0.1s-0.2,0-0.2,0.1c0,0-0.1,0.1-0.1,0.2s0,0.2,0.1,0.2C81.7,22,81.8,22,81.9,22 M34.4,22.8
	c-0.1-0.1-0.2-0.1-0.3-0.2c-0.1,0-0.2,0-0.3,0s-0.2,0-0.3,0L32.3,23l0,0v-0.4h-0.5v3c0,0.1,0,0.3-0.1,0.4c0,0.1-0.1,0.2-0.2,0.2
	s-0.2,0.1-0.4,0.1c-0.1,0-0.3,0-0.4,0s-0.3,0-0.4,0s-0.3-0.1-0.4-0.1s-0.2-0.1-0.3-0.2c0-0.1-0.1-0.2-0.1-0.4v-2L28.9,24v1.6
	c0,0.3,0,0.5,0.2,0.7c0.1,0.2,0.3,0.3,0.4,0.4c0.2,0.1,0.4,0.2,0.5,0.2c0.2,0,0.4,0,0.6,0c0.1,0,0.2,0,0.4,0c0.1,0,0.3,0,0.4-0.1
	s0.3-0.1,0.4-0.2s0.2-0.1,0.3-0.3c0.1-0.1,0.2-0.2,0.2-0.4c0-0.1,0.1-0.3,0.1-0.4v-0.1h1.5c0.3,0,0.5-0.1,0.7-0.2
	c0.2-0.2,0.3-0.4,0.3-0.7v-1.2c0-0.1,0-0.2-0.1-0.4C34.5,22.9,34.4,22.9,34.4,22.8 M34,24.6c0,0,0,0.1,0,0.2s0,0.1,0,0.1
	s0,0-0.1,0.1c0,0-0.1,0-0.2,0h-1.6v-1.2c0-0.1,0-0.2,0-0.2s0.1-0.1,0.2-0.1l1.1-0.4h0.1h0.1h0.1c0,0,0,0,0.1,0c0,0,0,0,0,0.1
	s0,0.1,0,0.1L34,24.6z M93.4,24.9L93.4,24.9L93.4,24.9c0,0-0.1-0.1-0.1-0.3v-1.1c0-0.1,0-0.2,0.1-0.3c0,0,0.1-0.1,0.3-0.1h1.2v-0.5
	h-1.1c-0.1,0-0.2,0-0.4,0c-0.1,0-0.2,0.1-0.3,0.2c-0.1,0.1-0.2,0.2-0.2,0.3c0,0.1-0.1,0.3-0.1,0.4v1.1c0,0.1,0,0.2,0,0.3
	c0,0,0,0,0,0.1h-2.3v-1.5c0-0.2,0-0.3-0.1-0.4c0-0.1-0.1-0.2-0.3-0.3c-0.1-0.1-0.2-0.1-0.4-0.1c-0.1,0-0.2,0-0.4,0
	c-0.1,0-0.2,0-0.4,0s-0.2,0.1-0.3,0.1c-0.1,0.1-0.2,0.2-0.3,0.3c0,0.1-0.1,0.3-0.1,0.4V25h-3.6l0,0l0,0h-0.1c0,0,0-0.1,0-0.2v-3.2
	H84v3.1c0,0.1,0,0.2,0,0.3c0,0.1,0.1,0.2,0.1,0.3c0,0.1,0.1,0.1,0.2,0.2h0.1l0,0h3.9c0,0.1,0,0.2,0.1,0.2c0,0.1,0.1,0.2,0.3,0.2
	c0.1,0,0.2,0.1,0.3,0.1c0.1,0,0.2,0,0.3,0s0.2,0,0.3,0s0.2,0,0.3-0.1c0.1,0,0.2-0.1,0.3-0.2c0-0.1,0.1-0.1,0.1-0.2H95V25h-1.5
	L93.4,24.9 M90,25.2c0,0.1,0,0.2,0,0.3c0,0,0,0.1-0.1,0.1h-0.1c0,0-0.1,0-0.2,0s-0.1,0-0.2,0h-0.1l-0.1-0.1c0,0,0-0.1,0-0.2v-1.6
	c0-0.1,0-0.2,0-0.2s0-0.1,0.1-0.1h0.1c0,0,0.1,0,0.2,0c0,0,0.1,0,0.2,0c0,0,0.1,0,0.1,0.1s0,0,0.1,0.1c0,0,0,0.1,0,0.2V25.2L90,25.2
	z M58.7,25.8l0.2-0.1l0.3-0.1h0.1v-3.9h-0.5L58.7,25.8L58.7,25.8z M49.4,25.8l0.2-0.1l0.3-0.1H50v-3.9h-0.5L49.4,25.8L49.4,25.8z
	 M57.7,24.6c0,0.1,0,0.2-0.1,0.3c0,0-0.1,0.1-0.3,0.1h-2.5c-0.1,0-0.2,0-0.3-0.1c0,0-0.1-0.1-0.1-0.3v-1.5l-0.5,0.4v1.1
	c0,0.1,0,0.2,0,0.4s0.1,0.2,0.2,0.3c0.1,0.1,0.2,0.1,0.3,0.2c0.1,0,0.3,0.1,0.4,0.1h2.5c0.3,0,0.5-0.1,0.7-0.2
	c0.2-0.2,0.3-0.4,0.3-0.7v-2h-0.5L57.7,24.6L57.7,24.6z M51,22.6v0.1V22.6c-0.1,0-0.2,0.1-0.3,0.2s-0.2,0.2-0.2,0.3
	c0,0.1-0.1,0.3-0.1,0.4v1.1c0,0.1,0,0.2,0,0.4s0.1,0.2,0.2,0.3c0.1,0.1,0.2,0.1,0.3,0.2c0.1,0,0.3,0.1,0.4,0.1h0.6v0.2
	c0,0.1,0,0.3-0.1,0.4c0,0.1-0.1,0.1-0.2,0.2c-0.1,0-0.2,0.1-0.3,0.1s-0.2,0-0.3,0h-0.1c0,0,0,0-0.1,0h-0.4l0.4,0.6l0,0
	c0,0,0,0,0.1,0l0,0c0.1,0,0.3,0,0.4,0c0.1,0,0.3-0.1,0.4-0.2c0.1-0.1,0.3-0.2,0.4-0.4c0.1-0.2,0.1-0.4,0.1-0.6v-3.1h-1
	C51.2,22.6,51.1,22.6,51,22.6 M51.9,25h-0.6c-0.1,0-0.2,0-0.2-0.1S51,24.8,51,24.6v-1.2c0-0.1,0-0.2,0.1-0.3c0,0,0.1-0.1,0.3-0.1H52
	L51.9,25L51.9,25z M35.4,25.7L35.4,25.7c0,0.1,0,0.2,0,0.2s0,0.1-0.1,0.1l-0.1,0.1c0,0-0.1,0.1-0.2,0.1l-0.2,0.1l0.3,0.4l0.1,0.1
	h0.1c0.1,0,0.2-0.1,0.3-0.2s0.2-0.2,0.2-0.3c0-0.1,0.1-0.2,0.1-0.3c0-0.1,0-0.3,0-0.4v-3.1h-0.5L35.4,25.7L35.4,25.7z M68.5,21.4
	c-0.1,0-0.2,0-0.2,0.1c0,0-0.1,0.1-0.1,0.2s0,0.2,0.1,0.2c0,0,0.1,0.1,0.2,0.1l0,0c0.1,0,0.2,0,0.2-0.1c0,0,0.1-0.1,0.1-0.2
	s0-0.2-0.1-0.2C68.7,21.4,68.6,21.4,68.5,21.4 M102.6,22.9L102.6,22.9L102.6,22.9c-0.1-0.1-0.2-0.1-0.3-0.2c-0.1,0-0.3,0-0.4,0H101
	v-0.2c0,0,0-0.1,0-0.2s0-0.1,0-0.1s0,0,0.1,0c0,0,0.1,0,0.2,0h1v-0.5h-1c-0.3,0-0.5,0.1-0.7,0.2c-0.2,0.2-0.3,0.4-0.3,0.7v0.7h1.4
	h0.1h0.1c0,0,0,0,0,0.1c0,0,0,0.1,0,0.2v1.1c0,0.1,0,0.2-0.1,0.3c0,0-0.1,0.1-0.3,0.1H97v-2.4h-0.5v3.2c0,0.1,0,0.2,0,0.2v0.1
	l-0.1,0.1c0,0-0.1,0.1-0.2,0.1l-0.1,0.1l0.3,0.4l0.1,0.1h0.1c0.1,0,0.2-0.1,0.3-0.2c0.1-0.1,0.2-0.2,0.2-0.3c0-0.1,0.1-0.2,0.1-0.3
	c0-0.1,0-0.3,0-0.4v-0.2h4.4c0.3,0,0.5-0.1,0.7-0.2c0.2-0.2,0.3-0.4,0.3-0.7v-1.1c0-0.1,0-0.2,0-0.4C102.7,23,102.7,22.9,102.6,22.9
	 M48.4,24.7v0.1c0,0,0,0,0,0.1c0,0,0,0-0.1,0h-0.1H47v-1.5c0-0.2,0-0.3-0.1-0.4c0-0.1-0.1-0.2-0.3-0.3c-0.1-0.1-0.2-0.1-0.3-0.1
	s-0.2,0-0.4,0c-0.1,0-0.2,0-0.4,0c-0.1,0-0.2,0.1-0.3,0.1c-0.1,0.1-0.2,0.2-0.3,0.3c0,0.1-0.1,0.3-0.1,0.4V25h-2.4
	c0.1-0.1,0.2-0.3,0.3-0.4c0.2-0.2,0.4-0.4,0.6-0.5l0,0v-0.2c0-0.2,0-0.4-0.1-0.5S43,23.1,42.9,23s-0.3-0.2-0.4-0.3
	c-0.2,0-0.3-0.1-0.5-0.1s-0.4,0-0.5,0.1c-0.2,0-0.3,0.1-0.4,0.3c-0.1,0-0.1,0.1-0.2,0.3c-0.1,0.2-0.1,0.4-0.1,0.5V24l0,0
	c0.2,0.2,0.4,0.4,0.6,0.6c0.1,0.1,0.2,0.3,0.3,0.4h-4.4l0,0h-0.1h-0.1c0,0,0-0.1,0-0.2v-3.2h-0.5v3.1c0,0.1,0,0.2,0,0.3
	c0,0.1,0.1,0.2,0.1,0.3c0,0.1,0.1,0.1,0.2,0.2H37l0,0h5c0.1,0,0.1,0,0.2,0l0,0l0,0c0,0,0.1,0,0.2,0H45c0,0.1,0,0.2,0.1,0.2
	c0.1,0.1,0.1,0.2,0.3,0.2c0.1,0,0.2,0.1,0.3,0.1s0.2,0,0.3,0s0.2,0,0.3,0s0.2,0,0.3-0.1c0.1,0,0.2-0.1,0.3-0.2
	c0-0.1,0.1-0.1,0.1-0.2h1.2c0.2,0,0.4-0.1,0.6-0.2c0.1-0.1,0.2-0.4,0.2-0.6v-3.2h-0.5L48.4,24.7L48.4,24.7z M42.2,24.6
	c-0.1-0.1-0.2-0.3-0.3-0.4c-0.1-0.2-0.3-0.4-0.4-0.5c0-0.1,0-0.1,0-0.2s0.1-0.2,0.2-0.2c0.1,0,0.2-0.1,0.3-0.1s0.2,0,0.3,0
	s0.2,0,0.3,0s0.2,0.1,0.3,0.1s0.1,0.1,0.2,0.2c0,0.1,0,0.1,0.1,0.2c-0.2,0.1-0.3,0.3-0.5,0.5C42.4,24.4,42.3,24.5,42.2,24.6
	 M46.4,25.2c0,0.1,0,0.2,0,0.2s0,0.1-0.1,0.1h-0.1c0,0-0.1,0-0.2,0c-0.1,0-0.1,0-0.2,0s-0.1,0-0.1,0l-0.1-0.1c0,0,0-0.1,0-0.2v-1.6
	c0-0.1,0-0.2,0-0.2s0-0.1,0.1-0.1h0.1c0,0,0.1,0,0.2,0c0,0,0.1,0,0.2,0c0,0,0.1,0,0.1,0.1c0,0,0,0,0.1,0.1c0,0,0,0.1,0,0.2V25.2
	L46.4,25.2z"/>
<path class="st0" d="M96.9,6.6c0-1.6,1.2-2.8,2.8-2.8c1.5,0,2.8,1.2,2.8,2.8s-1.2,2.8-2.8,2.8C98.2,9.4,96.9,8.2,96.9,6.6 M102,6.6
	c0-1.2-1-2.2-2.3-2.2s-2.3,1-2.3,2.2s1,2.3,2.3,2.3l0,0C101,8.9,102,7.9,102,6.6"/>
<polygon class="st0" points="107.6,9.3 107,9.3 103.8,4.9 103.8,8.8 104.5,8.8 104.5,9.3 102.6,9.3 102.6,8.8 103.3,8.8 103.3,4.5 
	102.6,4.5 102.6,4 103.8,4 107,8.5 107,4.5 106.3,4.5 106.3,4 108.2,4 108.2,4.5 107.6,4.5 "/>
<g>
	<path class="st0" d="M10,6.5c0.2,0.2,0.6,0.4,1,0.5s0.9,0.2,1.4,0.3l0,0l0,0c0.5-0.1,1-0.2,1.4-0.3c0.4-0.1,0.8-0.3,1.1-0.5
		c0,0,0.1-0.1,0.1-0.3V6.1l0,0l0,0l0,0l0,0c0,0,0-0.1,0-0.2c0,0.2,0,0.2-0.1,0.3c-0.2,0.1-0.5,0.3-0.9,0.4s-0.9,0.2-1.5,0.3
		c-0.5-0.1-1-0.2-1.5-0.3c-0.4-0.1-0.7-0.2-0.9-0.4C10,6.1,10,6,10,5.9c0,0,0,0.1,0,0.2l0,0l0,0l0,0l0,0v0.1C9.8,6.4,9.9,6.5,10,6.5
		"/>
	<path class="st0" d="M11.2,4c0.1,0.1,0.3,0.2,0.6,0.3c0.2,0,0.4,0.1,0.6,0.1l0,0l0,0c0.2,0,0.4-0.1,0.6-0.1
		c0.2-0.1,0.4-0.2,0.6-0.3c0,0,0-0.1,0-0.2l-0.1-0.1l0,0l0,0l0,0c0,0,0-0.1-0.1-0.1c0,0,0,0.1,0,0.2c-0.1,0-0.2,0.1-0.4,0.1
		S12.6,4,12.3,4c-0.2,0-0.4-0.1-0.7-0.1c-0.1,0-0.3-0.1-0.4-0.1c0,0-0.1-0.1,0-0.2c0,0,0,0.1-0.1,0.1l0,0l0,0l0,0c0,0,0,0.1-0.1,0.1
		C11.1,3.8,11.1,3.9,11.2,4"/>
	<path class="st0" d="M13.1,3.1c0.1,0,0.1,0,0.2,0.1c-0.2-0.2-0.4-0.4-0.5-0.5l0,0l0,0c-0.2-0.1-0.4-0.1-0.5,0l0,0l0,0
		c-0.2,0.1-0.4,0.3-0.6,0.5h0.1C11.9,3.1,12.5,2.9,13.1,3.1"/>
	<path class="st0" d="M9.8,6.8c0,0.1,0,0.2,0,0.3l0,0c0,0,0,0.1,0,0.2l0,0v0.1c0,0.1,0.1,0.2,0.2,0.3c0.3,0.1,0.6,0.3,1,0.4
		s0.9,0.2,1.4,0.3l0,0l0,0c0.5-0.1,1-0.2,1.4-0.3s0.7-0.3,1-0.4c0,0,0.1-0.1,0.2-0.3V7.3l0,0l0,0c0,0,0-0.1,0-0.2l0,0
		c0-0.1,0-0.2,0-0.3l0,0c0,0.2-0.1,0.3-0.2,0.3c-0.2,0.1-0.5,0.2-0.9,0.4c-0.4,0.1-0.9,0.2-1.5,0.3c-0.4-0.1-1-0.1-1.4-0.3
		c-0.4-0.1-0.7-0.2-0.9-0.4C10,7.1,9.9,7,9.8,6.8L9.8,6.8"/>
	<path class="st0" d="M10.6,4.6C10.8,4.8,11,4.9,11.4,5c0.3,0.1,0.6,0.2,1,0.2l0,0l0,0c0.4,0,0.7-0.1,1-0.2c0.4-0.1,0.6-0.3,0.8-0.4
		c0,0,0.1-0.1,0-0.2l0,0l0,0c0,0,0,0,0-0.1l0,0l0,0c0-0.1-0.1-0.1-0.1-0.2c0,0.1,0.1,0.2,0,0.3c-0.1,0.1-0.4,0.2-0.6,0.2
		c-0.3,0.1-0.6,0.2-1,0.2s-0.7-0.1-1-0.2c-0.2-0.1-0.4-0.1-0.6-0.2c-0.1-0.1,0-0.2,0-0.3c0,0-0.1,0.1-0.1,0.2l0,0c0,0,0,0,0,0.1l0,0
		l0,0l0,0C10.5,4.5,10.6,4.6,10.6,4.6"/>
	<path class="st0" d="M10.2,5.5c0.2,0.2,0.6,0.4,1,0.5s0.8,0.2,1.2,0.3l0,0l0,0c0.6-0.1,1-0.2,1.4-0.3c0.4-0.1,0.8-0.3,1-0.5
		c0,0,0.1-0.1,0-0.2l0,0l0,0l0,0V5.2l0,0V5.1c0,0.1,0,0.2,0,0.2c-0.2,0.1-0.5,0.2-0.8,0.3c-0.4,0.1-0.8,0.2-1.3,0.3
		c-0.5,0-0.9-0.2-1.3-0.3c-0.4-0.1-0.6-0.2-0.8-0.3c-0.1,0-0.1-0.1,0-0.2v0.1l0,0v0.1l0,0l0,0l0,0C10.1,5.4,10.2,5.5,10.2,5.5"/>
	<path class="st0" d="M13.2,12.8c-0.1,0.2-0.2,0.3-0.3,0.3c0,0,0,0-0.1,0s-0.2,0-0.4,0c-0.1,0-0.3,0-0.4,0c0,0,0,0-0.1,0
		c0,0-0.2-0.1-0.3-0.3l0,0l0.1,0.4l0,0l0,0c0.2,0.5,0.4,0.7,0.5,0.7l0,0l0,0l0,0l0,0l0,0l0,0l0,0l0,0c0,0,0,0,0.1,0l0,0
		c0.2-0.1,0.3-0.3,0.4-0.7L13.2,12.8L13.2,12.8"/>
	<path class="st0" d="M9.9,7.9L9.9,7.9L9.9,7.9L9.9,7.9"/>
	<path class="st0" d="M9.9,7.9C10,8,10,8.1,10,8.2l0,0v0.1c0,0,0,0.1,0,0.2l0,0l0,0c0,0.2,0.2,0.3,0.3,0.3C10.5,8.9,10.7,9,11,9.1
		c0.4,0.1,0.8,0.2,1.3,0.3l0,0l0,0c0.5-0.1,0.9-0.2,1.3-0.3c0.3-0.1,0.5-0.2,0.7-0.3c0.1,0,0.2-0.1,0.3-0.3l0,0l0,0V8.4V8.3l0,0
		C15,8.1,15,8,15,7.9c-0.1,0.3-0.3,0.4-0.3,0.4c-0.2,0.1-0.5,0.2-0.8,0.3c-0.4,0.1-0.9,0.2-1.4,0.3c-0.5,0-1-0.1-1.4-0.3
		c-0.3-0.1-0.6-0.2-0.8-0.3C10.2,8.3,10,8.2,9.9,7.9"/>
	<path class="st0" d="M14.3,9.7l0.1-0.4V9.1l0,0l0,0l0,0c-0.1,0.2-0.3,0.4-0.4,0.4c-0.2,0-0.4,0.1-0.6,0.2c-0.4,0.1-0.8,0.2-1.2,0.2
		S11.4,9.8,11,9.7c-0.2,0-0.4-0.1-0.6-0.2c-0.1,0-0.3-0.1-0.3-0.4l0,0l0,0l0.1,0.3l0.1,0.2c0,0.2,0.2,0.2,0.3,0.3
		c0.1,0,0.3,0.1,0.4,0.2c0.4,0.1,0.7,0.2,1.1,0.2l0,0l0,0c0.4,0,0.8-0.1,1.1-0.2c0.2,0,0.3-0.1,0.4-0.2C14.1,10,14.3,9.9,14.3,9.7"
		/>
	<path class="st0" d="M13.6,11.5c-0.1,0.2-0.2,0.4-0.3,0.4s-0.2,0-0.3,0.1c-0.2,0-0.4,0.1-0.6,0.1c-0.2,0-0.4-0.1-0.6-0.1
		c-0.1,0-0.2,0-0.3-0.1c0,0-0.2-0.1-0.3-0.4l0,0l0.1,0.3l0.1,0.3c0,0.1,0.2,0.2,0.3,0.3c0,0,0,0,0.1,0c0.2,0,0.4,0.1,0.6,0.1l0,0
		l0,0c0.2,0,0.4-0.1,0.6-0.1c0,0,0,0,0.1,0s0.2-0.1,0.3-0.3l0,0l0,0L13.6,11.5C13.7,11.5,13.6,11.5,13.6,11.5"/>
	<path class="st0" d="M13.8,10.7c-0.1,0-0.3,0.1-0.4,0.1c-0.3,0.1-0.6,0.1-0.9,0.2c-0.3,0-0.6-0.1-0.9-0.2c-0.2,0-0.3-0.1-0.4-0.1
		c-0.1,0-0.2-0.1-0.3-0.4l0,0l0.2,0.5v0.1l0,0c0.1,0.2,0.2,0.3,0.3,0.3c0,0,0.1,0,0.2,0c0.3,0.1,0.6,0.1,0.9,0.2l0,0l0,0
		c0.3,0,0.6-0.1,0.9-0.2c0.1,0,0.1,0,0.2,0c0.1,0,0.3-0.1,0.3-0.3l0,0l0.1-0.3l0.1-0.3l0,0C14,10.6,13.9,10.7,13.8,10.7"/>
	<path class="st0" d="M14.9,7.9L14.9,7.9L14.9,7.9L14.9,7.9"/>
	<path class="st0" d="M9.9,21.8L9.9,21.8L9.9,21.8L9.9,21.8"/>
	<path class="st0" d="M14.9,21.8L14.9,21.8L14.9,21.8L14.9,21.8"/>
	<path class="st0" d="M11.7,16.9L11.7,16.9c0.1-0.2,0.2-0.3,0.3-0.3c0,0,0,0,0.1,0s0.2,0,0.4,0c0.1,0,0.3,0,0.4,0c0,0,0,0,0.1,0
		c0,0,0.2,0.1,0.3,0.3l0,0l-0.1-0.4c-0.1-0.4-0.3-0.6-0.4-0.7l0,0c0,0,0,0-0.1,0l0,0l0,0l0,0l0,0l0,0l0,0l0,0l0,0
		c-0.2,0-0.4,0.2-0.5,0.7l0,0l0,0L11.7,16.9z"/>
	<path class="st0" d="M11.1,19c0.1,0,0.3-0.1,0.4-0.1c0.3-0.1,0.6-0.1,0.9-0.2c0.3,0,0.6,0.1,0.9,0.2c0.2,0,0.3,0.1,0.4,0.1
		s0.2,0.1,0.3,0.4l0,0l-0.1-0.3v-0.3l0,0c-0.1-0.2-0.2-0.3-0.3-0.3c0,0-0.1,0-0.2,0c-0.3-0.1-0.6-0.1-0.9-0.2l0,0l0,0
		c-0.3,0-0.6,0.1-0.9,0.2c-0.1,0-0.1,0-0.2,0c-0.1,0-0.3,0.1-0.3,0.3l0,0L11.1,19L11,19.4l0,0C10.9,19.1,11,19,11.1,19"/>
	<path class="st0" d="M14.9,21.8c0-0.1,0-0.2-0.1-0.3l0,0v-0.1v-0.1l0,0l0,0c0-0.2-0.2-0.3-0.3-0.3c-0.2-0.1-0.4-0.2-0.7-0.3
		c-0.4-0.1-0.8-0.2-1.3-0.3l0,0l0,0c-0.5,0.1-0.9,0.2-1.3,0.3c-0.3,0.1-0.5,0.2-0.7,0.3c-0.1,0-0.2,0.1-0.3,0.3l0,0l0,0
		c0,0,0,0.1,0,0.2v0.1l0,0c0,0.1,0,0.2-0.1,0.3c0.1-0.3,0.3-0.4,0.3-0.4c0.2-0.1,0.5-0.2,0.8-0.3c0.4-0.1,0.9-0.2,1.4-0.3
		c0.5,0,1,0.1,1.4,0.3c0.3,0.1,0.6,0.2,0.8,0.3C14.6,21.4,14.8,21.5,14.9,21.8"/>
	<path class="st0" d="M10.5,20.1l-0.1,0.3l0,0l0,0c0.1-0.2,0.3-0.3,0.3-0.4c0.2-0.1,0.4-0.1,0.6-0.2c0.4-0.1,0.8-0.2,1.2-0.2
		s0.8,0.1,1.2,0.2c0.2,0,0.4,0.1,0.6,0.2c0.1,0,0.3,0.1,0.4,0.4l0,0l0,0l0,0l-0.1-0.2l-0.1-0.4c0-0.2-0.2-0.3-0.3-0.3
		s-0.3-0.1-0.4-0.2c-0.4-0.1-0.7-0.2-1.1-0.2l0,0l0,0c-0.4,0-0.8,0.1-1.1,0.2c-0.2,0-0.3,0.1-0.4,0.2c-0.1,0-0.2,0.1-0.3,0.3
		L10.5,20.1z"/>
	<path class="st0" d="M14.7,24.2c-0.2-0.2-0.6-0.4-1-0.5s-0.8-0.2-1.2-0.3l0,0l0,0c-0.4,0.1-0.8,0.2-1.2,0.3c-0.4,0.1-0.8,0.3-1,0.5
		c0,0-0.1,0.1,0,0.2l0,0l0,0l0,0v0.1l0,0v0.1c0-0.1,0-0.1,0-0.2c0.2-0.1,0.5-0.2,0.8-0.3c0.4-0.1,0.8-0.2,1.3-0.3
		c0.5,0.1,0.9,0.2,1.3,0.3c0.4,0.1,0.6,0.2,0.8,0.3c0.1,0,0.1,0.1,0,0.2v-0.1l0,0v-0.1l0,0l0,0l0,0C14.8,24.3,14.7,24.2,14.7,24.2"
		/>
	<path class="st0" d="M11.2,18.2c0.1-0.2,0.2-0.4,0.3-0.4s0.2,0,0.3-0.1c0.2,0,0.4-0.1,0.6-0.1c0.2,0,0.4,0.1,0.6,0.1
		c0.1,0,0.2,0,0.3,0.1c0,0,0.2,0.1,0.3,0.4l0,0l-0.2-0.5v-0.1l0,0c0-0.1-0.2-0.2-0.3-0.3c0,0,0,0-0.1,0c-0.2,0-0.4-0.1-0.6-0.1l0,0
		l0,0c-0.2,0-0.4,0.1-0.6,0.1c0,0,0,0-0.1,0s-0.2,0.1-0.3,0.3l-0.1,0.3L11.2,18.2L11.2,18.2"/>
	<path class="st0" d="M11.7,26.5h-0.1c0.2,0.2,0.4,0.4,0.6,0.5l0,0l0,0c0.1,0,0.3,0.1,0.5,0l0,0l0,0c0.2-0.1,0.4-0.3,0.5-0.5
		c-0.1,0-0.1,0-0.2,0.1C12.5,26.8,11.9,26.6,11.7,26.5"/>
	<path class="st0" d="M13.7,25.9c-0.1-0.1-0.3-0.2-0.6-0.3c-0.2,0-0.4-0.1-0.6-0.1l0,0l0,0c-0.2,0-0.4,0.1-0.6,0.1
		c-0.2,0.1-0.4,0.2-0.6,0.3c0,0,0,0.1,0,0.2l0.1,0.1l0,0l0,0l0,0c0,0,0,0.1,0.1,0.1c0,0,0-0.1,0-0.2c0.1,0,0.2-0.1,0.4-0.1
		s0.4-0.1,0.7-0.1c0.2,0,0.4,0.1,0.7,0.1c0.1,0,0.3,0.1,0.4,0.1c0,0,0.1,0.1,0,0.2c0,0,0-0.1,0.1-0.1l0,0l0,0l0,0l0.1-0.1
		C13.7,26.1,13.7,26,13.7,25.9"/>
	<path class="st0" d="M15.1,22.9c0-0.1,0-0.2,0-0.3l0,0c0,0,0-0.1,0-0.2l0,0l0,0v-0.1c0-0.1-0.1-0.2-0.2-0.3c-0.3-0.1-0.6-0.3-1-0.4
		s-0.9-0.2-1.4-0.3l0,0l0,0c-0.5,0.1-1,0.2-1.4,0.3c-0.4,0.1-0.7,0.3-1,0.4c0,0-0.1,0.1-0.2,0.3v0.1l0,0l0,0c0,0,0,0.1,0,0.2
		s0,0.2,0,0.3l0,0c0-0.2,0.1-0.3,0.2-0.3c0.2-0.1,0.5-0.2,0.9-0.4c0.4-0.1,0.9-0.2,1.5-0.3c0.5,0.1,1.1,0.2,1.5,0.3
		c0.4,0.1,0.7,0.2,0.9,0.4C14.9,22.6,15,22.7,15.1,22.9L15.1,22.9"/>
	<path class="st0" d="M14.3,25.1c-0.2-0.2-0.4-0.3-0.8-0.4c-0.3-0.1-0.6-0.2-1-0.2l0,0l0,0c-0.4,0-0.7,0.1-1,0.2
		c-0.4,0.1-0.6,0.3-0.8,0.4c0,0-0.1,0.1,0,0.2l0,0l0,0l0,0c0,0,0,0,0,0.1l0,0c0,0,0.1,0.1,0.1,0.2c0-0.1-0.1-0.2,0-0.3
		c0.1-0.1,0.4-0.2,0.6-0.2c0.3-0.1,0.6-0.2,1-0.2s0.7,0.1,1,0.2l0,0c0.2,0.1,0.4,0.1,0.6,0.2c0.1,0.1,0,0.2,0,0.3
		c0,0,0.1-0.1,0.1-0.2l0,0l0,0c0,0,0,0,0-0.1l0,0l0,0C14.3,25.2,14.3,25.1,14.3,25.1"/>
	<path class="st0" d="M14.9,23.2c-0.3-0.2-0.6-0.4-1.1-0.5c-0.4-0.1-0.9-0.2-1.4-0.3l0,0l0,0c-0.5,0.1-1,0.2-1.4,0.3
		c-0.4,0.1-0.8,0.3-1.1,0.5c0,0-0.1,0.1-0.1,0.3v0.1l0,0l0,0l0,0l0,0c0,0,0,0.1,0,0.2c0-0.1,0-0.2,0.1-0.3c0.2-0.1,0.5-0.3,0.9-0.4
		s0.9-0.2,1.5-0.3c0.5,0.1,1,0.2,1.5,0.3c0.4,0.1,0.7,0.2,0.9,0.4c0.1,0,0.1,0.1,0.1,0.3c0,0,0-0.1,0-0.2l0,0l0,0l0,0l0,0v-0.1
		C15,23.3,15,23.2,14.9,23.2"/>
	<path class="st0" d="M8.2,10.6c-0.4,0.3-0.8,0.6-1.2,0.8c-0.3,0.2-0.5,0.3-0.8,0.4l0,0c0,0-0.2,0.1-0.5-0.1c0.1,0,0.2,0.1,0.3,0.1
		l0,0c0,0,0,0,0.1,0c0,0,0.1,0,0.1,0.1l0,0l0,0c0.2,0.1,0.3,0,0.4,0c0.2-0.1,0.4-0.2,0.7-0.3c0.4-0.2,0.8-0.4,1.1-0.8l0,0l0,0
		c0.3-0.4,0.5-0.8,0.8-1.1C9.3,9.4,9.4,9.2,9.5,9c0-0.1,0-0.2,0-0.4l0,0l0,0c0,0,0-0.1-0.1-0.1V8.4l0,0c0-0.1-0.1-0.2-0.1-0.3
		c0.2,0.3,0.1,0.5,0.1,0.5C9.3,8.9,9.2,9.2,9,9.4C8.8,9.8,8.5,10.2,8.2,10.6"/>
	<path class="st0" d="M9,11.4c-0.4,0.3-0.7,0.5-1,0.7c-0.2,0.1-0.4,0.2-0.6,0.3c-0.1,0-0.3,0.1-0.5,0l0,0l0,0l0.3,0.1l0.2,0.1
		c0.2,0.1,0.3,0,0.4,0s0.3-0.1,0.4-0.2c0.3-0.2,0.6-0.4,0.9-0.6l0,0l0,0c0.2-0.3,0.4-0.6,0.6-0.9c0.1-0.2,0.2-0.3,0.2-0.4
		c0-0.1,0-0.2,0-0.4L10,9.6L9.9,9.4l0,0l0,0l0,0c0.1,0.2,0,0.4,0,0.5c0,0.2-0.2,0.4-0.3,0.5C9.5,10.7,9.2,11,9,11.4"/>
	<path class="st0" d="M5.5,6L5.5,6C5.4,6,5.4,6,5.5,6L5.5,6z"/>
	<path class="st0" d="M10.2,13.6L10.2,13.6c0.3-0.1,0.4-0.3,0.6-0.4l0,0l0,0c0.1-0.2,0.3-0.4,0.4-0.5c0,0,0,0,0-0.1s0-0.2,0-0.4l0,0
		l0,0L11,11.7l0,0c0.1,0.2,0,0.4,0,0.5s-0.1,0.2-0.1,0.3c-0.1,0.2-0.2,0.4-0.4,0.5s-0.4,0.3-0.5,0.4c-0.1,0-0.2,0.1-0.3,0.1
		c0,0-0.2,0-0.5,0l0,0l0.3,0.1l0.3,0.1C9.9,13.7,10.1,13.6,10.2,13.6"/>
	<path class="st0" d="M8.3,8.6C8.1,9,7.8,9.4,7.5,9.9c-0.4,0.4-0.8,0.6-1.3,0.8c-0.4,0.2-0.7,0.3-0.9,0.4c-0.1,0-0.2,0-0.4-0.1l0,0
		c0,0,0.1,0.1,0.2,0.2l0,0l0.1,0.1l0,0l0,0c0,0,0,0,0.1,0.1s0.2,0.1,0.3,0.1c0.3-0.1,0.6-0.2,1-0.4s0.8-0.5,1.2-0.8l0,0l0,0
		c0.3-0.4,0.6-0.8,0.8-1.2s0.3-0.7,0.4-1C9,8,9,7.9,8.9,7.8c0,0,0,0-0.1-0.1l0,0l0,0L8.7,7.6l0,0c0,0-0.1-0.1-0.2-0.2l0,0
		c0.1,0.1,0.1,0.3,0.1,0.4C8.6,8,8.5,8.3,8.3,8.6"/>
	<path class="st0" d="M11.7,14.2L11.7,14.2C11.7,14.2,11.8,14.2,11.7,14.2C11.8,14.2,11.8,14.2,11.7,14.2
		C11.8,14.2,11.8,14.2,11.7,14.2L11.7,14.2L11.7,14.2L11.7,14.2L11.7,14.2l0.1-0.1l0,0c0-0.2,0-0.4-0.2-0.8l0,0l-0.2-0.4l0,0
		c0.1,0.2,0,0.3,0,0.4c0,0,0,0,0,0.1s-0.1,0.2-0.2,0.3S11,13.9,10.9,14c0,0,0,0-0.1,0c0,0-0.2,0.1-0.4,0l0,0l0.3,0.1l0,0l0,0
		C11.3,14.3,11.5,14.3,11.7,14.2"/>
	<path class="st0" d="M5.8,11.7L5.8,11.7L5.8,11.7L5.8,11.7"/>
	<path class="st0" d="M4.6,7C4.4,7.2,4.2,7.3,4,7.4C3.9,7.5,3.8,7.5,3.7,7.5s-0.1,0-0.1-0.1v0.1l0,0l0,0l0,0c0,0,0,0.1,0,0.2
		c0,0,0,0.1,0.1,0.1c0.2,0,0.4-0.1,0.6-0.2c0.2-0.1,0.4-0.2,0.6-0.4l0,0l0,0c0.1,0,0.3-0.3,0.4-0.4c0.1-0.2,0.2-0.4,0.2-0.6
		C5.4,6,5.4,6,5.3,6s0,0-0.1,0l0,0l0,0l0,0C5.1,6,5,6,5,6c0.1,0,0.1,0,0.1,0.1C5,6.2,5,6.4,4.9,6.5C4.9,6.6,4.8,6.8,4.6,7"/>
	<path class="st0" d="M9.8,12.2c-0.3,0.2-0.5,0.4-0.8,0.5c-0.1,0.1-0.3,0.1-0.4,0.2c-0.1,0-0.3,0.1-0.5,0l0,0l0.5,0.2h0.1l0,0
		c0.2,0.1,0.4,0,0.4,0s0.1,0,0.2-0.1c0.2-0.1,0.5-0.3,0.8-0.5l0,0l0,0c0.2-0.3,0.4-0.5,0.5-0.8c0,0,0.1-0.1,0.1-0.2
		c0-0.1,0.1-0.3,0-0.4l0,0l-0.1-0.3v-0.4l0,0c0.1,0.2,0,0.4,0,0.5s-0.1,0.3-0.2,0.4C10.1,11.6,9.9,11.9,9.8,12.2"/>
	<path class="st0" d="M4.6,6c0.1,0,0.1,0,0.2,0C4.5,6,4.3,6,4,6l0,0l0,0C3.7,6,3.6,6.3,3.6,6.4l0,0l0,0c0,0.2,0,0.5,0,0.8V7.1
		C3.7,6.9,4,6.4,4.6,6"/>
	<path class="st0" d="M9.3,8.2L9.3,8.2L9.3,8.2L9.3,8.2"/>
	<path class="st0" d="M5.5,10c-0.4,0.2-0.7,0.3-0.9,0.4c-0.1,0-0.2,0-0.3-0.1c0,0,0.1,0.1,0.1,0.2l0,0l0,0l0,0l0,0
		c0,0,0,0.1,0.1,0.1c0.1,0.1,0.2,0.1,0.3,0.1c0.3,0,0.7-0.2,1.1-0.4s0.8-0.4,1.2-0.8l0,0l0,0c0.3-0.4,0.6-0.8,0.8-1.2
		c0.2-0.3,0.3-0.7,0.4-1c0,0,0-0.2-0.1-0.3c0-0.1-0.1-0.1-0.1-0.1l0,0l0,0l0,0l0,0c0,0-0.1-0.1-0.2-0.1C8,6.8,8,6.9,8,7
		C7.9,7.2,7.7,7.6,7.6,7.9C7.3,8.3,7.1,8.7,6.7,9.1C6.3,9.5,5.9,9.7,5.5,10"/>
	<path class="st0" d="M5.3,7.7C5,7.9,4.7,8.1,4.4,8.3C4.2,8.4,4,8.5,3.9,8.5S3.7,8.4,3.7,8.3c0,0.1,0,0.2,0,0.2l0,0v0.1l0,0l0,0l0,0
		c0,0.1,0.1,0.1,0.2,0.1c0.3,0,0.5-0.1,0.9-0.3c0.3-0.1,0.6-0.3,0.8-0.5l0,0l0,0C5.8,7.6,6,7.3,6.1,7.1c0.2-0.4,0.3-0.6,0.3-0.9
		c0,0,0-0.1-0.1-0.2l0,0l0,0c0,0,0,0-0.1,0c0,0,0,0-0.1,0l0,0C6,6,5.9,6,5.9,6C6,6,6.1,6.1,6.1,6.2c0,0.2-0.1,0.4-0.3,0.6l0,0
		C5.7,7.1,5.5,7.4,5.3,7.7"/>
	<path class="st0" d="M6.7,7.3C6.5,7.7,6.3,8,6,8.4C5.6,8.7,5.3,8.9,4.9,9.1C4.6,9.3,4.3,9.4,4.1,9.5c-0.1,0-0.2,0-0.2-0.1v0.1l0,0
		v0.1l0,0l0,0l0,0c0,0.1,0.1,0.1,0.2,0.1c0.3,0,0.7-0.1,1.1-0.4c0.5,0,0.8-0.2,1.2-0.5l0,0l0,0C6.6,8.5,6.9,8.1,7,7.7
		c0.3-0.4,0.3-0.7,0.4-1c0,0,0-0.1-0.1-0.2l0,0l0,0l0,0H7.2l0,0H7.1C7,6.4,7,6.4,7,6.5C7,6.7,6.9,7,6.7,7.3"/>
	<path class="st0" d="M14,17.3c0.1-0.2,0.2-0.4,0.4-0.5s0.4-0.3,0.5-0.4c0.1,0,0.2-0.1,0.3-0.1c0,0,0.2,0,0.5,0l0,0l-0.5-0.2h-0.1
		l0,0c-0.1,0-0.3,0-0.4,0c0,0,0,0-0.1,0c-0.2,0.1-0.4,0.2-0.5,0.4l0,0l0,0c-0.1,0.2-0.3,0.4-0.4,0.5c0,0,0,0,0,0.1s0,0.2,0,0.4
		l0.1,0.3L14,18l0,0c-0.1-0.2,0-0.4,0-0.5C13.9,17.5,13.9,17.4,14,17.3"/>
	<path class="st0" d="M21,21.2c0.1,0,0.2,0.1,0.2,0.2c0-0.1,0-0.2,0-0.2l0,0l0,0c0,0,0,0,0-0.1l0,0l0,0c0-0.1-0.1-0.1-0.2-0.1
		c-0.3,0-0.5,0.1-0.9,0.3c-0.3,0.1-0.6,0.3-0.8,0.5l0,0l0,0c-0.2,0.3-0.4,0.6-0.5,0.8c-0.2,0.4-0.3,0.6-0.3,0.9c0,0,0,0.1,0.1,0.2
		l0,0l0,0l0,0h0.1l0,0c0.1,0,0.2,0,0.2,0c-0.1,0-0.2-0.1-0.2-0.2c0-0.2,0.1-0.4,0.3-0.6c0.1-0.3,0.4-0.6,0.6-0.8
		c0.3-0.2,0.6-0.4,0.8-0.6l0,0C20.7,21.3,20.9,21.2,21,21.2"/>
	<path class="st0" d="M18.1,22.4c0.2-0.4,0.4-0.7,0.7-1.1c0.4-0.3,0.8-0.5,1.1-0.7c0.3-0.2,0.6-0.3,0.8-0.4c0.1,0,0.2,0,0.2,0.1
		v-0.1l0,0v-0.1l0,0l0,0l0,0c0-0.1-0.1-0.1-0.2-0.1c-0.3,0-0.7,0.1-1.1,0.4c-0.4,0.2-0.7,0.4-1.1,0.7l0,0l0,0
		c-0.3,0.4-0.5,0.7-0.7,1.1s-0.3,0.8-0.4,1.1c0,0,0,0.1,0.1,0.2l0,0l0,0l0,0h0.1l0,0h0.1c-0.1,0-0.1-0.1-0.1-0.2
		C17.9,23,18,22.7,18.1,22.4"/>
	<path class="st0" d="M13.4,16.3c0-0.1,0.1-0.2,0.2-0.3c0.1-0.1,0.2-0.2,0.3-0.2c0,0,0,0,0.1,0c0,0,0.2-0.1,0.4,0l0,0L14,15.6
		c-0.4-0.2-0.6-0.3-0.8-0.2l0,0c0,0,0,0-0.1,0l0,0l0,0l0,0l0,0l0,0l0,0l0,0l0,0C13.1,15.6,13.1,15.9,13.4,16.3L13.4,16.3L13.4,16.3
		l0.1,0.4l0,0C13.4,16.5,13.5,16.4,13.4,16.3C13.4,16.4,13.4,16.3,13.4,16.3"/>
	<polygon class="st0" points="13.7,17.5 13.7,17.5 13.6,17.4 	"/>
	<path class="st0" d="M16.6,21.1c0.2-0.4,0.5-0.8,0.8-1.3c0.4-0.3,0.8-0.6,1.3-0.8c0.4-0.2,0.6-0.3,0.9-0.4c0.1,0,0.2,0,0.4,0.1l0,0
		c0,0-0.1-0.1-0.2-0.2l0,0l-0.1-0.1l0,0c0,0,0,0-0.1-0.1s-0.2-0.1-0.3-0.1c-0.3,0.1-0.6,0.2-1,0.4c-0.4,0.2-0.8,0.5-1.2,0.8l0,0l0,0
		c-0.3,0.4-0.6,0.8-0.8,1.2c-0.2,0.4-0.3,0.7-0.4,1c0,0.1,0,0.2,0.1,0.3c0,0,0,0,0.1,0.1l0,0l0,0l0.1,0.1l0,0c0,0,0.1,0.1,0.2,0.2
		l0,0c-0.2,0-0.2-0.2-0.2-0.3C16.2,21.7,16.4,21.4,16.6,21.1"/>
	<path class="st0" d="M19.1,18L19.1,18L19.1,18L19.1,18"/>
	<path class="st0" d="M15.6,21.5L15.6,21.5L15.6,21.5L15.6,21.5"/>
	<path class="st0" d="M19.4,19.7c0.4-0.2,0.7-0.3,0.9-0.4c0.1,0,0.2,0,0.3,0.1c0,0-0.1-0.1-0.1-0.2l0,0l0,0l0,0l0,0
		c0,0,0-0.1-0.1-0.1C20.1,19,20.1,19,20,19c-0.3,0-0.7,0.2-1.1,0.4c-0.4,0.2-0.8,0.4-1.2,0.8l0,0l0,0c-0.3,0.4-0.6,0.8-0.8,1.2
		c-0.2,0.4-0.4,0.8-0.4,1.1c0,0,0,0.2,0.1,0.3c0,0,0.1,0,0.1,0.1l0,0l0,0l0,0l0,0c0,0,0.1,0.1,0.2,0.1c-0.1-0.1-0.1-0.2-0.1-0.3
		c0.1-0.3,0.2-0.6,0.4-0.9c0.2-0.4,0.5-0.8,0.8-1.2C18.6,20.2,19,20,19.4,19.7"/>
	<path class="st0" d="M16.7,19.1c0.4-0.3,0.8-0.6,1.2-0.8c0.3-0.2,0.5-0.3,0.8-0.4l0,0c0,0,0.2-0.1,0.5,0.1c-0.1,0-0.2-0.1-0.3-0.1
		l0,0h-0.1c0,0-0.1,0-0.1-0.1l0,0l0,0c-0.2-0.1-0.3-0.1-0.4,0c-0.2,0.1-0.4,0.2-0.7,0.3c-0.4,0.2-0.8,0.4-1.1,0.8l0,0l0,0
		c-0.3,0.4-0.5,0.8-0.8,1.1c-0.1,0.3-0.2,0.5-0.3,0.7c0,0.1,0,0.2,0,0.4l0,0l0,0c0,0,0,0.1,0.1,0.1c0,0,0,0,0,0.1l0,0
		c0,0.1,0.1,0.2,0.1,0.3c-0.2-0.3-0.1-0.5-0.1-0.5l0,0c0.1-0.2,0.2-0.5,0.4-0.8C16.1,19.9,16.4,19.5,16.7,19.1"/>
	<path class="st0" d="M15.9,18.3c0.4-0.3,0.7-0.5,1-0.7c0.2-0.1,0.4-0.2,0.5-0.3c0.1,0,0.3-0.1,0.5,0l0,0l0,0l0,0l-0.2-0.1l-0.3-0.1
		c-0.2-0.1-0.3,0-0.4,0s-0.3,0.1-0.4,0.2c-0.3,0.2-0.6,0.4-0.9,0.6l0,0l0,0c-0.2,0.3-0.4,0.6-0.6,0.9c-0.1,0.2-0.2,0.3-0.2,0.4
		s0,0.2,0,0.4l0.1,0.2l0.1,0.3l0,0l0,0c-0.1-0.2,0-0.4,0-0.5c0-0.2,0.2-0.4,0.3-0.6C15.4,19,15.6,18.7,15.9,18.3"/>
	<path class="st0" d="M15.1,17.5c0.3-0.2,0.5-0.4,0.8-0.5c0.1-0.1,0.3-0.1,0.4-0.2c0.1,0,0.3-0.1,0.5,0l0,0l-0.3-0.1l-0.3-0.1l0,0
		c-0.2-0.1-0.4,0-0.4,0s-0.1,0-0.2,0.1c-0.2,0.1-0.5,0.3-0.8,0.5l0,0l0,0c-0.2,0.3-0.4,0.5-0.5,0.8c0,0-0.1,0.1-0.1,0.2
		s-0.1,0.3,0,0.4l0,0v0.1l0.2,0.5l0,0c-0.1-0.2,0-0.4,0-0.5s0.1-0.3,0.2-0.4C14.7,18,14.9,17.8,15.1,17.5"/>
	<path class="st0" d="M20.3,22.7c0.2-0.1,0.4-0.3,0.6-0.4c0.1-0.1,0.3-0.1,0.4-0.1s0.1,0,0.1,0.1v-0.1l0,0l0,0l0,0c0,0,0-0.1,0-0.2
		c0,0,0-0.1-0.1-0.1c-0.2,0-0.4,0.1-0.6,0.2s-0.4,0.2-0.6,0.4l0,0l0,0c-0.1,0.2-0.3,0.4-0.4,0.6s-0.2,0.4-0.2,0.6
		c0,0.1,0,0.1,0.1,0.1c0,0,0.1,0,0.2,0l0,0l0,0l0,0h0.1c-0.1,0-0.1,0-0.1-0.1s0.1-0.2,0.1-0.4C20,23.1,20.1,22.9,20.3,22.7"/>
	<path class="st0" d="M20.2,23.7h-0.1c0.3,0,0.5,0,0.8,0l0,0l0,0c0.1,0,0.3-0.1,0.4-0.4l0,0l0,0c0-0.2,0-0.5,0-0.8
		c0,0.1,0,0.1-0.1,0.2C20.9,23.3,20.4,23.6,20.2,23.7"/>
	<path class="st0" d="M7.7,16.4c0-0.1,0.1-0.3,0.2-0.4c0.1-0.4,0.2-0.7,0.2-1.1l0,0l0,0c0-0.4-0.1-0.8-0.2-1.1
		c0-0.2-0.1-0.3-0.2-0.4c0-0.1-0.1-0.2-0.3-0.3L7,12.8H6.8l0,0l0,0l0,0C7,12.9,7.1,13,7.1,13.1c0,0.2,0.1,0.4,0.2,0.6
		c0.1,0.4,0.2,0.8,0.2,1.2s-0.1,0.8-0.2,1.2c0,0.2-0.1,0.4-0.2,0.6C7.1,16.8,7,17,6.7,17l0,0l0,0L7,16.9l0.2-0.1
		C7.5,16.7,7.6,16.5,7.7,16.4"/>
	<path class="st0" d="M4.8,17.3c0,0.1-0.1,0.2-0.3,0.2l0,0c0.1,0,0.2,0,0.3,0l0,0c0,0,0.1,0,0.2,0l0,0l0,0h0.1
		c0.1,0,0.2-0.1,0.3-0.2c0.1-0.3,0.3-0.6,0.4-1s0.2-0.9,0.3-1.4l0,0l0,0c-0.1-0.5-0.2-1-0.3-1.4c-0.1-0.4-0.3-0.7-0.4-1
		c0,0-0.1-0.1-0.3-0.2H5l0,0l0,0c0,0-0.1,0-0.2,0l0,0c-0.1,0-0.2,0-0.3,0l0,0c0.2,0,0.3,0.1,0.3,0.2C4.9,12.7,5,13,5.2,13.4
		c0.1,0.4,0.2,0.9,0.3,1.5c-0.1,0.5-0.2,1.1-0.3,1.5C5,16.7,4.9,17.1,4.8,17.3"/>
	<path class="st0" d="M8.5,16.3L8.5,16.3c0.2-0.1,0.3-0.2,0.3-0.3c0,0,0-0.1,0-0.2C9,15.5,9,15.2,9,14.9l0,0l0,0
		c0-0.3-0.1-0.6-0.2-0.9c0-0.1,0-0.1,0-0.2c0-0.1-0.1-0.3-0.3-0.3l0,0l-0.3-0.1l-0.3-0.1l0,0c0.2,0.1,0.3,0.2,0.4,0.3
		c0,0.1,0.1,0.3,0.1,0.4c0.1,0.3,0.1,0.6,0.2,0.9c0,0.3-0.1,0.6-0.2,0.9c0,0.2-0.1,0.3-0.1,0.4s-0.1,0.2-0.4,0.3l0,0L8.5,16.3
		L8.5,16.3z"/>
	<path class="st0" d="M1.3,16.1c0.1-0.1,0.2-0.3,0.3-0.6c0-0.2,0.1-0.4,0.1-0.6l0,0l0,0c0-0.2-0.1-0.4-0.1-0.6
		c-0.1-0.2-0.2-0.4-0.3-0.6c0,0-0.1,0-0.2,0L1,13.8l0,0l0,0l0,0c0,0-0.1,0-0.1,0.1c0,0,0.1,0,0.2,0c0,0.1,0.1,0.2,0.1,0.4
		s0.1,0.4,0.1,0.7c0,0.2-0.1,0.4-0.1,0.7c0,0.1-0.1,0.3-0.1,0.4c0,0-0.1,0.1-0.2,0c0,0,0.1,0,0.1,0.1l0,0l0,0l0,0l0.1,0.1
		C1.2,16.1,1.3,16.1,1.3,16.1"/>
	<path class="st0" d="M3.7,17.4L3.7,17.4L3.7,17.4c0.1,0,0.1,0,0.2,0c0.1,0,0.2,0,0.3-0.1c0.2-0.3,0.4-0.6,0.5-1.1
		c0.1-0.4,0.2-0.9,0.3-1.4l0,0l0,0c-0.1-0.5-0.2-1-0.3-1.4c-0.1-0.4-0.3-0.8-0.5-1.1c0,0-0.1-0.1-0.3-0.1H3.8l0,0l0,0l0,0l0,0
		c0,0-0.1,0-0.2,0c0.2,0,0.2,0,0.3,0.1c0.1,0.2,0.3,0.5,0.4,0.9s0.2,0.9,0.3,1.5c-0.1,0.5-0.2,1-0.3,1.5c-0.1,0.4-0.2,0.7-0.4,0.9
		c0,0.1-0.1,0.1-0.3,0.1C3.5,17.2,3.6,17.3,3.7,17.4L3.7,17.4C3.6,17.4,3.6,17.4,3.7,17.4"/>
	<path class="st0" d="M1.9,16.7C1.9,16.7,2,16.7,1.9,16.7C2,16.7,2,16.7,1.9,16.7C2,16.7,2,16.7,1.9,16.7c0.1,0.1,0.2,0,0.3,0
		c0.2-0.2,0.3-0.4,0.4-0.8c0.1-0.3,0.2-0.6,0.2-1l0,0l0,0c0-0.4-0.1-0.7-0.2-1c-0.1-0.4-0.3-0.6-0.4-0.8c0,0-0.1-0.1-0.2,0l0,0l0,0
		c0,0,0,0-0.1,0l0,0l0,0c-0.1,0-0.1,0.1-0.2,0.1c0.1,0,0.2-0.1,0.3,0c-0.1,0.1,0,0.3,0,0.5c0.1,0.3,0.2,0.6,0.2,1s-0.1,0.7-0.2,1
		c0,0.3-0.1,0.5-0.2,0.6c-0.1,0.1-0.2,0-0.3,0c0,0,0.1,0.1,0.2,0.1l0,0C1.9,16.6,1.9,16.6,1.9,16.7"/>
	<path class="st0" d="M0.8,14c-0.2,0.2-0.4,0.4-0.5,0.5l0,0l0,0c-0.1,0.2-0.1,0.4,0,0.5l0,0l0,0c0.1,0.2,0.3,0.4,0.5,0.6v-0.1
		c-0.1-0.2-0.2-0.8,0-1.4C0.7,14.1,0.7,14,0.8,14"/>
	<path class="st0" d="M3.9,14.9L3.9,14.9L3.9,14.9c-0.1-0.5-0.2-0.9-0.3-1.3c-0.1-0.4-0.3-0.8-0.5-1c0,0-0.1-0.1-0.2,0l0,0l0,0l0,0
		H2.8l0,0c0,0-0.1,0-0.1,0.1c0.1,0,0.2,0,0.2,0c0.1,0.2,0.2,0.5,0.3,0.8c0.1,0.4,0.2,0.8,0.3,1.3c0,0.5-0.2,0.9-0.3,1.3
		C3,16.5,2.8,16.7,2.8,17c0,0.1-0.1,0.1-0.2,0h0.1l0,0h0.1l0,0l0,0l0,0C2.9,17,3,17,3,17c0.2-0.2,0.4-0.6,0.5-1
		C3.7,15.7,3.8,15.3,3.9,14.9"/>
	<path class="st0" d="M10.7,15.3c0,0-0.1,0.2-0.3,0.3l0,0l0.4-0.1l0,0l0,0c0.5-0.2,0.7-0.4,0.7-0.5l0,0l0,0l0,0l0,0l0,0l0,0l0,0l0,0
		c0,0,0,0,0-0.1l0,0c-0.1-0.2-0.3-0.3-0.7-0.4l0,0l-0.4-0.1l0,0c0.2,0.1,0.3,0.2,0.3,0.3c0,0,0,0,0,0.1s0,0.2,0,0.4
		S10.7,15.1,10.7,15.3L10.7,15.3"/>
	<path class="st0" d="M9.7,13.8L9.7,13.8L9.7,13.8z"/>
	<path class="st0" d="M5.5,17.3L5.5,17.3L5.5,17.3L5.5,17.3"/>
	<path class="st0" d="M5.5,12.3L5.5,12.3C5.5,12.4,5.5,12.4,5.5,12.3L5.5,12.3"/>
	<path class="st0" d="M9.5,15.8c0,0-0.1,0.2-0.4,0.3l0,0L9.4,16l0.3-0.1c0.1,0,0.2-0.2,0.3-0.3c0,0,0,0,0-0.1c0-0.2,0.1-0.4,0.1-0.6
		l0,0l0,0c0-0.2-0.1-0.4-0.1-0.6c0,0,0,0,0-0.1S9.9,14,9.7,13.9l0,0H9.6l-0.5-0.2l0,0c0.2,0.1,0.4,0.2,0.4,0.3s0,0.2,0.1,0.3
		c0,0.2,0.1,0.4,0.1,0.6c0,0.2-0.1,0.4-0.1,0.6C9.5,15.6,9.5,15.7,9.5,15.8"/>
	<path class="st0" d="M7,14.9L7,14.9L7,14.9c-0.1-0.5-0.2-1-0.3-1.4c-0.1-0.3-0.2-0.5-0.3-0.7c0-0.1-0.1-0.2-0.3-0.3l0,0l0,0H6H5.9
		l0,0c-0.1,0-0.2,0-0.3-0.1c0.3,0,0.4,0.2,0.4,0.2l0,0c0.1,0.2,0.2,0.5,0.3,0.8c0.1,0.4,0.2,0.9,0.3,1.4c-0.1,0.5-0.2,1-0.3,1.4
		C6.2,16.5,6.1,16.8,6,17l0,0c0,0-0.1,0.2-0.4,0.3c0.1,0,0.2,0,0.3-0.1l0,0H6c0,0,0.1,0,0.2,0l0,0l0,0c0.2,0,0.3-0.2,0.3-0.3
		c0.1-0.2,0.2-0.4,0.3-0.7C6.8,15.8,6.9,15.4,7,14.9"/>
	<path class="st0" d="M19.4,12.4L19.4,12.4C19.4,12.3,19.4,12.3,19.4,12.4C19.4,12.3,19.4,12.3,19.4,12.4"/>
	<path class="st0" d="M19.4,17.3L19.4,17.3L19.4,17.3L19.4,17.3"/>
	<path class="st0" d="M14.2,14.4c0,0,0.1-0.2,0.3-0.3l0,0l-0.4,0.1c-0.4,0.1-0.6,0.3-0.7,0.4l0,0c0,0,0,0,0,0.1l0,0l0,0l0,0l0,0l0,0
		l0,0l0,0l0,0c0,0.2,0.2,0.4,0.7,0.5l0,0l0,0l0.4,0.1l0,0c-0.2-0.1-0.3-0.2-0.3-0.3c0,0,0,0,0-0.1s0-0.2,0-0.4
		C14.2,14.7,14.3,14.6,14.2,14.4L14.2,14.4"/>
	<path class="st0" d="M23.5,13.6c-0.1,0.1-0.2,0.3-0.3,0.6c0,0.2-0.1,0.4-0.1,0.6l0,0l0,0c0,0.2,0.1,0.4,0.1,0.6
		c0.1,0.2,0.2,0.4,0.3,0.6c0,0,0.1,0,0.2,0l0.1-0.1l0,0l0,0l0,0c0,0,0.1,0,0.1-0.1c0,0-0.1,0-0.2,0c0-0.1-0.1-0.2-0.1-0.4
		s-0.1-0.4-0.1-0.7c0-0.2,0.1-0.4,0.1-0.7c0-0.1,0.1-0.3,0.1-0.4c0,0,0.1-0.1,0.2,0c0,0-0.1,0-0.1-0.1l0,0l0,0l0,0l-0.1-0.1
		C23.7,13.6,23.6,13.5,23.5,13.6"/>
	<path class="st0" d="M18.9,12.6L18.9,12.6c0,0,0.1-0.2,0.4-0.3c-0.1,0-0.2,0-0.3,0.1l0,0h-0.1h-0.1l0,0l0,0c-0.2,0-0.3,0.2-0.3,0.3
		c-0.1,0.2-0.2,0.4-0.3,0.7c-0.1,0.4-0.2,0.8-0.3,1.3l0,0l0,0c0,0.5,0.2,0.9,0.3,1.3c0.1,0.3,0.2,0.5,0.3,0.7c0,0.1,0.1,0.2,0.3,0.3
		l0,0l0,0c0,0,0.1,0,0.2,0h0.1l0,0c0.1,0,0.2,0,0.3,0.1C19.1,17,19,16.8,19,16.8l0,0c-0.1-0.2-0.2-0.5-0.3-0.8
		c-0.1-0.4-0.2-0.9-0.3-1.4c0-0.5,0.2-1,0.3-1.4C18.8,13.1,18.8,12.9,18.9,12.6"/>
	<polygon class="st0" points="15.1,13.8 15.2,13.8 15.2,13.8 	"/>
	<path class="st0" d="M20.1,12.4c0-0.1,0.1-0.2,0.3-0.2l0,0c-0.1,0-0.2,0-0.3,0l0,0c0,0-0.1,0-0.2,0l0,0l0,0h-0.1
		c-0.1,0-0.2,0.1-0.3,0.2c-0.2,0.3-0.3,0.6-0.4,1s-0.2,0.9-0.3,1.4l0,0l0,0c0.1,0.5,0.2,1,0.3,1.4c0.1,0.4,0.3,0.7,0.4,1
		c0,0,0.1,0.1,0.3,0.2h0.1l0,0l0,0c0,0,0.1,0,0.2,0l0,0c0.1,0,0.2,0,0.3,0l0,0c-0.2,0-0.3-0.1-0.3-0.2c-0.1-0.2-0.2-0.5-0.4-0.9
		c-0.1-0.4-0.2-0.9-0.3-1.5c0.1-0.5,0.2-1.1,0.3-1.5C19.9,13,20,12.6,20.1,12.4"/>
	<path class="st0" d="M23,13C22.9,13,22.9,13,23,13L23,13c-0.1,0-0.1,0-0.1,0c-0.1,0-0.2,0-0.2,0c-0.2,0.2-0.3,0.4-0.4,0.8
		c-0.1,0.3-0.2,0.6-0.2,1l0,0l0,0c0,0.4,0.1,0.7,0.2,1c0.1,0.4,0.3,0.6,0.4,0.8c0,0,0.1,0.1,0.2,0l0,0l0,0l0,0c0,0,0,0,0.1,0l0,0
		c0,0,0.1-0.1,0.2-0.1c-0.1,0-0.2,0.1-0.3,0c-0.1-0.1-0.2-0.4-0.2-0.6c-0.1-0.3-0.2-0.6-0.2-1s0.1-0.7,0.2-1l0,0
		c0.1-0.2,0.1-0.4,0.2-0.6c0.1-0.1,0.2,0,0.3,0c0,0-0.1-0.1-0.2-0.1l0,0C23,13.1,23,13.1,23,13"/>
	<path class="st0" d="M15.4,13.9c0,0,0.1-0.2,0.4-0.3l0,0l-0.5,0.2l0,0l0,0c-0.1,0-0.2,0.2-0.3,0.3c0,0,0,0,0,0.1
		c0,0.2-0.1,0.4-0.1,0.6l0,0l0,0c0,0.2,0.1,0.4,0.1,0.6c0,0,0,0,0,0.1s0.1,0.2,0.3,0.3l0.3,0.1l0.3,0.1l0,0
		c-0.2-0.1-0.4-0.2-0.4-0.3s0-0.2-0.1-0.3c0-0.2-0.1-0.4-0.1-0.6c0-0.2,0.1-0.4,0.1-0.6C15.3,14.1,15.4,14,15.4,13.9"/>
	<path class="st0" d="M16.7,13.3l-0.3,0.1l0,0c-0.2,0.1-0.3,0.2-0.3,0.3c0,0,0,0.1,0,0.2c-0.1,0.3-0.1,0.6-0.2,0.9l0,0l0,0
		c0,0.3,0.1,0.6,0.2,0.9c0,0.1,0,0.1,0,0.2c0,0.1,0.1,0.3,0.3,0.3l0,0h0.1l0.5,0.2l0,0c-0.2-0.1-0.3-0.2-0.4-0.3
		c0-0.1-0.1-0.3-0.1-0.4c-0.1-0.3-0.1-0.6-0.2-0.9c0-0.3,0.1-0.6,0.2-0.9c0-0.2,0.1-0.3,0.1-0.4c0-0.1,0.1-0.2,0.4-0.3l0,0
		L16.7,13.3L16.7,13.3z"/>
	<path class="st0" d="M17.5,13c-0.2,0.1-0.3,0.2-0.3,0.3s-0.1,0.3-0.2,0.4c-0.1,0.4-0.2,0.7-0.2,1.1l0,0l0,0c0,0.4,0.1,0.8,0.2,1.1
		c0,0.2,0.1,0.3,0.2,0.4c0,0.1,0.1,0.2,0.3,0.3l0.2,0.1l0.3,0.1l0,0l0,0c-0.2-0.1-0.3-0.3-0.4-0.3c-0.1-0.2-0.1-0.4-0.2-0.6
		c-0.1-0.4-0.2-0.8-0.2-1.2s0.1-0.8,0.2-1.2c0-0.2,0.1-0.4,0.2-0.6c0-0.1,0.1-0.3,0.4-0.4l0,0l0,0l0,0h-0.2L17.5,13z"/>
	<path class="st0" d="M24.6,14.6L24.6,14.6C24.6,14.5,24.6,14.5,24.6,14.6c-0.2-0.2-0.4-0.4-0.5-0.6c0,0.1,0,0.1,0.1,0.2
		c0.2,0.6,0,1.2,0,1.4v0.1c0.2-0.2,0.4-0.4,0.5-0.6l0,0l0,0C24.7,15,24.8,14.8,24.6,14.6"/>
	<path class="st0" d="M21,14.8L21,14.8L21,14.8c0.1,0.5,0.2,0.9,0.3,1.3c0.1,0.4,0.3,0.8,0.5,1c0,0,0.1,0.1,0.2,0l0,0l0,0l0,0h0.1
		l0,0h0.1c-0.1,0-0.1,0-0.2,0c-0.1-0.2-0.2-0.5-0.3-0.8c-0.1-0.4-0.2-0.8-0.3-1.3c0-0.5,0.1-0.9,0.3-1.3c0.1-0.4,0.2-0.6,0.3-0.8
		c0-0.1,0.1-0.1,0.2,0c0,0-0.1,0-0.1-0.1l0,0H22l0,0l0,0l0,0c-0.1,0-0.2,0-0.2,0c-0.2,0.2-0.4,0.6-0.5,1C21.2,14,21.1,14.4,21,14.8"
		/>
	<path class="st0" d="M21.3,12.3L21.3,12.3L21.3,12.3L21.3,12.3c-0.1,0-0.2,0-0.2,0c-0.1,0-0.2,0-0.3,0.1c-0.2,0.3-0.4,0.6-0.5,1.1
		c-0.1,0.4-0.2,0.9-0.3,1.4l0,0l0,0c0.1,0.5,0.2,1,0.3,1.4c0.1,0.4,0.3,0.8,0.5,1.1c0,0,0.1,0.1,0.3,0.1h0.1l0,0l0,0l0,0l0,0
		c0,0,0.1,0,0.2,0c-0.1,0-0.2,0-0.3-0.1c-0.1-0.2-0.3-0.5-0.4-0.9s-0.2-0.9-0.3-1.5c0.1-0.5,0.2-1,0.3-1.5c0.1-0.4,0.2-0.7,0.4-0.9
		c0-0.1,0.1-0.1,0.3-0.1C21.4,12.3,21.3,12.3,21.3,12.3L21.3,12.3"/>
	<path class="st0" d="M9.9,20.3L9.9,20.3L9.9,20.3l0.2-0.4l0.1-0.2c0.1-0.2,0-0.3,0-0.4S10.1,19,10,18.9c-0.2-0.3-0.4-0.6-0.6-0.9
		l0,0l0,0c-0.3-0.2-0.6-0.4-0.9-0.6c-0.2-0.1-0.3-0.2-0.4-0.2c-0.1,0-0.2,0-0.4,0l-0.3,0.1L7,17.4l0,0l0,0l0,0c0.2-0.1,0.4,0,0.5,0
		c0.2,0,0.4,0.2,0.5,0.3c0.3,0.2,0.6,0.4,1,0.7c0.3,0.4,0.5,0.7,0.7,1c0.1,0.2,0.2,0.4,0.3,0.6C10,19.9,10,20.1,9.9,20.3"/>
	<path class="st0" d="M10.9,15.8L10.9,15.8c0.2,0.1,0.3,0.2,0.4,0.3c0.1,0.1,0.2,0.2,0.2,0.3c0,0,0,0,0,0.1c0,0,0,0.2,0,0.4l0,0
		l0.1-0.3l0,0l0,0c0.2-0.4,0.3-0.8,0.1-0.9l0,0l0,0l0,0l0,0l0,0l0,0l0,0l0,0c0,0,0,0-0.1,0l0,0C11.5,15.5,11.3,15.5,10.9,15.8
		l-0.3,0.1l0,0C10.7,15.7,10.8,15.7,10.9,15.8"/>
	<path class="st0" d="M9.7,16.3c0.1,0,0.2,0.1,0.3,0.1l0,0c0.2,0.1,0.4,0.2,0.5,0.4c0.1,0.2,0.3,0.4,0.4,0.5c0,0.1,0.1,0.2,0.1,0.3
		c0,0,0,0.2,0,0.5l0,0l0.1-0.3l0.1-0.3c0-0.1,0-0.3,0-0.4c0,0,0,0,0-0.1c-0.1-0.2-0.2-0.4-0.4-0.5l0,0l0,0c-0.2-0.1-0.4-0.3-0.5-0.4
		c0,0,0,0-0.1,0s-0.2,0-0.4,0l0,0H9.7l-0.5,0.2l0,0C9.5,16.2,9.7,16.3,9.7,16.3"/>
	<path class="st0" d="M9.8,16.1L9.8,16.1L9.8,16.1L9.8,16.1z"/>
	<path class="st0" d="M6.5,23.4c0-0.3-0.1-0.5-0.3-0.9c-0.1-0.3-0.3-0.6-0.5-0.8l0,0l0,0c-0.3-0.2-0.6-0.4-0.8-0.5
		C4.5,21,4.3,20.9,4,20.9c0,0-0.1,0-0.2,0.1l0,0l0,0c0,0,0,0,0,0.1s0,0,0,0l0,0c0,0.1,0,0.2,0,0.2c0-0.1,0-0.2,0.2-0.2
		c0.2,0,0.4,0.1,0.6,0.3c0.3,0.1,0.6,0.4,0.8,0.6c0.2,0.3,0.4,0.6,0.6,0.8c0.1,0.2,0.2,0.4,0.3,0.6c0,0.1-0.1,0.2-0.2,0.2
		c0.1,0,0.2,0,0.2,0l0,0h0.1l0,0l0,0l0,0L6.5,23.4"/>
	<path class="st0" d="M3.6,22.7c0-0.1,0-0.1-0.1-0.2c0,0.3,0,0.5,0,0.8l0,0l0,0c0,0.3,0.3,0.4,0.4,0.4l0,0l0,0c0.2,0,0.5,0,0.8,0
		H4.6C4.4,23.6,4,23.3,3.6,22.7"/>
	<path class="st0" d="M7,23.4L7,23.4L7,23.4h0.2l0,0l0,0l0,0c0.1,0,0.1-0.1,0.1-0.2c0-0.3-0.1-0.7-0.4-1.1c-0.2-0.4-0.4-0.7-0.7-1.1
		l0,0l0,0c-0.4-0.3-0.7-0.5-1.1-0.7C5,20,4.6,20,4.3,19.9c0,0-0.2,0-0.2,0.1l0,0l0,0v0.1l0,0v0.1c0-0.1,0.1-0.1,0.2-0.1
		c0.2,0,0.5,0.2,0.8,0.4c0.4,0.2,0.7,0.4,1.1,0.7c0.3,0.4,0.5,0.8,0.7,1.1c0.1,0.5,0.2,0.7,0.3,1C7.1,23.3,7,23.3,7,23.4"/>
	<path class="st0" d="M4.9,22.4L4.9,22.4L4.9,22.4c-0.2-0.2-0.4-0.3-0.6-0.4s-0.4-0.2-0.6-0.2c-0.1,0-0.1,0-0.1,0.1c0,0,0,0.1,0,0.2
		l0,0l0,0v0.1c0-0.1,0-0.1,0.1-0.1s0.2,0.1,0.4,0.1c0.2,0.1,0.4,0.2,0.6,0.4C4.8,22.8,5,23,5.1,23.2c0.1,0.1,0.1,0.3,0.1,0.4
		s0,0.1-0.1,0.1h0.1l0,0l0,0l0,0c0,0,0.1,0,0.2,0c0,0,0.1,0,0.1-0.1c0-0.2-0.1-0.4-0.2-0.6C5.2,22.8,5.1,22.6,4.9,22.4"/>
	<polyline class="st0" points="3.9,20.4 3.9,20.4 3.9,20.4 3.9,20.4 	"/>
	<path class="st0" d="M8.3,22.4c0-0.3-0.2-0.7-0.4-1.1c-0.2-0.4-0.4-0.8-0.8-1.2l0,0l0,0c-0.4-0.3-0.8-0.6-1.2-0.8
		c-0.4-0.1-0.7-0.3-1-0.3c0,0-0.2,0-0.3,0.1c0,0,0,0.1-0.1,0.1l0,0l0,0l0,0l0,0c0,0-0.1,0.1-0.1,0.2c0.1-0.1,0.2-0.1,0.3-0.1
		c0.3,0.1,0.6,0.2,0.9,0.4c0.4,0.2,0.8,0.5,1.2,0.8C7,21,7.3,21.4,7.5,21.8s0.3,0.7,0.4,0.9c0,0.1,0,0.2-0.1,0.3
		c0,0,0.1-0.1,0.2-0.1l0,0l0,0l0,0l0,0c0,0,0.1,0,0.1-0.1C8.3,22.6,8.3,22.5,8.3,22.4"/>
	<path class="st0" d="M9,21.6c-0.1-0.3-0.2-0.6-0.4-1s-0.5-0.8-0.8-1.2l0,0l0,0c-0.4-0.3-0.8-0.6-1.2-0.8c-0.4-0.2-0.7-0.3-1-0.4
		c-0.1,0-0.2,0-0.3,0.1c0,0,0,0-0.1,0.1l0,0l0,0l-0.1,0.1l0,0c0,0-0.1,0.1-0.2,0.2l0,0c0.1-0.1,0.3-0.1,0.4-0.1
		c0.3,0.1,0.5,0.2,0.9,0.4c0.4,0.2,0.8,0.5,1.3,0.8c0.4,0.4,0.6,0.8,0.8,1.3c0.2,0.4,0.3,0.7,0.4,0.9c0,0.1,0,0.2-0.1,0.4l0,0
		c0,0,0.1-0.1,0.2-0.2l0,0l0.1-0.1l0,0l0,0c0,0,0,0,0.1-0.1C9.1,21.9,9.1,21.7,9,21.6"/>
	<path class="st0" d="M9.7,20.5c-0.1-0.2-0.2-0.4-0.3-0.7C9.2,19.4,9,19,8.6,18.7l0,0l0,0c-0.4-0.3-0.8-0.5-1.1-0.8
		c-0.3-0.1-0.5-0.2-0.7-0.3c-0.1,0-0.3,0-0.4,0l0,0l0,0c0,0-0.1,0-0.1,0.1H6.2l0,0c-0.1,0-0.2,0.1-0.3,0.1c0.3-0.2,0.5-0.1,0.5-0.1
		l0,0C6.5,18,6.7,18.1,7,18.3c0.4,0.2,0.8,0.5,1.2,0.8c0.3,0.4,0.6,0.8,0.8,1.2c0.2,0.3,0.3,0.5,0.4,0.8l0,0c0,0,0.1,0.2,0,0.5
		c0-0.1,0.1-0.2,0.1-0.3l0,0v-0.1c0,0,0-0.1,0.1-0.1l0,0l0,0C9.7,20.8,9.7,20.6,9.7,20.5"/>
	<path class="st0" d="M9.3,21.5L9.3,21.5L9.3,21.5L9.3,21.5"/>
	<path class="st0" d="M5.8,18L5.8,18L5.8,18L5.8,18"/>
	<path class="st0" d="M8.6,16.8c0.1,0,0.3,0.1,0.4,0.2c0.2,0.1,0.5,0.3,0.8,0.5c0.2,0.3,0.4,0.5,0.5,0.8c0.1,0.1,0.1,0.3,0.2,0.4
		c0,0.1,0.1,0.3,0,0.5l0,0l0.2-0.5v-0.1l0,0c0.1-0.2,0-0.4,0-0.4s0-0.1-0.1-0.2c-0.1-0.2-0.3-0.5-0.5-0.8l0,0l0,0
		c-0.3-0.2-0.5-0.4-0.8-0.5c0,0-0.1-0.1-0.2-0.1c-0.1,0-0.3-0.1-0.4,0l0,0L8.6,16.8L8.2,17l0,0C8.3,16.7,8.5,16.8,8.6,16.8"/>
	<path class="st0" d="M15.2,9.2c0.1,0.2,0.2,0.4,0.3,0.7c0.2,0.4,0.4,0.8,0.8,1.1l0,0l0,0c0.4,0.3,0.8,0.5,1.1,0.8
		c0.3,0.1,0.5,0.2,0.7,0.3c0.1,0,0.2,0,0.4,0l0,0l0,0c0,0,0.1,0,0.1-0.1h0.1l0,0c0.1,0,0.2-0.1,0.3-0.1c-0.3,0.2-0.5,0.1-0.5,0.1
		c-0.2-0.1-0.4-0.2-0.8-0.4s-0.8-0.5-1.2-0.8c-0.3-0.4-0.6-0.8-0.8-1.2c-0.2-0.3-0.3-0.5-0.4-0.8c0,0-0.1-0.2,0.1-0.5
		c0,0.1-0.1,0.2-0.1,0.3l0,0v0.1c0,0,0,0.1-0.1,0.1l0,0C15.2,8.9,15.2,9,15.2,9.2"/>
	<path class="st0" d="M20.3,10.4c-0.3-0.1-0.6-0.2-0.9-0.4c-0.4-0.2-0.8-0.5-1.2-0.8c-0.3-0.4-0.6-0.8-0.8-1.2
		c-0.2-0.5-0.4-0.8-0.5-1c0-0.1,0-0.2,0.1-0.3c0,0-0.1,0.1-0.2,0.1l0,0l0,0l0,0l0,0c0,0-0.1,0-0.1,0.1c-0.1,0.1-0.1,0.2-0.1,0.2
		c0,0.3,0.2,0.7,0.4,1.1c0.2,0.4,0.4,0.8,0.8,1.2l0,0l0,0c0.4,0.3,0.8,0.6,1.2,0.8c0.4,0.2,0.8,0.4,1.1,0.4
		C20.1,10.6,20.3,10.6,20.3,10.4C20.4,10.5,20.4,10.5,20.3,10.4L20.3,10.4c0.1,0,0.1,0,0.1,0l0,0l0,0c0,0,0.1-0.1,0.1-0.2
		C20.5,10.4,20.4,10.4,20.3,10.4"/>
	<path class="st0" d="M18.4,6.3c0,0.3,0.1,0.5,0.3,0.9C18.8,7.5,19,7.8,19.2,8l0,0l0,0c0.3,0.2,0.6,0.4,0.8,0.5
		c0.4,0.2,0.6,0.3,0.9,0.3c0,0,0.1,0,0.2-0.1l0,0l0,0l0,0V8.6l0,0c0-0.1,0-0.2,0-0.2c0,0.1,0,0.2-0.2,0.2s-0.4-0.1-0.6-0.3
		c-0.3-0.1-0.6-0.4-0.8-0.6c-0.2-0.3-0.4-0.6-0.6-0.8l0,0c-0.1-0.2-0.2-0.4-0.3-0.6C18.8,6.1,18.8,6,19,6c-0.1,0-0.2,0-0.2,0l0,0
		c0,0,0,0-0.1,0s0,0-0.1,0l0,0l0,0C18.4,6.2,18.4,6.3,18.4,6.3"/>
	<path class="st0" d="M15.1,13.4c-0.1,0-0.2-0.1-0.3-0.1c-0.2-0.1-0.4-0.2-0.5-0.4s-0.3-0.4-0.4-0.5l0,0c0-0.1-0.1-0.2-0.1-0.3
		c0,0,0-0.2,0-0.5l0,0l-0.2,0.5l0,0l0,0c0,0.1,0,0.3,0,0.4c0,0,0,0,0,0.1c0.1,0.2,0.2,0.4,0.4,0.5l0,0l0,0c0.2,0.1,0.4,0.3,0.5,0.4
		c0,0,0,0,0.1,0s0.2,0,0.4,0l0.3-0.1l0.3-0.1l0,0C15.4,13.4,15.2,13.4,15.1,13.4"/>
	<path class="st0" d="M20,7.3L20,7.3L20,7.3c0.2,0.2,0.4,0.3,0.6,0.4s0.4,0.2,0.6,0.2c0.1,0,0.1,0,0.1-0.1s0-0.1,0-0.2l0,0l0,0l0,0
		V7.5c0,0.1,0,0.1-0.1,0.1S21,7.5,20.8,7.5c-0.2-0.1-0.4-0.2-0.6-0.4c-0.1-0.2-0.3-0.4-0.4-0.6c-0.1-0.1-0.1-0.3-0.1-0.4
		s0-0.1,0.1-0.1h-0.1l0,0l0,0l0,0c0,0-0.1,0-0.2,0c0,0-0.1,0-0.1,0.1c0,0.2,0.1,0.4,0.2,0.6S19.8,7.1,20,7.3"/>
	<path class="st0" d="M14,13.9C13.9,13.9,13.9,13.9,14,13.9c-0.2-0.1-0.3-0.2-0.4-0.3c-0.1-0.1-0.2-0.2-0.2-0.3c0,0,0,0,0-0.1
		c0,0,0-0.2,0-0.4l0,0l-0.2,0.4l0,0C13,13.6,13,13.8,13,14l0,0c0,0,0,0,0,0.1l0,0l0,0l0,0l0,0l0,0l0,0l0,0l0,0
		C13.2,14.2,13.5,14.2,14,13.9L14,13.9L14,13.9l0.3-0.1l0,0C14.2,14,14.1,14,14,13.9"/>
	<polygon class="st0" points="13.6,12.2 13.7,12.2 13.7,12.2 	"/>
	<path class="st0" d="M21.3,7.1L21.3,7.1c0-0.2,0-0.4,0-0.7l0,0l0,0c0-0.1-0.1-0.3-0.4-0.4l0,0l0,0c-0.2,0-0.5,0-0.8,0
		c0.1,0,0.1,0,0.2,0.1C20.9,6.4,21.2,6.9,21.3,7.1"/>
	<path class="st0" d="M19.1,11.7L19.1,11.7L19.1,11.7L19.1,11.7"/>
	<path class="st0" d="M15.6,8.2L15.6,8.2L15.6,8.2L15.6,8.2"/>
	<path class="st0" d="M15.8,8c0.1,0.3,0.2,0.6,0.4,1s0.5,0.8,0.8,1.2l0,0l0,0c0.4,0.3,0.8,0.6,1.2,0.8c0.4,0.2,0.7,0.3,1,0.4
		c0.1,0,0.2,0,0.3-0.1c0,0,0,0,0.1-0.1l0,0l0,0l0.1-0.1l0,0c0,0,0.1-0.1,0.2-0.2l0,0C19.8,11,19.7,11,19.5,11
		c-0.3-0.1-0.5-0.2-0.9-0.4s-0.8-0.5-1.3-0.8C17,9.4,16.7,9,16.5,8.5c-0.2-0.4-0.3-0.6-0.4-0.9c0,0,0-0.1,0.2-0.3l0,0
		c0,0-0.1,0.1-0.2,0.2l0,0L16,7.6l0,0c0,0,0,0-0.1,0.1C15.8,7.8,15.8,8,15.8,8"/>
	<path class="st0" d="M17.9,6.3h-0.1l0,0h-0.1l0,0l0,0l0,0c-0.1,0-0.1,0.1-0.1,0.2c0,0.3,0.2,0.7,0.4,1.1c0.2,0.4,0.4,0.7,0.7,1.1
		l0,0l0,0c0.4,0.3,0.7,0.5,1.1,0.7s0.8,0.3,1.1,0.4c0,0,0.1,0,0.2-0.1l0,0l0,0l0,0V9.6l0,0V9.5c0,0.1-0.1,0.1-0.2,0.1
		c-0.2,0-0.5-0.2-0.8-0.4C19.7,9,19.4,8.8,19,8.5c-0.3-0.4-0.5-0.8-0.7-1.1c-0.2-0.3-0.3-0.6-0.4-0.8C17.8,6.4,17.8,6.3,17.9,6.3"/>
	<path class="st0" d="M15,9.3L15,9.3C15,9.4,15,9.4,15,9.3C14.9,9.4,14.9,9.4,15,9.3l-0.1,0.2l-0.1,0.3c-0.1,0.2,0,0.3,0,0.4
		c0,0.1,0.1,0.3,0.2,0.4c0.2,0.3,0.4,0.6,0.6,0.9l0,0l0,0c0.3,0.2,0.6,0.4,0.9,0.6c0.2,0.1,0.3,0.2,0.4,0.2s0.2,0,0.4,0l0.2-0.1
		l0.3-0.1l0,0l0,0c-0.2,0.1-0.4,0-0.5,0c-0.2,0-0.4-0.2-0.6-0.3c-0.3-0.2-0.6-0.4-1-0.7c-0.3-0.4-0.5-0.7-0.7-1
		c-0.1-0.2-0.2-0.4-0.3-0.5C14.9,9.8,14.9,9.6,15,9.3"/>
	<path class="st0" d="M16.3,12.9c-0.1,0-0.3-0.1-0.4-0.2c-0.2-0.1-0.5-0.3-0.8-0.5c-0.2-0.3-0.4-0.5-0.5-0.8
		c-0.1-0.1-0.1-0.3-0.2-0.4c0-0.1-0.1-0.3,0-0.5l0,0l-0.1,0.4L14.2,11l0,0c-0.1,0.2,0,0.4,0,0.4s0,0.1,0.1,0.2
		c0.1,0.2,0.3,0.5,0.5,0.8l0,0l0,0c0.3,0.2,0.5,0.4,0.8,0.5c0,0,0.1,0.1,0.2,0.1c0.1,0,0.3,0.1,0.4,0l0,0L16.3,12.9l0.4-0.1l0,0
		C16.6,13,16.4,12.9,16.3,12.9"/>
	<path class="st0" d="M15.3,3.6c0.5,0,1.1,0.1,1.7,0.2c0.5,0.3,1,0.7,1.3,1.1C18.7,5.3,19,5.7,19.2,6c0-0.5-0.3-1-0.8-1.6
		c-0.3-0.4-0.7-0.7-1.2-1c-0.5-0.1-1.1-0.1-1.6-0.1c-0.8,0-1.4,0.2-1.7,0.5C14.3,3.6,14.7,3.6,15.3,3.6"/>
	<path class="st0" d="M17.5,5c-0.2-0.2-0.4-0.3-0.7-0.5l0,0l0,0c-0.3-0.1-0.6-0.1-0.8-0.1c-0.1,0-0.2,0-0.3,0
		c-0.3,0-0.6,0.2-0.6,0.4l0,0c0.1,0,0.2,0,0.3,0s0.2,0,0.4,0l0,0c0.3,0,0.5,0.1,0.8,0.2c0.3,0.2,0.5,0.3,0.7,0.5s0.4,0.4,0.4,0.5
		c0.2-0.2,0.1-0.5-0.1-0.7C17.6,5.1,17.5,5.1,17.5,5"/>
	<path class="st0" d="M9.6,26.1c-0.5,0-1.1-0.1-1.7-0.2c-0.5-0.3-1-0.7-1.3-1.1c-0.4-0.4-0.7-0.8-0.9-1.1c0,0.5,0.3,1,0.8,1.6
		c0.3,0.4,0.7,0.7,1.2,1c0.5,0.1,1.1,0.1,1.6,0.1c0.8,0,1.4-0.2,1.7-0.5C10.6,26,10.2,26.1,9.6,26.1"/>
	<path class="st0" d="M7.4,24.7c0.2,0.2,0.4,0.3,0.7,0.5l0,0l0,0c0.3,0.1,0.6,0.1,0.8,0.1c0.1,0,0.2,0,0.3,0c0.3,0,0.6-0.2,0.6-0.4
		l0,0c-0.1,0-0.2,0-0.3,0s-0.2,0-0.4,0l0,0c-0.3,0-0.5-0.1-0.8-0.2c-0.3-0.2-0.5-0.3-0.7-0.5s-0.4-0.4-0.4-0.5
		c-0.2,0.2-0.1,0.5,0.1,0.7C7.3,24.5,7.3,24.6,7.4,24.7"/>
	<path class="st0" d="M6.5,4.8c0.4-0.4,0.8-0.7,1.4-1c0.6-0.1,1.2-0.2,1.7-0.2c0.6,0,1,0,1.4,0.2c-0.4-0.3-0.9-0.5-1.7-0.5
		c-0.5,0-1,0-1.6,0.1C7.3,3.7,6.9,4,6.5,4.4C6,5,5.7,5.5,5.7,6C5.8,5.6,6.1,5.2,6.5,4.8"/>
	<path class="st0" d="M9.3,4.3c-0.1,0-0.2,0-0.3,0c-0.3,0-0.5,0-0.8,0.1l0,0l0,0C7.9,4.6,7.7,4.8,7.5,4.9C7.4,5,7.4,5.1,7.3,5.1
		C7.1,5.3,7,5.6,7.2,5.8l0,0c0,0,0.1-0.1,0.2-0.2s0.2-0.2,0.3-0.3C7.9,5.2,8.1,5,8.4,4.9C8.7,4.8,9,4.8,9.3,4.8s0.5,0,0.7,0
		C9.9,4.5,9.6,4.4,9.3,4.3"/>
	<path class="st0" d="M18.3,24.8c-0.4,0.4-0.8,0.7-1.4,1c-0.6,0.1-1.2,0.2-1.7,0.2c-0.6,0-1,0-1.4-0.2c0.4,0.3,0.9,0.5,1.7,0.5
		c0.5,0,1,0,1.6-0.1c0.4-0.3,0.8-0.7,1.2-1c0.5-0.6,0.8-1.1,0.9-1.6C19.1,24,18.8,24.4,18.3,24.8"/>
	<path class="st0" d="M15.5,25.3c0.1,0,0.2,0,0.3,0c0.3,0,0.5,0,0.8-0.1l0,0l0,0c0.3-0.1,0.5-0.3,0.7-0.5c0.1,0,0.1-0.1,0.2-0.2
		c0.2-0.2,0.3-0.5,0.1-0.7l0,0c0,0-0.1,0.1-0.2,0.2s-0.2,0.2-0.3,0.3l0,0c-0.2,0.2-0.4,0.3-0.7,0.5c-0.3,0.1-0.6,0.1-0.8,0.1
		c-0.3,0-0.5,0-0.7,0C15,25.2,15.3,25.3,15.5,25.3"/>
	<path class="st0" d="M1.4,13.4C1.3,13,1.2,12.6,1.3,12c0-0.5,0.1-1.1,0.2-1.7c0.3-0.5,0.7-1,1.1-1.3c0.3-0.5,0.7-0.8,1-1
		C3.1,8,2.6,8.3,2,8.8C1.6,9.1,1.3,9.5,1,10c-0.1,0.5-0.1,1.1-0.1,1.6C0.9,12.4,1.1,13,1.4,13.4"/>
	<path class="st0" d="M3.5,9.5C3.3,9.3,3,9.4,2.8,9.6c0,0-0.1,0.1-0.2,0.2c-0.2,0.2-0.3,0.4-0.5,0.7l0,0l0,0C2,10.8,2,11.1,2,11.3
		c0,0.1,0,0.2,0,0.3c0,0.3,0.2,0.6,0.4,0.6l0,0c0-0.1,0-0.2,0-0.3s0-0.2,0-0.4l0,0c0-0.3,0.1-0.5,0.2-0.8c0.2-0.3,0.3-0.5,0.5-0.7
		C3.2,9.7,3.3,9.6,3.5,9.5"/>
	<path class="st0" d="M23.5,16.3c0.1,0.4,0.2,0.8,0.1,1.4c0,0.5-0.1,1.1-0.2,1.7c-0.3,0.5-0.7,1-1.1,1.3c-0.4,0.4-0.8,0.7-1.1,0.9
		c0.5,0,1-0.3,1.6-0.8c0.4-0.3,0.7-0.7,1-1.2C24,19.1,24,18.5,24,18C24,17.3,23.8,16.7,23.5,16.3"/>
	<path class="st0" d="M21.4,20.1c0.2,0.2,0.5,0.1,0.7-0.1c0,0,0.1-0.1,0.2-0.2c0.2-0.2,0.3-0.4,0.5-0.7l0,0l0,0
		c0.1-0.3,0.1-0.6,0.1-0.8c0-0.1,0-0.2,0-0.3c0-0.3-0.2-0.6-0.4-0.6l0,0c0,0.1,0,0.2,0,0.3c0,0.1,0,0.2,0,0.4c0,0.3-0.1,0.5-0.2,0.8
		c-0.2,0.3-0.3,0.5-0.5,0.7C21.7,19.9,21.5,20,21.4,20.1"/>
	<path class="st0" d="M2.5,20.7c-0.4-0.4-0.7-0.8-1-1.4c-0.1-0.6-0.2-1.2-0.2-1.7c0-0.6,0-1,0.2-1.4C1.2,16.6,1,17.1,1,17.9
		c0,0.5,0,1,0.1,1.6c0.3,0.4,0.7,0.8,1,1.2c0.6,0.5,1.1,0.8,1.6,0.9C3.2,21.4,2.8,21.2,2.5,20.7"/>
	<path class="st0" d="M2.1,19.1L2.1,19.1L2.1,19.1c0.2,0.3,0.3,0.5,0.5,0.7c0,0.1,0.1,0.1,0.2,0.2c0.2,0.2,0.5,0.3,0.7,0.1l0,0
		c0,0-0.1-0.1-0.2-0.2c-0.1-0.1-0.2-0.2-0.3-0.3c-0.2-0.2-0.3-0.4-0.5-0.7c-0.1-0.3-0.1-0.6-0.1-0.8c0-0.3,0-0.5,0-0.7
		c-0.3,0-0.4,0.3-0.4,0.5c0,0.1,0,0.2,0,0.3C2,18.5,2,18.7,2.1,19.1"/>
	<path class="st0" d="M22.9,8.9c-0.6-0.5-1.1-0.8-1.6-0.9c0.4,0.2,0.7,0.5,1.1,0.9s0.7,0.8,1,1.4c0.1,0.6,0.2,1.2,0.2,1.7
		c0,0.6,0,1-0.2,1.4c0.3-0.4,0.5-0.9,0.5-1.7c0-0.5,0-1-0.1-1.6C23.6,9.7,23.3,9.3,22.9,8.9"/>
	<path class="st0" d="M22.8,10.6L22.8,10.6L22.8,10.6c-0.2-0.3-0.3-0.5-0.5-0.7c0-0.1-0.1-0.1-0.2-0.2c-0.2-0.2-0.5-0.3-0.7-0.1l0,0
		c0,0,0.1,0.1,0.2,0.2c0.1,0.1,0.2,0.2,0.3,0.3l0,0c0.2,0.2,0.3,0.4,0.5,0.7c0.1,0.3,0.1,0.6,0.1,0.8c0,0.3,0,0.5,0,0.7
		c0.3,0,0.4-0.3,0.4-0.5c0-0.1,0-0.2,0-0.3C22.9,11.2,22.9,10.9,22.8,10.6"/>
</g>
</svg>
