<?xml version="1.0" encoding="utf-8"?>
<!-- Generator: Adobe Illustrator 23.0.1, SVG Export Plug-In . SVG Version: 6.00 Build 0)  -->
<svg version="1.1" id="Layer_1" xmlns="http://www.w3.org/2000/svg" xmlns:xlink="http://www.w3.org/1999/xlink" x="0px" y="0px" viewBox="0 0 270.9 70" style="enable-background:new 0 0 270.9 70;" xml:space="preserve">
<style type="text/css">
	.st0{clip-path:url(#SVGID_2_);fill:#FFFFFF;}
	.st1{clip-path:url(#SVGID_4_);fill:#FFFFFF;}
	.st2{clip-path:url(#SVGID_6_);fill:#FFFFFF;}
	.st3{clip-path:url(#SVGID_8_);fill:#FFFFFF;}
	.st4{clip-path:url(#SVGID_10_);fill:#FFFFFF;}
	.st5{clip-path:url(#SVGID_12_);fill:#FFFFFF;}
	.st6{clip-path:url(#SVGID_14_);fill:#FFFFFF;}
	.st7{clip-path:url(#SVGID_16_);fill:#FFFFFF;}
	.st8{clip-path:url(#SVGID_18_);fill:#FFFFFF;}
	.st9{clip-path:url(#SVGID_20_);fill:#FFFFFF;}
	.st10{clip-path:url(#SVGID_22_);fill:#FFFFFF;}
	.st11{clip-path:url(#SVGID_24_);fill:#FFFFFF;}
	.st12{clip-path:url(#SVGID_26_);fill:#FFFFFF;}
	.st13{clip-path:url(#SVGID_28_);fill:#FFFFFF;}
	.st14{clip-path:url(#SVGID_30_);fill:#FFFFFF;}
	.st15{clip-path:url(#SVGID_32_);fill:#FFFFFF;}
	.st16{clip-path:url(#SVGID_34_);fill:#FFFFFF;}
	.st17{clip-path:url(#SVGID_36_);fill:#FFFFFF;}
	.st18{clip-path:url(#SVGID_38_);fill:#FFFFFF;}
	.st19{clip-path:url(#SVGID_40_);fill:#FFFFFF;}
	.st20{clip-path:url(#SVGID_42_);fill:#FFFFFF;}
	.st21{clip-path:url(#SVGID_44_);fill:#FFFFFF;}
	.st22{clip-path:url(#SVGID_46_);fill:#FFFFFF;}
	.st23{clip-path:url(#SVGID_48_);fill:#FFFFFF;}
	.st24{clip-path:url(#SVGID_50_);fill:#FFFFFF;}
	.st25{clip-path:url(#SVGID_52_);fill:#FFFFFF;}
	.st26{clip-path:url(#SVGID_54_);fill:#FFFFFF;}
	.st27{clip-path:url(#SVGID_56_);fill:#FFFFFF;}
	.st28{clip-path:url(#SVGID_58_);fill:#FFFFFF;}
	.st29{clip-path:url(#SVGID_60_);fill:#FFFFFF;}
	.st30{clip-path:url(#SVGID_62_);fill:#FFFFFF;}
	.st31{clip-path:url(#SVGID_64_);fill:#FFFFFF;}
	.st32{fill:#FFFFFF;}
</style>
<g>
	<g>
		<g>
			<defs>
				<rect id="SVGID_1_" x="74.2" y="14.9" width="240.9" height="57.8"/>
			</defs>
			<clipPath id="SVGID_2_">
				<use xlink:href="#SVGID_1_"  style="overflow:visible;"/>
			</clipPath>
			<path class="st0" d="M74.2,23.4c0-3.5,2.8-6.3,6.3-6.3c3.4,0,6.3,2.8,6.3,6.2c0,3.5-2.8,6.3-6.3,6.3
				C77.1,29.7,74.2,26.9,74.2,23.4 M85.6,23.4c0-2.7-2.3-5-5.1-5c-2.8,0-5.1,2.2-5.1,5c0,2.8,2.3,5.1,5.1,5.1v0
				C83.3,28.5,85.6,26.2,85.6,23.4"/>
		</g>
		<g>
			<defs>
				<rect id="SVGID_3_" x="74.2" y="14.9" width="240.9" height="57.8"/>
			</defs>
			<clipPath id="SVGID_4_">
				<use xlink:href="#SVGID_3_"  style="overflow:visible;"/>
			</clipPath>
			<polygon class="st1" points="89.9,28.3 91.5,28.3 91.5,29.4 87.2,29.4 87.2,28.3 88.7,28.3 88.7,18.6 87.2,18.6 87.2,17.5 
				90.6,17.5 94.9,27.6 99.6,17.5 103,17.5 103,18.6 101.4,18.6 101.4,28.3 103,28.3 103,29.4 98.7,29.4 98.7,28.3 100.2,28.3 
				100.2,19 95.3,29.4 94.4,29.4 89.9,19.1 			"/>
		</g>
		<g>
			<defs>
				<rect id="SVGID_5_" x="74.2" y="14.9" width="240.9" height="57.8"/>
			</defs>
			<clipPath id="SVGID_6_">
				<use xlink:href="#SVGID_5_"  style="overflow:visible;"/>
			</clipPath>
			<path class="st2" d="M113.3,29.4v-1.1h1.6l-1.2-2.7h-5.5l-1.2,2.7h1.5v1.1h-4.3v-1.1h1.5l4.3-9.7h-1.6v-1.1h3.1l4.7,10.8h1.5v1.1
				H113.3z M110.9,18.8l-2.4,5.8h4.8L110.9,18.8z"/>
		</g>
		<g>
			<defs>
				<rect id="SVGID_7_" x="74.2" y="14.9" width="240.9" height="57.8"/>
			</defs>
			<clipPath id="SVGID_8_">
				<use xlink:href="#SVGID_7_"  style="overflow:visible;"/>
			</clipPath>
			<polygon class="st3" points="130,29.4 128.7,29.4 121.6,19.5 121.6,28.3 123.1,28.3 123.1,29.4 118.8,29.4 118.8,28.3 
				120.4,28.3 120.4,18.6 118.8,18.6 118.8,17.5 121.6,17.5 128.8,27.5 128.8,18.6 127.2,18.6 127.2,17.5 131.5,17.5 131.5,18.6 
				130,18.6 			"/>
		</g>
		<g>
			<defs>
				<rect id="SVGID_9_" x="74.2" y="14.9" width="240.9" height="57.8"/>
			</defs>
			<clipPath id="SVGID_10_">
				<use xlink:href="#SVGID_9_"  style="overflow:visible;"/>
			</clipPath>
			<path class="st4" d="M147.8,20.4c-0.9-1.3-2.5-2-4.1-2c-2.8,0-5,2.2-5,5c0,2.8,2.2,5.1,5,5.1c1.7,0,3.2-0.8,4.2-2.2h1.3
				c-1,2.1-3.2,3.4-5.5,3.4c-1.6,0-3.3-0.7-4.4-1.8c-1.2-1.2-1.8-2.8-1.8-4.5c0-1.7,0.7-3.2,1.9-4.5c1.1-1.1,2.6-1.7,4.4-1.7
				c1.6,0,3.1,0.6,4.1,1.7v-1.4h1.1v2.9H147.8z"/>
		</g>
		<g>
			<defs>
				<rect id="SVGID_11_" x="74.2" y="14.9" width="240.9" height="57.8"/>
			</defs>
			<clipPath id="SVGID_12_">
				<use xlink:href="#SVGID_11_"  style="overflow:visible;"/>
			</clipPath>
			<path class="st5" d="M149.7,23.4c0-3.5,2.8-6.3,6.3-6.3c3.4,0,6.3,2.8,6.3,6.2c0,3.5-2.8,6.3-6.3,6.3
				C152.5,29.7,149.7,26.9,149.7,23.4 M161.1,23.4c0-2.7-2.3-5-5.1-5c-2.8,0-5.1,2.2-5.1,5c0,2.8,2.3,5.1,5.1,5.1v0
				C158.8,28.5,161.1,26.2,161.1,23.4"/>
		</g>
		<g>
			<defs>
				<rect id="SVGID_13_" x="74.2" y="14.9" width="240.9" height="57.8"/>
			</defs>
			<clipPath id="SVGID_14_">
				<use xlink:href="#SVGID_13_"  style="overflow:visible;"/>
			</clipPath>
			<polygon class="st6" points="173.5,29.4 172.3,29.4 165.2,19.5 165.2,28.3 166.7,28.3 166.7,29.4 162.4,29.4 162.4,28.3 
				164,28.3 164,18.6 162.4,18.6 162.4,17.5 165.2,17.5 172.3,27.5 172.3,18.6 170.8,18.6 170.8,17.5 175.1,17.5 175.1,18.6 
				173.5,18.6 			"/>
		</g>
		<g>
			<defs>
				<rect id="SVGID_15_" x="74.2" y="14.9" width="240.9" height="57.8"/>
			</defs>
			<clipPath id="SVGID_16_">
				<use xlink:href="#SVGID_15_"  style="overflow:visible;"/>
			</clipPath>
			<polygon class="st7" points="183.3,29.4 182,29.4 177.7,18.6 176.2,18.6 176.2,17.5 180.5,17.5 180.5,18.6 179,18.6 182.7,27.8 
				186.4,18.6 184.9,18.6 184.9,17.5 189.1,17.5 189.1,18.6 187.7,18.6 			"/>
		</g>
		<g>
			<defs>
				<rect id="SVGID_17_" x="74.2" y="14.9" width="240.9" height="57.8"/>
			</defs>
			<clipPath id="SVGID_18_">
				<use xlink:href="#SVGID_17_"  style="overflow:visible;"/>
			</clipPath>
			<polygon class="st8" points="198.6,26.4 198.6,29.4 190.2,29.4 190.2,28.3 191.7,28.3 191.7,18.6 190.2,18.6 190.2,17.5 
				198.6,17.5 198.6,20.6 197.4,20.6 197.4,18.6 193,18.6 193,22.9 197.6,22.9 197.6,23.9 193,23.9 193,28.3 197.4,28.3 197.4,26.4 
							"/>
		</g>
		<g>
			<defs>
				<rect id="SVGID_19_" x="74.2" y="14.9" width="240.9" height="57.8"/>
			</defs>
			<clipPath id="SVGID_20_">
				<use xlink:href="#SVGID_19_"  style="overflow:visible;"/>
			</clipPath>
			<polygon class="st9" points="210.9,29.4 209.7,29.4 202.5,19.5 202.5,28.3 204,28.3 204,29.4 199.8,29.4 199.8,28.3 201.3,28.3 
				201.3,18.6 199.8,18.6 199.8,17.5 202.5,17.5 209.7,27.5 209.7,18.6 208.2,18.6 208.2,17.5 212.4,17.5 212.4,18.6 210.9,18.6 			
				"/>
		</g>
		<g>
			<defs>
				<rect id="SVGID_21_" x="74.2" y="14.9" width="240.9" height="57.8"/>
			</defs>
			<clipPath id="SVGID_22_">
				<use xlink:href="#SVGID_21_"  style="overflow:visible;"/>
			</clipPath>
			<polygon class="st10" points="218.1,28.3 219.6,28.3 219.6,29.4 215.4,29.4 215.4,28.3 216.9,28.3 216.9,18.6 214.3,18.6 
				214.3,20.7 213.3,20.7 213.3,17.5 221.7,17.5 221.7,20.7 220.7,20.7 220.7,18.6 218.1,18.6 			"/>
		</g>
		<g>
			<defs>
				<rect id="SVGID_23_" x="74.2" y="14.9" width="240.9" height="57.8"/>
			</defs>
			<clipPath id="SVGID_24_">
				<use xlink:href="#SVGID_23_"  style="overflow:visible;"/>
			</clipPath>
			<polygon class="st11" points="225.5,28.3 227,28.3 227,29.4 222.7,29.4 222.7,28.3 224.3,28.3 224.3,18.6 222.7,18.6 222.7,17.5 
				227,17.5 227,18.6 225.5,18.6 			"/>
		</g>
		<g>
			<defs>
				<rect id="SVGID_25_" x="74.2" y="14.9" width="240.9" height="57.8"/>
			</defs>
			<clipPath id="SVGID_26_">
				<use xlink:href="#SVGID_25_"  style="overflow:visible;"/>
			</clipPath>
			<path class="st12" d="M84.5,48.9l-2.7-2.7C80.9,47.9,79.9,49,78,49c-1.9,0-3.6-1.5-3.6-3.5c0-1.8,1.4-2.8,2.8-3.6L77,41.7
				c-0.8-0.7-1.4-1.4-1.4-2.5c0-1.6,1.3-2.7,2.8-2.7c1.5,0,2.8,1.2,2.8,2.7c0,1.5-1.1,2.3-2.3,2.9l2.7,2.6l1.6-3.4h2.2v1h-1.5
				l-1.5,3.2l2.9,2.8L84.5,48.9z M78,42.7c-1.2,0.5-2.4,1.3-2.4,2.8c0,1.3,1.1,2.5,2.5,2.5c1.6,0,2.2-1.1,2.8-2.4L78,42.7z
				 M78.2,41.3c0.9-0.4,2-1,2-2.1c0-1-0.7-1.8-1.7-1.8c-0.9,0-1.7,0.7-1.7,1.7c0,0.9,0.6,1.4,1.2,1.9L78.2,41.3z"/>
		</g>
		<g>
			<defs>
				<rect id="SVGID_27_" x="74.2" y="14.9" width="240.9" height="57.8"/>
			</defs>
			<clipPath id="SVGID_28_">
				<use xlink:href="#SVGID_27_"  style="overflow:visible;"/>
			</clipPath>
			<polygon class="st13" points="98.4,45.6 98.4,48.7 90,48.7 90,47.6 91.5,47.6 91.5,37.9 90,37.9 90,36.7 98.4,36.7 98.4,39.8 
				97.2,39.8 97.2,37.9 92.7,37.9 92.7,42.2 97.4,42.2 97.4,43.2 92.7,43.2 92.7,47.6 97.2,47.6 97.2,45.6 			"/>
		</g>
		<g>
			<defs>
				<rect id="SVGID_29_" x="74.2" y="14.9" width="240.9" height="57.8"/>
			</defs>
			<clipPath id="SVGID_30_">
				<use xlink:href="#SVGID_29_"  style="overflow:visible;"/>
			</clipPath>
			<polygon class="st14" points="109.5,47.6 110.9,47.6 110.9,48.7 106.6,48.7 106.6,47.6 108.1,47.6 105.1,43.5 102.1,47.6 
				103.5,47.6 103.5,48.7 99.2,48.7 99.2,47.6 100.7,47.6 104.3,42.6 100.9,37.9 99.5,37.9 99.5,36.7 103.8,36.7 103.8,37.9 
				102.3,37.9 105.1,41.7 107.8,37.9 106.3,37.9 106.3,36.7 110.6,36.7 110.6,37.9 109.2,37.9 105.8,42.6 			"/>
		</g>
		<g>
			<defs>
				<rect id="SVGID_31_" x="74.2" y="14.9" width="240.9" height="57.8"/>
			</defs>
			<clipPath id="SVGID_32_">
				<use xlink:href="#SVGID_31_"  style="overflow:visible;"/>
			</clipPath>
			<polygon class="st15" points="120.3,37.9 118.8,37.9 118.8,36.7 123,36.7 123,37.9 121.5,37.9 121.5,47.6 123,47.6 123,48.7 
				118.8,48.7 118.8,47.6 120.3,47.6 120.3,43.1 114.4,43.1 114.4,47.6 115.9,47.6 115.9,48.7 111.6,48.7 111.6,47.6 113.2,47.6 
				113.2,37.9 111.6,37.9 111.6,36.7 115.9,36.7 115.9,37.9 114.4,37.9 114.4,42.2 120.3,42.2 			"/>
		</g>
		<g>
			<defs>
				<rect id="SVGID_33_" x="74.2" y="14.9" width="240.9" height="57.8"/>
			</defs>
			<clipPath id="SVGID_34_">
				<use xlink:href="#SVGID_33_"  style="overflow:visible;"/>
			</clipPath>
			<polygon class="st16" points="126.8,47.6 128.3,47.6 128.3,48.7 124.1,48.7 124.1,47.6 125.6,47.6 125.6,37.9 124.1,37.9 
				124.1,36.7 128.3,36.7 128.3,37.9 126.8,37.9 			"/>
		</g>
		<g>
			<defs>
				<rect id="SVGID_35_" x="74.2" y="14.9" width="240.9" height="57.8"/>
			</defs>
			<clipPath id="SVGID_36_">
				<use xlink:href="#SVGID_35_"  style="overflow:visible;"/>
			</clipPath>
			<path class="st17" d="M134.3,36.7c0.8,0,1.6,0.1,2.3,0.6c0.8,0.6,1.2,1.4,1.2,2.4c0,1.1-0.7,2.1-1.7,2.6c1.4,0.5,2.2,1.7,2.2,3.2
				c0,0.9-0.4,1.8-1,2.4c-0.8,0.7-1.7,0.8-2.7,0.8h-5.2v-1.1h1.5v-9.8h-1.5v-1.1L134.3,36.7L134.3,36.7z M133.9,41.9
				c0.7,0,1.3,0,1.9-0.5c0.5-0.4,0.7-1,0.7-1.6c0-0.7-0.3-1.3-0.8-1.6c-0.5-0.4-1.2-0.3-1.8-0.3h-1.9v4.1H133.9z M134.2,47.6
				c0.8,0,1.5,0,2.2-0.4c0.6-0.4,0.8-1.2,0.8-1.9c0-0.8-0.3-1.5-1-1.9c-0.7-0.5-1.4-0.5-2.2-0.5h-1.9v4.7H134.2z"/>
		</g>
		<g>
			<defs>
				<rect id="SVGID_37_" x="74.2" y="14.9" width="240.9" height="57.8"/>
			</defs>
			<clipPath id="SVGID_38_">
				<use xlink:href="#SVGID_37_"  style="overflow:visible;"/>
			</clipPath>
			<polygon class="st18" points="141.4,47.6 142.9,47.6 142.9,48.7 138.7,48.7 138.7,47.6 140.2,47.6 140.2,37.9 138.7,37.9 
				138.7,36.7 142.9,36.7 142.9,37.9 141.4,37.9 			"/>
		</g>
		<g>
			<defs>
				<rect id="SVGID_39_" x="74.2" y="14.9" width="240.9" height="57.8"/>
			</defs>
			<clipPath id="SVGID_40_">
				<use xlink:href="#SVGID_39_"  style="overflow:visible;"/>
			</clipPath>
			<polygon class="st19" points="148.7,47.6 150.2,47.6 150.2,48.7 145.9,48.7 145.9,47.6 147.5,47.6 147.5,37.9 144.9,37.9 
				144.9,40 143.8,40 143.8,36.7 152.3,36.7 152.3,40 151.3,40 151.3,37.9 148.7,37.9 			"/>
		</g>
		<g>
			<defs>
				<rect id="SVGID_41_" x="74.2" y="14.9" width="240.9" height="57.8"/>
			</defs>
			<clipPath id="SVGID_42_">
				<use xlink:href="#SVGID_41_"  style="overflow:visible;"/>
			</clipPath>
			<polygon class="st20" points="156,47.6 157.6,47.6 157.6,48.7 153.3,48.7 153.3,47.6 154.8,47.6 154.8,37.9 153.3,37.9 
				153.3,36.7 157.6,36.7 157.6,37.9 156,37.9 			"/>
		</g>
		<g>
			<defs>
				<rect id="SVGID_43_" x="74.2" y="14.9" width="240.9" height="57.8"/>
			</defs>
			<clipPath id="SVGID_44_">
				<use xlink:href="#SVGID_43_"  style="overflow:visible;"/>
			</clipPath>
			<path class="st21" d="M157.7,42.7c0-3.5,2.8-6.3,6.3-6.3c3.4,0,6.3,2.8,6.3,6.2c0,3.5-2.8,6.3-6.3,6.3
				C160.6,49,157.7,46.2,157.7,42.7 M169.1,42.7c0-2.8-2.3-5-5.1-5c-2.8,0-5.1,2.2-5.1,5c0,2.8,2.3,5.1,5.1,5.1v0
				C166.9,47.7,169.1,45.5,169.1,42.7"/>
		</g>
		<g>
			<defs>
				<rect id="SVGID_45_" x="74.2" y="14.9" width="240.9" height="57.8"/>
			</defs>
			<clipPath id="SVGID_46_">
				<use xlink:href="#SVGID_45_"  style="overflow:visible;"/>
			</clipPath>
			<polygon class="st22" points="181.6,48.7 180.3,48.7 173.2,38.7 173.2,47.6 174.7,47.6 174.7,48.7 170.4,48.7 170.4,47.6 
				172,47.6 172,37.9 170.4,37.9 170.4,36.7 173.2,36.7 180.4,46.8 180.4,37.9 178.9,37.9 178.9,36.7 183.1,36.7 183.1,37.9 
				181.6,37.9 			"/>
		</g>
		<g>
			<defs>
				<rect id="SVGID_47_" x="74.2" y="14.9" width="240.9" height="57.8"/>
			</defs>
			<clipPath id="SVGID_48_">
				<use xlink:href="#SVGID_47_"  style="overflow:visible;"/>
			</clipPath>
			<path class="st23" d="M197.2,39.7c-0.9-1.3-2.5-2-4.1-2c-2.8,0-5,2.2-5,5c0,2.8,2.2,5.1,5,5.1c1.7,0,3.2-0.8,4.2-2.2h1.3
				c-1,2.1-3.2,3.4-5.5,3.4c-1.6,0-3.3-0.7-4.4-1.8c-1.2-1.2-1.8-2.8-1.8-4.5c0-1.7,0.7-3.3,1.9-4.5c1.1-1.1,2.6-1.7,4.4-1.7
				c1.6,0,3.1,0.6,4.1,1.7v-1.4h1.1v2.9C198.4,39.7,197.2,39.7,197.2,39.7z"/>
		</g>
		<g>
			<defs>
				<rect id="SVGID_49_" x="74.2" y="14.9" width="240.9" height="57.8"/>
			</defs>
			<clipPath id="SVGID_50_">
				<use xlink:href="#SVGID_49_"  style="overflow:visible;"/>
			</clipPath>
			<polygon class="st24" points="207.8,45.6 207.8,48.7 199.4,48.7 199.4,47.6 200.9,47.6 200.9,37.9 199.4,37.9 199.4,36.7 
				207.8,36.7 207.8,39.8 206.6,39.8 206.6,37.9 202.1,37.9 202.1,42.2 206.7,42.2 206.7,43.2 202.1,43.2 202.1,47.6 206.6,47.6 
				206.6,45.6 			"/>
		</g>
		<g>
			<defs>
				<rect id="SVGID_51_" x="74.2" y="14.9" width="240.9" height="57.8"/>
			</defs>
			<clipPath id="SVGID_52_">
				<use xlink:href="#SVGID_51_"  style="overflow:visible;"/>
			</clipPath>
			<polygon class="st25" points="220,48.7 218.7,48.7 211.6,38.7 211.6,47.6 213.1,47.6 213.1,48.7 208.8,48.7 208.8,47.6 
				210.4,47.6 210.4,37.9 208.8,37.9 208.8,36.7 211.6,36.7 218.8,46.8 218.8,37.9 217.2,37.9 217.2,36.7 221.5,36.7 221.5,37.9 
				220,37.9 			"/>
		</g>
		<g>
			<defs>
				<rect id="SVGID_53_" x="74.2" y="14.9" width="240.9" height="57.8"/>
			</defs>
			<clipPath id="SVGID_54_">
				<use xlink:href="#SVGID_53_"  style="overflow:visible;"/>
			</clipPath>
			<polygon class="st26" points="227.4,47.6 228.9,47.6 228.9,48.7 224.6,48.7 224.6,47.6 226.2,47.6 226.2,37.9 223.6,37.9 
				223.6,40 222.5,40 222.5,36.7 231,36.7 231,40 230,40 230,37.9 227.4,37.9 			"/>
		</g>
		<g>
			<defs>
				<rect id="SVGID_55_" x="74.2" y="14.9" width="240.9" height="57.8"/>
			</defs>
			<clipPath id="SVGID_56_">
				<use xlink:href="#SVGID_55_"  style="overflow:visible;"/>
			</clipPath>
			<path class="st27" d="M242.1,48.7h-2.3l-3.7-5.2h0.5c0.9,0,1.8,0,2.6-0.5c0.8-0.5,1.3-1.4,1.3-2.4c0-0.8-0.3-1.6-0.9-2.2
				c-0.7-0.7-1.5-0.7-2.4-0.7h-2.3v9.8h1.4v1.1H232v-1.1h1.5v-9.8H232v-1.1h5.2c1.2,0,2.1,0.1,3.1,0.9c0.9,0.8,1.4,1.8,1.4,3
				c0,2-1.6,3.7-3.6,3.7l2.5,3.3h1.6L242.1,48.7L242.1,48.7z"/>
		</g>
		<g>
			<defs>
				<rect id="SVGID_57_" x="74.2" y="14.9" width="240.9" height="57.8"/>
			</defs>
			<clipPath id="SVGID_58_">
				<use xlink:href="#SVGID_57_"  style="overflow:visible;"/>
			</clipPath>
			<polygon class="st28" points="251.2,45.6 251.2,48.7 242.8,48.7 242.8,47.6 244.3,47.6 244.3,37.9 242.8,37.9 242.8,36.7 
				251.2,36.7 251.2,39.8 250,39.8 250,37.9 245.5,37.9 245.5,42.2 250.1,42.2 250.1,43.2 245.5,43.2 245.5,47.6 250,47.6 250,45.6 
							"/>
		</g>
		<g>
			<defs>
				<rect id="SVGID_59_" x="74.2" y="14.9" width="240.9" height="57.8"/>
			</defs>
			<clipPath id="SVGID_60_">
				<use xlink:href="#SVGID_59_"  style="overflow:visible;"/>
			</clipPath>
			<path class="st29" d="M161.8,57.9L161.8,57.9c0.2,0,0.4-0.1,0.5-0.2c0.1-0.1,0.2-0.3,0.2-0.5c0-0.2-0.1-0.4-0.2-0.5
				c-0.1-0.1-0.3-0.2-0.5-0.2c-0.2,0-0.4,0.1-0.5,0.2c-0.1,0.1-0.2,0.3-0.2,0.5c0,0.2,0.1,0.4,0.2,0.5
				C161.4,57.9,161.6,57.9,161.8,57.9 M134.7,57.9L134.7,57.9c0.2,0,0.4-0.1,0.5-0.2c0.1-0.1,0.2-0.3,0.2-0.5c0-0.2-0.1-0.4-0.2-0.5
				c-0.1-0.1-0.3-0.2-0.5-0.2c-0.2,0-0.4,0.1-0.5,0.2c-0.1,0.1-0.2,0.3-0.2,0.5c0,0.2,0.1,0.4,0.2,0.5
				C134.3,57.9,134.5,57.9,134.7,57.9 M136.5,57.9L136.5,57.9c0.2,0,0.4-0.1,0.5-0.2c0.1-0.1,0.2-0.3,0.2-0.5c0-0.2-0.1-0.4-0.2-0.5
				c-0.1-0.1-0.3-0.2-0.5-0.2c-0.2,0-0.4,0.1-0.5,0.2c-0.1,0.1-0.2,0.3-0.2,0.5c0,0.2,0.1,0.4,0.2,0.5
				C136.1,57.9,136.3,57.9,136.5,57.9 M84.1,57.9L84.1,57.9c0.2,0,0.4-0.1,0.5-0.2c0.1-0.1,0.2-0.3,0.2-0.5c0-0.2-0.1-0.4-0.2-0.5
				c-0.1-0.1-0.3-0.2-0.5-0.2c-0.2,0-0.4,0.1-0.5,0.2c-0.1,0.1-0.2,0.3-0.2,0.5c0,0.2,0.1,0.4,0.2,0.5
				C83.7,57.9,83.9,57.9,84.1,57.9 M251,60.2L251,60.2c-0.1-0.3-0.3-0.5-0.6-0.7c-0.2-0.2-0.5-0.3-0.7-0.3c-0.3-0.1-0.5-0.1-0.8-0.1
				c-0.2,0-0.5,0-0.8,0.1c-0.3,0.1-0.5,0.2-0.7,0.3c-0.2,0.2-0.4,0.4-0.6,0.7c-0.2,0.3-0.2,0.6-0.2,1v3.4h-3.2l0-5.3h-1.2v7.1
				c0,0.2,0,0.4-0.1,0.5c0,0.1-0.1,0.2-0.2,0.3c-0.1,0.1-0.2,0.2-0.3,0.3c-0.1,0.1-0.3,0.2-0.5,0.3l-0.3,0.2l0.6,0.8l0.2,0.2
				l0.2-0.1c0.2-0.1,0.5-0.3,0.7-0.4c0.2-0.2,0.4-0.4,0.5-0.6c0.1-0.2,0.2-0.5,0.3-0.7c0.1-0.3,0.1-0.6,0.1-0.9v-0.4l3.3,0
				c0,0.2,0.1,0.4,0.2,0.5c0.2,0.2,0.3,0.4,0.6,0.5c0.2,0.1,0.5,0.2,0.7,0.3c0.2,0,0.5,0.1,0.7,0.1c0.3,0,0.5,0,0.8-0.1
				c0.3-0.1,0.5-0.2,0.8-0.3c0.2-0.2,0.4-0.4,0.6-0.7c0.2-0.3,0.2-0.6,0.2-1v-3.9C251.3,60.8,251.2,60.5,251,60.2 M250,65
				c0,0.3,0,0.4-0.1,0.6c-0.1,0.1-0.1,0.2-0.2,0.3c-0.1,0.1-0.2,0.1-0.3,0.1c-0.1,0-0.3,0-0.5,0c-0.2,0-0.3,0-0.4,0
				c-0.1,0-0.2-0.1-0.3-0.1c-0.1-0.1-0.2-0.2-0.2-0.3c0-0.1-0.1-0.3-0.1-0.5v-3.7c0-0.2,0-0.4,0.1-0.5c0.1-0.1,0.1-0.2,0.2-0.3
				c0.1-0.1,0.2-0.1,0.3-0.1c0.1,0,0.3-0.1,0.4-0.1c0.2,0,0.3,0,0.4,0.1c0.1,0,0.2,0.1,0.3,0.1c0.1,0.1,0.2,0.1,0.2,0.3
				c0,0.1,0.1,0.3,0.1,0.5L250,65L250,65z M163,63.7c0,0.3-0.1,0.5-0.2,0.6c-0.1,0.1-0.3,0.2-0.7,0.2H159v-3.4c0-0.4-0.1-0.7-0.2-1
				c-0.1-0.3-0.3-0.5-0.6-0.7c-0.2-0.2-0.5-0.3-0.7-0.3c-0.3-0.1-0.5-0.1-0.8-0.1c-0.2,0-0.5,0-0.8,0.1c-0.3,0.1-0.5,0.2-0.7,0.3
				c-0.2,0.2-0.4,0.4-0.6,0.7c-0.1,0.3-0.2,0.6-0.2,1v3.4h-8.7l0-5.3h-1.2v7.1c0,0.2,0,0.4-0.1,0.5c0,0.1-0.1,0.2-0.2,0.3
				c-0.1,0.1-0.2,0.2-0.3,0.3c-0.1,0.1-0.3,0.2-0.5,0.3l-0.3,0.2l0.6,0.8l0.2,0.2l0.2-0.1c0.3-0.1,0.5-0.3,0.7-0.4
				c0.2-0.2,0.4-0.4,0.5-0.6c0.1-0.2,0.2-0.5,0.3-0.7c0.1-0.3,0.1-0.6,0.1-0.9v-0.4h8.8c0.1,0.2,0.1,0.4,0.2,0.5
				c0.2,0.2,0.4,0.4,0.6,0.5c0.2,0.1,0.5,0.2,0.7,0.3c0.2,0,0.5,0.1,0.7,0.1c0.2,0,0.5,0,0.7-0.1c0.2-0.1,0.5-0.1,0.7-0.3
				c0.2-0.1,0.4-0.3,0.6-0.5c0.1-0.2,0.2-0.3,0.3-0.5h3.2c0.6,0,1.2-0.2,1.6-0.6c0.4-0.4,0.5-0.9,0.5-1.5v-4.5h-1.2L163,63.7
				L163,63.7z M157.8,65c0,0.3,0,0.4-0.1,0.6c-0.1,0.1-0.1,0.2-0.2,0.3c-0.1,0.1-0.2,0.1-0.3,0.1c-0.1,0-0.3,0-0.4,0
				c-0.2,0-0.3,0-0.5,0c-0.1,0-0.2-0.1-0.3-0.1c-0.1-0.1-0.2-0.2-0.2-0.3c-0.1-0.1-0.1-0.3-0.1-0.5v-3.7c0-0.2,0-0.4,0.1-0.5
				c0.1-0.1,0.1-0.2,0.2-0.3c0.1-0.1,0.2-0.1,0.3-0.1c0.1,0,0.3,0,0.5-0.1c0.1,0,0.3,0,0.4,0.1c0.1,0,0.2,0.1,0.3,0.1
				c0.1,0.1,0.1,0.1,0.2,0.3c0.1,0.1,0.1,0.3,0.1,0.5V65z M196.1,66c0,0.3-0.1,0.6-0.2,0.8c-0.1,0.2-0.3,0.4-0.6,0.5
				c-0.2,0.1-0.5,0.3-0.8,0.3c-0.3,0.1-0.7,0.1-1,0.1c-0.3,0-0.6,0-1-0.1c-0.3-0.1-0.6-0.2-0.8-0.3c-0.2-0.1-0.4-0.3-0.6-0.5
				c-0.1-0.2-0.2-0.5-0.2-0.8v-4.4l-1.2,0.9V66c0,0.6,0.1,1.1,0.4,1.5c0.2,0.4,0.6,0.7,0.9,0.9c0.4,0.2,0.8,0.4,1.2,0.5
				c0.4,0.1,0.9,0.1,1.3,0.1c0.3,0,0.5,0,0.8-0.1c0.3,0,0.6-0.1,0.9-0.2c0.3-0.1,0.6-0.2,0.8-0.4c0.3-0.2,0.5-0.3,0.7-0.6
				c0.2-0.2,0.4-0.5,0.5-0.8c0.1-0.3,0.2-0.7,0.2-1v-6.8h-1.2L196.1,66L196.1,66z M168.6,57h-1c-0.1,0-0.2,0-0.2-0.1c0,0,0,0,0-0.2
				c0-0.1,0-0.1,0.1-0.2c0.1,0,0.2-0.1,0.3-0.1h0.6v-1h-0.7c-0.2,0-0.4,0-0.5,0.1c-0.1,0.1-0.3,0.2-0.4,0.3
				c-0.1,0.1-0.2,0.2-0.2,0.4c0,0.1-0.1,0.3-0.1,0.4c0,0.1,0,0.2,0,0.2H166v1h2.7V57z M227.9,57.9L227.9,57.9c0.2,0,0.4-0.1,0.5-0.2
				c0.1-0.1,0.2-0.3,0.2-0.5c0-0.2-0.1-0.4-0.2-0.5c-0.1-0.1-0.3-0.2-0.5-0.2c-0.2,0-0.4,0.1-0.5,0.2c-0.1,0.1-0.2,0.3-0.2,0.5
				c0,0.2,0.1,0.4,0.2,0.5C227.5,57.9,227.7,57.9,227.9,57.9 M185.1,63.9c0,0.1,0,0.2,0,0.3c0,0.1,0,0.1-0.1,0.2
				c0,0-0.1,0.1-0.2,0.1c-0.1,0-0.2,0.1-0.3,0.1h-0.8l0-7.7h-1.2v7.7h-5v-3.4c0-0.4-0.1-0.7-0.2-1c-0.1-0.3-0.3-0.5-0.6-0.7
				c-0.2-0.2-0.5-0.3-0.7-0.3c-0.3-0.1-0.5-0.1-0.8-0.1c-0.2,0-0.5,0-0.8,0.1c-0.3,0.1-0.5,0.2-0.7,0.3c-0.2,0.2-0.4,0.4-0.6,0.7
				c-0.1,0.3-0.2,0.6-0.2,1v3.4h-3.2v-5.3h-2.5c-0.3,0-0.6,0-0.8,0.1c-0.2,0.1-0.5,0.2-0.7,0.4c-0.2,0.2-0.3,0.4-0.5,0.6
				c-0.1,0.3-0.2,0.6-0.2,0.9v2.5c0,0.3,0,0.5,0.1,0.8c0.1,0.3,0.2,0.5,0.4,0.7c0.2,0.2,0.4,0.3,0.7,0.4c0.3,0.1,0.6,0.2,0.9,0.2
				h1.3v0.4c0,0.3-0.1,0.6-0.2,0.8c-0.1,0.2-0.2,0.4-0.4,0.5c-0.2,0.1-0.4,0.2-0.6,0.2c-0.2,0.1-0.5,0.1-0.7,0.1c-0.1,0-0.2,0-0.3,0
				c-0.1,0-0.1,0-0.2,0l-0.8-0.1l0.9,1.3l0.1,0c0.1,0,0.1,0,0.2,0h0.1c0.3,0,0.6,0,0.9-0.1c0.3-0.1,0.7-0.2,1-0.4
				c0.3-0.2,0.6-0.5,0.8-0.9c0.2-0.4,0.3-0.9,0.3-1.4v-0.3h3.3c0,0.2,0.1,0.4,0.2,0.5c0.2,0.2,0.3,0.4,0.6,0.5
				c0.2,0.1,0.4,0.2,0.7,0.3c0.2,0,0.5,0.1,0.7,0.1c0.2,0,0.5,0,0.7-0.1c0.2-0.1,0.5-0.1,0.7-0.3c0.2-0.1,0.4-0.3,0.6-0.5
				c0.1-0.2,0.2-0.3,0.3-0.5h7.2c0.5,0,0.9-0.2,1.3-0.5c0.3-0.3,0.5-0.8,0.5-1.4l0-7.1h-1.2L185.1,63.9L185.1,63.9z M168.5,64.6
				h-1.4c-0.3,0-0.4-0.1-0.5-0.2c-0.1-0.2-0.2-0.3-0.2-0.6l0-2.6c0-0.3,0.1-0.5,0.2-0.6c0.1-0.1,0.2-0.2,0.6-0.2h1.4L168.5,64.6
				L168.5,64.6z M176.3,65c0,0.3,0,0.4-0.1,0.6c-0.1,0.1-0.1,0.2-0.2,0.3c-0.1,0.1-0.2,0.1-0.3,0.1c-0.1,0-0.3,0-0.4,0
				c-0.2,0-0.3,0-0.5,0c-0.1,0-0.2-0.1-0.3-0.1c-0.1-0.1-0.2-0.2-0.2-0.3c0-0.1-0.1-0.3-0.1-0.5v-3.7c0-0.2,0-0.4,0.1-0.5
				c0.1-0.1,0.1-0.2,0.2-0.3c0.1-0.1,0.2-0.1,0.3-0.2c0.1,0,0.3,0,0.5-0.1c0.2,0,0.3,0,0.4,0.1c0.1,0,0.2,0.1,0.3,0.1
				c0.1,0.1,0.2,0.1,0.2,0.3c0.1,0.1,0.1,0.3,0.1,0.5L176.3,65L176.3,65z M217.4,57.8l0.3-0.1c0.3-0.1,0.6-0.3,0.9-0.4
				c0.2-0.1,0.4-0.3,0.7-0.4l0.1,0.1l0.2,0.2l0.5-0.5l0.3-0.2l-0.3-0.3c0.1-0.1,0.2-0.1,0.2-0.2c0.1-0.1,0.2-0.2,0.2-0.3
				c0.1-0.2,0.1-0.3,0.1-0.5c0-0.2,0-0.3-0.1-0.5c-0.1-0.1-0.1-0.3-0.2-0.4c-0.1-0.1-0.2-0.2-0.4-0.3c-0.2-0.1-0.3-0.1-0.5-0.1
				s-0.3,0-0.5,0.1c-0.1,0.1-0.3,0.1-0.4,0.2c-0.1,0.1-0.2,0.2-0.3,0.4c-0.1,0.1-0.1,0.3-0.1,0.5c0,0.2,0.1,0.5,0.2,0.7
				c0,0.1,0.1,0.1,0.1,0.2c-0.1,0.1-0.3,0.2-0.5,0.3c-0.3,0.1-0.6,0.3-0.8,0.4L217,57l0.3,0.6L217.4,57.8z M219.2,55.2
				c0.1,0,0.1-0.1,0.1-0.1c0.1,0,0.1,0,0.2,0.1c0,0,0,0.1,0.1,0.1c0,0,0,0.1,0,0.1c0,0,0,0.1-0.1,0.1c0,0-0.1,0.1-0.1,0.1
				c0,0-0.1-0.1-0.1-0.1c-0.1-0.1-0.1-0.1-0.1-0.2C219.2,55.2,219.2,55.2,219.2,55.2 M193.5,57.9L193.5,57.9c0.2,0,0.4-0.1,0.5-0.2
				c0.1-0.1,0.2-0.3,0.2-0.5c0-0.2-0.1-0.4-0.2-0.5c-0.1-0.1-0.3-0.2-0.5-0.2c-0.2,0-0.4,0.1-0.5,0.2c-0.1,0.1-0.2,0.3-0.2,0.5
				c0,0.2,0.1,0.4,0.2,0.5C193.1,57.9,193.3,57.9,193.5,57.9 M86.9,59.7c-0.2-0.2-0.4-0.3-0.6-0.4c-0.2-0.1-0.5-0.1-0.7-0.1
				c-0.2,0-0.5,0-0.7,0.1l-2.8,1c0,0,0,0,0,0v-1h-1.2V66c0,0.3-0.1,0.6-0.2,0.8c-0.1,0.2-0.3,0.4-0.5,0.5c-0.2,0.1-0.5,0.2-0.8,0.3
				c-0.3,0.1-0.7,0.1-1,0.1c-0.3,0-0.6,0-1-0.1c-0.3-0.1-0.6-0.2-0.8-0.3c-0.2-0.1-0.4-0.3-0.6-0.5c-0.1-0.2-0.2-0.5-0.2-0.8v-4.4
				l-1.2,0.8V66c0,0.6,0.1,1.1,0.4,1.5c0.2,0.4,0.6,0.7,0.9,0.9c0.4,0.2,0.8,0.4,1.2,0.5c0.4,0.1,0.9,0.1,1.3,0.1
				c0.3,0,0.5,0,0.8-0.1c0.3,0,0.6-0.1,0.9-0.2c0.3-0.1,0.6-0.2,0.8-0.4c0.3-0.2,0.5-0.3,0.7-0.6c0.2-0.2,0.4-0.5,0.5-0.8
				c0.1-0.3,0.2-0.7,0.2-1v-0.2h3.4c0.6,0,1.1-0.2,1.5-0.5c0.4-0.4,0.6-0.9,0.6-1.6l0-2.7c0-0.3,0-0.5-0.2-0.8
				C87.2,60,87.1,59.8,86.9,59.7 M86.2,63.7c0,0.1,0,0.3,0,0.4c0,0.1-0.1,0.2-0.1,0.2c-0.1,0.1-0.1,0.1-0.2,0.2
				c-0.1,0-0.2,0.1-0.4,0.1H82V62c0-0.3,0.1-0.4,0.1-0.4c0.1-0.1,0.2-0.2,0.5-0.3l2.4-0.8c0.1,0,0.2-0.1,0.3-0.1c0.1,0,0.2,0,0.3,0
				c0.1,0,0.2,0,0.3,0.1c0.1,0,0.1,0.1,0.2,0.1c0,0.1,0.1,0.1,0.1,0.2c0,0.1,0,0.2,0,0.2V63.7z M219.3,64.4l-0.2,0.2L219.3,64.4
				c-0.1-0.1-0.2-0.3-0.2-0.6v-2.5c0-0.3,0.1-0.5,0.2-0.6c0.1-0.1,0.3-0.2,0.6-0.2h2.6v-1.2H220c-0.3,0-0.5,0-0.8,0.1
				c-0.3,0.1-0.5,0.2-0.7,0.4c-0.2,0.2-0.4,0.4-0.5,0.6c-0.1,0.3-0.2,0.6-0.2,0.9v2.5c0,0.2,0,0.5,0.1,0.7c0,0.1,0,0.1,0,0.2h-5.1
				v-3.4c0-0.4-0.1-0.7-0.2-1c-0.1-0.3-0.3-0.5-0.6-0.7c-0.2-0.2-0.5-0.3-0.8-0.3c-0.3-0.1-0.5-0.1-0.8-0.1c-0.2,0-0.5,0-0.8,0.1
				c-0.3,0.1-0.5,0.2-0.7,0.3c-0.2,0.2-0.4,0.4-0.6,0.7c-0.1,0.3-0.2,0.6-0.2,1v3.4h-8v0H200c-0.1,0-0.2,0-0.3-0.1
				c-0.1-0.1-0.1-0.2-0.1-0.4v-7.2h-1.2V64c0,0.2,0,0.5,0.1,0.7c0.1,0.2,0.2,0.4,0.3,0.6c0.1,0.2,0.3,0.3,0.5,0.4
				c0.1,0,0.2,0.1,0.3,0.1v0.1h8.8c0.1,0.2,0.1,0.4,0.3,0.5c0.1,0.2,0.3,0.4,0.6,0.5c0.2,0.1,0.5,0.2,0.7,0.3c0.2,0,0.5,0.1,0.7,0.1
				c0.2,0,0.5,0,0.7-0.1c0.2-0.1,0.5-0.1,0.7-0.3c0.2-0.1,0.4-0.3,0.6-0.5c0.1-0.2,0.2-0.3,0.3-0.5h10.5v-1.2h-3.4
				C219.5,64.6,219.4,64.5,219.3,64.4 M211.7,65c0,0.3,0,0.4-0.1,0.6c-0.1,0.1-0.1,0.2-0.2,0.3c-0.1,0.1-0.2,0.1-0.3,0.1
				c-0.1,0-0.3,0-0.4,0c-0.2,0-0.3,0-0.5,0c-0.1,0-0.2-0.1-0.3-0.1c-0.1-0.1-0.2-0.2-0.2-0.3c0-0.1-0.1-0.3-0.1-0.5v-3.7
				c0-0.2,0-0.4,0.1-0.5c0.1-0.1,0.1-0.2,0.2-0.3c0.1-0.1,0.2-0.1,0.3-0.1c0.1,0,0.3,0,0.5-0.1c0.1,0,0.3,0,0.4,0.1
				c0.1,0,0.2,0.1,0.3,0.2c0.1,0.1,0.1,0.1,0.2,0.3c0.1,0.1,0.1,0.3,0.1,0.5L211.7,65L211.7,65z M141.5,66.4l0.5-0.3l0.6-0.3
				l0.2-0.1v-8.8h-1.2V66.4z M120.7,66.4l0.5-0.3l0.6-0.3l0.2-0.1v-8.8h-1.2V66.4z M139.2,63.7c0,0.3-0.1,0.5-0.2,0.6
				c-0.1,0.1-0.3,0.2-0.7,0.2h-5.6c-0.3,0-0.5-0.1-0.7-0.2c-0.1-0.1-0.2-0.2-0.2-0.6v-3.3l-1.2,0.8v2.4c0,0.3,0,0.5,0.1,0.8
				c0.1,0.3,0.2,0.5,0.4,0.7c0.2,0.2,0.4,0.3,0.6,0.4c0.3,0.1,0.6,0.2,0.9,0.2h5.6c0.6,0,1.1-0.2,1.5-0.5c0.4-0.4,0.6-0.9,0.6-1.6
				v-4.5h-1.2L139.2,63.7L139.2,63.7z M124.2,59.3l0.1,0.3L124.2,59.3c-0.2,0.1-0.5,0.2-0.7,0.4c-0.2,0.2-0.4,0.4-0.5,0.6
				c-0.1,0.3-0.2,0.6-0.2,0.9l0,2.5c0,0.3,0,0.5,0.1,0.8c0.1,0.3,0.2,0.5,0.4,0.7c0.2,0.2,0.4,0.3,0.7,0.4c0.3,0.1,0.6,0.2,0.9,0.2
				h1.3v0.4c0,0.3-0.1,0.6-0.2,0.8c-0.1,0.2-0.2,0.3-0.4,0.5c-0.2,0.1-0.4,0.2-0.6,0.2c-0.2,0.1-0.5,0.1-0.7,0.1c-0.1,0-0.2,0-0.3,0
				c-0.1,0-0.1,0-0.2,0l-0.8-0.1l0.9,1.3l0.1,0c0.1,0,0.1,0,0.2,0h0.1c0.3,0,0.6,0,0.9-0.1c0.3-0.1,0.7-0.2,1-0.4
				c0.3-0.2,0.6-0.5,0.8-0.9c0.2-0.4,0.3-0.9,0.3-1.4v-6.9H125C124.7,59.2,124.5,59.3,124.2,59.3 M126.3,64.6h-1.4
				c-0.3,0-0.4-0.1-0.5-0.2c-0.1-0.2-0.2-0.3-0.2-0.6v-2.6c0-0.3,0.1-0.5,0.2-0.6c0.1-0.1,0.2-0.2,0.6-0.2h1.4L126.3,64.6
				L126.3,64.6z M89.2,66.3L89.2,66.3c0,0.2,0,0.4,0,0.5c0,0.1-0.1,0.2-0.2,0.3c-0.1,0.1-0.2,0.2-0.3,0.3c-0.1,0.1-0.3,0.2-0.5,0.3
				L87.8,68l0.6,0.8l0.2,0.2l0.2-0.1c0.3-0.1,0.5-0.3,0.7-0.4c0.2-0.2,0.4-0.4,0.5-0.6c0.1-0.2,0.2-0.5,0.3-0.7
				c0.1-0.3,0.1-0.6,0.1-0.9v-6.9h-1.2L89.2,66.3L89.2,66.3z M163.5,56.5c-0.2,0-0.4,0.1-0.5,0.2c-0.1,0.1-0.2,0.3-0.2,0.5
				c0,0.2,0.1,0.4,0.2,0.5c0.1,0.1,0.3,0.2,0.5,0.2h0c0.2,0,0.4-0.1,0.5-0.2c0.1-0.1,0.2-0.3,0.2-0.5c0-0.2-0.1-0.4-0.2-0.5
				C163.9,56.6,163.7,56.5,163.5,56.5 M240,59.8l-0.2,0.2L240,59.8c-0.2-0.2-0.4-0.3-0.7-0.4c-0.3-0.1-0.6-0.1-0.9-0.1h-1.9v-0.4
				c0-0.1,0-0.3,0-0.4c0-0.1,0.1-0.2,0.1-0.2c0,0,0.1-0.1,0.2-0.1c0.1,0,0.2-0.1,0.4-0.1h2.3v-1.2h-2.2c-0.6,0-1.1,0.2-1.5,0.5
				c-0.4,0.4-0.6,0.9-0.6,1.6v1.6h3.1c0.1,0,0.2,0,0.3,0c0.1,0,0.2,0.1,0.2,0.1c0.1,0,0.1,0.1,0.1,0.2c0,0.1,0.1,0.2,0.1,0.4v2.5
				c0,0.3-0.1,0.5-0.2,0.6c-0.1,0.1-0.3,0.2-0.6,0.2h-10v-5.3h-1.2v7.1c0,0.2,0,0.4-0.1,0.5c0,0.1-0.1,0.2-0.1,0.3
				c-0.1,0.1-0.2,0.2-0.3,0.3c-0.1,0.1-0.3,0.2-0.5,0.3l-0.3,0.2l0.6,0.8l0.2,0.2l0.2-0.1c0.2-0.1,0.5-0.3,0.7-0.4
				c0.2-0.2,0.4-0.4,0.5-0.6c0.1-0.2,0.2-0.5,0.3-0.7c0.1-0.3,0.1-0.6,0.1-0.9v-0.4h9.9c0.6,0,1.1-0.2,1.5-0.5
				c0.4-0.4,0.6-0.9,0.6-1.5v-2.5c0-0.3,0-0.5-0.1-0.8C240.3,60.2,240.2,60,240,59.8 M118.4,63.9c0,0.1,0,0.2,0,0.3
				c0,0.1,0,0.1-0.1,0.2c0,0.1-0.1,0.1-0.2,0.1c-0.1,0-0.2,0.1-0.3,0.1h-2.6v-3.4c0-0.4-0.1-0.7-0.2-1c-0.1-0.3-0.3-0.5-0.6-0.7
				c-0.2-0.2-0.5-0.3-0.7-0.3c-0.3-0.1-0.5-0.1-0.8-0.1c-0.2,0-0.5,0-0.8,0.1c-0.3,0.1-0.5,0.2-0.7,0.3c-0.2,0.2-0.4,0.4-0.6,0.7
				c-0.1,0.3-0.2,0.6-0.2,1v3.4h-5.3c0.2-0.3,0.5-0.6,0.7-0.9c0.4-0.4,0.8-0.9,1.3-1.2l0.1-0.1V62c0-0.4-0.1-0.8-0.3-1.2
				c-0.2-0.3-0.4-0.6-0.7-0.9c-0.3-0.2-0.6-0.4-1-0.6c-0.4-0.1-0.7-0.2-1.1-0.2c-0.4,0-0.8,0.1-1.1,0.2c-0.4,0.1-0.7,0.3-1,0.6
				c-0.3,0.2-0.5,0.5-0.7,0.9c-0.2,0.4-0.3,0.8-0.3,1.2v0.4l0.1,0.1c0.4,0.4,0.9,0.8,1.3,1.3c0.3,0.3,0.5,0.6,0.7,0.9H93.4v0h-0.3
				c-0.1,0-0.2,0-0.3-0.1c-0.1-0.1-0.1-0.2-0.1-0.4v-7.2h-1.2V64c0,0.2,0,0.5,0.1,0.7c0.1,0.2,0.2,0.4,0.3,0.6
				c0.1,0.2,0.3,0.3,0.5,0.4c0.1,0,0.2,0.1,0.3,0.1v0.1h11.2c0.2,0,0.3,0,0.4-0.1c0,0,0.1,0,0.1,0c0,0,0,0,0.1,0
				c0.1,0.1,0.3,0.1,0.4,0.1h5.8c0,0.2,0.1,0.4,0.2,0.5c0.2,0.2,0.3,0.4,0.6,0.5c0.2,0.1,0.4,0.2,0.7,0.3c0.2,0,0.5,0.1,0.7,0.1
				c0.2,0,0.5,0,0.7-0.1c0.2-0.1,0.5-0.1,0.7-0.3c0.2-0.1,0.4-0.3,0.6-0.5c0.1-0.2,0.2-0.3,0.3-0.5h2.7c0.5,0,0.9-0.2,1.3-0.5
				c0.3-0.3,0.5-0.8,0.5-1.4v-7.1h-1.2L118.4,63.9L118.4,63.9z M104.4,63.8c-0.2-0.3-0.5-0.6-0.7-0.9c-0.3-0.4-0.7-0.8-1-1.1
				c0-0.2,0.1-0.3,0.1-0.5c0.1-0.2,0.2-0.4,0.4-0.5c0.2-0.1,0.4-0.2,0.6-0.3c0.2-0.1,0.4-0.1,0.7-0.1c0.2,0,0.4,0,0.7,0.1
				c0.2,0.1,0.4,0.2,0.6,0.3c0.2,0.1,0.3,0.3,0.4,0.5c0.1,0.2,0.1,0.3,0.2,0.5c-0.4,0.3-0.7,0.7-1.1,1.1
				C104.9,63.2,104.7,63.5,104.4,63.8 M114,65c0,0.3,0,0.4-0.1,0.5c-0.1,0.1-0.1,0.2-0.2,0.3c-0.1,0.1-0.2,0.1-0.3,0.1
				c-0.1,0-0.3,0-0.5,0c-0.2,0-0.3,0-0.4,0c-0.1,0-0.2-0.1-0.3-0.1c-0.1-0.1-0.2-0.2-0.2-0.3c0-0.1-0.1-0.3-0.1-0.5v-3.7
				c0-0.2,0-0.4,0.1-0.5c0.1-0.1,0.1-0.2,0.2-0.3c0.1-0.1,0.2-0.1,0.3-0.1c0.1,0,0.3-0.1,0.4-0.1c0.1,0,0.3,0,0.4,0.1
				c0.1,0,0.2,0.1,0.3,0.2c0.1,0.1,0.1,0.1,0.2,0.3c0.1,0.1,0.1,0.3,0.1,0.5L114,65L114,65z"/>
		</g>
		<g>
			<defs>
				<rect id="SVGID_61_" x="74.2" y="14.9" width="240.9" height="57.8"/>
			</defs>
			<clipPath id="SVGID_62_">
				<use xlink:href="#SVGID_61_"  style="overflow:visible;"/>
			</clipPath>
			<path class="st30" d="M227.3,23.4c0-3.5,2.8-6.3,6.3-6.3c3.4,0,6.3,2.8,6.3,6.2c0,3.5-2.8,6.3-6.3,6.3
				C230.1,29.7,227.3,26.9,227.3,23.4 M238.6,23.4c0-2.7-2.3-5-5.1-5c-2.8,0-5.1,2.2-5.1,5c0,2.8,2.3,5.1,5.1,5.1v0
				C236.4,28.5,238.6,26.2,238.6,23.4"/>
		</g>
		<g>
			<defs>
				<rect id="SVGID_63_" x="74.2" y="14.9" width="240.9" height="57.8"/>
			</defs>
			<clipPath id="SVGID_64_">
				<use xlink:href="#SVGID_63_"  style="overflow:visible;"/>
			</clipPath>
			<polygon class="st31" points="251.1,29.4 249.9,29.4 242.7,19.5 242.7,28.3 244.2,28.3 244.2,29.4 240,29.4 240,28.3 241.5,28.3 
				241.5,18.6 240,18.6 240,17.5 242.7,17.5 249.9,27.5 249.9,18.6 248.4,18.6 248.4,17.5 252.6,17.5 252.6,18.6 251.1,18.6 			"/>
		</g>
	</g>
	<g>
		<path class="st32" d="M32.2,23.2c0.6,0.4,1.4,0.8,2.4,1.1c0.9,0.3,2,0.5,3.1,0.7l0.1,0l0.1,0c1.1-0.2,2.2-0.4,3.1-0.7
			c1-0.3,1.8-0.7,2.4-1.1c0.1-0.1,0.3-0.3,0.2-0.6c0-0.1,0-0.2,0-0.3c0,0,0,0,0,0c0,0,0-0.1,0-0.1c0,0,0-0.1,0-0.1c0,0,0,0,0,0
			c0-0.1-0.1-0.3-0.1-0.4c0.1,0.4-0.1,0.5-0.2,0.6c-0.5,0.3-1.2,0.6-2.1,0.8c-1,0.3-2.1,0.5-3.3,0.7c-1.2-0.2-2.3-0.4-3.3-0.7
			c-0.9-0.2-1.6-0.5-2.1-0.8c-0.2-0.1-0.3-0.3-0.2-0.6c0,0.1-0.1,0.3-0.1,0.4c0,0,0,0,0,0c0,0,0,0.1,0,0.1c0,0,0,0.1,0,0.1l0,0
			c0,0.1,0,0.2,0,0.3C31.9,22.9,32.1,23.1,32.2,23.2"/>
		<path class="st32" d="M34.9,17.4c0.3,0.3,0.7,0.5,1.3,0.7c0.4,0.1,0.9,0.3,1.4,0.3l0.1,0l0,0c0.5-0.1,1-0.2,1.4-0.3
			c0.5-0.2,1-0.4,1.3-0.7c0.1-0.1,0.1-0.3,0.1-0.4c-0.1-0.1-0.2-0.2-0.2-0.3c0,0,0,0,0,0c0,0-0.1-0.1-0.1-0.1c0,0,0,0,0,0
			c-0.1-0.1-0.1-0.2-0.2-0.2c0.1,0.1,0.1,0.3,0,0.4c-0.2,0.1-0.5,0.2-0.8,0.3c-0.4,0.1-0.9,0.2-1.5,0.3c-0.5-0.1-1-0.2-1.5-0.3
			c-0.3-0.1-0.6-0.2-0.8-0.3c-0.1-0.1-0.2-0.2,0-0.4c-0.1,0.1-0.1,0.2-0.2,0.2c0,0,0,0,0,0c0,0,0,0.1-0.1,0.1v0
			C35,16.8,35,16.9,34.9,17C34.8,17.1,34.8,17.2,34.9,17.4"/>
		<path class="st32" d="M39.2,15.5c0.2,0.1,0.3,0.1,0.5,0.2c-0.4-0.5-0.9-0.8-1.2-1.1c0,0,0,0-0.1,0c0,0,0,0,0,0
			c-0.5-0.3-1-0.2-1.2,0c0,0-0.1,0-0.1,0.1c0,0,0,0,0,0c-0.4,0.3-0.8,0.7-1.3,1.2c0.1,0,0.2-0.1,0.3-0.1
			C36.5,15.4,37.8,15,39.2,15.5"/>
		<path class="st32" d="M31.9,23.8c0,0.2,0,0.4,0,0.6l0,0c0,0.1,0,0.3,0,0.4c0,0,0,0,0,0c0,0.1,0,0.2,0,0.2c0,0.3,0.2,0.5,0.4,0.6
			c0.6,0.3,1.3,0.7,2.2,0.9c1,0.3,2,0.5,3.2,0.7l0.1,0l0.1,0c1.1-0.2,2.2-0.4,3.2-0.7c0.9-0.3,1.6-0.6,2.2-0.9
			c0.1-0.1,0.3-0.3,0.4-0.6c0-0.1,0-0.2,0-0.2h0c0,0,0,0,0,0c0-0.1,0-0.3,0-0.4c0,0,0,0,0,0c0-0.2,0-0.4,0-0.6c0,0,0,0.1,0,0.1
			c0,0.4-0.2,0.6-0.4,0.7c-0.5,0.3-1.2,0.5-2,0.8c-1,0.3-2.1,0.5-3.4,0.7c-1.2-0.2-2.4-0.4-3.4-0.7c-0.9-0.2-1.5-0.5-2.1-0.8
			c-0.2-0.1-0.4-0.3-0.4-0.7C31.9,23.9,31.9,23.8,31.9,23.8"/>
		<path class="st32" d="M33.6,18.8c0.4,0.4,1,0.7,1.9,0.9c0.7,0.2,1.4,0.4,2.2,0.5l0.1,0l0,0c0.8-0.1,1.5-0.3,2.2-0.5
			c0.8-0.3,1.4-0.6,1.9-1c0.1-0.1,0.2-0.2,0.1-0.5c0,0,0,0,0-0.1c0,0,0,0,0,0c0-0.1-0.1-0.1-0.1-0.2c0,0-0.1-0.1-0.1-0.1h0
			c-0.1-0.2-0.2-0.3-0.3-0.5c0.1,0.2,0.2,0.5,0,0.6c-0.3,0.2-0.8,0.4-1.3,0.5c-0.7,0.2-1.4,0.4-2.3,0.5c-0.8-0.1-1.6-0.3-2.3-0.5
			c-0.5-0.2-1-0.3-1.3-0.5c-0.2-0.2-0.1-0.4,0-0.6c-0.1,0.1-0.2,0.3-0.3,0.4c0,0,0,0,0,0c0,0.1-0.1,0.1-0.1,0.2c0,0,0,0.1-0.1,0.1h0
			c0,0,0,0,0,0.1C33.4,18.6,33.6,18.8,33.6,18.8"/>
		<path class="st32" d="M32.6,20.9c0.5,0.4,1.3,0.8,2.3,1.1c0.8,0.3,1.8,0.5,2.8,0.6l0.1,0l0.1,0c1-0.2,1.9-0.4,2.8-0.6
			c1-0.3,1.7-0.7,2.3-1.1c0.1-0.1,0.2-0.3,0.1-0.5c0,0,0-0.1,0-0.1c0,0,0,0,0,0c0,0,0,0,0-0.1c0-0.1-0.1-0.2-0.1-0.3c0,0,0,0,0,0
			c0-0.1-0.1-0.2-0.1-0.3c0.1,0.2,0.1,0.4-0.1,0.5c-0.5,0.3-1.1,0.5-1.9,0.7c-0.9,0.3-1.9,0.5-2.9,0.6c-1.1-0.1-2-0.4-2.9-0.6
			c-0.8-0.2-1.4-0.5-1.9-0.7c-0.2-0.1-0.2-0.3-0.1-0.5c-0.1,0.1-0.1,0.2-0.1,0.3c0,0,0,0,0,0c0,0.1-0.1,0.2-0.1,0.3c0,0,0,0,0,0.1v0
			c0,0,0,0.1,0,0.1C32.4,20.6,32.6,20.8,32.6,20.9"/>
		<path class="st32" d="M39.4,37.3c-0.2,0.4-0.5,0.6-0.6,0.7c-0.1,0-0.1,0-0.2,0c-0.2,0.1-0.5,0.1-0.9,0.1c-0.3,0-0.6-0.1-0.9-0.1
			c-0.1,0-0.1,0-0.2,0c-0.1-0.1-0.4-0.2-0.6-0.7c0,0,0,0,0,0l0.3,0.8l0,0.1l0,0c0.4,1.1,0.8,1.6,1.2,1.6c0,0,0,0,0,0c0,0,0,0,0.1,0
			c0,0,0,0,0,0c0,0,0,0,0,0c0,0,0,0,0,0c0,0,0,0,0,0c0,0,0,0,0,0c0,0,0,0,0.1,0c0.1,0,0.1,0,0.2,0c0,0,0,0,0,0
			c0.4-0.2,0.7-0.7,1-1.6L39.4,37.3C39.4,37.2,39.4,37.2,39.4,37.3"/>
		<path class="st32" d="M32.1,26.3C32.1,26.3,32.1,26.3,32.1,26.3C32.1,26.3,32.1,26.3,32.1,26.3C32.1,26.3,32.1,26.3,32.1,26.3"/>
		<path class="st32" d="M32.1,26.3c0.1,0.2,0.1,0.4,0.2,0.6h0c0,0.1,0.1,0.2,0.1,0.2c0,0.1,0.1,0.3,0.1,0.4c0,0,0,0,0,0
			c0,0,0,0.1,0,0.1c0.1,0.4,0.4,0.6,0.6,0.7c0.5,0.2,1,0.4,1.6,0.6c0.9,0.3,1.9,0.5,3,0.6l0.1,0l0.1,0c1.1-0.2,2.1-0.4,3-0.6
			c0.6-0.2,1.2-0.4,1.6-0.6c0.2-0.1,0.4-0.3,0.6-0.7c0,0,0-0.1,0-0.1l0,0c0-0.1,0.1-0.2,0.1-0.3c0-0.1,0.1-0.2,0.1-0.3h0
			c0.1-0.2,0.1-0.4,0.2-0.6c-0.2,0.7-0.7,0.9-0.7,0.9c-0.5,0.2-1.1,0.4-1.8,0.6c-0.9,0.3-2,0.5-3.1,0.6c-1.1-0.1-2.2-0.3-3.1-0.6
			c-0.7-0.2-1.3-0.4-1.8-0.6C32.8,27.2,32.3,27,32.1,26.3"/>
		<path class="st32" d="M41.9,30.4l0.3-0.8l0.1-0.4c0,0,0,0,0-0.1c0,0,0-0.1,0-0.1c0,0,0,0,0,0c-0.2,0.5-0.6,0.8-0.8,0.8
			c-0.4,0.1-0.8,0.3-1.3,0.4c-0.8,0.2-1.7,0.4-2.6,0.5c-0.9-0.1-1.8-0.3-2.6-0.5c-0.5-0.1-1-0.3-1.3-0.4c-0.2-0.1-0.6-0.3-0.7-0.8
			c0,0,0,0.1,0,0.1c0,0,0,0,0,0.1l0.3,0.7l0.2,0.5c0.1,0.4,0.4,0.5,0.6,0.6c0.3,0.1,0.7,0.2,1,0.4c0.8,0.2,1.6,0.4,2.5,0.5l0.1,0
			l0.1,0c0.9-0.1,1.7-0.3,2.5-0.5c0.4-0.1,0.7-0.2,1-0.4C41.5,31,41.8,30.8,41.9,30.4"/>
		<path class="st32" d="M40.4,34.4c-0.2,0.5-0.5,0.8-0.7,0.8c-0.2,0.1-0.4,0.1-0.6,0.2c-0.4,0.1-0.9,0.2-1.4,0.3
			c-0.5-0.1-1-0.2-1.4-0.3c-0.2-0.1-0.4-0.1-0.6-0.2c-0.1-0.1-0.5-0.3-0.7-0.8c0,0,0,0,0,0l0.3,0.7l0.2,0.6c0.1,0.3,0.4,0.5,0.6,0.6
			c0.1,0,0.1,0,0.2,0.1c0.4,0.1,0.9,0.2,1.4,0.3l0.1,0l0.1,0c0.5-0.1,1-0.2,1.4-0.3c0.1,0,0.1,0,0.2-0.1c0.2-0.1,0.4-0.2,0.6-0.6
			c0,0,0,0,0,0l0.1-0.1L40.4,34.4C40.5,34.3,40.4,34.4,40.4,34.4"/>
		<path class="st32" d="M40.7,32.6c-0.3,0.1-0.6,0.2-0.9,0.3c-0.6,0.2-1.3,0.3-2,0.4c-0.7-0.1-1.4-0.2-2-0.4c-0.4-0.1-0.7-0.2-1-0.3
			c-0.2-0.1-0.5-0.3-0.7-0.8c0,0,0-0.1,0-0.1l0.4,1.1l0.1,0.2c0,0,0,0,0,0c0.2,0.4,0.5,0.6,0.7,0.7c0.1,0,0.3,0.1,0.5,0.1
			c0.6,0.2,1.3,0.3,2,0.4l0.1,0l0.1,0c0.7-0.1,1.4-0.2,2-0.4c0.2,0,0.3-0.1,0.5-0.1c0.2-0.1,0.6-0.3,0.7-0.7c0,0,0,0,0,0l0.2-0.6
			l0.3-0.7c0,0,0,0.1,0,0.1C41.2,32.3,40.9,32.5,40.7,32.6"/>
		<path class="st32" d="M43.3,26.3C43.3,26.3,43.3,26.3,43.3,26.3C43.3,26.3,43.3,26.3,43.3,26.3C43.3,26.3,43.3,26.3,43.3,26.3"/>
		<path class="st32" d="M32.1,57.4C32.1,57.4,32.1,57.4,32.1,57.4C32.1,57.4,32.1,57.4,32.1,57.4C32.1,57.4,32.1,57.4,32.1,57.4"/>
		<path class="st32" d="M43.3,57.4C43.3,57.4,43.3,57.4,43.3,57.4C43.3,57.4,43.3,57.4,43.3,57.4C43.3,57.4,43.3,57.4,43.3,57.4"/>
		<path class="st32" d="M36.1,46.5C36.1,46.4,36.1,46.4,36.1,46.5c0.2-0.5,0.5-0.6,0.6-0.7c0.1,0,0.1,0,0.2,0
			c0.2-0.1,0.5-0.1,0.9-0.1c0.3,0,0.6,0.1,0.8,0.1c0.1,0,0.1,0,0.2,0c0.1,0.1,0.4,0.2,0.6,0.7c0,0,0,0,0,0.1l-0.3-0.9
			c-0.3-0.9-0.6-1.4-1-1.6c0,0,0,0,0,0c-0.1,0-0.1,0-0.2,0c0,0,0,0-0.1,0c0,0,0,0,0,0c0,0,0,0,0,0c0,0,0,0,0,0c0,0,0,0,0,0
			c0,0,0,0,0,0c0,0,0,0-0.1,0c0,0,0,0,0,0c-0.5,0.1-0.9,0.5-1.2,1.6l0,0l0,0.1L36.1,46.5z"/>
		<path class="st32" d="M34.8,51.1c0.3-0.1,0.6-0.2,1-0.3c0.6-0.2,1.3-0.3,2-0.4c0.7,0.1,1.4,0.2,2,0.4c0.4,0.1,0.7,0.2,0.9,0.3
			c0.2,0.1,0.5,0.3,0.7,0.8c0,0.1,0,0.1,0,0.1l-0.3-0.7L41,50.7c0,0,0,0,0,0c-0.2-0.4-0.5-0.6-0.7-0.7c-0.1-0.1-0.3-0.1-0.5-0.1
			c-0.6-0.2-1.3-0.3-2-0.4l-0.1,0l-0.1,0c-0.7,0.1-1.4,0.2-2,0.4c-0.2,0-0.3,0.1-0.5,0.1c-0.2,0.1-0.6,0.3-0.7,0.7c0,0,0,0,0,0
			l-0.1,0.2L34,52c0,0,0-0.1,0-0.1C34.2,51.4,34.6,51.2,34.8,51.1"/>
		<path class="st32" d="M43.3,57.4c-0.1-0.2-0.1-0.4-0.2-0.6c0,0,0,0,0,0c0-0.1-0.1-0.2-0.1-0.3c0-0.1-0.1-0.2-0.1-0.3l0,0
			c0,0,0-0.1,0-0.1c-0.1-0.4-0.4-0.6-0.6-0.7c-0.5-0.2-1-0.4-1.6-0.6c-0.9-0.3-1.9-0.5-3-0.6l-0.1,0l-0.1,0c-1.1,0.2-2.1,0.4-3,0.6
			c-0.6,0.2-1.2,0.4-1.6,0.6c-0.2,0.1-0.4,0.3-0.6,0.7c0,0,0,0.1,0,0.1l0,0c0,0.1-0.1,0.2-0.1,0.4c0,0.1-0.1,0.2-0.1,0.2h0
			c-0.1,0.2-0.1,0.4-0.2,0.6c0.2-0.7,0.7-0.9,0.7-0.9c0.5-0.2,1.1-0.4,1.8-0.6c0.9-0.3,2-0.5,3.1-0.6c1.1,0.1,2.2,0.3,3.1,0.6
			c0.7,0.2,1.3,0.4,1.8,0.6C42.6,56.5,43.1,56.7,43.3,57.4"/>
		<path class="st32" d="M33.4,53.7l-0.3,0.7c0,0,0,0,0,0.1c0,0,0,0.1,0,0.1c0.2-0.5,0.6-0.7,0.7-0.8c0.4-0.2,0.8-0.3,1.3-0.4
			c0.8-0.2,1.7-0.4,2.6-0.5c0.9,0.1,1.8,0.3,2.6,0.5c0.5,0.1,0.9,0.3,1.3,0.4c0.2,0.1,0.6,0.3,0.8,0.8c0,0,0,0,0,0c0,0,0-0.1,0-0.1
			c0,0,0,0,0-0.1L42.2,54l-0.3-0.8c-0.1-0.4-0.4-0.6-0.6-0.6c-0.3-0.1-0.7-0.2-1-0.4c-0.8-0.2-1.6-0.4-2.5-0.5l-0.1,0l-0.1,0
			c-0.9,0.1-1.7,0.3-2.5,0.5c-0.4,0.1-0.7,0.2-1,0.4c-0.2,0.1-0.4,0.3-0.6,0.6L33.4,53.7z"/>
		<path class="st32" d="M42.8,62.8c-0.5-0.4-1.3-0.8-2.3-1.1c-0.8-0.3-1.8-0.5-2.8-0.6l-0.1,0l-0.1,0c-1,0.2-1.9,0.4-2.8,0.6
			c-1,0.3-1.7,0.7-2.3,1.1c-0.1,0.1-0.2,0.3-0.1,0.5c0,0,0,0.1,0,0.1v0c0,0,0,0,0,0.1c0,0.1,0.1,0.2,0.1,0.3c0,0,0,0,0,0
			c0,0.1,0.1,0.2,0.1,0.3c-0.1-0.2-0.1-0.3,0.1-0.5c0.5-0.3,1.1-0.5,1.9-0.7c0.9-0.3,1.9-0.5,2.9-0.6c1.1,0.2,2,0.4,2.9,0.6
			c0.8,0.2,1.4,0.5,1.9,0.7c0.2,0.1,0.2,0.3,0.1,0.5c0.1-0.1,0.1-0.2,0.1-0.3c0,0,0,0,0,0c0-0.1,0.1-0.2,0.1-0.3c0,0,0,0,0-0.1
			c0,0,0,0,0,0c0,0,0-0.1,0-0.1C43,63.1,42.9,62.9,42.8,62.8"/>
		<path class="st32" d="M35,49.3c0.2-0.5,0.5-0.8,0.7-0.8c0.2-0.1,0.4-0.1,0.6-0.2c0.4-0.1,0.9-0.2,1.4-0.3c0.5,0.1,1,0.2,1.4,0.3
			c0.2,0.1,0.4,0.1,0.6,0.2c0.1,0.1,0.5,0.3,0.7,0.8c0,0,0,0.1,0,0.1L40,48.2L40,48c0,0,0,0,0,0c-0.1-0.3-0.4-0.5-0.6-0.6
			c-0.1,0-0.1,0-0.2-0.1c-0.4-0.1-0.9-0.2-1.4-0.3l-0.1,0l-0.1,0c-0.5,0.1-1,0.2-1.4,0.3c-0.1,0-0.1,0-0.2,0.1
			c-0.2,0.1-0.4,0.2-0.6,0.6l-0.2,0.6L35,49.3C35,49.3,35,49.3,35,49.3"/>
		<path class="st32" d="M36,68.1c-0.1,0-0.2-0.1-0.3-0.1c0.5,0.5,0.9,0.9,1.3,1.2c0,0,0,0,0,0c0,0,0.1,0,0.1,0.1
			c0.2,0.1,0.7,0.3,1.2,0c0,0,0,0,0,0c0,0,0,0,0.1,0c0.4-0.3,0.8-0.7,1.2-1.1c-0.2,0.1-0.3,0.1-0.5,0.2C37.8,68.7,36.5,68.3,36,68.1
			"/>
		<path class="st32" d="M40.5,66.7c-0.3-0.3-0.7-0.5-1.3-0.7c-0.4-0.1-0.9-0.3-1.4-0.3l0,0l-0.1,0c-0.5,0.1-1,0.2-1.4,0.3
			c-0.5,0.2-1,0.4-1.3,0.7c-0.1,0.1-0.1,0.3-0.1,0.4c0.1,0.1,0.2,0.2,0.2,0.3l0,0c0,0,0,0.1,0.1,0.1c0,0,0,0,0,0
			c0.1,0.1,0.1,0.2,0.2,0.2c-0.1-0.1-0.1-0.3,0-0.4c0.2-0.1,0.5-0.2,0.8-0.3c0.4-0.1,0.9-0.2,1.5-0.3c0.5,0.1,1,0.2,1.5,0.3
			c0.3,0.1,0.6,0.2,0.8,0.3c0.1,0.1,0.2,0.2,0,0.4c0.1-0.1,0.1-0.2,0.2-0.2c0,0,0,0,0,0c0,0,0.1-0.1,0.1-0.1c0,0,0,0,0,0
			c0.1-0.1,0.2-0.2,0.2-0.3C40.6,67,40.6,66.9,40.5,66.7"/>
		<path class="st32" d="M43.6,59.9c0-0.2,0-0.4,0-0.6h0c0-0.1,0-0.3,0-0.4c0,0,0,0,0,0h0c0-0.1,0-0.2,0-0.2c0-0.3-0.2-0.5-0.4-0.6
			c-0.6-0.3-1.3-0.7-2.2-0.9c-1-0.3-2-0.5-3.2-0.7l-0.1,0l-0.1,0c-1.1,0.2-2.2,0.4-3.2,0.7c-0.9,0.3-1.6,0.6-2.2,0.9
			c-0.1,0.1-0.3,0.3-0.4,0.6c0,0.1,0,0.2,0,0.2h0c0,0,0,0,0,0c0,0.1,0,0.3,0,0.4c0,0.2,0,0.4,0,0.6c0,0,0-0.1,0-0.1
			c0-0.4,0.2-0.6,0.4-0.7c0.5-0.3,1.2-0.5,2.1-0.8c1-0.3,2.1-0.5,3.4-0.7c1.2,0.2,2.4,0.4,3.4,0.7c0.8,0.2,1.5,0.5,2,0.8
			c0.2,0.1,0.4,0.3,0.4,0.7C43.6,59.8,43.6,59.8,43.6,59.9"/>
		<path class="st32" d="M41.8,64.8c-0.4-0.4-1-0.7-1.9-1c-0.7-0.2-1.4-0.4-2.2-0.5l0,0l-0.1,0c-0.8,0.1-1.5,0.3-2.2,0.5
			c-0.8,0.3-1.4,0.6-1.9,1c-0.1,0.1-0.2,0.2-0.1,0.5c0,0,0,0,0,0.1c0,0,0,0,0,0c0,0,0,0.1,0.1,0.1c0,0.1,0.1,0.1,0.1,0.2
			c0,0,0,0,0,0c0.1,0.1,0.2,0.3,0.3,0.4c-0.1-0.2-0.2-0.4,0-0.6c0.3-0.2,0.8-0.4,1.3-0.5c0.7-0.2,1.4-0.4,2.3-0.5
			c0.8,0.1,1.6,0.3,2.3,0.5h0c0.5,0.2,1,0.3,1.3,0.5c0.2,0.2,0.1,0.4,0,0.6c0.1-0.1,0.2-0.3,0.3-0.5l0,0c0,0,0.1-0.1,0.1-0.1
			c0-0.1,0.1-0.1,0.1-0.2h0c0,0,0,0,0-0.1C42,65.1,41.9,64.9,41.8,64.8"/>
		<path class="st32" d="M43.3,60.5c-0.6-0.4-1.4-0.8-2.4-1.1c-0.9-0.3-2-0.5-3.1-0.7l-0.1,0l-0.1,0c-1.1,0.2-2.2,0.4-3.1,0.7
			c-1,0.3-1.8,0.7-2.4,1.1c-0.1,0.1-0.3,0.3-0.2,0.6c0,0.1,0,0.2,0,0.3c0,0,0,0,0,0c0,0,0,0.1,0,0.1c0,0,0,0.1,0,0.1c0,0,0,0,0,0
			c0,0.1,0.1,0.3,0.1,0.4c-0.1-0.3,0.1-0.5,0.2-0.6c0.5-0.3,1.2-0.6,2.1-0.8c1-0.3,2.1-0.5,3.3-0.7c1.2,0.2,2.3,0.4,3.3,0.7
			c0.9,0.2,1.6,0.5,2.1,0.8c0.2,0.1,0.3,0.3,0.2,0.6c0-0.1,0.1-0.3,0.1-0.4c0,0,0,0,0,0c0,0,0-0.1,0-0.1c0,0,0-0.1,0-0.1
			c0,0,0,0,0,0c0-0.1,0-0.2,0-0.3C43.5,60.8,43.4,60.6,43.3,60.5"/>
		<path class="st32" d="M28.2,32.4c-0.9,0.7-1.8,1.3-2.6,1.8c-0.6,0.4-1.2,0.6-1.7,0.8v0c0,0-0.5,0.2-1.1-0.2
			c0.2,0.1,0.4,0.2,0.6,0.3c0,0,0,0,0,0c0.1,0,0.1,0.1,0.2,0.1c0.1,0.1,0.2,0.1,0.3,0.2c0,0,0,0,0,0c0,0,0.1,0,0.1,0.1
			c0.4,0.2,0.7,0.1,0.9,0.1c0.5-0.2,1-0.4,1.6-0.7c0.8-0.4,1.7-1,2.5-1.7l0,0l0,0c0.6-0.9,1.2-1.7,1.7-2.5c0.3-0.6,0.5-1.1,0.7-1.6
			c0.1-0.2,0.1-0.5-0.1-0.9c0,0,0-0.1-0.1-0.1h0c-0.1-0.1-0.1-0.2-0.2-0.3c0-0.1-0.1-0.2-0.1-0.3v0c-0.1-0.2-0.2-0.4-0.3-0.6
			c0.4,0.6,0.2,1.1,0.2,1.1c-0.2,0.5-0.4,1.1-0.8,1.7C29.6,30.6,28.9,31.5,28.2,32.4"/>
		<path class="st32" d="M30,34.1c-0.8,0.6-1.5,1.1-2.2,1.5c-0.5,0.3-0.9,0.5-1.3,0.6c-0.2,0.1-0.6,0.2-1.1,0c0,0,0.1,0,0.1,0
			c0,0,0,0,0.1,0l0.7,0.3l0.4,0.2c0.4,0.2,0.7,0.1,0.9,0c0.3-0.1,0.6-0.3,1-0.5c0.7-0.4,1.4-0.9,2.1-1.4l0,0l0,0
			c0.5-0.7,1-1.4,1.4-2.1c0.2-0.4,0.4-0.7,0.5-1c0.1-0.2,0.1-0.5,0-0.9l-0.3-0.7l-0.2-0.4c0,0,0,0,0,0c0,0,0-0.1-0.1-0.1
			c0,0,0,0,0,0c0.2,0.5,0.1,1,0,1.1c-0.1,0.4-0.4,0.8-0.6,1.2C31.1,32.6,30.5,33.3,30,34.1"/>
		<path class="st32" d="M22.1,22c0,0-0.1,0-0.1,0C22,22,22,22,22.1,22L22.1,22z"/>
		<path class="st32" d="M32.6,39.1c0.1,0,0.1-0.1,0.2-0.1c0.4-0.2,0.8-0.5,1.2-0.8l0,0l0,0c0.3-0.4,0.6-0.8,0.8-1.2
			c0-0.1,0.1-0.1,0.1-0.2c0.1-0.2,0.1-0.5,0-0.8c0,0,0,0,0,0l-0.1-0.1l-0.5-1.1c0,0,0,0,0,0.1c0.2,0.5,0.1,0.9,0.1,1.1
			c-0.1,0.2-0.2,0.4-0.3,0.6c-0.2,0.4-0.5,0.8-0.8,1.2c-0.4,0.3-0.8,0.6-1.2,0.8c-0.2,0.1-0.4,0.2-0.6,0.3c-0.1,0.1-0.5,0.1-1.1-0.1
			c0,0,0,0,0,0l0.7,0.3l0.6,0.3C32.1,39.2,32.4,39.1,32.6,39.1"/>
		<path class="st32" d="M28.5,27.8c-0.5,0.9-1.2,1.9-1.9,2.9c-1,0.8-1.9,1.4-2.9,1.9c-0.8,0.4-1.5,0.7-2,0.9
			c-0.2,0.1-0.5,0.1-0.8-0.2c0,0-0.1-0.1-0.1-0.1c0.1,0.1,0.3,0.3,0.4,0.4l0,0c0.1,0.1,0.2,0.2,0.3,0.3c0,0,0,0,0,0v0
			c0.1,0.1,0.1,0.1,0.2,0.2c0.2,0.2,0.5,0.2,0.7,0.2c0.6-0.2,1.4-0.5,2.2-0.9c0.9-0.5,1.8-1.1,2.7-1.8l0,0l0,0
			c0.7-0.9,1.3-1.8,1.8-2.7c0.4-0.8,0.7-1.6,0.9-2.2c0-0.2,0-0.4-0.2-0.7c0-0.1-0.1-0.1-0.2-0.2h0c0,0,0,0,0,0
			c-0.1-0.1-0.2-0.2-0.3-0.3l0,0c-0.1-0.1-0.3-0.3-0.4-0.4c0,0,0,0,0.1,0.1c0.3,0.3,0.3,0.6,0.2,0.8C29.2,26.4,28.9,27.1,28.5,27.8"
			/>
		<path class="st32" d="M36.1,40.4C36.1,40.4,36.1,40.4,36.1,40.4C36.1,40.4,36.2,40.4,36.1,40.4C36.2,40.4,36.2,40.3,36.1,40.4
			c0.1-0.1,0.1-0.1,0.1-0.1c0,0,0,0,0,0c0,0,0,0,0,0c0,0,0,0,0,0c0,0,0,0,0,0c0,0,0.1-0.1,0.1-0.2c0,0,0,0,0,0c0.1-0.4,0-1-0.4-1.8
			l0,0l-0.4-0.8c0,0,0,0,0,0.1c0.2,0.4,0.1,0.7,0,0.9c0,0.1-0.1,0.1-0.1,0.2c-0.1,0.2-0.3,0.5-0.5,0.7c-0.2,0.2-0.5,0.4-0.7,0.5
			c-0.1,0-0.1,0.1-0.2,0.1c-0.1,0.1-0.4,0.2-0.9,0c0,0,0,0,0,0l0.7,0.3l0.1,0l0,0C35.1,40.6,35.7,40.7,36.1,40.4"/>
		<path class="st32" d="M22.8,34.8C22.8,34.8,22.8,34.8,22.8,34.8C22.8,34.8,22.8,34.8,22.8,34.8C22.8,34.8,22.8,34.8,22.8,34.8"/>
		<path class="st32" d="M20.2,24.3c-0.4,0.3-0.9,0.6-1.3,0.8c-0.3,0.2-0.6,0.3-0.8,0.3c-0.2,0-0.3-0.1-0.3-0.2c0,0.1,0,0.2,0,0.3v0
			c0,0,0,0.1,0,0.1h0c0,0.1,0,0.2,0,0.4c0,0.1,0.1,0.2,0.3,0.2c0.4,0,0.8-0.2,1.4-0.4c0.4-0.2,0.8-0.5,1.3-0.8l0,0l0,0
			c0.3-0.4,0.6-0.9,0.8-1.3c0.3-0.5,0.4-1,0.4-1.4c0-0.2-0.1-0.3-0.2-0.3c-0.1,0-0.2,0-0.4,0v0c0,0-0.1,0-0.1,0h0
			c-0.1,0-0.2,0-0.3,0c0.2,0,0.3,0.1,0.2,0.3c-0.1,0.2-0.2,0.5-0.3,0.8C20.8,23.4,20.5,23.8,20.2,24.3"/>
		<path class="st32" d="M31.7,35.8c-0.6,0.5-1.2,0.9-1.7,1.2c-0.3,0.2-0.6,0.3-0.9,0.5c-0.2,0.1-0.6,0.2-1.1-0.1c0,0-0.1,0-0.1,0
			l1.1,0.5l0.2,0.1c0,0,0,0,0,0c0.4,0.2,0.8,0.1,1,0c0.1-0.1,0.3-0.1,0.4-0.2c0.5-0.3,1.1-0.7,1.7-1.1l0,0l0,0
			c0.4-0.6,0.8-1.1,1.1-1.7c0.1-0.1,0.2-0.3,0.2-0.4c0.1-0.2,0.2-0.6,0-1c0,0,0,0,0,0l-0.3-0.6L33.2,32c0,0,0,0.1,0.1,0.1
			c0.2,0.5,0.1,0.9,0.1,1.1c-0.1,0.3-0.3,0.6-0.5,0.9C32.5,34.6,32.1,35.2,31.7,35.8"/>
		<path class="st32" d="M20.1,22.1c0.2-0.1,0.3-0.1,0.5-0.2c-0.6,0-1.2,0-1.7,0.1c0,0,0,0-0.1,0c0,0,0,0-0.1,0
			c-0.6,0.1-0.8,0.6-0.9,0.8c0,0,0,0.1,0,0.1c0,0,0,0,0,0c-0.1,0.5-0.1,1.1-0.1,1.7c0-0.1,0.1-0.2,0.1-0.3
			C18.2,24,18.8,22.8,20.1,22.1"/>
		<path class="st32" d="M30.7,26.9C30.7,26.9,30.7,26.9,30.7,26.9C30.7,26.9,30.7,26.9,30.7,26.9C30.7,26.9,30.7,26.9,30.7,26.9"/>
		<path class="st32" d="M22.1,30.9c-0.8,0.4-1.5,0.7-2.1,0.9c-0.2,0-0.4,0-0.6-0.3c0.1,0.1,0.2,0.2,0.2,0.4h0c0,0,0,0.1,0.1,0.1
			c0,0,0,0.1,0.1,0.1c0,0,0,0,0,0c0.1,0.1,0.1,0.2,0.2,0.3c0.2,0.2,0.4,0.2,0.6,0.2c0.7-0.1,1.5-0.4,2.5-0.9c0.9-0.5,1.8-1,2.7-1.7
			l0,0l0,0c0.7-0.9,1.3-1.8,1.7-2.7c0.5-0.9,0.8-1.7,0.9-2.4c0-0.1,0-0.4-0.2-0.6C28.1,24.1,28,24,28,24c0,0,0,0,0,0
			c0,0-0.1,0-0.1-0.1c0,0-0.1,0-0.1-0.1v0c-0.1-0.1-0.2-0.2-0.4-0.2c0.3,0.2,0.3,0.4,0.3,0.6c-0.2,0.6-0.5,1.3-0.9,2
			c-0.5,0.9-1.1,1.8-1.9,2.8C24,29.8,23,30.4,22.1,30.9"/>
		<path class="st32" d="M21.7,25.8c-0.7,0.5-1.3,0.9-1.9,1.3c-0.5,0.3-0.9,0.5-1.3,0.6c-0.3,0-0.4-0.2-0.4-0.4
			c0,0.2,0.1,0.4,0.1,0.5c0,0,0,0,0,0c0,0.1,0,0.2,0.1,0.2c0,0,0,0.1,0,0.1h0c0,0,0,0,0,0.1c0.1,0.2,0.3,0.3,0.4,0.3
			c0.6,0,1.2-0.3,2-0.6c0.6-0.3,1.3-0.7,1.9-1.2l0,0l0,0c0.5-0.6,0.9-1.3,1.2-1.9c0.4-0.8,0.6-1.4,0.6-2c0-0.1,0-0.3-0.3-0.4
			c0,0,0,0-0.1,0v0c-0.1,0-0.1,0-0.2,0c0,0-0.1,0-0.2,0v0c-0.2,0-0.4-0.1-0.5-0.1c0.2,0.1,0.5,0.2,0.5,0.4c-0.1,0.4-0.3,0.8-0.6,1.3
			v0C22.7,24.5,22.2,25.2,21.7,25.8"/>
		<path class="st32" d="M24.9,24.9c-0.4,0.8-1,1.6-1.6,2.5c-0.9,0.6-1.7,1.2-2.5,1.6c-0.7,0.4-1.3,0.6-1.8,0.8
			c-0.2,0-0.4-0.1-0.4-0.3c0,0.1,0.1,0.2,0.1,0.3c0,0,0,0,0,0c0,0.1,0.1,0.2,0.1,0.3c0,0,0,0,0,0.1v0c0,0,0,0.1,0,0.1
			c0.1,0.2,0.3,0.3,0.5,0.3c0.7-0.1,1.5-0.3,2.4-0.8c0.8-0.4,1.6-0.9,2.4-1.5l0,0l0,0c0.6-0.8,1.1-1.6,1.5-2.4
			c0.5-0.9,0.7-1.7,0.8-2.4c0-0.1,0-0.3-0.3-0.5c0,0-0.1,0-0.1,0v0c0,0,0,0-0.1,0c-0.1,0-0.2-0.1-0.3-0.1c0,0,0,0,0,0
			c-0.1,0-0.2-0.1-0.3-0.1c0.2,0.1,0.3,0.2,0.3,0.4C25.6,23.6,25.3,24.2,24.9,24.9"/>
		<path class="st32" d="M41.3,47.4c0.2-0.4,0.5-0.8,0.8-1.2c0.4-0.3,0.8-0.6,1.2-0.8c0.2-0.1,0.4-0.2,0.6-0.3
			c0.1-0.1,0.5-0.1,1.1,0.1c0,0,0.1,0,0.1,0l-1.1-0.5l-0.2-0.1c0,0,0,0,0,0c-0.3-0.1-0.6-0.1-0.8,0c-0.1,0-0.1,0.1-0.2,0.1
			c-0.4,0.2-0.8,0.5-1.2,0.8l0,0l0,0c-0.3,0.4-0.6,0.8-0.8,1.2c0,0.1-0.1,0.1-0.1,0.2c-0.1,0.2-0.1,0.5,0,0.8l0.3,0.6l0.3,0.7
			c0,0,0,0,0,0c-0.2-0.5-0.1-0.9-0.1-1.1C41,47.8,41.1,47.6,41.3,47.4"/>
		<path class="st32" d="M57,56c0.3,0,0.4,0.2,0.4,0.5c0-0.2-0.1-0.4-0.1-0.5v0c0,0,0-0.1,0-0.1c0-0.1,0-0.1,0-0.2h0c0,0,0,0,0-0.1
			c-0.1-0.2-0.3-0.3-0.4-0.3c-0.6,0-1.2,0.3-2,0.6c-0.6,0.3-1.3,0.7-1.9,1.2l0,0l0,0c-0.5,0.6-0.9,1.3-1.2,1.9
			c-0.4,0.8-0.6,1.4-0.6,2c0,0.1,0,0.3,0.3,0.4c0,0,0,0,0.1,0v0c0,0,0.1,0,0.1,0c0.1,0,0.2,0,0.2,0.1c0,0,0,0,0,0
			c0.2,0,0.4,0.1,0.5,0.1c-0.2-0.1-0.5-0.2-0.4-0.4c0.1-0.4,0.3-0.8,0.6-1.3c0.3-0.6,0.8-1.3,1.3-1.9c0.7-0.5,1.3-0.9,1.9-1.3h0
			C56.2,56.3,56.6,56.1,57,56"/>
		<path class="st32" d="M50.5,58.7c0.4-0.8,1-1.6,1.6-2.5c0.9-0.6,1.7-1.2,2.5-1.6c0.7-0.4,1.3-0.6,1.8-0.8c0.2,0,0.4,0.1,0.4,0.3
			c0-0.1-0.1-0.2-0.1-0.3c0,0,0,0,0,0c0-0.1-0.1-0.2-0.1-0.3c0,0,0,0,0-0.1h0c0,0,0-0.1,0-0.1c-0.1-0.2-0.3-0.3-0.5-0.3
			c-0.7,0.1-1.5,0.3-2.4,0.8c-0.8,0.4-1.6,0.9-2.4,1.5l0,0l0,0c-0.6,0.8-1.1,1.6-1.5,2.4c-0.5,0.9-0.7,1.7-0.8,2.4
			c0,0.1,0,0.3,0.3,0.5c0,0,0.1,0,0.1,0v0c0,0,0,0,0.1,0c0.1,0,0.2,0.1,0.3,0.1c0,0,0,0,0,0c0.1,0,0.2,0.1,0.3,0.1
			c-0.2-0.1-0.3-0.2-0.3-0.4C49.9,60.1,50.1,59.5,50.5,58.7"/>
		<path class="st32" d="M39.9,45.2c0.1-0.2,0.3-0.5,0.5-0.7c0.2-0.2,0.5-0.4,0.7-0.5c0.1,0,0.1-0.1,0.2-0.1c0.1-0.1,0.4-0.2,0.9,0
			c0,0,0,0,0.1,0l-0.8-0.4c-0.9-0.4-1.4-0.6-1.8-0.4c0,0,0,0,0,0c-0.1,0-0.1,0.1-0.2,0.1c0,0,0,0,0,0c0,0,0,0,0,0c0,0,0,0,0,0
			c0,0,0,0,0,0c0,0,0,0,0,0c0,0,0,0,0,0c0,0,0,0,0,0c0,0,0,0,0,0c-0.3,0.4-0.2,1,0.3,2v0l0,0.1l0.3,0.7c0,0,0,0,0,0
			c-0.2-0.4-0.1-0.7,0-0.9C39.8,45.3,39.8,45.2,39.9,45.2"/>
		<polygon class="st32" points="40.5,47.8 40.5,47.8 40.4,47.6 		"/>
		<path class="st32" d="M47,55.9c0.5-0.9,1.2-1.9,1.9-2.9c1-0.7,1.9-1.4,2.9-1.9c0.8-0.4,1.4-0.7,2-0.9c0.2-0.1,0.5-0.1,0.8,0.2
			c0,0,0.1,0.1,0.1,0.1c-0.1-0.1-0.3-0.3-0.4-0.4c0,0,0,0,0,0c-0.1-0.1-0.2-0.2-0.3-0.3c0,0,0,0,0,0c-0.1-0.1-0.1-0.1-0.2-0.2
			c-0.2-0.2-0.5-0.2-0.7-0.2c-0.6,0.2-1.4,0.4-2.2,0.9c-0.9,0.5-1.8,1.1-2.7,1.8l0,0l0,0c-0.7,0.9-1.3,1.8-1.8,2.7
			c-0.4,0.8-0.7,1.6-0.9,2.2c0,0.2,0,0.4,0.2,0.7c0,0.1,0.1,0.1,0.2,0.2l0,0c0,0,0,0,0,0c0.1,0.1,0.2,0.2,0.3,0.3v0
			c0.1,0.1,0.3,0.3,0.4,0.4c0,0,0,0-0.1-0.1C46,58.4,46,58.1,46,57.9C46.2,57.3,46.5,56.6,47,55.9"/>
		<path class="st32" d="M52.7,48.9C52.7,48.9,52.7,48.9,52.7,48.9C52.7,48.9,52.7,48.9,52.7,48.9C52.7,48.9,52.7,48.9,52.7,48.9"/>
		<path class="st32" d="M44.8,56.8C44.8,56.8,44.8,56.8,44.8,56.8C44.8,56.8,44.8,56.8,44.8,56.8C44.8,56.8,44.8,56.8,44.8,56.8"/>
		<path class="st32" d="M53.3,52.8c0.8-0.4,1.5-0.7,2-0.9c0.2,0,0.4,0,0.6,0.3c-0.1-0.1-0.2-0.2-0.3-0.4c0,0,0,0,0,0
			c0,0,0-0.1-0.1-0.1c0,0,0-0.1-0.1-0.1c0,0,0,0,0,0c-0.1-0.1-0.1-0.2-0.2-0.3c-0.2-0.2-0.4-0.2-0.6-0.2c-0.7,0.1-1.5,0.4-2.4,0.9
			c-0.9,0.5-1.8,1-2.7,1.7l0,0l0,0c-0.7,0.9-1.3,1.8-1.7,2.7c-0.5,0.9-0.8,1.8-0.9,2.5c0,0.1,0,0.4,0.2,0.6c0.1,0.1,0.2,0.1,0.3,0.2
			c0,0,0,0,0,0c0,0,0.1,0,0.1,0.1c0,0,0.1,0,0.1,0.1c0,0,0,0,0,0c0.1,0.1,0.2,0.2,0.4,0.2c-0.3-0.2-0.3-0.4-0.3-0.6
			c0.2-0.6,0.5-1.3,0.9-2.1c0.5-0.9,1.1-1.8,1.9-2.8C51.5,53.9,52.4,53.3,53.3,52.8"/>
		<path class="st32" d="M47.2,51.3c0.9-0.7,1.8-1.3,2.6-1.8c0.6-0.4,1.2-0.6,1.7-0.8l0,0c0,0,0.5-0.2,1.1,0.2
			c-0.2-0.1-0.4-0.2-0.6-0.3h0c-0.1,0-0.2-0.1-0.3-0.1c-0.1-0.1-0.2-0.1-0.3-0.2v0c0,0-0.1,0-0.1-0.1c-0.4-0.2-0.7-0.2-0.9-0.1
			c-0.5,0.2-1,0.4-1.6,0.7c-0.8,0.4-1.7,1-2.5,1.7l0,0l0,0c-0.6,0.9-1.2,1.7-1.7,2.5c-0.3,0.6-0.5,1.1-0.7,1.6
			c-0.1,0.2-0.1,0.5,0.1,0.9c0,0,0,0.1,0.1,0.1c0,0,0,0,0,0c0.1,0.1,0.1,0.2,0.2,0.3c0,0.1,0.1,0.1,0.1,0.2v0
			c0.1,0.2,0.2,0.4,0.3,0.6c-0.4-0.6-0.2-1.1-0.2-1.1h0c0.2-0.5,0.4-1.1,0.8-1.7C45.9,53.1,46.5,52.2,47.2,51.3"/>
		<path class="st32" d="M45.5,49.6c0.8-0.6,1.5-1.1,2.2-1.5c0.5-0.3,0.9-0.5,1.2-0.6c0.2-0.1,0.6-0.2,1.1,0c0,0,0,0,0,0
			c0,0-0.1,0-0.1-0.1c0,0,0,0,0,0l-0.4-0.2l-0.7-0.3c-0.4-0.2-0.7-0.1-0.9,0c-0.3,0.1-0.6,0.3-1,0.5c-0.7,0.4-1.4,0.9-2.1,1.4l0,0
			l0,0c-0.5,0.7-1,1.4-1.4,2.1c-0.2,0.4-0.4,0.7-0.5,1c-0.1,0.2-0.1,0.5,0,0.9l0.2,0.4l0.3,0.7c0,0,0,0,0,0.1c0,0,0,0.1,0,0.1
			c-0.2-0.5-0.1-0.9,0-1.1c0.1-0.4,0.4-0.8,0.6-1.3C44.4,51.1,44.9,50.4,45.5,49.6"/>
		<path class="st32" d="M43.8,47.9c0.6-0.5,1.2-0.9,1.7-1.2c0.3-0.2,0.6-0.3,0.9-0.5c0.2-0.1,0.6-0.2,1.1,0.1c0.1,0,0.1,0,0.1,0
			l-0.7-0.3l-0.6-0.3c0,0,0,0,0,0c-0.4-0.2-0.8-0.1-1,0c-0.1,0.1-0.3,0.1-0.4,0.2c-0.5,0.3-1.1,0.7-1.7,1.1l0,0l0,0
			c-0.4,0.6-0.8,1.1-1.1,1.7c-0.1,0.1-0.2,0.3-0.2,0.4c-0.1,0.2-0.2,0.6,0,1c0,0,0,0,0,0l0.1,0.2l0.5,1.1c0,0,0-0.1,0-0.1
			c-0.2-0.5-0.1-0.9-0.1-1.1c0.1-0.3,0.3-0.6,0.5-0.9C42.9,49,43.3,48.5,43.8,47.9"/>
		<path class="st32" d="M55.3,59.4c0.4-0.3,0.9-0.6,1.3-0.8c0.3-0.2,0.6-0.3,0.8-0.3c0.2,0,0.3,0.1,0.3,0.2c0-0.1,0-0.2,0-0.3v0
			c0,0,0-0.1,0-0.1h0c0-0.1,0-0.2,0-0.4c0-0.1-0.1-0.2-0.3-0.2c-0.4,0-0.8,0.2-1.4,0.4c-0.4,0.2-0.8,0.5-1.3,0.8l0,0l0,0
			c-0.3,0.4-0.6,0.9-0.8,1.3c-0.3,0.5-0.4,1-0.4,1.4c0,0.2,0.1,0.3,0.2,0.3c0.1,0,0.2,0,0.4,0v0c0,0,0.1,0,0.1,0h0
			c0.1,0,0.2,0,0.3,0c-0.2,0-0.3-0.1-0.2-0.3c0.1-0.2,0.2-0.5,0.3-0.8C54.7,60.3,55,59.8,55.3,59.4"/>
		<path class="st32" d="M55.1,61.6c-0.1,0-0.2,0.1-0.3,0.1c0.6,0,1.2,0,1.7-0.1h0c0,0,0.1,0,0.1,0c0.3-0.1,0.7-0.3,0.8-0.9
			c0,0,0,0,0-0.1c0,0,0,0,0-0.1c0.1-0.5,0.1-1.1,0.1-1.7c-0.1,0.2-0.1,0.3-0.2,0.5C56.8,60.7,55.6,61.4,55.1,61.6"/>
		<path class="st32" d="M27,45.4c0.1-0.3,0.2-0.7,0.4-1c0.2-0.8,0.4-1.6,0.5-2.5l0-0.1l0-0.1c-0.1-0.9-0.3-1.7-0.5-2.5
			c-0.1-0.4-0.2-0.7-0.4-1c-0.1-0.2-0.3-0.5-0.6-0.6l-0.8-0.3l-0.4-0.1c0,0,0,0-0.1,0c0,0-0.1,0-0.1,0c0,0,0,0,0,0
			c0.5,0.2,0.8,0.6,0.8,0.8c0.1,0.4,0.3,0.8,0.4,1.3c0.2,0.8,0.4,1.7,0.5,2.6c-0.1,0.9-0.3,1.8-0.5,2.6c-0.1,0.5-0.3,1-0.4,1.3
			c-0.1,0.2-0.3,0.6-0.8,0.7c0,0,0.1,0,0.1,0c0,0,0,0,0.1,0l0.7-0.3l0.5-0.2C26.7,45.9,26.9,45.6,27,45.4"/>
		<path class="st32" d="M20.5,47.3c-0.1,0.2-0.3,0.4-0.7,0.4c-0.1,0-0.1,0-0.1,0c0.2,0,0.4,0,0.6,0c0,0,0,0,0,0c0.1,0,0.3,0,0.4,0
			c0,0,0,0,0,0v0c0.1,0,0.2,0,0.2,0c0.3,0,0.5-0.2,0.6-0.4c0.3-0.6,0.7-1.3,0.9-2.2c0.3-1,0.5-2,0.7-3.2l0-0.1l0-0.1
			c-0.2-1.1-0.4-2.2-0.7-3.2c-0.3-0.9-0.6-1.6-0.9-2.2c-0.1-0.1-0.3-0.3-0.6-0.4c-0.1,0-0.2,0-0.2,0v0c0,0,0,0,0,0
			c-0.1,0-0.3,0-0.4,0c0,0,0,0,0,0c-0.2,0-0.4,0-0.6,0c0,0,0.1,0,0.1,0c0.4,0,0.6,0.2,0.7,0.4c0.3,0.5,0.5,1.2,0.8,2
			c0.3,1,0.5,2.1,0.7,3.4c-0.2,1.2-0.4,2.4-0.7,3.4C21,46.1,20.8,46.8,20.5,47.3"/>
		<path class="st32" d="M28.9,45.1C28.9,45.1,28.9,45.1,28.9,45.1c0.4-0.2,0.6-0.5,0.7-0.7c0.1-0.1,0.1-0.3,0.1-0.5
			c0.2-0.6,0.3-1.3,0.4-2l0-0.1l0-0.1c-0.1-0.7-0.2-1.4-0.4-2c0-0.2-0.1-0.3-0.1-0.5c-0.1-0.2-0.3-0.6-0.7-0.7c0,0,0,0,0,0l-0.6-0.2
			l-0.7-0.3c0,0,0.1,0,0.1,0c0.5,0.2,0.7,0.5,0.8,0.7c0.1,0.3,0.2,0.6,0.3,0.9c0.2,0.6,0.3,1.3,0.4,2c-0.1,0.7-0.2,1.4-0.4,2
			c-0.1,0.4-0.2,0.7-0.3,1c-0.1,0.2-0.3,0.5-0.8,0.7c0,0-0.1,0-0.1,0l1.1-0.4L28.9,45.1z"/>
		<path class="st32" d="M12.8,44.6c0.3-0.3,0.5-0.7,0.7-1.3c0.1-0.4,0.3-0.9,0.3-1.4l0,0l0-0.1c-0.1-0.5-0.2-1-0.3-1.4
			c-0.2-0.5-0.4-1-0.7-1.3c-0.1-0.1-0.3-0.1-0.4-0.1c-0.1,0.1-0.2,0.2-0.3,0.2c0,0,0,0,0,0c0,0-0.1,0.1-0.1,0.1c0,0,0,0,0,0
			c-0.1,0.1-0.2,0.1-0.2,0.2c0.1-0.1,0.3-0.1,0.4,0c0.1,0.2,0.2,0.5,0.3,0.8c0.1,0.4,0.2,0.9,0.3,1.5c-0.1,0.5-0.2,1-0.3,1.5
			c-0.1,0.3-0.2,0.6-0.3,0.8c-0.1,0.1-0.2,0.2-0.4,0c0.1,0.1,0.2,0.1,0.2,0.2c0,0,0,0,0,0c0,0,0.1,0.1,0.1,0.1l0,0
			c0.1,0.1,0.2,0.2,0.3,0.2C12.6,44.7,12.7,44.7,12.8,44.6"/>
		<path class="st32" d="M18.1,47.5c0,0,0.1,0,0.1,0c0,0,0,0,0,0c0.1,0,0.2,0,0.3,0c0.3,0,0.5-0.1,0.6-0.2c0.4-0.6,0.8-1.4,1.1-2.4
			c0.3-0.9,0.5-2,0.7-3.1l0-0.1l0-0.1c-0.2-1.1-0.4-2.2-0.7-3.1c-0.3-1-0.7-1.8-1.1-2.4c-0.1-0.1-0.3-0.3-0.6-0.2
			c-0.1,0-0.2,0-0.3,0c0,0,0,0,0,0c0,0-0.1,0-0.1,0c0,0-0.1,0-0.1,0c0,0,0,0,0,0c-0.1,0-0.3,0.1-0.4,0.1c0.4-0.1,0.5,0.1,0.6,0.2
			c0.3,0.5,0.6,1.2,0.8,2.1c0.3,1,0.5,2.1,0.7,3.3c-0.2,1.2-0.4,2.3-0.7,3.3c-0.2,0.9-0.5,1.6-0.8,2.1c-0.1,0.2-0.3,0.3-0.6,0.2
			c0.1,0,0.3,0.1,0.4,0.1c0,0,0,0,0,0C18,47.5,18,47.5,18.1,47.5"/>
		<path class="st32" d="M14.1,45.9C14.1,45.9,14.2,45.9,14.1,45.9C14.2,46,14.2,46,14.1,45.9c0.1,0.1,0.1,0.1,0.1,0.1
			c0.2,0.1,0.4,0,0.5-0.1c0.4-0.4,0.7-1,0.9-1.9c0.2-0.7,0.4-1.4,0.5-2.2l0,0l0-0.1c-0.1-0.8-0.3-1.5-0.5-2.2
			c-0.3-0.8-0.6-1.4-0.9-1.9c-0.1-0.1-0.2-0.2-0.5-0.1c0,0,0,0-0.1,0c0,0,0,0,0,0c-0.1,0-0.1,0.1-0.2,0.1c0,0-0.1,0.1-0.1,0.1
			c0,0,0,0,0,0c-0.2,0.1-0.3,0.2-0.5,0.3c0.2-0.1,0.5-0.2,0.6,0c0.2,0.3,0.4,0.8,0.5,1.3c0.2,0.7,0.4,1.4,0.5,2.3
			c-0.1,0.8-0.3,1.6-0.5,2.3c-0.2,0.5-0.3,1-0.5,1.3c-0.2,0.2-0.4,0.1-0.6,0c0.1,0.1,0.3,0.2,0.4,0.3c0,0,0,0,0,0
			C14,45.8,14,45.8,14.1,45.9"/>
		<path class="st32" d="M11.6,39.9c-0.5,0.4-0.8,0.9-1.1,1.2c0,0,0,0,0,0.1c0,0,0,0,0,0.1c-0.3,0.5-0.2,1,0,1.2c0,0,0,0.1,0.1,0.1
			c0,0,0,0,0,0c0.3,0.4,0.7,0.8,1.2,1.3c0-0.1-0.1-0.2-0.1-0.3c-0.2-0.5-0.5-1.8-0.1-3.2C11.4,40.2,11.5,40,11.6,39.9"/>
		<path class="st32" d="M18.5,41.9L18.5,41.9v-0.1c-0.2-1-0.4-1.9-0.6-2.8c-0.3-1-0.7-1.7-1.1-2.3c-0.1-0.1-0.3-0.2-0.5-0.1
			c0,0-0.1,0-0.1,0c0,0,0,0,0,0c0,0,0,0-0.1,0c-0.1,0-0.2,0.1-0.3,0.1c0,0,0,0,0,0c-0.1,0-0.2,0.1-0.3,0.2c0.2-0.1,0.4-0.1,0.5,0.1
			c0.3,0.5,0.5,1.1,0.7,1.9c0.3,0.9,0.5,1.9,0.6,2.9c-0.1,1.1-0.4,2-0.6,2.9c-0.2,0.8-0.5,1.4-0.7,1.9c-0.1,0.2-0.3,0.2-0.5,0.1
			c0.1,0.1,0.2,0.1,0.3,0.1l0,0c0.1,0,0.2,0.1,0.3,0.1c0,0,0,0,0.1,0h0c0,0,0.1,0,0.1,0c0.3,0.1,0.4,0,0.5-0.1
			c0.4-0.5,0.8-1.3,1.1-2.3C18.2,43.8,18.4,42.9,18.5,41.9"/>
		<path class="st32" d="M33.8,42.9c-0.1,0.1-0.2,0.4-0.7,0.6c0,0,0,0,0,0l0.8-0.3l0.1,0l0,0c1.1-0.4,1.6-0.8,1.6-1.2c0,0,0,0,0,0
			c0,0,0,0,0-0.1c0,0,0,0,0,0c0,0,0,0,0,0c0,0,0,0,0,0c0,0,0,0,0,0c0,0,0,0,0,0c0,0,0,0,0-0.1c0-0.1,0-0.1,0-0.2c0,0,0,0,0,0
			c-0.2-0.4-0.7-0.7-1.6-1h0l-0.9-0.3c0,0,0,0,0.1,0c0.4,0.2,0.6,0.5,0.7,0.6c0,0.1,0,0.1,0,0.2c0.1,0.2,0.1,0.5,0.1,0.8
			c0,0.3-0.1,0.6-0.1,0.8C33.8,42.8,33.8,42.8,33.8,42.9"/>
		<polygon class="st32" points="31.5,39.6 31.5,39.6 31.6,39.6 		"/>
		<path class="st32" d="M22.2,47.4C22.2,47.4,22.2,47.4,22.2,47.4C22.2,47.4,22.2,47.4,22.2,47.4C22.2,47.4,22.2,47.4,22.2,47.4"/>
		<path class="st32" d="M22.2,36.2C22.2,36.2,22.2,36.2,22.2,36.2C22.2,36.3,22.2,36.3,22.2,36.2C22.2,36.2,22.2,36.2,22.2,36.2"/>
		<path class="st32" d="M31.1,43.9c-0.1,0.1-0.3,0.5-0.8,0.7c0,0,0,0,0,0l0.7-0.3l0.6-0.2c0.3-0.1,0.5-0.4,0.6-0.6
			c0-0.1,0-0.1,0.1-0.2c0.1-0.4,0.2-0.9,0.3-1.4l0-0.1l0-0.1c-0.1-0.5-0.2-1-0.3-1.4c0-0.1,0-0.1-0.1-0.2c-0.1-0.2-0.2-0.4-0.6-0.6
			c0,0,0,0,0,0l-0.2-0.1l-1.2-0.4c0,0,0,0,0.1,0c0.5,0.2,0.8,0.5,0.8,0.7c0.1,0.2,0.1,0.4,0.2,0.6c0.1,0.4,0.2,0.9,0.3,1.4
			c-0.1,0.5-0.2,1-0.3,1.4C31.2,43.5,31.2,43.7,31.1,43.9"/>
		<path class="st32" d="M25.5,41.9L25.5,41.9v-0.1c-0.2-1.1-0.4-2.1-0.6-3c-0.2-0.6-0.4-1.2-0.6-1.6c-0.1-0.2-0.3-0.4-0.7-0.6
			c0,0-0.1,0-0.1,0c0,0,0,0,0,0c-0.1,0-0.2-0.1-0.3-0.1c-0.1,0-0.2-0.1-0.3-0.1c0,0,0,0,0,0c-0.2-0.1-0.4-0.1-0.6-0.2
			c0.7,0.2,0.9,0.7,0.9,0.7h0c0.2,0.5,0.4,1.1,0.6,1.8c0.3,0.9,0.5,2,0.6,3.1C24.2,43,24,44,23.7,45c-0.2,0.7-0.4,1.3-0.6,1.8h0
			c0,0-0.2,0.5-0.9,0.7c0.2-0.1,0.4-0.1,0.6-0.2c0,0,0,0,0,0c0.1,0,0.2-0.1,0.2-0.1c0.1,0,0.3-0.1,0.4-0.1c0,0,0,0,0,0
			c0,0,0.1,0,0.1,0c0.4-0.1,0.6-0.4,0.7-0.6c0.2-0.4,0.4-1,0.6-1.6C25.1,44,25.3,43,25.5,41.9"/>
		<path class="st32" d="M53.3,36.3C53.3,36.3,53.3,36.3,53.3,36.3C53.3,36.2,53.3,36.2,53.3,36.3C53.3,36.2,53.3,36.2,53.3,36.3"/>
		<path class="st32" d="M53.3,47.4C53.3,47.4,53.3,47.4,53.3,47.4C53.3,47.4,53.3,47.4,53.3,47.4C53.3,47.4,53.3,47.4,53.3,47.4"/>
		<path class="st32" d="M41.7,40.8c0.1-0.1,0.2-0.4,0.7-0.6c0,0,0,0,0.1,0l-0.9,0.3c-0.9,0.3-1.4,0.6-1.6,1c0,0,0,0,0,0
			c0,0.1,0,0.1,0,0.2c0,0,0,0,0,0.1c0,0,0,0,0,0v0v0c0,0,0,0,0,0c0,0,0,0,0,0c0,0,0,0,0,0.1c0,0,0,0,0,0c0.1,0.5,0.5,0.9,1.6,1.2
			l0,0l0.1,0l0.8,0.3c0,0,0,0,0,0c-0.4-0.2-0.6-0.5-0.7-0.6c0-0.1,0-0.1,0-0.2c-0.1-0.2-0.1-0.5-0.1-0.8c0-0.3,0.1-0.6,0.1-0.8
			C41.6,40.9,41.6,40.8,41.7,40.8"/>
		<path class="st32" d="M62.6,39.1c-0.3,0.3-0.5,0.7-0.7,1.3c-0.1,0.4-0.3,0.9-0.3,1.4l0,0.1l0,0c0.1,0.5,0.2,1,0.3,1.4
			c0.2,0.5,0.4,1,0.7,1.3c0.1,0.1,0.3,0.1,0.4,0.1c0.1-0.1,0.2-0.2,0.3-0.2h0c0,0,0.1,0,0.1-0.1c0,0,0,0,0,0
			c0.1-0.1,0.2-0.1,0.2-0.2c-0.1,0.1-0.3,0.1-0.4,0c-0.1-0.2-0.2-0.5-0.3-0.8c-0.1-0.4-0.2-0.9-0.3-1.5c0.1-0.5,0.2-1,0.3-1.5
			c0.1-0.3,0.2-0.6,0.3-0.8c0.1-0.1,0.2-0.2,0.4,0c-0.1-0.1-0.2-0.1-0.2-0.2c0,0,0,0,0,0c0,0-0.1-0.1-0.1-0.1c0,0,0,0,0,0
			c-0.1-0.1-0.2-0.2-0.3-0.2C62.9,39,62.8,38.9,62.6,39.1"/>
		<path class="st32" d="M52.3,36.9L52.3,36.9c0,0,0.2-0.5,0.9-0.7c-0.2,0-0.4,0.1-0.6,0.2v0c-0.1,0-0.2,0.1-0.3,0.1
			c-0.1,0-0.2,0.1-0.3,0.1l0,0c0,0-0.1,0-0.1,0c-0.4,0.1-0.6,0.4-0.7,0.6c-0.2,0.4-0.4,1-0.6,1.6c-0.3,0.9-0.5,1.9-0.6,3l0,0.1
			l0,0.1c0.1,1.1,0.4,2.1,0.6,3c0.2,0.6,0.4,1.2,0.6,1.6c0.1,0.2,0.3,0.4,0.7,0.6c0,0,0.1,0,0.1,0v0c0.1,0,0.2,0.1,0.4,0.1
			c0.1,0,0.2,0.1,0.2,0.1v0c0.2,0.1,0.4,0.1,0.6,0.2c-0.7-0.2-0.9-0.7-0.9-0.7l0,0c-0.2-0.5-0.4-1.1-0.6-1.8c-0.3-0.9-0.5-2-0.6-3.1
			c0.1-1.1,0.4-2.2,0.6-3.1C51.9,38,52.1,37.4,52.3,36.9"/>
		<polygon class="st32" points="43.8,39.6 43.9,39.6 43.9,39.6 		"/>
		<path class="st32" d="M54.9,36.4c0.1-0.2,0.3-0.4,0.7-0.4c0.1,0,0.1,0,0.1,0c-0.2,0-0.4,0-0.6,0c0,0,0,0,0,0c-0.1,0-0.3,0-0.4,0
			c0,0,0,0,0,0v0c-0.1,0-0.2,0-0.2,0c-0.3,0-0.5,0.2-0.6,0.4c-0.4,0.6-0.7,1.3-0.9,2.2c-0.3,1-0.5,2-0.7,3.2l0,0.1l0,0.1
			c0.2,1.1,0.4,2.2,0.7,3.2c0.3,0.9,0.6,1.6,0.9,2.2c0.1,0.1,0.3,0.3,0.6,0.4c0.1,0,0.2,0,0.2,0v0c0,0,0,0,0,0c0.1,0,0.3,0,0.4,0
			l0,0c0.2,0,0.4,0,0.6,0c0,0-0.1,0-0.1,0c-0.4,0-0.6-0.2-0.7-0.4c-0.3-0.5-0.5-1.2-0.8-2.1c-0.3-1-0.5-2.1-0.7-3.4
			c0.2-1.2,0.4-2.4,0.7-3.4C54.4,37.6,54.7,36.9,54.9,36.4"/>
		<path class="st32" d="M61.4,37.8c-0.1,0-0.1-0.1-0.2-0.1c0,0,0,0,0,0c0,0,0,0-0.1,0c-0.2-0.1-0.4,0-0.5,0.1c-0.4,0.4-0.7,1-1,1.9
			c-0.2,0.7-0.4,1.4-0.5,2.2l0,0.1l0,0c0.1,0.8,0.3,1.5,0.5,2.2c0.3,0.8,0.6,1.4,1,1.9c0.1,0.1,0.2,0.2,0.5,0.1c0,0,0,0,0.1,0v0
			c0,0,0.1,0,0.1-0.1c0.1,0,0.1-0.1,0.2-0.1c0,0,0,0,0,0c0.1-0.1,0.3-0.2,0.4-0.3c-0.2,0.1-0.4,0.2-0.6,0c-0.2-0.3-0.4-0.8-0.5-1.3
			c-0.2-0.7-0.4-1.4-0.5-2.3c0.1-0.8,0.3-1.6,0.5-2.3v0c0.2-0.5,0.3-1,0.5-1.3c0.2-0.2,0.4-0.1,0.6,0c-0.1-0.1-0.3-0.2-0.4-0.3v0
			C61.5,37.9,61.5,37.9,61.4,37.8"/>
		<path class="st32" d="M44.3,39.8c0.1-0.1,0.3-0.5,0.8-0.7c0,0,0.1,0,0.1,0l-1.2,0.4l-0.1,0.1c0,0,0,0,0,0
			c-0.3,0.1-0.5,0.4-0.6,0.6c0,0.1,0,0.1-0.1,0.2c-0.1,0.4-0.2,0.9-0.3,1.4l0,0.1l0,0.1c0.1,0.5,0.2,1,0.3,1.4c0,0.1,0,0.1,0.1,0.2
			c0.1,0.2,0.2,0.4,0.6,0.6l0.6,0.2l0.7,0.3c0,0,0,0,0,0c-0.5-0.2-0.8-0.5-0.8-0.7c-0.1-0.2-0.1-0.4-0.2-0.6
			c-0.1-0.4-0.2-0.9-0.3-1.4c0.1-0.5,0.2-1,0.3-1.4C44.2,40.2,44.3,40,44.3,39.8"/>
		<path class="st32" d="M47.2,38.4l-0.6,0.2c0,0,0,0,0,0c-0.4,0.2-0.6,0.5-0.7,0.7c0,0.1-0.1,0.3-0.1,0.5c-0.2,0.6-0.3,1.3-0.4,2
			l0,0.1l0,0.1c0.1,0.7,0.2,1.4,0.4,2c0,0.2,0.1,0.3,0.1,0.5c0.1,0.2,0.3,0.6,0.7,0.7c0,0,0,0,0,0l0.2,0.1l1.1,0.4c0,0-0.1,0-0.1,0
			c-0.5-0.2-0.7-0.5-0.8-0.7c-0.1-0.3-0.2-0.6-0.3-1c-0.2-0.6-0.3-1.3-0.4-2c0.1-0.7,0.2-1.4,0.4-2c0.1-0.4,0.2-0.7,0.3-0.9
			c0.1-0.2,0.3-0.5,0.8-0.7c0.1,0,0.1,0,0.1,0L47.2,38.4L47.2,38.4z"/>
		<path class="st32" d="M49.1,37.6c-0.4,0.2-0.6,0.4-0.6,0.6c-0.1,0.3-0.2,0.7-0.4,1c-0.2,0.8-0.4,1.6-0.5,2.5l0,0.1l0,0.1
			c0.1,0.9,0.3,1.7,0.5,2.5c0.1,0.4,0.2,0.7,0.4,1c0.1,0.2,0.3,0.4,0.6,0.6l0.5,0.2l0.7,0.3c0,0,0,0,0.1,0c0,0,0.1,0,0.1,0
			c-0.5-0.2-0.7-0.6-0.8-0.7c-0.2-0.4-0.3-0.8-0.4-1.3c-0.2-0.8-0.4-1.7-0.5-2.6c0.1-0.9,0.3-1.8,0.5-2.6c0.1-0.5,0.3-0.9,0.4-1.3
			c0.1-0.2,0.3-0.6,0.8-0.8c0,0,0,0,0,0c0,0-0.1,0-0.1,0c0,0,0,0-0.1,0l-0.4,0.1L49.1,37.6z"/>
		<path class="st32" d="M65.1,41.2C65.1,41.2,65.1,41.2,65.1,41.2c0-0.1-0.1-0.1-0.1-0.1c-0.3-0.4-0.7-0.8-1.1-1.2
			c0.1,0.2,0.1,0.3,0.2,0.5c0.5,1.4,0.1,2.7-0.1,3.2c0,0.1-0.1,0.2-0.1,0.3c0.5-0.5,0.9-0.9,1.2-1.3c0,0,0,0,0,0c0,0,0-0.1,0.1-0.1
			C65.3,42.2,65.4,41.7,65.1,41.2"/>
		<path class="st32" d="M56.9,41.8L56.9,41.8v0.1c0.2,1,0.4,1.9,0.6,2.8c0.3,1,0.7,1.7,1.1,2.3c0.1,0.1,0.3,0.2,0.5,0.1
			c0,0,0.1,0,0.1,0c0,0,0,0,0,0c0,0,0,0,0.1,0c0.1,0,0.2-0.1,0.3-0.1c0,0,0,0,0,0c0.1,0,0.2-0.1,0.3-0.1c-0.2,0.1-0.3,0.1-0.5-0.1
			c-0.3-0.5-0.5-1.1-0.7-1.9c-0.3-0.9-0.5-1.9-0.6-2.9c0.1-1.1,0.3-2.1,0.6-2.9c0.2-0.8,0.5-1.4,0.7-1.9c0.1-0.2,0.3-0.2,0.5-0.1
			c-0.1-0.1-0.2-0.1-0.3-0.2c0,0,0,0,0,0c-0.1,0-0.2-0.1-0.3-0.1c0,0,0,0-0.1,0v0c0,0-0.1,0-0.1,0c-0.3-0.1-0.4,0-0.5,0.1
			c-0.4,0.5-0.8,1.3-1.1,2.3C57.3,39.9,57.1,40.8,56.9,41.8"/>
		<path class="st32" d="M57.5,36.2c0,0-0.1,0-0.1,0c0,0-0.1,0-0.1,0c0,0,0,0,0,0c-0.1,0-0.2,0-0.3,0c-0.3,0-0.5,0.1-0.6,0.2
			c-0.4,0.6-0.8,1.4-1.1,2.4c-0.3,0.9-0.5,2-0.7,3.1l0,0.1l0,0.1c0.2,1.1,0.4,2.2,0.7,3.1c0.3,1,0.7,1.8,1.1,2.4
			c0.1,0.1,0.3,0.3,0.6,0.2c0.1,0,0.2,0,0.3,0c0,0,0,0,0,0c0,0,0.1,0,0.1,0c0,0,0.1,0,0.1,0c0,0,0,0,0,0c0.1,0,0.3,0,0.4-0.1
			c-0.3,0.1-0.5-0.1-0.6-0.2c-0.3-0.5-0.6-1.2-0.8-2.1c-0.3-1-0.5-2.1-0.7-3.3c0.2-1.2,0.4-2.3,0.7-3.3c0.2-0.9,0.5-1.6,0.8-2.1
			c0.1-0.2,0.2-0.3,0.6-0.2C57.8,36.2,57.6,36.2,57.5,36.2C57.5,36.2,57.5,36.2,57.5,36.2"/>
		<path class="st32" d="M32,54.1C32.1,54.1,32.1,54.1,32,54.1c0.1-0.1,0.1-0.1,0.1-0.1l0.3-0.7l0.2-0.4c0.2-0.4,0.1-0.7,0-0.9
			c-0.1-0.3-0.3-0.6-0.5-1c-0.4-0.7-0.9-1.4-1.4-2.1l0,0l0,0c-0.7-0.5-1.4-1-2.1-1.4c-0.4-0.2-0.7-0.4-1-0.5c-0.2-0.1-0.5-0.1-0.9,0
			L26,47.3l-0.4,0.2c0,0,0,0,0,0c0,0-0.1,0-0.1,0.1c0,0,0,0,0,0c0.5-0.2,1-0.1,1.1,0c0.4,0.1,0.8,0.4,1.2,0.6
			c0.7,0.4,1.4,0.9,2.2,1.5c0.6,0.8,1.1,1.5,1.5,2.2c0.3,0.5,0.5,0.9,0.6,1.3C32.2,53.2,32.3,53.7,32,54.1"/>
		<path class="st32" d="M34.2,43.9c0.1,0,0.1,0.1,0.2,0.1c0.2,0.1,0.5,0.3,0.7,0.5c0.2,0.2,0.4,0.5,0.5,0.7c0,0.1,0.1,0.1,0.1,0.2
			c0.1,0.1,0.1,0.4,0,0.9c0,0,0,0,0,0l0.3-0.7l0-0.1l0,0c0.5-1,0.6-1.7,0.3-2c0,0,0,0,0,0c0,0,0,0,0,0c0,0,0,0,0,0c0,0,0,0,0,0
			c0,0,0,0,0,0c0,0,0,0,0,0c0,0,0,0,0,0c0,0,0,0,0,0c0,0-0.1-0.1-0.2-0.1c0,0,0,0,0,0c-0.4-0.1-1,0-1.8,0.4l-0.8,0.4c0,0,0,0,0.1,0
			C33.8,43.7,34.1,43.8,34.2,43.9"/>
		<path class="st32" d="M31.6,45.1c0.2,0.1,0.4,0.2,0.6,0.3v0c0.4,0.2,0.8,0.5,1.2,0.8c0.3,0.4,0.6,0.8,0.8,1.2
			c0.1,0.2,0.2,0.4,0.3,0.6c0,0.1,0.1,0.5-0.1,1.1c0,0,0,0,0,0l0.3-0.7l0.3-0.6c0.1-0.3,0.1-0.6,0-0.8c0-0.1-0.1-0.1-0.1-0.2
			c-0.2-0.4-0.5-0.8-0.8-1.2l0,0l0,0c-0.4-0.3-0.8-0.6-1.2-0.8c-0.1,0-0.1-0.1-0.2-0.1c-0.2-0.1-0.5-0.1-0.8,0c0,0,0,0,0,0l-0.2,0.1
			l-1.1,0.5c0,0,0,0,0.1,0C31.1,44.9,31.5,45,31.6,45.1"/>
		<path class="st32" d="M31.8,44.6C31.8,44.6,31.8,44.6,31.8,44.6l0.2-0.1L31.8,44.6z"/>
		<path class="st32" d="M24.4,61c0-0.6-0.3-1.2-0.6-2c-0.3-0.6-0.7-1.3-1.2-1.9l0,0l0,0c-0.6-0.5-1.3-0.9-1.9-1.2
			c-0.8-0.4-1.4-0.6-2-0.6c-0.1,0-0.3,0-0.4,0.3c0,0,0,0,0,0.1h0c0,0.1,0,0.1,0,0.2c0,0.1,0,0.1,0,0.1c0,0,0,0,0,0
			c0,0.2-0.1,0.4-0.1,0.5c0.1-0.2,0.1-0.5,0.4-0.5c0.4,0.1,0.8,0.3,1.3,0.6c0.6,0.3,1.3,0.8,1.9,1.3c0.5,0.7,0.9,1.3,1.3,1.9
			c0.3,0.5,0.5,0.9,0.6,1.3c0,0.3-0.2,0.4-0.4,0.4c0.2,0,0.4-0.1,0.5-0.1c0,0,0,0,0,0c0.1,0,0.2,0,0.2-0.1c0,0,0.1,0,0.1,0
			c0,0,0,0,0,0c0,0,0,0,0.1,0C24.3,61.3,24.3,61.1,24.4,61"/>
		<path class="st32" d="M18,59.4c-0.1-0.2-0.1-0.3-0.2-0.5c0,0.6,0,1.2,0.1,1.7c0,0,0,0,0,0.1c0,0,0,0,0,0.1
			c0.1,0.6,0.6,0.8,0.8,0.9c0,0,0.1,0,0.1,0h0c0.5,0.1,1.1,0.1,1.7,0.1c-0.1,0-0.2-0.1-0.3-0.1C19.8,61.4,18.7,60.7,18,59.4"/>
		<path class="st32" d="M25.5,61c0.1,0,0.2-0.1,0.3-0.1c0,0,0,0,0,0c0.1,0,0.2-0.1,0.3-0.1c0,0,0,0,0.1,0v0c0,0,0.1,0,0.1,0
			c0.2-0.1,0.3-0.3,0.3-0.5c-0.1-0.7-0.3-1.5-0.8-2.4c-0.4-0.8-0.9-1.6-1.5-2.4l0,0l0,0c-0.8-0.6-1.6-1.1-2.4-1.5
			c-0.9-0.5-1.7-0.7-2.4-0.8c-0.1,0-0.4,0-0.5,0.3c0,0,0,0.1,0,0.1c0,0,0,0,0,0.1c0,0.1-0.1,0.2-0.1,0.3c0,0,0,0,0,0
			c0,0.1-0.1,0.2-0.1,0.3c0.1-0.2,0.2-0.3,0.4-0.3c0.5,0.1,1.1,0.4,1.8,0.8c0.8,0.4,1.6,1,2.5,1.6c0.6,0.9,1.2,1.7,1.6,2.5
			c0.4,0.7,0.6,1.3,0.8,1.8C25.8,60.8,25.6,60.9,25.5,61"/>
		<path class="st32" d="M20.9,58.8L20.9,58.8L20.9,58.8c-0.5-0.4-0.9-0.6-1.3-0.8c-0.5-0.3-1-0.4-1.4-0.4c-0.2,0-0.3,0.1-0.3,0.2
			c0,0.1,0,0.2,0,0.4c0,0,0,0.1,0,0.1v0c0,0.1,0,0.2,0,0.3c0-0.2,0.1-0.3,0.3-0.2c0.2,0.1,0.5,0.2,0.8,0.3c0.4,0.2,0.8,0.5,1.3,0.8
			c0.3,0.4,0.6,0.9,0.8,1.3c0.2,0.3,0.3,0.6,0.3,0.8c0,0.2-0.1,0.3-0.2,0.3c0.1,0,0.2,0,0.3,0h0c0,0,0.1,0,0.1,0v0
			c0.1,0,0.2,0,0.4,0c0.1,0,0.2-0.1,0.2-0.3c0-0.4-0.2-0.8-0.4-1.4C21.5,59.6,21.2,59.2,20.9,58.8"/>
		<polyline class="st32" points="18.5,54.2 18.5,54.2 18.5,54.2 18.5,54.2 		"/>
		<path class="st32" d="M28.4,58.9c-0.1-0.7-0.4-1.5-0.9-2.5c-0.5-0.9-1-1.8-1.7-2.7l0,0l0,0c-0.9-0.7-1.8-1.3-2.7-1.7
			c-0.9-0.5-1.7-0.8-2.4-0.9c-0.1,0-0.4,0-0.6,0.2c-0.1,0.1-0.1,0.2-0.2,0.3c0,0,0,0,0,0c0,0,0,0.1-0.1,0.1c0,0,0,0.1-0.1,0.1
			c0,0,0,0,0,0c-0.1,0.1-0.2,0.2-0.3,0.4c0.2-0.3,0.4-0.3,0.6-0.3c0.6,0.2,1.3,0.5,2,0.9c0.9,0.5,1.8,1.1,2.8,1.9
			c0.7,1,1.4,1.9,1.9,2.8c0.4,0.8,0.7,1.5,0.9,2.1c0,0.2,0,0.4-0.3,0.6c0.1-0.1,0.2-0.2,0.4-0.2v0c0,0,0.1,0,0.1-0.1
			c0,0,0.1,0,0.1-0.1v0c0.1-0.1,0.2-0.1,0.3-0.2C28.4,59.3,28.5,59.1,28.4,58.9"/>
		<path class="st32" d="M30.1,57.1c-0.2-0.6-0.5-1.4-0.9-2.2c-0.5-0.9-1.1-1.8-1.8-2.7l0,0l0,0c-0.9-0.7-1.8-1.3-2.7-1.8
			c-0.8-0.4-1.6-0.7-2.2-0.9c-0.2,0-0.4,0-0.7,0.2c-0.1,0.1-0.1,0.1-0.2,0.2l0,0c0,0,0,0,0,0c-0.1,0.1-0.2,0.2-0.3,0.3h0
			c-0.1,0.1-0.3,0.3-0.4,0.4c0,0,0,0,0.1-0.1c0.3-0.3,0.6-0.3,0.8-0.2c0.6,0.2,1.2,0.5,2,0.9c0.9,0.5,1.9,1.2,2.9,1.9
			c0.8,1,1.4,1.9,1.9,2.9c0.4,0.8,0.7,1.5,0.9,2c0.1,0.2,0.1,0.5-0.2,0.8c0,0-0.1,0.1-0.1,0.1c0.1-0.1,0.3-0.3,0.4-0.4c0,0,0,0,0,0
			c0.1-0.1,0.2-0.2,0.3-0.3c0,0,0,0,0,0v0c0.1-0.1,0.1-0.1,0.2-0.2C30.2,57.6,30.2,57.3,30.1,57.1"/>
		<path class="st32" d="M31.5,54.6c-0.2-0.5-0.4-1-0.7-1.6c-0.4-0.8-1-1.7-1.7-2.5l0,0l0,0c-0.9-0.6-1.7-1.2-2.5-1.7
			c-0.6-0.3-1.1-0.5-1.6-0.7C24.7,48,24.4,48,24,48.2c0,0-0.1,0-0.1,0.1v0c-0.1,0.1-0.2,0.1-0.3,0.2c-0.1,0-0.2,0.1-0.3,0.1h0
			c-0.2,0.1-0.4,0.2-0.6,0.3c0.6-0.4,1.1-0.2,1.1-0.2v0c0.5,0.2,1,0.4,1.7,0.8c0.8,0.5,1.7,1.1,2.6,1.8c0.7,0.9,1.3,1.8,1.8,2.6
			c0.4,0.6,0.6,1.2,0.8,1.7h0c0,0,0.2,0.5-0.1,1.1c0.1-0.2,0.2-0.4,0.3-0.6c0,0,0,0,0,0c0-0.1,0.1-0.2,0.1-0.2
			c0.1-0.1,0.1-0.2,0.2-0.3c0,0,0,0,0,0c0,0,0-0.1,0.1-0.1C31.6,55.2,31.5,54.8,31.5,54.6"/>
		<path class="st32" d="M30.7,56.8C30.7,56.8,30.7,56.8,30.7,56.8C30.7,56.8,30.7,56.8,30.7,56.8C30.7,56.8,30.7,56.8,30.7,56.8"/>
		<path class="st32" d="M22.8,48.9C22.8,48.9,22.8,48.9,22.8,48.9C22.8,48.9,22.8,48.9,22.8,48.9C22.8,48.9,22.8,48.9,22.8,48.9"/>
		<path class="st32" d="M29.1,46.3c0.3,0.1,0.6,0.3,0.9,0.5c0.5,0.3,1.1,0.7,1.7,1.2c0.5,0.6,0.9,1.2,1.2,1.7
			c0.2,0.3,0.3,0.6,0.5,0.9c0.1,0.2,0.2,0.6-0.1,1.1c0,0,0,0.1,0,0.1l0.5-1.1l0.1-0.2c0,0,0,0,0,0c0.2-0.4,0.1-0.8,0-1
			c-0.1-0.1-0.1-0.3-0.2-0.4c-0.3-0.5-0.7-1.1-1.1-1.7l0,0l0,0c-0.6-0.4-1.1-0.8-1.7-1.1c-0.1-0.1-0.3-0.2-0.4-0.2
			c-0.2-0.1-0.6-0.2-1,0c0,0,0,0,0,0l-0.6,0.3l-0.7,0.3c0,0,0.1,0,0.1,0C28.5,46.1,28.9,46.2,29.1,46.3"/>
		<path class="st32" d="M44,29.1c0.2,0.5,0.4,1,0.7,1.6c0.4,0.8,1,1.7,1.7,2.5l0,0l0,0c0.9,0.6,1.7,1.2,2.5,1.7
			c0.6,0.3,1.1,0.5,1.6,0.7c0.2,0.1,0.5,0.1,0.9-0.1c0,0,0.1,0,0.1-0.1v0c0.1-0.1,0.2-0.1,0.3-0.2c0.1,0,0.2-0.1,0.2-0.1l0,0
			c0.2-0.1,0.4-0.2,0.6-0.3c-0.6,0.4-1.1,0.2-1.1,0.2c-0.5-0.2-1-0.4-1.7-0.8c-0.8-0.5-1.7-1.1-2.6-1.8c-0.7-0.9-1.3-1.8-1.8-2.6
			c-0.4-0.6-0.6-1.2-0.8-1.7c0,0-0.2-0.5,0.2-1.1c-0.1,0.2-0.2,0.4-0.3,0.6v0c0,0.1-0.1,0.2-0.1,0.3c-0.1,0.1-0.1,0.2-0.2,0.3
			c0,0,0,0.1-0.1,0.1C43.9,28.5,43.9,28.8,44,29.1"/>
		<path class="st32" d="M55.4,31.8c-0.6-0.2-1.3-0.5-2-0.9c-0.9-0.5-1.8-1.1-2.8-1.9c-0.7-1-1.4-1.9-1.9-2.8c-0.4-0.8-0.7-1.5-0.9-2
			c0-0.2,0-0.4,0.3-0.6c-0.1,0.1-0.2,0.2-0.4,0.2c0,0,0,0,0,0c0,0-0.1,0-0.1,0.1c0,0-0.1,0-0.1,0.1c0,0,0,0,0,0
			c-0.1,0.1-0.2,0.1-0.3,0.2C47,24.4,47,24.6,47,24.7c0.1,0.7,0.4,1.5,0.9,2.4c0.5,0.9,1,1.8,1.7,2.7l0,0l0,0
			c0.9,0.7,1.8,1.3,2.7,1.7c0.9,0.5,1.8,0.8,2.5,0.9c0.1,0,0.4,0,0.6-0.2c0.1-0.1,0.1-0.2,0.2-0.3c0,0,0,0,0,0c0,0,0-0.1,0.1-0.1
			c0,0,0-0.1,0.1-0.1c0,0,0,0,0,0c0.1-0.1,0.2-0.2,0.2-0.4C55.8,31.8,55.6,31.8,55.4,31.8"/>
		<path class="st32" d="M51.1,22.7c0,0.6,0.3,1.2,0.6,2c0.3,0.6,0.7,1.3,1.2,1.9l0,0l0,0c0.6,0.5,1.3,0.9,1.9,1.2
			c0.8,0.4,1.4,0.6,2,0.6c0.1,0,0.3,0,0.4-0.3c0,0,0,0,0-0.1h0c0,0,0-0.1,0-0.1c0-0.1,0-0.2,0.1-0.2c0,0,0,0,0,0
			c0-0.2,0.1-0.4,0.1-0.5c-0.1,0.2-0.1,0.5-0.4,0.4c-0.4-0.1-0.8-0.3-1.3-0.6c-0.6-0.3-1.3-0.8-1.9-1.3c-0.5-0.7-0.9-1.3-1.3-1.9v0
			c-0.3-0.5-0.5-0.9-0.6-1.3c0-0.3,0.2-0.4,0.5-0.4c-0.2,0-0.4,0.1-0.5,0.1c0,0,0,0,0,0c0,0-0.1,0-0.2,0c-0.1,0-0.1,0-0.2,0
			c0,0,0,0,0,0c0,0,0,0-0.1,0C51.1,22.4,51.1,22.6,51.1,22.7"/>
		<path class="st32" d="M43.8,38.6c-0.2-0.1-0.4-0.2-0.6-0.3c-0.4-0.2-0.8-0.5-1.2-0.8c-0.3-0.4-0.6-0.8-0.8-1.2v0
			c-0.1-0.2-0.2-0.4-0.3-0.6c-0.1-0.1-0.1-0.5,0.1-1.1c0,0,0-0.1,0-0.1l-0.5,1.1l-0.1,0.1c0,0,0,0,0,0c-0.1,0.3-0.1,0.6,0,0.8
			c0,0.1,0.1,0.1,0.1,0.2c0.2,0.4,0.5,0.8,0.8,1.2l0,0l0,0c0.4,0.3,0.8,0.6,1.2,0.8c0.1,0,0.1,0.1,0.2,0.1c0.2,0.1,0.5,0.1,0.8,0
			l0.6-0.3l0.7-0.3c0,0,0,0,0,0C44.4,38.7,44,38.6,43.8,38.6"/>
		<path class="st32" d="M54.6,24.9L54.6,24.9L54.6,24.9c0.5,0.4,0.9,0.6,1.3,0.8c0.5,0.3,1,0.4,1.4,0.4c0.2,0,0.3-0.1,0.3-0.2
			c0-0.1,0-0.2,0-0.4h0c0,0,0-0.1,0-0.1v0c0-0.1,0-0.2,0-0.3c0,0.2-0.1,0.3-0.3,0.2c-0.2-0.1-0.5-0.2-0.8-0.3
			c-0.4-0.2-0.8-0.5-1.3-0.8c-0.3-0.4-0.6-0.9-0.8-1.3c-0.2-0.3-0.3-0.6-0.3-0.8c0-0.2,0.1-0.3,0.2-0.3c-0.1,0-0.2,0-0.3,0h0
			c0,0-0.1,0-0.1,0v0c-0.1,0-0.2,0-0.4,0c-0.1,0-0.2,0.1-0.2,0.3c0,0.4,0.2,0.8,0.4,1.4C54,24.1,54.3,24.5,54.6,24.9"/>
		<path class="st32" d="M41.2,39.8c-0.1,0-0.1-0.1-0.2-0.1c-0.2-0.1-0.5-0.3-0.7-0.5c-0.2-0.2-0.4-0.5-0.5-0.7
			c0-0.1-0.1-0.1-0.1-0.2c-0.1-0.1-0.1-0.4,0-0.9c0,0,0,0,0-0.1l-0.4,0.8l0,0C39,39.1,38.9,39.6,39,40c0,0,0,0,0,0
			c0,0.1,0.1,0.1,0.1,0.2c0,0,0,0,0,0c0,0,0,0,0,0c0,0,0,0,0,0c0,0,0,0,0,0c0,0,0,0,0,0c0,0,0,0,0,0c0,0,0,0,0,0c0,0,0,0,0,0
			c0.4,0.3,1,0.2,2-0.3h0l0.1,0l0.7-0.3c0,0,0,0,0,0C41.7,39.9,41.4,39.9,41.2,39.8"/>
		<polygon class="st32" points="40.4,36 40.5,35.9 40.5,35.9 		"/>
		<path class="st32" d="M57.5,24.5c0,0.1,0.1,0.2,0.1,0.3c0-0.6,0-1.2-0.1-1.7v0c0,0,0-0.1,0-0.1c-0.1-0.3-0.3-0.7-0.9-0.8
			c0,0,0,0-0.1,0c0,0,0,0-0.1,0c-0.5-0.1-1.1-0.1-1.7-0.1c0.2,0.1,0.3,0.1,0.5,0.2C56.6,22.8,57.3,24,57.5,24.5"/>
		<path class="st32" d="M52.7,34.8C52.7,34.8,52.7,34.8,52.7,34.8C52.6,34.8,52.7,34.8,52.7,34.8C52.7,34.8,52.7,34.8,52.7,34.8"/>
		<path class="st32" d="M44.8,26.9C44.8,26.9,44.8,26.9,44.8,26.9C44.8,26.9,44.8,26.9,44.8,26.9C44.8,26.9,44.8,26.9,44.8,26.9"/>
		<path class="st32" d="M45.3,26.5c0.2,0.6,0.5,1.4,0.9,2.2c0.5,0.9,1.1,1.8,1.8,2.7l0,0l0,0c0.9,0.7,1.8,1.3,2.7,1.8
			c0.8,0.4,1.6,0.7,2.2,0.9c0.2,0,0.4,0,0.7-0.2c0.1,0,0.1-0.1,0.2-0.2l0,0c0,0,0,0,0,0c0.1-0.1,0.2-0.2,0.3-0.3h0
			c0.1-0.1,0.3-0.3,0.4-0.4c0,0,0,0-0.1,0.1c-0.3,0.3-0.5,0.3-0.8,0.2c-0.6-0.2-1.2-0.5-2-0.9c-0.9-0.5-1.9-1.2-2.9-1.9
			c-0.7-1-1.4-1.9-1.9-2.9c-0.4-0.8-0.7-1.4-0.9-2C46,25.6,46,25.3,46.3,25c0,0,0.1-0.1,0.1-0.1c-0.1,0.1-0.3,0.3-0.4,0.4v0
			c-0.1,0.1-0.2,0.2-0.3,0.3c0,0,0,0,0,0c-0.1,0.1-0.1,0.1-0.2,0.2C45.3,26.1,45.3,26.4,45.3,26.5"/>
		<path class="st32" d="M50,22.7c-0.1,0-0.2,0.1-0.3,0.1c0,0,0,0,0,0c-0.1,0-0.2,0.1-0.3,0.1c0,0,0,0-0.1,0v0c0,0-0.1,0-0.1,0
			c-0.3,0.1-0.3,0.3-0.3,0.5c0.1,0.7,0.4,1.5,0.8,2.4c0.4,0.8,0.9,1.6,1.5,2.4l0,0l0,0c0.8,0.6,1.6,1.1,2.4,1.5
			c0.9,0.5,1.7,0.7,2.4,0.8c0.1,0,0.3,0,0.5-0.3c0,0,0-0.1,0-0.1h0c0,0,0,0,0-0.1c0-0.1,0.1-0.2,0.1-0.3c0,0,0,0,0,0
			c0-0.1,0.1-0.2,0.1-0.3c-0.1,0.2-0.2,0.3-0.4,0.3c-0.5-0.1-1.1-0.4-1.8-0.8c-0.8-0.4-1.6-1-2.5-1.6c-0.6-0.9-1.2-1.7-1.6-2.5
			c-0.4-0.7-0.6-1.3-0.8-1.8C49.7,22.8,49.8,22.7,50,22.7"/>
		<path class="st32" d="M43.4,29.5C43.4,29.5,43.4,29.5,43.4,29.5C43.4,29.6,43.4,29.6,43.4,29.5c-0.1,0.1-0.1,0.1-0.1,0.1l-0.2,0.4
			l-0.3,0.7c-0.2,0.4-0.1,0.7,0,0.9c0.1,0.3,0.3,0.6,0.5,1c0.4,0.7,0.9,1.4,1.4,2.1l0,0l0,0c0.7,0.5,1.4,1,2.1,1.4
			c0.4,0.2,0.7,0.4,1,0.5c0.2,0.1,0.5,0.1,0.9,0l0.4-0.2l0.7-0.3c0,0,0,0,0.1,0c0,0,0.1,0,0.1,0c-0.5,0.2-0.9,0.1-1.1,0
			c-0.4-0.1-0.8-0.4-1.3-0.6c-0.7-0.4-1.4-0.9-2.2-1.5c-0.6-0.8-1.1-1.5-1.5-2.2c-0.3-0.5-0.5-0.9-0.6-1.2
			C43.3,30.5,43.2,30.1,43.4,29.5"/>
		<path class="st32" d="M46.4,37.4c-0.3-0.1-0.6-0.3-0.9-0.5c-0.5-0.3-1.1-0.7-1.7-1.2c-0.5-0.6-0.9-1.2-1.2-1.7
			c-0.2-0.3-0.3-0.6-0.5-0.9c-0.1-0.2-0.2-0.6,0.1-1.1c0-0.1,0-0.1,0-0.1L42,32.7l-0.3,0.6c0,0,0,0,0,0c-0.2,0.4-0.1,0.8,0,1
			c0.1,0.1,0.1,0.3,0.2,0.4c0.3,0.5,0.7,1.1,1.1,1.7l0,0l0,0c0.6,0.4,1.1,0.8,1.7,1.1c0.1,0.1,0.3,0.2,0.4,0.2c0.2,0.1,0.6,0.2,1,0
			c0,0,0,0,0,0l0.2-0.1l1.1-0.5c0,0-0.1,0-0.1,0C47,37.6,46.6,37.5,46.4,37.4"/>
		<path class="st32" d="M44.2,16.6c1.2,0,2.5,0.2,3.8,0.5c1.1,0.7,2.2,1.5,3,2.4c0.9,0.9,1.6,1.7,2,2.5c-0.1-1.1-0.7-2.3-1.9-3.6
			c-0.7-0.8-1.6-1.6-2.7-2.3c-1.2-0.2-2.4-0.3-3.5-0.3c-1.8,0.1-3.1,0.5-3.9,1.1C41.8,16.7,42.9,16.6,44.2,16.6"/>
		<path class="st32" d="M49,19.7c-0.4-0.4-1-0.7-1.5-1.1l0,0l-0.1,0c-0.6-0.2-1.3-0.3-1.8-0.3c-0.2,0-0.4,0-0.6,0
			c-0.6,0.1-1.3,0.4-1.3,0.9l0,0c0.2,0,0.4,0,0.6,0c0.3,0,0.5,0,0.9,0.1l0,0c0.6,0.1,1.2,0.2,1.9,0.4c0.6,0.4,1.1,0.7,1.6,1.1
			c0.5,0.4,0.8,0.8,1,1.1c0.4-0.4,0.2-1.1-0.2-1.6C49.3,20,49.1,19.9,49,19.7"/>
		<path class="st32" d="M31.3,67c-1.2,0-2.5-0.2-3.8-0.5c-1.1-0.7-2.2-1.5-3-2.4c-0.9-0.9-1.6-1.7-2-2.5c0.1,1.1,0.7,2.3,1.9,3.6
			c0.7,0.8,1.6,1.6,2.7,2.3c1.2,0.2,2.4,0.3,3.5,0.3c1.8-0.1,3.1-0.5,3.9-1.1C33.6,66.9,32.6,67,31.3,67"/>
		<path class="st32" d="M26.5,63.9c0.4,0.4,0.9,0.7,1.5,1.1l0,0l0.1,0c0.6,0.2,1.3,0.3,1.8,0.3c0.2,0,0.4,0,0.6,0
			c0.6-0.1,1.3-0.4,1.3-0.9l0,0c-0.2,0-0.4,0-0.6,0c-0.3,0-0.5,0-0.9-0.1l0,0c-0.6-0.1-1.2-0.2-1.9-0.4c-0.6-0.4-1.1-0.7-1.6-1.1
			c-0.5-0.4-0.8-0.8-1-1.1c-0.4,0.4-0.2,1.1,0.2,1.6C26.2,63.6,26.3,63.7,26.5,63.9"/>
		<path class="st32" d="M24.5,19.4c0.9-0.8,1.9-1.6,3.1-2.3c1.3-0.3,2.6-0.5,3.8-0.5c1.3,0,2.3,0.1,3.2,0.4
			c-0.8-0.7-2.1-1.1-3.9-1.2c-1.1,0-2.3,0-3.5,0.3c-1,0.7-1.9,1.5-2.7,2.3c-1.2,1.3-1.8,2.5-2,3.6C22.9,21.1,23.6,20.3,24.5,19.4"/>
		<path class="st32" d="M30.7,18.2c-0.2,0-0.4,0-0.6,0c-0.6,0-1.2,0.1-1.8,0.3l-0.1,0l0,0c-0.6,0.3-1.1,0.7-1.5,1.1
			c-0.2,0.1-0.3,0.3-0.5,0.4c-0.4,0.5-0.7,1.2-0.2,1.6l0,0c0.1-0.1,0.2-0.3,0.4-0.5c0.2-0.2,0.4-0.4,0.7-0.6c0.5-0.4,1-0.7,1.6-1
			c0.7-0.2,1.3-0.3,1.9-0.3c0.6-0.1,1.1,0,1.5,0C32,18.6,31.3,18.3,30.7,18.2"/>
		<path class="st32" d="M50.9,64.2c-0.9,0.8-1.9,1.6-3.1,2.3c-1.3,0.3-2.6,0.5-3.8,0.5c-1.3,0-2.3-0.1-3.2-0.4
			c0.8,0.7,2.1,1.1,3.9,1.2c1.1,0.1,2.3,0,3.5-0.3c1-0.7,1.9-1.5,2.7-2.3c1.2-1.3,1.8-2.5,2-3.6C52.6,62.4,51.9,63.3,50.9,64.2"/>
		<path class="st32" d="M44.7,65.4c0.2,0,0.4,0,0.6,0c0.6,0,1.2-0.1,1.8-0.3l0.1,0l0,0c0.6-0.3,1.1-0.7,1.5-1.1
			c0.2-0.1,0.3-0.3,0.5-0.4c0.4-0.5,0.7-1.2,0.2-1.6l0,0c-0.1,0.1-0.2,0.3-0.4,0.5c-0.2,0.2-0.4,0.4-0.7,0.6h0
			c-0.5,0.4-1,0.7-1.6,1.1c-0.7,0.2-1.3,0.3-1.9,0.3c-0.6,0.1-1.1,0-1.5,0C43.5,65,44.1,65.3,44.7,65.4"/>
		<path class="st32" d="M12.9,38.5c-0.3-0.8-0.4-1.9-0.3-3.2c0-1.2,0.2-2.5,0.5-3.8c0.7-1.1,1.5-2.2,2.4-3c0.9-0.9,1.7-1.6,2.5-2
			c-1.1,0.1-2.3,0.7-3.6,1.9c-0.8,0.7-1.6,1.6-2.3,2.7c-0.2,1.2-0.3,2.4-0.3,3.5C11.8,36.3,12.2,37.6,12.9,38.5"/>
		<path class="st32" d="M17.6,29.9c-0.4-0.4-1.1-0.2-1.6,0.2c-0.1,0.1-0.3,0.3-0.4,0.4c-0.4,0.4-0.7,1-1.1,1.5l0,0l0,0.1
			c-0.2,0.6-0.3,1.3-0.3,1.8c0,0.2,0,0.4,0,0.6c0.1,0.6,0.4,1.3,0.9,1.3l0,0c0-0.2,0-0.4,0-0.6c0-0.3,0-0.5,0.1-0.9l0,0
			c0.1-0.6,0.2-1.2,0.4-1.9c0.4-0.6,0.7-1.1,1.1-1.6C17,30.4,17.3,30.1,17.6,29.9"/>
		<path class="st32" d="M62.6,45.1c0.3,0.8,0.4,1.9,0.3,3.2c0,1.2-0.2,2.5-0.5,3.8c-0.7,1.1-1.5,2.2-2.4,3c-0.9,0.9-1.7,1.6-2.5,2
			c1.1-0.1,2.3-0.7,3.6-1.9c0.8-0.7,1.6-1.6,2.3-2.7c0.2-1.2,0.3-2.4,0.3-3.5C63.6,47.3,63.2,45.9,62.6,45.1"/>
		<path class="st32" d="M57.8,53.7c0.4,0.5,1.1,0.2,1.6-0.2c0.1-0.1,0.3-0.3,0.4-0.5c0.4-0.4,0.7-0.9,1.1-1.5l0,0l0-0.1
			c0.2-0.6,0.3-1.3,0.3-1.8c0-0.2,0-0.4,0-0.6c-0.1-0.6-0.4-1.3-0.9-1.3l0,0c0,0.2,0.1,0.4,0.1,0.6c0,0.3,0,0.5-0.1,0.9
			c-0.1,0.6-0.2,1.2-0.4,1.9c-0.4,0.6-0.7,1.1-1.1,1.6C58.5,53.1,58.1,53.5,57.8,53.7"/>
		<path class="st32" d="M15.4,55c-0.8-0.9-1.6-1.9-2.3-3.1c-0.3-1.3-0.5-2.6-0.5-3.8c0-1.3,0.1-2.3,0.4-3.2
			c-0.7,0.8-1.1,2.1-1.2,3.9c-0.1,1.1,0,2.3,0.2,3.5c0.7,1,1.5,1.9,2.3,2.7c1.3,1.2,2.5,1.8,3.6,2C17.1,56.6,16.2,56,15.4,55"/>
		<path class="st32" d="M14.5,51.3L14.5,51.3L14.5,51.3c0.4,0.7,0.7,1.2,1.1,1.6c0.1,0.2,0.3,0.3,0.4,0.5c0.5,0.4,1.2,0.7,1.6,0.2v0
			c-0.1-0.1-0.3-0.2-0.5-0.4c-0.2-0.2-0.4-0.4-0.6-0.7c-0.4-0.5-0.7-1-1.1-1.6c-0.2-0.7-0.3-1.3-0.3-1.9c-0.1-0.6,0-1.1,0-1.5
			c-0.6-0.1-0.9,0.6-1,1.2c0,0.2,0,0.4,0,0.6C14.2,50,14.3,50.6,14.5,51.3"/>
		<path class="st32" d="M61.2,28.5c-1.3-1.2-2.5-1.8-3.6-2c0.8,0.4,1.6,1.1,2.5,2c0.8,0.9,1.6,1.9,2.3,3.1c0.3,1.3,0.5,2.6,0.5,3.8
			c0,1.3-0.1,2.3-0.4,3.2c0.7-0.8,1.1-2.1,1.2-3.9c0-1.1,0-2.3-0.3-3.5C62.8,30.2,62,29.3,61.2,28.5"/>
		<path class="st32" d="M61,32.3L61,32.3L61,32.3c-0.4-0.7-0.7-1.2-1.1-1.6c-0.1-0.2-0.3-0.3-0.4-0.5c-0.5-0.4-1.2-0.7-1.6-0.2l0,0
			c0.1,0.1,0.3,0.2,0.5,0.4c0.2,0.2,0.4,0.4,0.6,0.7v0c0.4,0.5,0.7,1,1.1,1.6c0.2,0.7,0.3,1.3,0.3,1.9c0.1,0.6,0,1.1,0,1.5
			c0.6,0.1,0.9-0.6,1-1.2c0-0.2,0-0.4,0-0.6C61.2,33.6,61.1,32.9,61,32.3"/>
	</g>
</g>
</svg>
