<?xml version="1.0" encoding="utf-8"?>
<!-- Generator: Adobe Illustrator 23.0.1, SVG Export Plug-In . SVG Version: 6.00 Build 0)  -->
<svg version="1.1" id="Isolation_Mode" xmlns="http://www.w3.org/2000/svg" xmlns:xlink="http://www.w3.org/1999/xlink" x="0px"
	 y="0px" viewBox="0 0 50 50" style="enable-background:new 0 0 50 50;" xml:space="preserve">
<style type="text/css">
	.st0{fill:url(#SVGID_1_);}
</style>
<linearGradient id="SVGID_1_" gradientUnits="userSpaceOnUse" x1="21.8583" y1="39.7575" x2="31.3458" y2="10.558">
	<stop  offset="0" style="stop-color:#8687C2"/>
	<stop  offset="1" style="stop-color:#8DD2CC"/>
</linearGradient>
<path class="st0" d="M4.4,24.4C1.8,25,0,27.5,0,30.3c0,1.5,0.5,2.4,1.7,2.9c1,0.4,2.5,0.4,4,0.4h5.9c0.4,0,0.8,0,1.2,0l0,0l0,0
	c-0.1-0.5-0.1-0.9-0.1-1.4c0-2.4,0.9-4.7,2.5-6.5l0,0l0,0c-0.7-0.6-1.5-1-2.3-1.2h-0.8c0,0.1-0.1,0.3-0.1,0.4
	c-0.4,1.1-1.7,3.1-2.5,4.3l-0.1-1.4c0.3-0.1,0.5-0.4,0.5-0.7c0-0.4-0.3-0.8-0.7-0.8H8.1c-0.4,0-0.7,0.3-0.7,0.8
	c0,0.4,0.2,0.7,0.5,0.7l-0.1,1.4C7,28,5.7,26,5.3,24.9c-0.1-0.1-0.1-0.3-0.1-0.4L4.4,24.4L4.4,24.4z M37.1,24.4
	c-0.9,0.2-1.7,0.6-2.3,1.2l0,0l0,0c1.6,1.8,2.5,4.1,2.5,6.5c0,0.5,0,0.9-0.1,1.4l0,0l0,0c0.4,0,0.8,0,1.2,0h5.9c1.5,0,3,0,4-0.4
	c1.1-0.5,1.7-1.4,1.7-2.9c0-2.8-1.9-5.2-4.4-5.9h-0.8c0,0.1-0.1,0.3-0.1,0.4c-0.4,1.1-1.7,3.1-2.5,4.3l-0.1-1.4
	c0.3-0.1,0.5-0.4,0.5-0.7c0-0.4-0.3-0.8-0.7-0.8h-1.1c-0.4,0-0.7,0.3-0.7,0.8c0,0.4,0.2,0.7,0.5,0.7L40.5,29
	c-0.8-1.2-2.1-3.2-2.5-4.3c-0.1-0.1-0.1-0.3-0.1-0.4L37.1,24.4L37.1,24.4z M19.4,24.7c-1.4,0.4-2.7,1.2-3.7,2.4
	c-1.2,1.4-1.8,3.2-1.8,5.1c0,2,0.7,3.1,2.1,3.7c1.3,0.5,3.2,0.5,5.2,0.5h7.7c2,0,3.8,0,5.2-0.5c1.5-0.6,2.1-1.8,2.1-3.7
	c0-1.9-0.6-3.7-1.8-5.1c-1-1.2-2.3-2-3.7-2.4h-1.2c0,0.2-0.1,0.3-0.1,0.5c-0.5,1.4-2.2,4.1-3.3,5.6L26,28.6c0.4-0.1,0.8-0.5,0.8-0.9
	c0-0.5-0.4-1-0.9-1h-1.4c-0.5,0-0.9,0.4-0.9,1c0,0.5,0.3,0.9,0.8,0.9l-0.1,2.2c-1-1.5-2.7-4.2-3.3-5.6c-0.1-0.1-0.1-0.3-0.1-0.5
	H19.4z M8.8,14c2.9,0,5.2,2.3,5.2,5.2c0,2.9-2.3,5.2-5.2,5.2c-2.9,0-5.2-2.3-5.2-5.2C3.6,16.3,5.9,14,8.8,14z M41.4,14.1
	c2.9,0,5.2,2.3,5.2,5.2c0,2.9-2.3,5.2-5.2,5.2c-2.9,0-5.2-2.3-5.2-5.2C36.2,16.4,38.5,14.1,41.4,14.1z M25,13.6
	c3.2,0,5.7,2.6,5.7,5.7S28.1,25,25,25c-3.2,0-5.7-2.6-5.7-5.7S21.8,13.6,25,13.6z"/>
</svg>
