<?xml version="1.0" encoding="utf-8"?>
<!-- Generator: Adobe Illustrator 23.0.1, SVG Export Plug-In . SVG Version: 6.00 Build 0)  -->
<svg version="1.1" id="Layer_1" xmlns="http://www.w3.org/2000/svg" xmlns:xlink="http://www.w3.org/1999/xlink" x="0px" y="0px"
	 viewBox="0 0 50 50" style="enable-background:new 0 0 50 50;" xml:space="preserve">
<style type="text/css">
	.st0{fill:url(#SVGID_1_);}
</style>
<linearGradient id="SVGID_1_" gradientUnits="userSpaceOnUse" x1="18.4122" y1="51.5651" x2="33.8835" y2="3.9493">
	<stop  offset="0.1144" style="stop-color:#8687C2"/>
	<stop  offset="1" style="stop-color:#8DD2CC"/>
</linearGradient>
<path class="st0" d="M30.8,11.1H20.5V10c0-0.6,0.3-1.2,0.9-1.4l1.1-0.5C23.4,7.7,24,6.8,24,5.8c0-0.5,0.4-1,1-1h1.3c0.5,0,1,0.4,1,1
	c0,1,0.6,1.9,1.5,2.3l1.1,0.5c0.5,0.3,0.9,0.8,0.9,1.4V11.1z M19.1,10.5v1.4c0,0.4,0.3,0.7,0.7,0.7h11.8c0.4,0,0.7-0.3,0.7-0.7v-1.4
	h2.6c1.2,0,2.2,1,2.2,2.2v22.4c0,1.2-1,2.2-2.2,2.2H16.4c-1.2,0-2.2-1-2.2-2.2V12.7c0-1.2,1-2.2,2.2-2.2H19.1z M34.2,31
	c0-0.4-0.3-0.7-0.7-0.7H17.7c-0.4,0-0.7,0.3-0.7,0.7s0.3,0.7,0.7,0.7h15.8C33.9,31.7,34.3,31.4,34.2,31z M17.7,24.8
	c-0.4,0-0.7,0.3-0.7,0.7s0.3,0.7,0.7,0.7h15.8c0.4,0,0.7-0.3,0.7-0.7s-0.3-0.7-0.7-0.7H17.7z M17.8,18.9c-0.4,0-0.7,0.3-0.7,0.7
	c0,0.4,0.3,0.7,0.7,0.7h6.5c0.4,0,0.7-0.3,0.7-0.7s-0.3-0.7-0.7-0.7H17.8z M7.4,19.1l0.8-1.5L5,15.8l-0.9,1.4l0.7,2.6L7.4,19.1z
	 M15.7,3.8c0.1,0.1,0.3,0,0.4-0.1L17,2c0.1-0.1,0-0.3-0.1-0.4L14.1,0c-0.1-0.1-0.3,0-0.4,0.1l-0.9,1.7c-0.1,0.1,0,0.3,0.1,0.4
	L15.7,3.8z M15.7,4.4c-0.1,0-0.2,0-0.3-0.1l-2.8-1.6c-0.1-0.1-0.2-0.1-0.2-0.2L5.2,15.2l3.3,1.9L15.7,4.4z M38,40.9l1.4-1.4v2.9
	L38,43.8c0-0.1,0-0.1,0-0.1c-0.3,0.4-0.6,0.8-1,1c-1.3,0.8-3,0.3-3.8-1s-0.3-3,1-3.8C35.5,39.2,37.3,39.6,38,40.9z M37.1,42.4
	c0-0.1-0.1-0.3-0.1-0.4c-0.2-0.7-0.7-1.1-1.4-1.1c-0.8,0-1.5,0.7-1.5,1.5s0.7,1.5,1.5,1.5c0.2,0,0.3,0,0.5-0.1
	C36.7,43.6,37.1,43,37.1,42.4z M44.9,44c0.9,1.1,0.9,2.7,0,3.8c-1.1,1.1-2.8,1.2-4,0.2c-0.3-0.4-0.6-0.8-0.7-1.3
	c-0.1-0.2-0.1-0.4-0.1-0.6V32.3c0-1.1,0.9-2,2-2v6.6v6.4C43.1,43,44.2,43.3,44.9,44z M44.3,45.8c0-0.8-0.7-1.5-1.5-1.5
	c-0.3,0-0.6,0.1-0.8,0.3c-0.1,0.1-0.1,0.1-0.2,0.2c-0.6,0.6-0.6,1.5,0,2.1c0,0.1,0.1,0.1,0.2,0.2c0.2,0.2,0.5,0.3,0.8,0.3
	c0.4,0,0.8-0.1,1.1-0.4C44.2,46.8,44.4,46.4,44.3,45.8z M47.4,31.7l-4.7,4.6v3.1l4.6-4.4C48.2,34,48.3,32.6,47.4,31.7z M18.8,45.8
	c0,0,0.3,0.5,0.2,0.9c-0.1,0.4-0.6,0.7-0.6,0.7l-3.9,2.4c0,0-0.5,0.3-0.9,0.2c-0.4-0.1-0.7-0.6-0.7-0.6L2.1,32c0,0-0.3-0.5-0.2-0.9
	c0.1-0.4,0.6-0.7,0.6-0.7L6.4,28c0,0,0.5-0.3,0.9-0.2C7.7,27.9,8,28.4,8,28.4L18.8,45.8z M6.2,30.9c-0.2-0.3-0.5-0.4-0.8-0.2
	c-0.3,0.2-0.4,0.5-0.2,0.8s0.5,0.4,0.8,0.2S6.3,31.2,6.2,30.9z M6.8,30.9L8.2,30l-0.3-0.5l-1.4,0.9L6.8,30.9z M7.3,33.2l2.2-1.3
	l-0.3-0.5L7,32.7L7.3,33.2z M9.2,34.7l1.4-0.9l-0.3-0.5l-1.4,0.9L9.2,34.7z M9.7,37.1l2.2-1.3l-0.3-0.5l-2.2,1.3L9.7,37.1z
	 M11.6,38.6l1.4-0.9l-0.3-0.5l-1.4,0.9L11.6,38.6z M14.3,39.6L14,39.1l-2.2,1.3l0.3,0.5L14.3,39.6z M14,42.4l1.4-0.9L15.1,41
	l-1.4,0.9L14,42.4z M14.5,44.8l2.2-1.3L16.4,43l-2.2,1.3L14.5,44.8z M17.8,45.4l-0.3-0.5l-1.4,0.9l0.3,0.5L17.8,45.4z"/>
</svg>
