<?xml version="1.0" encoding="utf-8"?>
<!-- Generator: Adobe Illustrator 23.0.1, SVG Export Plug-In . SVG Version: 6.00 Build 0)  -->
<svg version="1.1" id="Layer_1" xmlns="http://www.w3.org/2000/svg" xmlns:xlink="http://www.w3.org/1999/xlink" x="0px" y="0px"
	 viewBox="0 0 50 50" style="enable-background:new 0 0 50 50;" xml:space="preserve">
<style type="text/css">
	.st0{fill:url(#SVGID_1_);}
	.st1{fill:url(#SVGID_2_);}
	.st2{fill:url(#SVGID_3_);}
	.st3{fill:url(#SVGID_4_);}
	.st4{fill:url(#SVGID_5_);}
	.st5{fill:url(#SVGID_6_);}
	.st6{fill:url(#SVGID_7_);}
	.st7{fill:url(#SVGID_8_);}
	.st8{fill:url(#SVGID_9_);}
</style>
<g>
	<linearGradient id="SVGID_1_" gradientUnits="userSpaceOnUse" x1="22.8557" y1="27.3033" x2="26.7247" y2="15.3959">
		<stop  offset="0" style="stop-color:#8687C2"/>
		<stop  offset="1" style="stop-color:#8DD2CC"/>
	</linearGradient>
	<path class="st0" d="M29.4,16.3c-1.3,0.8-2.8,1.2-4.4,1.2s-3.1-0.4-4.4-1.2c-3.1,0.8-5.5,2.3-6.8,4.2L25,28l11.3-7.4
		C34.9,18.6,32.5,17.1,29.4,16.3z"/>
	<linearGradient id="SVGID_2_" gradientUnits="userSpaceOnUse" x1="12.4711" y1="46.2916" x2="19.0289" y2="26.1085">
		<stop  offset="0" style="stop-color:#8687C2"/>
		<stop  offset="1" style="stop-color:#8DD2CC"/>
	</linearGradient>
	<path class="st1" d="M7,28.5L7,28.5C7.1,28.5,7.1,28.5,7,28.5c0.2,0,0.4,0.1,0.6,0.2l0,0C7.8,28.8,8,28.9,8.1,29l0,0
		c0.2,0.1,0.3,0.2,0.5,0.4c0,0,0,0,0.1,0c0.1,0.1,0.3,0.3,0.4,0.4c0,0,0,0,0.1,0.1c0.1,0.2,0.2,0.3,0.3,0.5v0.1
		c0.1,0.2,0.2,0.4,0.2,0.6v0.1c0.1,0.2,0.1,0.4,0.2,0.6c0,0,0,0,0,0.1c0,0.2,0.1,0.5,0.1,0.7s0,0.5-0.1,0.7c0,0,0,0,0,0.1
		c0,0.2-0.1,0.4-0.2,0.6v0.1c-0.1,0.2-0.1,0.4-0.2,0.6v0.1c-0.1,0.2-0.2,0.3-0.3,0.5c0,0,0,0-0.1,0.1c-0.1,0.2-0.2,0.3-0.4,0.4
		c0,0,0,0-0.1,0c-0.1,0.1-0.3,0.3-0.5,0.4l0,0c-0.2,0.1-0.3,0.2-0.5,0.3l0,0c-0.2,0.1-0.4,0.1-0.5,0.1c0,0,0,0-0.1,0v6.8l17.5,6.8
		V29L7,22.2V28.5z"/>
	<linearGradient id="SVGID_3_" gradientUnits="userSpaceOnUse" x1="5.7576" y1="35.4006" x2="7.6425" y2="29.5994">
		<stop  offset="0" style="stop-color:#8687C2"/>
		<stop  offset="1" style="stop-color:#8DD2CC"/>
	</linearGradient>
	<path class="st2" d="M9.2,32.5c0-1.7-1.1-3.1-2.5-3.1s-2.5,1.4-2.5,3.1s1.1,3.1,2.5,3.1S9.2,34.2,9.2,32.5z"/>
	<linearGradient id="SVGID_4_" gradientUnits="userSpaceOnUse" x1="14.7312" y1="24.4657" x2="15.7961" y2="21.1883">
		<stop  offset="0" style="stop-color:#8687C2"/>
		<stop  offset="1" style="stop-color:#8DD2CC"/>
	</linearGradient>
	<polygon class="st3" points="10.6,19.5 8.4,21.6 21.3,26.6 	"/>
	<linearGradient id="SVGID_5_" gradientUnits="userSpaceOnUse" x1="42.4575" y1="35.3006" x2="44.3424" y2="29.4994">
		<stop  offset="0" style="stop-color:#8687C2"/>
		<stop  offset="1" style="stop-color:#8DD2CC"/>
	</linearGradient>
	<path class="st4" d="M43.4,29.3c-1.4,0-2.5,1.4-2.5,3.1s1.1,3.1,2.5,3.1s2.5-1.4,2.5-3.1C45.9,30.7,44.8,29.3,43.4,29.3z"/>
	<linearGradient id="SVGID_6_" gradientUnits="userSpaceOnUse" x1="29.3146" y1="51.2395" x2="39.1854" y2="20.8606">
		<stop  offset="0" style="stop-color:#8687C2"/>
		<stop  offset="1" style="stop-color:#8DD2CC"/>
	</linearGradient>
	<path class="st5" d="M40,32.5c0-2,1.3-3.7,3-4v-6.4l-17.5,6.8V50L43,43.2v-6.8C41.3,36.2,40,34.5,40,32.5z"/>
	<linearGradient id="SVGID_7_" gradientUnits="userSpaceOnUse" x1="33.7994" y1="28.2569" x2="36.9078" y2="18.6902">
		<stop  offset="0" style="stop-color:#8687C2"/>
		<stop  offset="1" style="stop-color:#8DD2CC"/>
	</linearGradient>
	<polygon class="st6" points="28.7,26.6 41.6,21.6 39.4,19.5 	"/>
	<linearGradient id="SVGID_8_" gradientUnits="userSpaceOnUse" x1="22.5318" y1="15.6128" x2="27.4762" y2="0.3956">
		<stop  offset="0" style="stop-color:#8687C2"/>
		<stop  offset="1" style="stop-color:#8DD2CC"/>
	</linearGradient>
	<ellipse class="st7" cx="25" cy="8" rx="8" ry="8"/>
	<linearGradient id="SVGID_9_" gradientUnits="userSpaceOnUse" x1="37.1774" y1="8.2201" x2="39.1317" y2="2.2053">
		<stop  offset="0" style="stop-color:#8687C2"/>
		<stop  offset="1" style="stop-color:#8DD2CC"/>
	</linearGradient>
	<polygon class="st8" points="36.5,8 38.5,6.9 40.4,8 40,5.8 41.6,4.3 39.4,4 38.5,2 37.5,4 35.3,4.3 36.9,5.8 	"/>
</g>
</svg>
