<?xml version="1.0" encoding="utf-8"?>
<!-- Generator: Adobe Illustrator 23.0.1, SVG Export Plug-In . SVG Version: 6.00 Build 0)  -->
<svg version="1.1" id="Isolation_Mode" xmlns="http://www.w3.org/2000/svg" xmlns:xlink="http://www.w3.org/1999/xlink" x="0px"
	 y="0px" viewBox="0 0 50 50" style="enable-background:new 0 0 50 50;" xml:space="preserve">
<style type="text/css">
	.st0{fill:url(#SVGID_1_);}
</style>
<linearGradient id="SVGID_1_" gradientUnits="userSpaceOnUse" x1="18.572" y1="51.8441" x2="34.1955" y2="3.7598">
	<stop  offset="0" style="stop-color:#8687C2"/>
	<stop  offset="1" style="stop-color:#8DD2CC"/>
</linearGradient>
<path class="st0" d="M29.3,5.3c0,2.4-1.9,4.3-4.3,4.3s-4.3-1.9-4.3-4.3C20.7,3,22.6,1,25,1l0,0C27.4,1,29.3,2.9,29.3,5.3 M50,34.9
	v3.5c0,0.6-0.5,1.1-1.1,1.1h-7l1.2,5.1c0.4,2-0.8,3.9-2.7,4.3C40.1,49,39.9,49,39.6,49H10.4c-2,0-3.6-1.6-3.6-3.6
	c0-0.3,0-0.6,0.1-0.8L8,39.4H1c-0.6,0-1-0.5-1.1-1v-3.3c0-2.9,2.2-5.4,5.1-5.7c1.8-0.1,3.6,0.7,4.7,2.2L12,22
	c0.4-1.6,1.8-2.8,3.5-2.8h1.3v-4.7c0-2,1.6-3.6,3.6-3.6h1.3l2.8,2.8c0.2,0.2,0.6,0.2,0.8,0l0,0l2.8-2.8h1.3c2,0,3.6,1.6,3.6,3.6v4.7
	h1.3c1.7,0,3.1,1.1,3.5,2.8l2.3,9.7c0.9-1.3,2.4-2.2,4-2.3c3-0.2,5.6,2.1,5.8,5.1C50,34.7,50,34.8,50,34.9 M38.5,44.5l-4.9-20.8
	H16.3l-4.9,20.8h5.4v-2.6c0-2,1.6-3.6,3.6-3.6h9.2c2,0,3.6,1.6,3.6,3.6v2.6H38.5z M44.5,27.7c2.5,0,4.5-2,4.5-4.5s-2-4.5-4.5-4.5
	s-4.5,2-4.5,4.5S42,27.7,44.5,27.7 M1,23.2c0,2.5,2,4.5,4.5,4.5s4.5-2,4.5-4.5s-2-4.5-4.5-4.5S1,20.7,1,23.2 M25,27
	c-2.6,0-4.6,2.1-4.6,4.6c0,2.6,2.1,4.6,4.6,4.6s4.6-2.1,4.6-4.6l0,0C29.6,29.1,27.6,27,25,27"/>
</svg>
