<?xml version="1.0" encoding="utf-8"?>
<!-- Generator: Adobe Illustrator 23.0.3, SVG Export Plug-In . SVG Version: 6.00 Build 0)  -->
<svg version="1.1" id="Layer_1" xmlns="http://www.w3.org/2000/svg" xmlns:xlink="http://www.w3.org/1999/xlink" x="0px" y="0px"
	 viewBox="0 0 50 50" style="enable-background:new 0 0 50 50;" xml:space="preserve">
<style type="text/css">
	.st0{fill:url(#SVGID_1_);}
</style>
<linearGradient id="SVGID_1_" gradientUnits="userSpaceOnUse" x1="17.5186" y1="2.9411" x2="31.8448" y2="47.0317">
	<stop  offset="0" style="stop-color:#8687C2"/>
	<stop  offset="1" style="stop-color:#8DD2CC"/>
</linearGradient>
<path class="st0" d="M29.2,16.6c-1.3,0.8-2.7,1.2-4.2,1.2s-3-0.4-4.2-1.2c-3,0.8-5.3,2.2-6.6,4L25,27.9l10.9-7.1
	C34.5,18.8,32.2,17.4,29.2,16.6z M7.7,28.4L7.7,28.4C7.7,28.4,7.7,28.4,7.7,28.4c0.2,0,0.4,0.1,0.6,0.2l0,0c0.2,0.1,0.4,0.2,0.5,0.3
	l0,0C8.9,29,9,29.1,9.2,29.2c0,0,0,0,0.1,0c0.1,0.1,0.3,0.3,0.4,0.4c0,0,0,0,0.1,0.1c0.1,0.2,0.2,0.3,0.3,0.5v0.1
	c0.1,0.2,0.2,0.4,0.2,0.6V31c0.1,0.2,0.1,0.4,0.2,0.6c0,0,0,0,0,0.1c0,0.2,0.1,0.5,0.1,0.7s0,0.5-0.1,0.7c0,0,0,0,0,0.1
	c0,0.2-0.1,0.4-0.2,0.6v0.1c-0.1,0.2-0.1,0.4-0.2,0.6v0.1c-0.1,0.2-0.2,0.3-0.3,0.5c0,0,0,0-0.1,0.1c-0.1,0.2-0.2,0.3-0.4,0.4
	c0,0,0,0-0.1,0c-0.1,0.1-0.3,0.3-0.5,0.4l0,0c-0.2,0.1-0.3,0.2-0.5,0.3l0,0c-0.2,0.1-0.4,0.1-0.5,0.1c0,0,0,0-0.1,0v6.6l16.9,6.6
	V28.9L7.7,22.3V28.4z M9.8,32.2c0-1.6-1.1-3-2.4-3S5,30.6,5,32.2s1.1,3,2.4,3S9.8,33.9,9.8,32.2z M11.1,19.7l-2.1,2l12.4,4.8
	L11.1,19.7z M42.7,29.1c-1.3,0-2.4,1.3-2.4,3c0,1.6,1.1,3,2.4,3s2.4-1.3,2.4-3S44.1,29.1,42.7,29.1z M39.5,32.2
	c0-1.9,1.3-3.6,2.9-3.9v-6.2l-16.9,6.6v20.3l16.9-6.6V36C40.7,35.8,39.5,34.2,39.5,32.2z M28.6,26.5L41,21.7l-2.1-2L28.6,26.5z
	 M25,0.9c4.3,0,7.7,3.5,7.7,7.7s-3.5,7.7-7.7,7.7s-7.7-3.5-7.7-7.7S20.7,0.9,25,0.9z M36.1,8.6L38,7.6l1.8,1.1l-0.4-2.1L41,5.1
	l-2.1-0.3L38,2.8l-1,1.9l-2.1,0.3l1.5,1.4L36.1,8.6z"/>
</svg>
