<?xml version="1.0" encoding="utf-8"?>
<!-- Generator: Adobe Illustrator 23.0.1, SVG Export Plug-In . SVG Version: 6.00 Build 0)  -->
<svg version="1.1" id="Isolation_Mode" xmlns="http://www.w3.org/2000/svg" xmlns:xlink="http://www.w3.org/1999/xlink" x="0px"
	 y="0px" viewBox="0 0 50 50" style="enable-background:new 0 0 50 50;" xml:space="preserve">
<style type="text/css">
	.st0{fill:url(#SVGID_1_);}
	.st1{fill:url(#SVGID_2_);}
	.st2{fill:url(#SVGID_3_);}
	.st3{fill:url(#SVGID_4_);}
</style>
<g>
	<linearGradient id="SVGID_1_" gradientUnits="userSpaceOnUse" x1="15.8711" y1="11.89" x2="18.5307" y2="3.7044">
		<stop  offset="0" style="stop-color:#8687C2"/>
		<stop  offset="1" style="stop-color:#8DD2CC"/>
	</linearGradient>
	<path class="st0" d="M17.2,12.1c2.4,0,4.3-1.9,4.3-4.3s-1.9-4.3-4.3-4.3s-4.3,1.9-4.3,4.3C12.8,10.1,14.8,12.1,17.2,12.1z"/>
	<linearGradient id="SVGID_2_" gradientUnits="userSpaceOnUse" x1="14.719" y1="54.1001" x2="26.9304" y2="16.5171">
		<stop  offset="0" style="stop-color:#8687C2"/>
		<stop  offset="1" style="stop-color:#8DD2CC"/>
	</linearGradient>
	<path class="st1" d="M20.4,24.6c1.3-2.4,2.3-5.4,2.3-7.1c0-3.1-2.5-3.4-5.6-3.4s-5.6,0.4-5.6,3.4c0,1.7,1,4.7,2.3,7.1
		C7.2,27.2,2.1,37.6,2.1,50h30.1C32.2,37.6,27.2,27.2,20.4,24.6z"/>
	<linearGradient id="SVGID_3_" gradientUnits="userSpaceOnUse" x1="37.3312" y1="9.2702" x2="40.2987" y2="0.1372">
		<stop  offset="0" style="stop-color:#8687C2"/>
		<stop  offset="1" style="stop-color:#8DD2CC"/>
	</linearGradient>
	<path class="st2" d="M38.8,9.5c2.6,0,4.8-2.1,4.8-4.8c0-2.6-2.1-4.8-4.8-4.8C36.2,0,34,2.1,34,4.8C34,7.4,36.2,9.5,38.8,9.5z"/>
	<linearGradient id="SVGID_4_" gradientUnits="userSpaceOnUse" x1="31.1961" y1="49.1539" x2="43.6709" y2="10.7602">
		<stop  offset="0" style="stop-color:#8687C2"/>
		<stop  offset="1" style="stop-color:#8DD2CC"/>
	</linearGradient>
	<path class="st3" d="M46.3,11.7h-3.8l-3.6,7.8l-3.6-7.8h-3.8c-0.9,0-1.6,0.6-1.6,1.4c0,0.1,0,0.1,0,0.2l0.1,0.3l3.8,17.9V50H44
		V31.5l3.8-18v-0.2c0-0.1,0-0.1,0-0.2C47.9,12.3,47.1,11.7,46.3,11.7z"/>
</g>
</svg>
