<?xml version="1.0" encoding="utf-8"?>
<!-- Generator: Adobe Illustrator 23.0.1, SVG Export Plug-In . SVG Version: 6.00 Build 0)  -->
<svg version="1.1" id="Isolation_Mode" xmlns="http://www.w3.org/2000/svg" xmlns:xlink="http://www.w3.org/1999/xlink" x="0px"
	 y="0px" viewBox="0 0 50 50" style="enable-background:new 0 0 50 50;" xml:space="preserve">
<style type="text/css">
	.st0{fill:url(#SVGID_1_);}
	.st1{fill:url(#SVGID_2_);}
</style>
<g>
	<linearGradient id="SVGID_1_" gradientUnits="userSpaceOnUse" x1="15.4372" y1="45.6851" x2="31.4754" y2="-3.6752">
		<stop  offset="0" style="stop-color:#8687C2"/>
		<stop  offset="0" style="stop-color:#8687C2"/>
		<stop  offset="1" style="stop-color:#8DD2CC"/>
	</linearGradient>
	<path class="st0" d="M42.2,0H13.3c-0.1,0-0.1,0-0.2,0c-0.9,0-1.6,0.8-1.6,1.8c0,0.9,0.8,1.6,1.8,1.6h28.9c0.3,0,0.6,0.2,0.6,0.6
		v24.4c0,0.3-0.2,0.6-0.6,0.6H41c-1.3-3.3-4.5-5.6-8.2-5.6s-6.9,2.3-8.2,5.6H7.8c-0.3,0-0.6-0.2-0.6-0.6V3.9c0-0.3,0.2-0.6,0.6-0.6
		c0.9,0,1.7-0.7,1.7-1.6S8.7,0,7.8,0l0,0C5.7,0,3.9,1.8,3.9,3.9v24.4c0,2.1,1.8,3.9,3.9,3.9h16.1v9.4c0,0.9,0.7,1.7,1.7,1.7h1.7v5
		c0,0.9,0.7,1.7,1.7,1.7h7.8c0.9,0,1.7-0.7,1.7-1.7v-5H40c0.9,0,1.7-0.7,1.7-1.7v-9.4h0.6c2.1,0,3.9-1.8,3.9-3.9V3.9
		C46.1,1.8,44.3,0,42.2,0z"/>
	<linearGradient id="SVGID_2_" gradientUnits="userSpaceOnUse" x1="30.9684" y1="20.9197" x2="34.426" y2="10.2785">
		<stop  offset="0" style="stop-color:#8687C2"/>
		<stop  offset="0" style="stop-color:#8687C2"/>
		<stop  offset="1" style="stop-color:#8DD2CC"/>
	</linearGradient>
	<path class="st1" d="M38.3,15.6c0-3-2.5-5.6-5.6-5.6c-3,0-5.6,2.5-5.6,5.6c0,3,2.5,5.6,5.6,5.6C35.8,21.1,38.3,18.6,38.3,15.6z"/>
</g>
</svg>
