<?xml version="1.0" encoding="utf-8"?>
<!-- Generator: Adobe Illustrator 23.0.1, SVG Export Plug-In . SVG Version: 6.00 Build 0)  -->
<svg version="1.1" id="Layer_1" xmlns="http://www.w3.org/2000/svg" xmlns:xlink="http://www.w3.org/1999/xlink" x="0px" y="0px"
	 viewBox="0 0 50 50" style="enable-background:new 0 0 50 50;" xml:space="preserve">
<style type="text/css">
	.st0{fill:url(#SVGID_1_);}
</style>
<linearGradient id="SVGID_1_" gradientUnits="userSpaceOnUse" x1="21.535" y1="44.0568" x2="34.6419" y2="3.7177">
	<stop  offset="0" style="stop-color:#8687C2"/>
	<stop  offset="1" style="stop-color:#8DD2CC"/>
</linearGradient>
<path class="st0" d="M42.5,16.5h-2.3l-4.7,9.7l-4.7-9.7h-2.7c-4.2,0-7.3,3.4-7.3,7.7v3c-1.4-3-4.3-5.1-7.8-5.5v-1.9
	c0-0.5-0.4-0.9-0.9-0.9s-0.9,0.4-0.9,0.9v1.9c-4.8,0.5-8.6,4.5-8.7,9.4H0.9C0.4,31.1,0,31.5,0,32s0.4,0.9,0.9,0.9h10.8
	c-2.7,0.6-2.5,4.6,0.6,4.6h10.8c1.2,0,2.3-0.9,2.3-2.6V24.7h1.5v21.1h16.9v-8.2h3.7c1.2,0,2.3-0.9,2.3-2.6v-5.2v-5.4
	C50,20.3,47.1,16.5,42.5,16.5z M4.3,31.1c0.1-4.2,3.6-7.6,7.8-7.6c4.2,0,7.7,3.4,7.8,7.6H4.3z M42.3,44h-5.9V32.9h5.9V44z M45.5,27
	L45.5,27l-0.1,5.9H44v-8.2h1.5V27z M33,16.5h4.8v2.2H33V16.5z M30,9.5c0-2.9,2.4-5.3,5.3-5.3c2.9,0,5.3,2.4,5.3,5.3
	c0,2.9-2.4,5.3-5.3,5.3C32.4,14.8,30,12.5,30,9.5z"/>
</svg>
