<?xml version="1.0" encoding="utf-8"?>
<!-- Generator: Adobe Illustrator 23.0.3, SVG Export Plug-In . SVG Version: 6.00 Build 0)  -->
<svg version="1.1" id="Layer_1" xmlns="http://www.w3.org/2000/svg" xmlns:xlink="http://www.w3.org/1999/xlink" x="0px" y="0px"
	 viewBox="0 0 50 50" style="enable-background:new 0 0 50 50;" xml:space="preserve">
<style type="text/css">
	.st0{fill:url(#SVGID_1_);}
</style>
<linearGradient id="SVGID_1_" gradientUnits="userSpaceOnUse" x1="15.6944" y1="-3.7901" x2="34.3492" y2="53.6231">
	<stop  offset="0" style="stop-color:#FFFFFF"/>
	<stop  offset="3.761574e-03" style="stop-color:#8687C2"/>
	<stop  offset="1" style="stop-color:#8DD2CC"/>
</linearGradient>
<path class="st0" d="M45.8,0H4.2C3.6,0,3.1,0.5,3.1,1.1v29.4c0,0.6,0.5,1.1,1.1,1.1h41.6c0.6,0,1.1-0.5,1.1-1.1V1.1
	C46.9,0.5,46.4,0,45.8,0z M40,28.5H29.6h-9.3H10c3.1-9.4,0.3-16.2-0.5-17.7c1.2-0.4,2.5-0.9,3.5-1.9c1.1-1.1,1.8-2.4,2.1-4
	c1.7,1,5.6,3.1,10.2,3.1c2.9,0,6-0.8,9-3.1c0.3,1.7,1,3.1,2.1,4.1c1.2,1.1,2.6,1.7,3.9,2C39.6,12.5,37,19.3,40,28.5z M25.1,20.5
	c2.3,0,4.1-1.8,4.1-4.1s-1.8-4.1-4.1-4.1l0,0c-2.3,0-4.1,1.8-4.1,4.1S22.8,20.6,25.1,20.5z M28.8,21.2h-1.1l-2.4,2.4l0,0
	c-0.2,0.2-0.5,0.2-0.7,0l-2.4-2.4h-1.1c-1.7,0-3,1.3-3,3V28h13.6v-3.8C31.8,22.6,30.4,21.2,28.8,21.2z M10.5,42.6
	c2.3,0,4.1-1.8,4.1-4.1s-1.8-4.1-4.1-4.1l0,0c-2.3,0-4.1,1.8-4.1,4.1C6.4,40.7,8.3,42.6,10.5,42.6z M14.2,43.2h-1.1l-2.4,2.4l0,0
	c-0.2,0.2-0.5,0.2-0.7,0l-2.4-2.4H6.5c-1.7,0-3,1.3-3,3V50h13.6v-3.8C17.2,44.6,15.9,43.2,14.2,43.2z M24.6,42.6
	c2.3,0,4.1-1.8,4.1-4.1s-1.8-4.1-4.1-4.1l0,0c-2.3,0-4.1,1.8-4.1,4.1C20.5,40.7,22.4,42.6,24.6,42.6z M28.3,43.2h-1.1l-2.4,2.4l0,0
	c-0.2,0.2-0.5,0.2-0.7,0l-2.4-2.4h-1.1c-1.7,0-3,1.3-3,3V50h13.6v-3.8C31.3,44.6,30,43.2,28.3,43.2z M38.9,42.6
	c2.3,0,4.1-1.8,4.1-4.1s-1.8-4.1-4.1-4.1l0,0c-2.3,0-4.1,1.8-4.1,4.1C34.9,40.7,36.7,42.6,38.9,42.6z M42.6,43.2h-1.1l-2.4,2.4l0,0
	c-0.2,0.2-0.5,0.2-0.7,0L36,43.2h-1.1c-1.7,0-3,1.3-3,3V50h13.6v-3.8C45.6,44.6,44.3,43.2,42.6,43.2z"/>
</svg>
