<?xml version="1.0" encoding="utf-8"?>
<!-- Generator: Adobe Illustrator 23.0.1, SVG Export Plug-In . SVG Version: 6.00 Build 0)  -->
<svg version="1.1" id="Layer_1" xmlns="http://www.w3.org/2000/svg" xmlns:xlink="http://www.w3.org/1999/xlink" x="0px" y="0px"
	 viewBox="0 0 50 50" style="enable-background:new 0 0 50 50;" xml:space="preserve">
<style type="text/css">
	.st0{fill:url(#SVGID_1_);}
</style>
<linearGradient id="SVGID_1_" gradientUnits="userSpaceOnUse" x1="18.0121" y1="2.158417e-02" x2="34.4418" y2="50.587" gradientTransform="matrix(1 0 0 -1 0 50)">
	<stop  offset="0" style="stop-color:#8687C2"/>
	<stop  offset="1" style="stop-color:#8DD2CC"/>
</linearGradient>
<path class="st0" d="M45.9,4.5c-0.2-1.1-1.1-1.9-2.2-2c-1.2,0-2.3,0-3.5,0c-2.8,0-5.5,0-8.3,0c-3.3,0-6.6,0-9.9,0
	c-2.7,0-5.5,0-8.1,0c-0.8,0-1.6,0-2.4,0c-0.5,0-1.1,0-1.5,0.2C9,3,8.4,3.8,8.4,4.8c0,0.1,0,0.2,0,0.3c0,0.5,0,1.1,0,1.6
	c0,1.3,0,2.5,0,3.8c-1.1,0-2.1,0-3.2,0c-0.5,0-1.1,0.4-1.1,1.1c0,0.6,0.4,1.1,1.1,1.1c1.1,0,2.1,0,3.2,0c0,0.3,0,0.5,0,0.8
	c0,2.1,0,4,0,6.1c-1.1,0-2.1,0-3.2,0c-0.5,0-1.1,0.4-1.1,1.1c0,0.6,0.4,1.1,1.1,1.1c1.1,0,2.1,0,3.2,0c0,0.4,0,0.8,0,1.2
	c0,1.9,0,3.8,0,5.6c-1.1,0-2.1,0-3.2,0c-0.5,0-1.1,0.4-1.1,1.1c0,0.6,0.4,1.1,1.1,1.1c1.1,0,2.1,0,3.2,0c0,0.7,0,1.4,0,2.1
	c0,1.5,0,3.1,0,4.7c-1.1,0-2.1,0-3.2,0c-0.5,0-1.1,0.4-1.1,1.1c0,0.5,0.4,1.1,1.1,1.1c1.1,0,2.1,0,3.2,0c0,0.4,0,0.9,0,1.3
	c0,1.4,0,2.8,0,4.2c0,0.2,0,0.4,0,0.4c0.2,1.1,1.2,1.9,2.2,2c0.4,0,0.6,0,1,0c2.1,0,4.2,0,6.4,0c3.2,0,6.4,0,9.6,0
	c3.1,0,6.3,0,9.4,0c2.1,0,4,0,6.1,0c0.5,0,1.1,0,1.5-0.2c0.9-0.4,1.4-1.2,1.4-2.1c0-0.1,0-0.2,0-0.3c0-1.5,0-3,0-4.5
	c0-2.8,0-5.5,0-8.3c0-3.3,0-6.6,0-9.9c0-3.1,0-6.2,0-9.3c0-2.1,0-4.3,0-6.4c0-0.4,0-1,0-1.4C45.9,4.7,45.9,4.6,45.9,4.5z M27.7,11.9
	L27.7,11.9c3.7,0,6.6,3,6.6,6.6s-3,6.6-6.6,6.6s-6.6-3-6.6-6.6S24,11.9,27.7,11.9z M38.5,37.2h-22v-6.1c0-2.7,2.1-4.8,4.9-4.8h1.7
	l3.8,3.8c0.3,0.3,0.8,0.3,1.1,0l0,0l3.8-3.8h1.8c2.7,0,4.9,2.1,4.9,4.8L38.5,37.2L38.5,37.2z"/>
</svg>
