<?xml version="1.0" encoding="utf-8"?>
<!-- Generator: Adobe Illustrator 23.0.3, SVG Export Plug-In . SVG Version: 6.00 Build 0)  -->
<svg version="1.1" id="Isolation_Mode" xmlns="http://www.w3.org/2000/svg" xmlns:xlink="http://www.w3.org/1999/xlink" x="0px"
	 y="0px" viewBox="0 0 50 50" style="enable-background:new 0 0 50 50;" xml:space="preserve">
<style type="text/css">
	.st0{fill:url(#SVGID_1_);}
</style>
<linearGradient id="SVGID_1_" gradientUnits="userSpaceOnUse" x1="15.9475" y1="3.679" x2="32.2393" y2="53.8212">
	<stop  offset="0" style="stop-color:#8687C2"/>
	<stop  offset="1" style="stop-color:#8DD2CC"/>
</linearGradient>
<path class="st0" d="M17.2,12.1c2.4,0,4.3-1.9,4.3-4.3s-1.9-4.3-4.3-4.3s-4.3,1.9-4.3,4.3C12.8,10.1,14.8,12.1,17.2,12.1z
	 M20.4,24.6c1.3-2.4,2.3-5.4,2.3-7.1c0-3.1-2.5-3.4-5.6-3.4s-5.6,0.4-5.6,3.4c0,1.7,1,4.7,2.3,7.1C7.2,27.2,2.1,37.6,2.1,50h30.1
	C32.2,37.6,27.2,27.2,20.4,24.6z M38.8,9.5c2.6,0,4.8-2.1,4.8-4.8c0-2.6-2.1-4.8-4.8-4.8C36.2,0,34,2.1,34,4.8
	C34,7.4,36.2,9.5,38.8,9.5z M46.3,11.7h-3.8l-3.6,7.8l-3.6-7.8h-3.8c-0.9,0-1.6,0.6-1.6,1.4c0,0.1,0,0.1,0,0.2l0.1,0.3l3.8,17.9V50
	H44V31.5l3.8-18v-0.2c0-0.1,0-0.1,0-0.2C47.9,12.3,47.1,11.7,46.3,11.7z"/>
</svg>
