<?xml version="1.0" encoding="utf-8"?>
<!-- Generator: Adobe Illustrator 23.0.1, SVG Export Plug-In . SVG Version: 6.00 Build 0)  -->
<svg version="1.1" id="Layer_1" xmlns="http://www.w3.org/2000/svg" xmlns:xlink="http://www.w3.org/1999/xlink" x="0px" y="0px"
	 viewBox="272.64 395.95 50 50" style="enable-background:new 272.64 395.95 50 50;" xml:space="preserve">
<style type="text/css">
	.st0{fill:#FFFFFF;}
</style>
<path class="st0" d="M310.59,410.46h-5.12v-0.94c0-2.51-2.04-4.55-4.55-4.55h-6.54c-2.51,0-4.55,2.04-4.55,4.55v0.94h-5.12
	c-2.51,0-4.55,2.04-4.55,4.55v17.36c0,2.51,2.04,4.55,4.55,4.55h25.89c2.51,0,4.55-2.04,4.55-4.55v-17.36
	C315.14,412.5,313.1,410.46,310.59,410.46z M292.85,409.52c0-0.84,0.68-1.52,1.52-1.52h6.54c0.84,0,1.52,0.68,1.52,1.52v0.94h-9.58
	V409.52z M284.69,413.49h25.89c0.84,0,1.52,0.68,1.52,1.52v6.31h-10.69v-0.92c0-1.02-0.83-1.86-1.86-1.86h-3.84
	c-1.02,0-1.86,0.83-1.86,1.86v0.92h-10.69v-6.31C283.18,414.17,283.86,413.49,284.69,413.49z M299.22,420.74v4.2h-3.16v-4.2H299.22z
	 M310.59,433.89h-25.89c-0.84,0-1.52-0.68-1.52-1.52v-8.01h10.69v0.92c0,1.02,0.83,1.86,1.86,1.86h3.84c1.02,0,1.86-0.83,1.86-1.86
	v-0.92h10.69v8.01C312.1,433.21,311.42,433.89,310.59,433.89z"/>
</svg>
