<?xml version="1.0" encoding="utf-8"?>
<!-- Generator: Adobe Illustrator 23.0.1, SVG Export Plug-In . SVG Version: 6.00 Build 0)  -->
<svg version="1.1" id="Layer_1" xmlns="http://www.w3.org/2000/svg" xmlns:xlink="http://www.w3.org/1999/xlink" x="0px" y="0px"
	 viewBox="281 371 50 50" style="enable-background:new 281 371 50 50;" xml:space="preserve">
<style type="text/css">
	.st0{fill:#8DD2CC;}
</style>
<path class="st0" d="M327.1,395h3.9c-0.6-13-11-23.4-24-24v3.9c0,0.6-0.5,1-1,1c-0.6,0-1-0.5-1-1V371c-13,0.6-23.4,11-24,24h3.9
	c0.6,0,1,0.5,1,1s-0.5,1-1,1H281c0.6,13,11,23.4,24,24v-3.9c0-0.6,0.5-1,1-1c0.6,0,1,0.5,1,1v3.9c13-0.6,23.4-11,24-24h-3.9
	c-0.6,0-1-0.5-1-1S326.6,395,327.1,395z M318.1,384.8l-7.8,15.2c-0.1,0.1-0.2,0.2-0.3,0.3l-15.2,7.8c-0.3,0.2-0.8,0-0.9-0.3
	c-0.1-0.2-0.1-0.4,0-0.6l7.8-15.2c0.1-0.1,0.2-0.2,0.3-0.3l15.2-7.8c0.3-0.2,0.8,0,0.9,0.3C318.2,384.4,318.2,384.6,318.1,384.8
	L318.1,384.8z"/>
</svg>
