<?xml version="1.0" encoding="utf-8"?>
<!-- Generator: Adobe Illustrator 23.0.1, SVG Export Plug-In . SVG Version: 6.00 Build 0)  -->
<svg version="1.1" id="Layer_1" xmlns="http://www.w3.org/2000/svg" xmlns:xlink="http://www.w3.org/1999/xlink" x="0px" y="0px"
	 viewBox="395.9 272.6 50 50" style="enable-background:new 395.9 272.6 50 50;" xml:space="preserve">
<style type="text/css">
	.st0{fill:#8DD2CC;}
</style>
<path class="st0" d="M420.9,272.6c-13.8,0-25,11.3-25,25c0,13.8,11.3,25,25,25c13.8,0,25-11.3,25-25
	C445.9,283.9,434.8,272.6,420.9,272.6z M436.5,309.7c-0.7,2.2-3.7,5.5-6.5,5.5l-0.2-0.1c-4.1-0.2-9.8-4.1-15.1-10.5l-1.9-2.3
	c-5.2-6.4-8-12.6-7.4-16.6c0.4-2.9,4.7-5.2,7.1-5.2c1.2,0,1.7,0.6,1.8,1c1.3,2.5,3.1,6.7,3.1,8.3v0.2c-0.3,0.8-1,1.2-1.6,1.6
	c-0.8,0.4-1.2,0.8-1.3,1.6c0,0.2,0.2,1.5,3.7,5.7l1.5,1.8c3.5,4.1,4.6,4.6,4.8,4.6c0.9,0.1,1.2-0.2,1.9-0.9c0.4-0.6,1-1.1,1.8-1.2
	h0.2c1.6,0.3,5.4,2.8,7.6,4.7C436.3,307.7,436.9,308.2,436.5,309.7L436.5,309.7z"/>
</svg>
