<?xml version="1.0" encoding="utf-8"?>
<!-- Generator: Adobe Illustrator 23.0.1, SVG Export Plug-In . SVG Version: 6.00 Build 0)  -->
<svg version="1.1" id="Layer_1" xmlns="http://www.w3.org/2000/svg" xmlns:xlink="http://www.w3.org/1999/xlink" x="0px" y="0px"
	 viewBox="281 371 50 50" style="enable-background:new 281 371 50 50;" xml:space="preserve">
<style type="text/css">
	.st0{fill:#8DD2CC;}
</style>
<g>
	<path class="st0" d="M306,371c-13.8,0-25,11.2-25,25s11.2,25,25,25c13.8,0,25-11.2,25-25S319.8,371,306,371z M310.4,410.8
		c0,2.2-1.9,4.1-4.3,4.1c-2.4,0-4.3-1.8-4.3-4.1v-18.6c0-2.2,1.9-4.1,4.3-4.1c2.4,0,4.3,1.8,4.3,4.1V410.8z M306,386.4
		c-2.6,0-4.7-2.1-4.7-4.7c0-2.6,2.1-4.7,4.7-4.7c2.6,0,4.7,2.1,4.7,4.7C310.7,384.4,308.6,386.4,306,386.4z"/>
</g>
</svg>
