<?xml version="1.0" encoding="utf-8"?>
<!-- Generator: Adobe Illustrator 23.0.1, SVG Export Plug-In . SVG Version: 6.00 Build 0)  -->
<svg version="1.1" id="Layer_1" xmlns="http://www.w3.org/2000/svg" xmlns:xlink="http://www.w3.org/1999/xlink" x="0px" y="0px"
	 viewBox="395.9 272.6 50 50" style="enable-background:new 395.9 272.6 50 50;" xml:space="preserve">
<style type="text/css">
	.st0{fill:#A19996;}
</style>
<g transform="translate(0,-952.36218)">
	<path class="st0" d="M400.5,1234.8c-0.5,0-0.9,0.1-1.3,0.2l20.6,17.5c0.7,0.6,1.7,0.6,2.4,0l20.5-17.5c-0.4-0.2-0.8-0.2-1.3-0.2
		H400.5L400.5,1234.8z M397,1237.8c0,0.2,0,0.3,0,0.5v23.4c0,0.5,0.1,1,0.3,1.4l14.3-13L397,1237.8L397,1237.8z M444.9,1237.8
		l-14.5,12.3l14.3,13c0.2-0.4,0.3-0.9,0.3-1.4v-23.4C444.9,1238.1,444.9,1237.9,444.9,1237.8L444.9,1237.8z M427.7,1252.3l-3.3,2.8
		c-2,1.7-5,1.7-7,0l-3.3-2.8l-14.1,12.8c0.1,0,0.2,0,0.3,0h41c0.1,0,0.2,0,0.3,0L427.7,1252.3L427.7,1252.3z"/>
</g>
</svg>
