<?xml version="1.0" encoding="utf-8"?>
<!-- Generator: Adobe Illustrator 23.0.1, SVG Export Plug-In . SVG Version: 6.00 Build 0)  -->
<svg version="1.1" id="Layer_1" xmlns="http://www.w3.org/2000/svg" xmlns:xlink="http://www.w3.org/1999/xlink" x="0px" y="0px"
	 viewBox="272.6 395.9 50 50" style="enable-background:new 272.6 395.9 50 50;" xml:space="preserve">
<style type="text/css">
	.st0{fill:#8DD2CC;}
</style>
<g>
	<g>
		<path class="st0" d="M290.6,416.9c0,3-2.5,5.2-6.3,5.2c-3.9,0-5.9-2.1-6.2-5.2h3.8c0.3,1.1,0.9,1.9,2.6,1.9c1.3,0,2.3-0.8,2.3-1.9
			c0-1.2-1-1.9-2.5-1.9h-1.4v-3h1.4c1.3,0,2.2-0.8,2.2-1.9c0-1.1-0.8-1.9-2-1.9c-1.2,0-2.1,0.8-2.2,1.9h-3.8
			c0.2-3.1,2.4-5.2,5.9-5.2c3.5,0,5.8,2,5.8,5c0,1.6-0.6,2.7-1.7,3.4C289.8,414.1,290.6,415.2,290.6,416.9z"/>
		<path class="st0" d="M297.1,410.1c3.7,0.2,6.2,2.7,6.2,5.8c0,3.5-2.7,6.1-6.7,6.1c-4,0-6.7-2.7-6.7-6.1c0-1.4,0.5-2.6,1.4-4
			l4.3-6.8h4.6L297.1,410.1z M299.4,416.1c0-1.4-1.1-2.7-2.8-2.7c-0.7,0-1.4,0.2-1.9,0.6l-0.1,0.2c-0.6,0.8-0.8,1.4-0.8,2
			c0,1.4,1.2,2.7,2.9,2.7C298.2,418.8,299.4,417.4,299.4,416.1z"/>
		<path class="st0" d="M318.2,413.4c0,5-2.9,8.7-7.7,8.7s-7.7-3.6-7.7-8.7c0-5,2.9-8.7,7.7-8.7S318.2,408.4,318.2,413.4z
			 M314.2,413.4c0-2.9-1.3-5.1-3.8-5.1c-2.5,0-3.8,2.2-3.8,5.1c0,2.9,1.3,5.1,3.8,5.1C312.9,418.5,314.2,416.3,314.2,413.4z"/>
	</g>
	<polygon class="st0" points="311,428.6 322.6,422.1 319.1,434.9 	"/>
	<path class="st0" d="M314.6,430.2c-0.2,0.1-0.3,0.2-0.5,0.2c-3.9,1.9-9.6,3.2-15.7,3.7c-6.1,0.5-11.9,0-16.3-1.4
		c-3.9-1.1-6.2-2.9-6.3-4.6c-0.1-1,0.6-2.1,2-3.2l-1.3-2.8c-2.5,1.9-4,4-3.8,6.2c0.4,6,11.5,9.7,25.8,8.7c9.5-0.7,17.4-3.3,21.4-6.8
		H314.6z"/>
</g>
</svg>
