<?xml version="1.0" encoding="utf-8"?>
<!-- Generator: Adobe Illustrator 23.0.1, SVG Export Plug-In . SVG Version: 6.00 Build 0)  -->
<svg version="1.1" id="Layer_1" xmlns="http://www.w3.org/2000/svg" xmlns:xlink="http://www.w3.org/1999/xlink" x="0px" y="0px"
	 viewBox="272.6 395.9 50 50" style="enable-background:new 272.6 395.9 50 50;" xml:space="preserve">
<style type="text/css">
	.st0{fill:#8DD2CC;}
</style>
<g transform="translate(0,-952.36218)">
	<path class="st0" d="M272.6,1358.8v1.7v6.4v1.7h1.7c2.6,0,4.7,2.1,4.7,4.7c0,2.6-2.1,4.7-4.7,4.7h-1.7v1.7v6.4v1.7h1.7h46.5h1.7
		v-1.7v-6.4v-1.7h-1.7c-2.6,0-4.7-2.1-4.7-4.7c0-2.6,2.1-4.7,4.7-4.7h1.7v-1.7v-6.4v-1.7h-1.7h-46.5H272.6z M276.1,1362.3h28.5v22.1
		h-28.5v-3.1c3.6-0.8,6.4-4,6.4-7.9c0-3.9-2.8-7.1-6.4-7.9V1362.3z M308.1,1362.3h11v3.1c-3.6,0.8-6.4,4.1-6.4,7.9s2.8,7.1,6.4,7.9
		v3.1h-11V1362.3z M293.6,1365.2l-2.2,5.4l-6,0.4l4.6,3.7l-1.5,5.6l5-3.1l5,3.1l-1.5-5.6l4.6-3.7l-6-0.4L293.6,1365.2z"/>
</g>
</svg>
