<?xml version="1.0" encoding="utf-8"?>
<!-- Generator: Adobe Illustrator 23.0.1, SVG Export Plug-In . SVG Version: 6.00 Build 0)  -->
<svg version="1.1" id="Layer_1" xmlns="http://www.w3.org/2000/svg" xmlns:xlink="http://www.w3.org/1999/xlink" x="0px" y="0px"
	 viewBox="0 0 50 50" style="enable-background:new 0 0 50 50;" xml:space="preserve">
<style type="text/css">
	.st0{fill:#8DD2CC;}
</style>
<g>
	<path class="st0" d="M11.9,22.9c-1.7,0-2.3-0.8-2.6-1.9H5.5c0.3,3.1,2.3,5.2,6.2,5.2c3.2,0,5.4-1.5,6.1-3.8c1,2.2,3.2,3.7,6.2,3.7
		c3.7,0,6.3-2.2,6.7-5.4c1,3.3,3.5,5.5,7.2,5.5c4.8,0,7.7-3.7,7.7-8.7s-2.9-8.7-7.7-8.7c-4.8,0-7.7,3.7-7.7,8.7c0,0.1,0,0.2,0,0.2
		c-0.9-2-3-3.4-5.7-3.5l3.1-5H23L18.7,16c-0.6,1-1.1,1.9-1.3,2.8c-0.4-0.6-0.9-1.1-1.5-1.4c1.1-0.7,1.7-1.8,1.7-3.4c0-3-2.3-5-5.8-5
		s-5.7,2.1-5.9,5.2h3.8c0.1-1.1,1-1.9,2.2-1.9s2,0.8,2,1.9c0,1.1-0.9,1.9-2.2,1.9h-1.4v3h1.4c1.5,0,2.5,0.7,2.5,1.9
		C14.2,22.1,13.2,22.9,11.9,22.9z M37.8,12.4c2.5,0,3.8,2.2,3.8,5.1c0,2.9-1.3,5.1-3.8,5.1c-2.5,0-3.8-2.2-3.8-5.1
		C34,14.6,35.3,12.4,37.8,12.4z M22,18.3l0.1-0.2c0.5-0.4,1.2-0.6,1.9-0.6c1.7,0,2.8,1.3,2.8,2.7c0,1.3-1.2,2.7-2.7,2.8
		c-1.7,0-2.9-1.3-2.9-2.7C21.2,19.7,21.4,19.1,22,18.3z"/>
	<path class="st0" d="M50,26.2l-11.6,6.5l2.6,2c-3.9,1.8-9.3,3-15.2,3.5c-6.1,0.5-11.9,0-16.3-1.4c-3.9-1.1-6.2-2.9-6.3-4.6
		c-0.1-1,0.6-2.1,2-3.2l-1.3-2.8c-2.5,1.9-4,4-3.8,6.2c0.4,6,11.5,9.7,25.8,8.7c7.1-0.5,13.3-2.1,17.7-4.4l2.9,2.3L50,26.2z"/>
</g>
</svg>
