<?xml version="1.0" encoding="utf-8"?>
<!-- Generator: Adobe Illustrator 23.0.1, SVG Export Plug-In . SVG Version: 6.00 Build 0)  -->
<svg version="1.1" id="Layer_1" xmlns="http://www.w3.org/2000/svg" xmlns:xlink="http://www.w3.org/1999/xlink" x="0px" y="0px"
	 viewBox="0 0 50 50" style="enable-background:new 0 0 50 50;" xml:space="preserve">
<style type="text/css">
	.st0{fill:#A19996;}
</style>
<g>
	<path class="st0" d="M26.3,27.6L47.7,9.4c-0.4-0.2-0.8-0.2-1.4-0.2H3.6c-0.5,0-0.9,0.1-1.4,0.2l21.6,18.2
		C24.5,28.2,25.6,28.2,26.3,27.6z"/>
	<path class="st0" d="M0,12.3c0,0.2,0,0.3,0,0.5v24.4c0,0.5,0.1,1,0.3,1.5l14.9-13.5L0,12.3z"/>
	<path class="st0" d="M49.9,12.3L34.8,25.1l14.9,13.5c0.2-0.4,0.3-0.9,0.3-1.5V12.7C49.9,12.6,49.9,12.4,49.9,12.3z"/>
	<path class="st0" d="M28.6,30.3c-2.1,1.8-5.2,1.8-7.3,0l-3.4-2.9L3.1,40.7c0.1,0,0.2,0,0.3,0h42.7c0.1,0,0.2,0,0.3,0L32,27.4
		L28.6,30.3z"/>
</g>
</svg>
