<?xml version="1.0" encoding="utf-8"?>
<!-- Generator: Adobe Illustrator 23.0.1, SVG Export Plug-In . SVG Version: 6.00 Build 0)  -->
<svg version="1.1" id="Layer_1" xmlns="http://www.w3.org/2000/svg" xmlns:xlink="http://www.w3.org/1999/xlink" x="0px" y="0px"
	 viewBox="272.6 395.9 50 50" style="enable-background:new 272.6 395.9 50 50;" xml:space="preserve">
<style type="text/css">
	.st0{fill:#8DD2CC;}
</style>
<path class="st0" d="M317.1,402.9h-3v-2.3c0-2.1-1.7-3.8-3.7-3.8c-2.1,0-3.8,1.7-3.8,3.8v2.3h-18v-2.3c0-2.1-1.7-3.8-3.7-3.8
	c-2.1,0-3.8,1.7-3.8,3.8v2.3h-3c-2.5,0-4.5,2-4.5,4.5l0,0v33c0,2.5,2,4.5,4.5,4.5h39c2.5,0,4.5-2,4.5-4.5v-33
	C321.6,405,319.6,402.9,317.1,402.9z M315.6,438.9h-36v-25.5h36V438.9z M284.1,422.4v-3c0-0.8,0.7-1.5,1.5-1.5h3
	c0.8,0,1.5,0.7,1.5,1.5v3c0,0.8-0.7,1.5-1.5,1.5h-3C284.8,423.9,284.1,423.3,284.1,422.4z M294.6,422.4v-3c0-0.8,0.7-1.5,1.5-1.5h3
	c0.8,0,1.5,0.7,1.5,1.5v3c0,0.8-0.7,1.5-1.5,1.5h-3C295.3,423.9,294.6,423.3,294.6,422.4z M305.1,422.4v-3c0-0.8,0.7-1.5,1.5-1.5h3
	c0.8,0,1.5,0.7,1.5,1.5v3c0,0.8-0.7,1.5-1.5,1.5h-3C305.8,423.9,305.1,423.3,305.1,422.4z M284.1,432.9v-3c0-0.8,0.7-1.5,1.5-1.5h3
	c0.8,0,1.5,0.7,1.5,1.5v3c0,0.8-0.7,1.5-1.5,1.5h-3C284.8,434.4,284.1,433.8,284.1,432.9z M294.6,432.9v-3c0-0.8,0.7-1.5,1.5-1.5h3
	c0.8,0,1.5,0.7,1.5,1.5v3c0,0.8-0.7,1.5-1.5,1.5h-3C295.3,434.4,294.6,433.8,294.6,432.9z"/>
</svg>
