<?xml version="1.0" encoding="utf-8"?>
<!-- Generator: Adobe Illustrator 23.0.1, SVG Export Plug-In . SVG Version: 6.00 Build 0)  -->
<svg version="1.1" id="Layer_1" xmlns="http://www.w3.org/2000/svg" xmlns:xlink="http://www.w3.org/1999/xlink" x="0px" y="0px"
	 viewBox="0 0 50 50" style="enable-background:new 0 0 50 50;" xml:space="preserve">
<style type="text/css">
	.st0{fill-rule:evenodd;clip-rule:evenodd;fill:#8DD2CC;}
</style>
<title>share</title>
<desc>Created with Sketch.</desc>
<path class="st0" d="M38.6,32.1c-2.5,0-4.7,1.1-6.2,2.8l-13-7.5c0.3-0.9,0.5-1.8,0.5-2.8c0-0.1,0-0.1,0-0.2l13.9-8
	c1.4,1,3.1,1.6,5,1.6c4.7,0,8.5-3.8,8.5-8.5S43.3,1,38.6,1c-4.7,0-8.5,3.8-8.5,8.5c0,0.8,0.1,1.5,0.3,2.2L17.8,19
	c-1.6-1.8-3.8-2.9-6.4-2.9c-4.7,0-8.5,3.8-8.5,8.5S6.7,33,11.4,33c1.6,0,3.1-0.5,4.4-1.3l14.4,8.3c0,0.2,0,0.3,0,0.5
	c0,4.7,3.8,8.5,8.5,8.5c4.7,0,8.5-3.8,8.5-8.5S43.3,32.1,38.6,32.1z"/>
</svg>
