<?xml version="1.0" encoding="utf-8"?>
<!-- Generator: Adobe Illustrator 23.0.1, SVG Export Plug-In . SVG Version: 6.00 Build 0)  -->
<svg version="1.1" id="Layer_1" xmlns="http://www.w3.org/2000/svg" xmlns:xlink="http://www.w3.org/1999/xlink" x="0px" y="0px"
	 viewBox="0 0 50 50" style="enable-background:new 0 0 50 50;" xml:space="preserve">
<style type="text/css">
	.st0{fill:#A19996;}
</style>
<g transform="translate(0,-952.36218)">
	<path class="st0" d="M3.6,961.6c-0.5,0-0.9,0.1-1.4,0.2L23.8,980c0.7,0.6,1.8,0.6,2.5,0l21.4-18.2c-0.4-0.2-0.8-0.2-1.4-0.2H3.6
		L3.6,961.6z M0,964.7c0,0.2,0,0.3,0,0.5v24.4c0,0.5,0.1,1,0.3,1.5l14.9-13.5L0,964.7L0,964.7z M49.9,964.7l-15.1,12.8l14.9,13.5
		c0.2-0.4,0.3-0.9,0.3-1.5v-24.4C49.9,965,49.9,964.8,49.9,964.7L49.9,964.7z M32,979.8l-3.4,2.9c-2.1,1.8-5.2,1.8-7.3,0l-3.4-2.9
		L3.1,993.1c0.1,0,0.2,0,0.3,0h42.7c0.1,0,0.2,0,0.3,0L32,979.8L32,979.8z"/>
</g>
</svg>
