<?xml version="1.0" encoding="utf-8"?>
<!-- Generator: Adobe Illustrator 23.0.1, SVG Export Plug-In . SVG Version: 6.00 Build 0)  -->
<svg version="1.1" id="Layer_1" xmlns="http://www.w3.org/2000/svg" xmlns:xlink="http://www.w3.org/1999/xlink" x="0px" y="0px"
	 viewBox="0 0 50 50" style="enable-background:new 0 0 50 50;" xml:space="preserve">
<style type="text/css">
	.st0{fill:#A19996;}
</style>
<path class="st0" d="M25,0C11.1,0,0,11.2,0,25c0,13.9,11.2,25,25,25c13.9,0,25-11.2,25-25S38.9,0,25,0z M40.5,37.1
	c-0.6,2.2-3.6,5.5-6.5,5.5l-0.2-0.1c-4.2-0.2-9.8-4.2-15.1-10.5l-1.9-2.3c-5.2-6.4-8-12.6-7.4-16.7c0.4-2.9,4.7-5.2,7.2-5.2
	c1.3,0,1.7,0.5,1.8,1c1.4,2.5,3.1,6.7,3.1,8.2v0.2c-0.3,0.7-1,1.3-1.6,1.6c-0.7,0.4-1.2,0.8-1.4,1.6c0,0.2,0.2,1.5,3.6,5.7l1.5,1.8
	c3.4,4.2,4.6,4.6,4.8,4.6c0.9,0.1,1.3-0.2,1.9-0.9c0.4-0.5,1-1.1,1.8-1.3h0.2c1.6,0.3,5.3,2.8,7.6,4.7C40.4,35,40.9,35.6,40.5,37.1
	L40.5,37.1z"/>
</svg>
